M48
; DRILL file KiCad 10.0.3-10.0.3~ubuntu24.04.1 date 2026-06-14T11:51:07
; FORMAT={-:-/ absolute / metric / decimal}
; #@! TF.CreationDate,2026-06-14T11:51:07-07:00
; #@! TF.GenerationSoftware,Kicad,Pcbnew,10.0.3-10.0.3~ubuntu24.04.1
; #@! TF.FileFunction,Plated,1,2,PTH
FMAT,2
METRIC
; #@! TA.AperFunction,Plated,PTH,ViaDrill
T1C0.250
; #@! TA.AperFunction,Plated,PTH,ViaDrill
T2C0.300
; #@! TA.AperFunction,Plated,PTH,ViaDrill
T3C0.350
; #@! TA.AperFunction,Plated,PTH,ComponentDrill
T4C1.016
%
G90
G05
T1
X125.1Y-120.1
T2
X118.501Y-121.504
X118.501Y-126.004
X118.501Y-131.504
X120.501Y-119.004
X120.501Y-126.004
X120.501Y-130.004
X121.5Y-118.4
X121.501Y-134.504
X121.501Y-136.254
X121.651Y-121.554
X121.701Y-112.704
X122.001Y-86.554
X122.251Y-127.004
X122.951Y-123.304
X123.951Y-122.454
X124.301Y-112.704
X124.6Y-116.0
X125.151Y-107.354
X125.201Y-86.554
X125.751Y-116.054
X125.751Y-117.9
X126.801Y-86.554
X128.351Y-107.354
X128.401Y-86.554
X129.951Y-103.254
X130.701Y-86.554
X131.6Y-107.5
X131.601Y-103.254
X131.651Y-129.754
X131.651Y-136.754
X132.201Y-116.704
X132.201Y-118.304
X133.0Y-121.1
X133.051Y-86.554
X133.051Y-127.354
X133.2Y-135.1
X133.901Y-103.604
X133.901Y-116.704
X133.901Y-118.304
X134.201Y-135.1
X134.451Y-125.754
X135.101Y-100.904
X135.101Y-103.604
X135.451Y-127.354
X135.601Y-86.554
X136.351Y-103.604
X136.351Y-109.604
X138.151Y-125.754
X138.151Y-127.354
X138.301Y-109.604
X139.251Y-100.854
X139.8Y-123.2
X140.551Y-102.154
X140.851Y-86.554
X141.051Y-126.754
X141.451Y-123.954
X143.701Y-113.104
X143.701Y-126.004
X144.001Y-86.554
X144.501Y-125.254
X144.801Y-113.104
X145.101Y-110.404
X145.101Y-111.404
X145.951Y-116.904
X148.551Y-116.904
X151.001Y-116.904
X153.401Y-113.754
X154.001Y-117.604
X155.201Y-115.254
X155.701Y-114.304
X156.001Y-116.004
X160.3Y-110.8
X161.1Y-116.0
X161.2Y-111.7
X161.2Y-117.3
X171.0Y-109.1
T3
X117.5Y-83.0
X119.451Y-82.7
X121.551Y-81.504
X121.751Y-97.754
X121.751Y-107.404
X124.251Y-81.504
X125.151Y-97.754
X126.751Y-97.754
X128.201Y-74.254
X128.351Y-97.754
X128.601Y-81.504
X129.501Y-76.754
X129.501Y-79.604
X129.951Y-97.754
X130.601Y-76.754
X130.701Y-79.154
X130.701Y-81.504
X130.751Y-74.254
X132.001Y-78.254
X132.201Y-97.754
X132.901Y-77.554
X133.251Y-74.254
X135.001Y-97.754
X135.751Y-74.254
X135.901Y-77.254
X138.251Y-74.254
X138.301Y-97.754
X138.301Y-105.854
X138.401Y-77.254
X140.501Y-117.754
X140.501Y-119.254
X141.001Y-74.254
X141.001Y-77.254
X141.151Y-97.754
X141.451Y-121.154
X141.701Y-118.504
X143.501Y-74.254
X143.501Y-77.254
X144.051Y-97.754
X145.501Y-74.254
X145.851Y-120.104
X146.651Y-135.754
X148.451Y-120.104
X150.501Y-74.254
X150.501Y-77.254
X151.001Y-118.504
X151.001Y-120.104
X151.251Y-86.554
X151.251Y-97.754
X153.501Y-120.104
X155.0Y-118.504
X155.001Y-119.504
X159.6Y-118.5
X162.3Y-77.254
X162.3Y-86.554
X162.3Y-97.754
X162.399Y-123.9
X170.6Y-123.7
X170.9Y-117.3
X171.751Y-86.554
X171.751Y-97.754
X181.501Y-86.549
T4
X115.8Y-81.83
X115.8Y-84.37
X124.391Y-72.204
X126.931Y-72.204
X129.471Y-72.204
X132.011Y-72.204
X134.551Y-72.204
X137.091Y-72.204
X139.631Y-72.204
X142.171Y-72.204
X144.711Y-72.204
X147.251Y-72.204
X169.6Y-114.2
X169.6Y-120.2
X172.14Y-114.2
X172.14Y-120.2
M30
