%TF.GenerationSoftware,KiCad,Pcbnew,10.0.3-10.0.3~ubuntu24.04.1*%
%TF.CreationDate,2026-06-14T11:51:18-07:00*%
%TF.ProjectId,Sound,536f756e-642e-46b6-9963-61645f706362,4*%
%TF.SameCoordinates,Original*%
%TF.FileFunction,Soldermask,Top*%
%TF.FilePolarity,Negative*%
%FSLAX46Y46*%
G04 Gerber Fmt 4.6, Leading zero omitted, Abs format (unit mm)*
G04 Created by KiCad (PCBNEW 10.0.3-10.0.3~ubuntu24.04.1) date 2026-06-14 11:51:18*
%MOMM*%
%LPD*%
G01*
G04 APERTURE LIST*
%ADD10C,0.010000*%
%ADD11C,0.000000*%
%ADD12R,1.000000X1.020000*%
%ADD13R,1.100000X1.000000*%
%ADD14R,1.000000X1.100000*%
%ADD15C,2.082800*%
%ADD16R,0.660400X0.711200*%
%ADD17R,0.711200X0.660400*%
%ADD18C,3.200000*%
%ADD19R,0.406400X0.800100*%
%ADD20R,0.660400X1.270000*%
%ADD21R,0.800000X0.800000*%
%ADD22C,1.100000*%
%ADD23R,2.500000X2.200000*%
%ADD24R,2.300000X2.200000*%
%ADD25C,1.700000*%
%ADD26R,2.800000X2.200000*%
%ADD27R,2.800000X2.800000*%
G04 APERTURE END LIST*
D10*
%TO.C,IC1*%
X134351100Y-116153600D02*
X134351100Y-118853600D01*
X131651100Y-118853600D01*
X131651100Y-116153600D01*
X134351100Y-116153600D01*
G36*
X134351100Y-118853600D02*
G01*
X131651100Y-118853600D01*
X131651100Y-116153600D01*
X134351100Y-116153600D01*
X134351100Y-118853600D01*
G37*
X130677100Y-115978600D02*
X131385100Y-115978600D01*
X131389100Y-115978600D01*
X131393100Y-115978600D01*
X131398100Y-115979600D01*
X131402100Y-115980600D01*
X131406100Y-115981600D01*
X131410100Y-115982600D01*
X131414100Y-115983600D01*
X131418100Y-115985600D01*
X131422100Y-115987600D01*
X131426100Y-115989600D01*
X131429100Y-115991600D01*
X131433100Y-115993600D01*
X131436100Y-115996600D01*
X131439100Y-115999600D01*
X131442100Y-116002600D01*
X131445100Y-116005600D01*
X131448100Y-116008600D01*
X131451100Y-116011600D01*
X131453100Y-116015600D01*
X131455100Y-116019600D01*
X131457100Y-116022600D01*
X131459100Y-116026600D01*
X131461100Y-116030600D01*
X131462100Y-116034600D01*
X131463100Y-116038600D01*
X131464100Y-116042600D01*
X131465100Y-116046600D01*
X131466100Y-116051600D01*
X131466100Y-116055600D01*
X131466100Y-116059600D01*
X131466100Y-116247600D01*
X131466100Y-116251600D01*
X131466100Y-116255600D01*
X131465100Y-116260600D01*
X131464100Y-116264600D01*
X131463100Y-116268600D01*
X131462100Y-116272600D01*
X131461100Y-116276600D01*
X131459100Y-116280600D01*
X131457100Y-116284600D01*
X131455100Y-116287600D01*
X131453100Y-116291600D01*
X131451100Y-116295600D01*
X131448100Y-116298600D01*
X131445100Y-116301600D01*
X131442100Y-116304600D01*
X131439100Y-116307600D01*
X131436100Y-116310600D01*
X131433100Y-116313600D01*
X131429100Y-116315600D01*
X131426100Y-116317600D01*
X131422100Y-116319600D01*
X131418100Y-116321600D01*
X131414100Y-116323600D01*
X131410100Y-116324600D01*
X131406100Y-116325600D01*
X131402100Y-116326600D01*
X131398100Y-116327600D01*
X131393100Y-116328600D01*
X131389100Y-116328600D01*
X131385100Y-116328600D01*
X130677100Y-116328600D01*
X130673100Y-116328600D01*
X130669100Y-116328600D01*
X130664100Y-116327600D01*
X130660100Y-116326600D01*
X130656100Y-116325600D01*
X130652100Y-116324600D01*
X130648100Y-116323600D01*
X130644100Y-116321600D01*
X130640100Y-116319600D01*
X130637100Y-116317600D01*
X130633100Y-116315600D01*
X130629100Y-116313600D01*
X130626100Y-116310600D01*
X130623100Y-116307600D01*
X130620100Y-116304600D01*
X130617100Y-116301600D01*
X130614100Y-116298600D01*
X130611100Y-116295600D01*
X130609100Y-116291600D01*
X130607100Y-116287600D01*
X130605100Y-116284600D01*
X130603100Y-116280600D01*
X130601100Y-116276600D01*
X130600100Y-116272600D01*
X130599100Y-116268600D01*
X130598100Y-116264600D01*
X130597100Y-116260600D01*
X130596100Y-116255600D01*
X130596100Y-116251600D01*
X130596100Y-116247600D01*
X130596100Y-116059600D01*
X130596100Y-116055600D01*
X130596100Y-116051600D01*
X130597100Y-116046600D01*
X130598100Y-116042600D01*
X130599100Y-116038600D01*
X130600100Y-116034600D01*
X130601100Y-116030600D01*
X130603100Y-116026600D01*
X130605100Y-116022600D01*
X130607100Y-116019600D01*
X130609100Y-116015600D01*
X130611100Y-116011600D01*
X130614100Y-116008600D01*
X130617100Y-116005600D01*
X130620100Y-116002600D01*
X130623100Y-115999600D01*
X130626100Y-115996600D01*
X130629100Y-115993600D01*
X130633100Y-115991600D01*
X130636100Y-115989600D01*
X130640100Y-115987600D01*
X130644100Y-115985600D01*
X130648100Y-115983600D01*
X130652100Y-115982600D01*
X130656100Y-115981600D01*
X130660100Y-115980600D01*
X130664100Y-115979600D01*
X130669100Y-115978600D01*
X130673100Y-115978600D01*
X130677100Y-115978600D01*
G36*
X131398100Y-115979600D02*
G01*
X131402100Y-115980600D01*
X131406100Y-115981600D01*
X131410100Y-115982600D01*
X131414100Y-115983600D01*
X131418100Y-115985600D01*
X131422100Y-115987600D01*
X131426100Y-115989600D01*
X131429100Y-115991600D01*
X131433100Y-115993600D01*
X131436100Y-115996600D01*
X131439100Y-115999600D01*
X131442100Y-116002600D01*
X131445100Y-116005600D01*
X131448100Y-116008600D01*
X131451100Y-116011600D01*
X131453100Y-116015600D01*
X131455100Y-116019600D01*
X131457100Y-116022600D01*
X131459100Y-116026600D01*
X131461100Y-116030600D01*
X131462100Y-116034600D01*
X131463100Y-116038600D01*
X131464100Y-116042600D01*
X131465100Y-116046600D01*
X131466100Y-116051600D01*
X131466100Y-116055600D01*
X131466100Y-116059600D01*
X131466100Y-116247600D01*
X131466100Y-116251600D01*
X131466100Y-116255600D01*
X131465100Y-116260600D01*
X131464100Y-116264600D01*
X131463100Y-116268600D01*
X131462100Y-116272600D01*
X131461100Y-116276600D01*
X131459100Y-116280600D01*
X131457100Y-116284600D01*
X131455100Y-116287600D01*
X131453100Y-116291600D01*
X131451100Y-116295600D01*
X131448100Y-116298600D01*
X131445100Y-116301600D01*
X131442100Y-116304600D01*
X131439100Y-116307600D01*
X131436100Y-116310600D01*
X131433100Y-116313600D01*
X131429100Y-116315600D01*
X131426100Y-116317600D01*
X131422100Y-116319600D01*
X131418100Y-116321600D01*
X131414100Y-116323600D01*
X131410100Y-116324600D01*
X131406100Y-116325600D01*
X131402100Y-116326600D01*
X131398100Y-116327600D01*
X131393100Y-116328600D01*
X131389100Y-116328600D01*
X131385100Y-116328600D01*
X130677100Y-116328600D01*
X130673100Y-116328600D01*
X130669100Y-116328600D01*
X130664100Y-116327600D01*
X130660100Y-116326600D01*
X130656100Y-116325600D01*
X130652100Y-116324600D01*
X130648100Y-116323600D01*
X130644100Y-116321600D01*
X130640100Y-116319600D01*
X130637100Y-116317600D01*
X130633100Y-116315600D01*
X130629100Y-116313600D01*
X130626100Y-116310600D01*
X130623100Y-116307600D01*
X130620100Y-116304600D01*
X130617100Y-116301600D01*
X130614100Y-116298600D01*
X130611100Y-116295600D01*
X130609100Y-116291600D01*
X130607100Y-116287600D01*
X130605100Y-116284600D01*
X130603100Y-116280600D01*
X130601100Y-116276600D01*
X130600100Y-116272600D01*
X130599100Y-116268600D01*
X130598100Y-116264600D01*
X130597100Y-116260600D01*
X130596100Y-116255600D01*
X130596100Y-116251600D01*
X130596100Y-116247600D01*
X130596100Y-116059600D01*
X130596100Y-116055600D01*
X130596100Y-116051600D01*
X130597100Y-116046600D01*
X130598100Y-116042600D01*
X130599100Y-116038600D01*
X130600100Y-116034600D01*
X130601100Y-116030600D01*
X130603100Y-116026600D01*
X130605100Y-116022600D01*
X130607100Y-116019600D01*
X130609100Y-116015600D01*
X130611100Y-116011600D01*
X130614100Y-116008600D01*
X130617100Y-116005600D01*
X130620100Y-116002600D01*
X130623100Y-115999600D01*
X130626100Y-115996600D01*
X130629100Y-115993600D01*
X130633100Y-115991600D01*
X130636100Y-115989600D01*
X130640100Y-115987600D01*
X130644100Y-115985600D01*
X130648100Y-115983600D01*
X130652100Y-115982600D01*
X130656100Y-115981600D01*
X130660100Y-115980600D01*
X130664100Y-115979600D01*
X130669100Y-115978600D01*
X130673100Y-115978600D01*
X130677100Y-115978600D01*
X131385100Y-115978600D01*
X131389100Y-115978600D01*
X131393100Y-115978600D01*
X131398100Y-115979600D01*
G37*
X130677100Y-116428600D02*
X131385100Y-116428600D01*
X131389100Y-116428600D01*
X131393100Y-116428600D01*
X131398100Y-116429600D01*
X131402100Y-116430600D01*
X131406100Y-116431600D01*
X131410100Y-116432600D01*
X131414100Y-116433600D01*
X131418100Y-116435600D01*
X131422100Y-116437600D01*
X131426100Y-116439600D01*
X131429100Y-116441600D01*
X131433100Y-116443600D01*
X131436100Y-116446600D01*
X131439100Y-116449600D01*
X131442100Y-116452600D01*
X131445100Y-116455600D01*
X131448100Y-116458600D01*
X131451100Y-116461600D01*
X131453100Y-116465600D01*
X131455100Y-116469600D01*
X131457100Y-116472600D01*
X131459100Y-116476600D01*
X131461100Y-116480600D01*
X131462100Y-116484600D01*
X131463100Y-116488600D01*
X131464100Y-116492600D01*
X131465100Y-116496600D01*
X131466100Y-116501600D01*
X131466100Y-116505600D01*
X131466100Y-116509600D01*
X131466100Y-116697600D01*
X131466100Y-116701600D01*
X131466100Y-116705600D01*
X131465100Y-116710600D01*
X131464100Y-116714600D01*
X131463100Y-116718600D01*
X131462100Y-116722600D01*
X131461100Y-116726600D01*
X131459100Y-116730600D01*
X131457100Y-116734600D01*
X131455100Y-116737600D01*
X131453100Y-116741600D01*
X131451100Y-116745600D01*
X131448100Y-116748600D01*
X131445100Y-116751600D01*
X131442100Y-116754600D01*
X131439100Y-116757600D01*
X131436100Y-116760600D01*
X131433100Y-116763600D01*
X131429100Y-116765600D01*
X131426100Y-116767600D01*
X131422100Y-116769600D01*
X131418100Y-116771600D01*
X131414100Y-116773600D01*
X131410100Y-116774600D01*
X131406100Y-116775600D01*
X131402100Y-116776600D01*
X131398100Y-116777600D01*
X131393100Y-116778600D01*
X131389100Y-116778600D01*
X131385100Y-116778600D01*
X130677100Y-116778600D01*
X130673100Y-116778600D01*
X130669100Y-116778600D01*
X130664100Y-116777600D01*
X130660100Y-116776600D01*
X130656100Y-116775600D01*
X130652100Y-116774600D01*
X130648100Y-116773600D01*
X130644100Y-116771600D01*
X130640100Y-116769600D01*
X130637100Y-116767600D01*
X130633100Y-116765600D01*
X130629100Y-116763600D01*
X130626100Y-116760600D01*
X130623100Y-116757600D01*
X130620100Y-116754600D01*
X130617100Y-116751600D01*
X130614100Y-116748600D01*
X130611100Y-116745600D01*
X130609100Y-116741600D01*
X130607100Y-116737600D01*
X130605100Y-116734600D01*
X130603100Y-116730600D01*
X130601100Y-116726600D01*
X130600100Y-116722600D01*
X130599100Y-116718600D01*
X130598100Y-116714600D01*
X130597100Y-116710600D01*
X130596100Y-116705600D01*
X130596100Y-116701600D01*
X130596100Y-116697600D01*
X130596100Y-116509600D01*
X130596100Y-116505600D01*
X130596100Y-116501600D01*
X130597100Y-116496600D01*
X130598100Y-116492600D01*
X130599100Y-116488600D01*
X130600100Y-116484600D01*
X130601100Y-116480600D01*
X130603100Y-116476600D01*
X130605100Y-116472600D01*
X130607100Y-116469600D01*
X130609100Y-116465600D01*
X130611100Y-116461600D01*
X130614100Y-116458600D01*
X130617100Y-116455600D01*
X130620100Y-116452600D01*
X130623100Y-116449600D01*
X130626100Y-116446600D01*
X130629100Y-116443600D01*
X130633100Y-116441600D01*
X130636100Y-116439600D01*
X130640100Y-116437600D01*
X130644100Y-116435600D01*
X130648100Y-116433600D01*
X130652100Y-116432600D01*
X130656100Y-116431600D01*
X130660100Y-116430600D01*
X130664100Y-116429600D01*
X130669100Y-116428600D01*
X130673100Y-116428600D01*
X130677100Y-116428600D01*
G36*
X131398100Y-116429600D02*
G01*
X131402100Y-116430600D01*
X131406100Y-116431600D01*
X131410100Y-116432600D01*
X131414100Y-116433600D01*
X131418100Y-116435600D01*
X131422100Y-116437600D01*
X131426100Y-116439600D01*
X131429100Y-116441600D01*
X131433100Y-116443600D01*
X131436100Y-116446600D01*
X131439100Y-116449600D01*
X131442100Y-116452600D01*
X131445100Y-116455600D01*
X131448100Y-116458600D01*
X131451100Y-116461600D01*
X131453100Y-116465600D01*
X131455100Y-116469600D01*
X131457100Y-116472600D01*
X131459100Y-116476600D01*
X131461100Y-116480600D01*
X131462100Y-116484600D01*
X131463100Y-116488600D01*
X131464100Y-116492600D01*
X131465100Y-116496600D01*
X131466100Y-116501600D01*
X131466100Y-116505600D01*
X131466100Y-116509600D01*
X131466100Y-116697600D01*
X131466100Y-116701600D01*
X131466100Y-116705600D01*
X131465100Y-116710600D01*
X131464100Y-116714600D01*
X131463100Y-116718600D01*
X131462100Y-116722600D01*
X131461100Y-116726600D01*
X131459100Y-116730600D01*
X131457100Y-116734600D01*
X131455100Y-116737600D01*
X131453100Y-116741600D01*
X131451100Y-116745600D01*
X131448100Y-116748600D01*
X131445100Y-116751600D01*
X131442100Y-116754600D01*
X131439100Y-116757600D01*
X131436100Y-116760600D01*
X131433100Y-116763600D01*
X131429100Y-116765600D01*
X131426100Y-116767600D01*
X131422100Y-116769600D01*
X131418100Y-116771600D01*
X131414100Y-116773600D01*
X131410100Y-116774600D01*
X131406100Y-116775600D01*
X131402100Y-116776600D01*
X131398100Y-116777600D01*
X131393100Y-116778600D01*
X131389100Y-116778600D01*
X131385100Y-116778600D01*
X130677100Y-116778600D01*
X130673100Y-116778600D01*
X130669100Y-116778600D01*
X130664100Y-116777600D01*
X130660100Y-116776600D01*
X130656100Y-116775600D01*
X130652100Y-116774600D01*
X130648100Y-116773600D01*
X130644100Y-116771600D01*
X130640100Y-116769600D01*
X130637100Y-116767600D01*
X130633100Y-116765600D01*
X130629100Y-116763600D01*
X130626100Y-116760600D01*
X130623100Y-116757600D01*
X130620100Y-116754600D01*
X130617100Y-116751600D01*
X130614100Y-116748600D01*
X130611100Y-116745600D01*
X130609100Y-116741600D01*
X130607100Y-116737600D01*
X130605100Y-116734600D01*
X130603100Y-116730600D01*
X130601100Y-116726600D01*
X130600100Y-116722600D01*
X130599100Y-116718600D01*
X130598100Y-116714600D01*
X130597100Y-116710600D01*
X130596100Y-116705600D01*
X130596100Y-116701600D01*
X130596100Y-116697600D01*
X130596100Y-116509600D01*
X130596100Y-116505600D01*
X130596100Y-116501600D01*
X130597100Y-116496600D01*
X130598100Y-116492600D01*
X130599100Y-116488600D01*
X130600100Y-116484600D01*
X130601100Y-116480600D01*
X130603100Y-116476600D01*
X130605100Y-116472600D01*
X130607100Y-116469600D01*
X130609100Y-116465600D01*
X130611100Y-116461600D01*
X130614100Y-116458600D01*
X130617100Y-116455600D01*
X130620100Y-116452600D01*
X130623100Y-116449600D01*
X130626100Y-116446600D01*
X130629100Y-116443600D01*
X130633100Y-116441600D01*
X130636100Y-116439600D01*
X130640100Y-116437600D01*
X130644100Y-116435600D01*
X130648100Y-116433600D01*
X130652100Y-116432600D01*
X130656100Y-116431600D01*
X130660100Y-116430600D01*
X130664100Y-116429600D01*
X130669100Y-116428600D01*
X130673100Y-116428600D01*
X130677100Y-116428600D01*
X131385100Y-116428600D01*
X131389100Y-116428600D01*
X131393100Y-116428600D01*
X131398100Y-116429600D01*
G37*
X130677100Y-116878600D02*
X131385100Y-116878600D01*
X131389100Y-116878600D01*
X131393100Y-116878600D01*
X131398100Y-116879600D01*
X131402100Y-116880600D01*
X131406100Y-116881600D01*
X131410100Y-116882600D01*
X131414100Y-116883600D01*
X131418100Y-116885600D01*
X131422100Y-116887600D01*
X131426100Y-116889600D01*
X131429100Y-116891600D01*
X131433100Y-116893600D01*
X131436100Y-116896600D01*
X131439100Y-116899600D01*
X131442100Y-116902600D01*
X131445100Y-116905600D01*
X131448100Y-116908600D01*
X131451100Y-116911600D01*
X131453100Y-116915600D01*
X131455100Y-116919600D01*
X131457100Y-116922600D01*
X131459100Y-116926600D01*
X131461100Y-116930600D01*
X131462100Y-116934600D01*
X131463100Y-116938600D01*
X131464100Y-116942600D01*
X131465100Y-116946600D01*
X131466100Y-116951600D01*
X131466100Y-116955600D01*
X131466100Y-116959600D01*
X131466100Y-117147600D01*
X131466100Y-117151600D01*
X131466100Y-117155600D01*
X131465100Y-117160600D01*
X131464100Y-117164600D01*
X131463100Y-117168600D01*
X131462100Y-117172600D01*
X131461100Y-117176600D01*
X131459100Y-117180600D01*
X131457100Y-117184600D01*
X131455100Y-117187600D01*
X131453100Y-117191600D01*
X131451100Y-117195600D01*
X131448100Y-117198600D01*
X131445100Y-117201600D01*
X131442100Y-117204600D01*
X131439100Y-117207600D01*
X131436100Y-117210600D01*
X131433100Y-117213600D01*
X131429100Y-117215600D01*
X131426100Y-117217600D01*
X131422100Y-117219600D01*
X131418100Y-117221600D01*
X131414100Y-117223600D01*
X131410100Y-117224600D01*
X131406100Y-117225600D01*
X131402100Y-117226600D01*
X131398100Y-117227600D01*
X131393100Y-117228600D01*
X131389100Y-117228600D01*
X131385100Y-117228600D01*
X130677100Y-117228600D01*
X130673100Y-117228600D01*
X130669100Y-117228600D01*
X130664100Y-117227600D01*
X130660100Y-117226600D01*
X130656100Y-117225600D01*
X130652100Y-117224600D01*
X130648100Y-117223600D01*
X130644100Y-117221600D01*
X130640100Y-117219600D01*
X130637100Y-117217600D01*
X130633100Y-117215600D01*
X130629100Y-117213600D01*
X130626100Y-117210600D01*
X130623100Y-117207600D01*
X130620100Y-117204600D01*
X130617100Y-117201600D01*
X130614100Y-117198600D01*
X130611100Y-117195600D01*
X130609100Y-117191600D01*
X130607100Y-117187600D01*
X130605100Y-117184600D01*
X130603100Y-117180600D01*
X130601100Y-117176600D01*
X130600100Y-117172600D01*
X130599100Y-117168600D01*
X130598100Y-117164600D01*
X130597100Y-117160600D01*
X130596100Y-117155600D01*
X130596100Y-117151600D01*
X130596100Y-117147600D01*
X130596100Y-116959600D01*
X130596100Y-116955600D01*
X130596100Y-116951600D01*
X130597100Y-116946600D01*
X130598100Y-116942600D01*
X130599100Y-116938600D01*
X130600100Y-116934600D01*
X130601100Y-116930600D01*
X130603100Y-116926600D01*
X130605100Y-116922600D01*
X130607100Y-116918600D01*
X130609100Y-116915600D01*
X130611100Y-116911600D01*
X130614100Y-116908600D01*
X130617100Y-116905600D01*
X130620100Y-116902600D01*
X130623100Y-116899600D01*
X130626100Y-116896600D01*
X130629100Y-116893600D01*
X130633100Y-116891600D01*
X130636100Y-116889600D01*
X130640100Y-116887600D01*
X130644100Y-116885600D01*
X130648100Y-116883600D01*
X130652100Y-116882600D01*
X130656100Y-116881600D01*
X130660100Y-116880600D01*
X130664100Y-116879600D01*
X130669100Y-116878600D01*
X130673100Y-116878600D01*
X130677100Y-116878600D01*
G36*
X131398100Y-116879600D02*
G01*
X131402100Y-116880600D01*
X131406100Y-116881600D01*
X131410100Y-116882600D01*
X131414100Y-116883600D01*
X131418100Y-116885600D01*
X131422100Y-116887600D01*
X131426100Y-116889600D01*
X131429100Y-116891600D01*
X131433100Y-116893600D01*
X131436100Y-116896600D01*
X131439100Y-116899600D01*
X131442100Y-116902600D01*
X131445100Y-116905600D01*
X131448100Y-116908600D01*
X131451100Y-116911600D01*
X131453100Y-116915600D01*
X131455100Y-116919600D01*
X131457100Y-116922600D01*
X131459100Y-116926600D01*
X131461100Y-116930600D01*
X131462100Y-116934600D01*
X131463100Y-116938600D01*
X131464100Y-116942600D01*
X131465100Y-116946600D01*
X131466100Y-116951600D01*
X131466100Y-116955600D01*
X131466100Y-116959600D01*
X131466100Y-117147600D01*
X131466100Y-117151600D01*
X131466100Y-117155600D01*
X131465100Y-117160600D01*
X131464100Y-117164600D01*
X131463100Y-117168600D01*
X131462100Y-117172600D01*
X131461100Y-117176600D01*
X131459100Y-117180600D01*
X131457100Y-117184600D01*
X131455100Y-117187600D01*
X131453100Y-117191600D01*
X131451100Y-117195600D01*
X131448100Y-117198600D01*
X131445100Y-117201600D01*
X131442100Y-117204600D01*
X131439100Y-117207600D01*
X131436100Y-117210600D01*
X131433100Y-117213600D01*
X131429100Y-117215600D01*
X131426100Y-117217600D01*
X131422100Y-117219600D01*
X131418100Y-117221600D01*
X131414100Y-117223600D01*
X131410100Y-117224600D01*
X131406100Y-117225600D01*
X131402100Y-117226600D01*
X131398100Y-117227600D01*
X131393100Y-117228600D01*
X131389100Y-117228600D01*
X131385100Y-117228600D01*
X130677100Y-117228600D01*
X130673100Y-117228600D01*
X130669100Y-117228600D01*
X130664100Y-117227600D01*
X130660100Y-117226600D01*
X130656100Y-117225600D01*
X130652100Y-117224600D01*
X130648100Y-117223600D01*
X130644100Y-117221600D01*
X130640100Y-117219600D01*
X130637100Y-117217600D01*
X130633100Y-117215600D01*
X130629100Y-117213600D01*
X130626100Y-117210600D01*
X130623100Y-117207600D01*
X130620100Y-117204600D01*
X130617100Y-117201600D01*
X130614100Y-117198600D01*
X130611100Y-117195600D01*
X130609100Y-117191600D01*
X130607100Y-117187600D01*
X130605100Y-117184600D01*
X130603100Y-117180600D01*
X130601100Y-117176600D01*
X130600100Y-117172600D01*
X130599100Y-117168600D01*
X130598100Y-117164600D01*
X130597100Y-117160600D01*
X130596100Y-117155600D01*
X130596100Y-117151600D01*
X130596100Y-117147600D01*
X130596100Y-116959600D01*
X130596100Y-116955600D01*
X130596100Y-116951600D01*
X130597100Y-116946600D01*
X130598100Y-116942600D01*
X130599100Y-116938600D01*
X130600100Y-116934600D01*
X130601100Y-116930600D01*
X130603100Y-116926600D01*
X130605100Y-116922600D01*
X130607100Y-116918600D01*
X130609100Y-116915600D01*
X130611100Y-116911600D01*
X130614100Y-116908600D01*
X130617100Y-116905600D01*
X130620100Y-116902600D01*
X130623100Y-116899600D01*
X130626100Y-116896600D01*
X130629100Y-116893600D01*
X130633100Y-116891600D01*
X130636100Y-116889600D01*
X130640100Y-116887600D01*
X130644100Y-116885600D01*
X130648100Y-116883600D01*
X130652100Y-116882600D01*
X130656100Y-116881600D01*
X130660100Y-116880600D01*
X130664100Y-116879600D01*
X130669100Y-116878600D01*
X130673100Y-116878600D01*
X130677100Y-116878600D01*
X131385100Y-116878600D01*
X131389100Y-116878600D01*
X131393100Y-116878600D01*
X131398100Y-116879600D01*
G37*
X130677100Y-117328600D02*
X131385100Y-117328600D01*
X131389100Y-117328600D01*
X131393100Y-117328600D01*
X131398100Y-117329600D01*
X131402100Y-117330600D01*
X131406100Y-117331600D01*
X131410100Y-117332600D01*
X131414100Y-117333600D01*
X131418100Y-117335600D01*
X131422100Y-117337600D01*
X131426100Y-117339600D01*
X131429100Y-117341600D01*
X131433100Y-117343600D01*
X131436100Y-117346600D01*
X131439100Y-117349600D01*
X131442100Y-117352600D01*
X131445100Y-117355600D01*
X131448100Y-117358600D01*
X131451100Y-117361600D01*
X131453100Y-117365600D01*
X131455100Y-117369600D01*
X131457100Y-117372600D01*
X131459100Y-117376600D01*
X131461100Y-117380600D01*
X131462100Y-117384600D01*
X131463100Y-117388600D01*
X131464100Y-117392600D01*
X131465100Y-117396600D01*
X131466100Y-117401600D01*
X131466100Y-117405600D01*
X131466100Y-117409600D01*
X131466100Y-117597600D01*
X131466100Y-117601600D01*
X131466100Y-117605600D01*
X131465100Y-117610600D01*
X131464100Y-117614600D01*
X131463100Y-117618600D01*
X131462100Y-117622600D01*
X131461100Y-117626600D01*
X131459100Y-117630600D01*
X131457100Y-117634600D01*
X131455100Y-117637600D01*
X131453100Y-117641600D01*
X131451100Y-117645600D01*
X131448100Y-117648600D01*
X131445100Y-117651600D01*
X131442100Y-117654600D01*
X131439100Y-117657600D01*
X131436100Y-117660600D01*
X131433100Y-117663600D01*
X131429100Y-117665600D01*
X131426100Y-117667600D01*
X131422100Y-117669600D01*
X131418100Y-117671600D01*
X131414100Y-117673600D01*
X131410100Y-117674600D01*
X131406100Y-117675600D01*
X131402100Y-117676600D01*
X131398100Y-117677600D01*
X131393100Y-117678600D01*
X131389100Y-117678600D01*
X131385100Y-117678600D01*
X130677100Y-117678600D01*
X130673100Y-117678600D01*
X130669100Y-117678600D01*
X130664100Y-117677600D01*
X130660100Y-117676600D01*
X130656100Y-117675600D01*
X130652100Y-117674600D01*
X130648100Y-117673600D01*
X130644100Y-117671600D01*
X130640100Y-117669600D01*
X130637100Y-117667600D01*
X130633100Y-117665600D01*
X130629100Y-117663600D01*
X130626100Y-117660600D01*
X130623100Y-117657600D01*
X130620100Y-117654600D01*
X130617100Y-117651600D01*
X130614100Y-117648600D01*
X130611100Y-117645600D01*
X130609100Y-117641600D01*
X130607100Y-117638600D01*
X130605100Y-117634600D01*
X130603100Y-117630600D01*
X130601100Y-117626600D01*
X130600100Y-117622600D01*
X130599100Y-117618600D01*
X130598100Y-117614600D01*
X130597100Y-117610600D01*
X130596100Y-117605600D01*
X130596100Y-117601600D01*
X130596100Y-117597600D01*
X130596100Y-117409600D01*
X130596100Y-117405600D01*
X130596100Y-117401600D01*
X130597100Y-117396600D01*
X130598100Y-117392600D01*
X130599100Y-117388600D01*
X130600100Y-117384600D01*
X130601100Y-117380600D01*
X130603100Y-117376600D01*
X130605100Y-117372600D01*
X130607100Y-117368600D01*
X130609100Y-117365600D01*
X130611100Y-117361600D01*
X130614100Y-117358600D01*
X130617100Y-117355600D01*
X130620100Y-117352600D01*
X130623100Y-117349600D01*
X130626100Y-117346600D01*
X130629100Y-117343600D01*
X130633100Y-117341600D01*
X130637100Y-117339600D01*
X130640100Y-117337600D01*
X130644100Y-117335600D01*
X130648100Y-117333600D01*
X130652100Y-117332600D01*
X130656100Y-117331600D01*
X130660100Y-117330600D01*
X130664100Y-117329600D01*
X130669100Y-117328600D01*
X130673100Y-117328600D01*
X130677100Y-117328600D01*
G36*
X131398100Y-117329600D02*
G01*
X131402100Y-117330600D01*
X131406100Y-117331600D01*
X131410100Y-117332600D01*
X131414100Y-117333600D01*
X131418100Y-117335600D01*
X131422100Y-117337600D01*
X131426100Y-117339600D01*
X131429100Y-117341600D01*
X131433100Y-117343600D01*
X131436100Y-117346600D01*
X131439100Y-117349600D01*
X131442100Y-117352600D01*
X131445100Y-117355600D01*
X131448100Y-117358600D01*
X131451100Y-117361600D01*
X131453100Y-117365600D01*
X131455100Y-117369600D01*
X131457100Y-117372600D01*
X131459100Y-117376600D01*
X131461100Y-117380600D01*
X131462100Y-117384600D01*
X131463100Y-117388600D01*
X131464100Y-117392600D01*
X131465100Y-117396600D01*
X131466100Y-117401600D01*
X131466100Y-117405600D01*
X131466100Y-117409600D01*
X131466100Y-117597600D01*
X131466100Y-117601600D01*
X131466100Y-117605600D01*
X131465100Y-117610600D01*
X131464100Y-117614600D01*
X131463100Y-117618600D01*
X131462100Y-117622600D01*
X131461100Y-117626600D01*
X131459100Y-117630600D01*
X131457100Y-117634600D01*
X131455100Y-117637600D01*
X131453100Y-117641600D01*
X131451100Y-117645600D01*
X131448100Y-117648600D01*
X131445100Y-117651600D01*
X131442100Y-117654600D01*
X131439100Y-117657600D01*
X131436100Y-117660600D01*
X131433100Y-117663600D01*
X131429100Y-117665600D01*
X131426100Y-117667600D01*
X131422100Y-117669600D01*
X131418100Y-117671600D01*
X131414100Y-117673600D01*
X131410100Y-117674600D01*
X131406100Y-117675600D01*
X131402100Y-117676600D01*
X131398100Y-117677600D01*
X131393100Y-117678600D01*
X131389100Y-117678600D01*
X131385100Y-117678600D01*
X130677100Y-117678600D01*
X130673100Y-117678600D01*
X130669100Y-117678600D01*
X130664100Y-117677600D01*
X130660100Y-117676600D01*
X130656100Y-117675600D01*
X130652100Y-117674600D01*
X130648100Y-117673600D01*
X130644100Y-117671600D01*
X130640100Y-117669600D01*
X130637100Y-117667600D01*
X130633100Y-117665600D01*
X130629100Y-117663600D01*
X130626100Y-117660600D01*
X130623100Y-117657600D01*
X130620100Y-117654600D01*
X130617100Y-117651600D01*
X130614100Y-117648600D01*
X130611100Y-117645600D01*
X130609100Y-117641600D01*
X130607100Y-117638600D01*
X130605100Y-117634600D01*
X130603100Y-117630600D01*
X130601100Y-117626600D01*
X130600100Y-117622600D01*
X130599100Y-117618600D01*
X130598100Y-117614600D01*
X130597100Y-117610600D01*
X130596100Y-117605600D01*
X130596100Y-117601600D01*
X130596100Y-117597600D01*
X130596100Y-117409600D01*
X130596100Y-117405600D01*
X130596100Y-117401600D01*
X130597100Y-117396600D01*
X130598100Y-117392600D01*
X130599100Y-117388600D01*
X130600100Y-117384600D01*
X130601100Y-117380600D01*
X130603100Y-117376600D01*
X130605100Y-117372600D01*
X130607100Y-117368600D01*
X130609100Y-117365600D01*
X130611100Y-117361600D01*
X130614100Y-117358600D01*
X130617100Y-117355600D01*
X130620100Y-117352600D01*
X130623100Y-117349600D01*
X130626100Y-117346600D01*
X130629100Y-117343600D01*
X130633100Y-117341600D01*
X130637100Y-117339600D01*
X130640100Y-117337600D01*
X130644100Y-117335600D01*
X130648100Y-117333600D01*
X130652100Y-117332600D01*
X130656100Y-117331600D01*
X130660100Y-117330600D01*
X130664100Y-117329600D01*
X130669100Y-117328600D01*
X130673100Y-117328600D01*
X130677100Y-117328600D01*
X131385100Y-117328600D01*
X131389100Y-117328600D01*
X131393100Y-117328600D01*
X131398100Y-117329600D01*
G37*
X130677100Y-117778600D02*
X131385100Y-117778600D01*
X131389100Y-117778600D01*
X131393100Y-117778600D01*
X131398100Y-117779600D01*
X131402100Y-117780600D01*
X131406100Y-117781600D01*
X131410100Y-117782600D01*
X131414100Y-117783600D01*
X131418100Y-117785600D01*
X131422100Y-117787600D01*
X131426100Y-117789600D01*
X131429100Y-117791600D01*
X131433100Y-117793600D01*
X131436100Y-117796600D01*
X131439100Y-117799600D01*
X131442100Y-117802600D01*
X131445100Y-117805600D01*
X131448100Y-117808600D01*
X131451100Y-117811600D01*
X131453100Y-117815600D01*
X131455100Y-117819600D01*
X131457100Y-117822600D01*
X131459100Y-117826600D01*
X131461100Y-117830600D01*
X131462100Y-117834600D01*
X131463100Y-117838600D01*
X131464100Y-117842600D01*
X131465100Y-117846600D01*
X131466100Y-117851600D01*
X131466100Y-117855600D01*
X131466100Y-117859600D01*
X131466100Y-118047600D01*
X131466100Y-118051600D01*
X131466100Y-118055600D01*
X131465100Y-118060600D01*
X131464100Y-118064600D01*
X131463100Y-118068600D01*
X131462100Y-118072600D01*
X131461100Y-118076600D01*
X131459100Y-118080600D01*
X131457100Y-118084600D01*
X131455100Y-118088600D01*
X131453100Y-118091600D01*
X131451100Y-118095600D01*
X131448100Y-118098600D01*
X131445100Y-118101600D01*
X131442100Y-118104600D01*
X131439100Y-118107600D01*
X131436100Y-118110600D01*
X131433100Y-118113600D01*
X131429100Y-118115600D01*
X131426100Y-118117600D01*
X131422100Y-118119600D01*
X131418100Y-118121600D01*
X131414100Y-118123600D01*
X131410100Y-118124600D01*
X131406100Y-118125600D01*
X131402100Y-118126600D01*
X131398100Y-118127600D01*
X131393100Y-118128600D01*
X131389100Y-118128600D01*
X131385100Y-118128600D01*
X130677100Y-118128600D01*
X130673100Y-118128600D01*
X130669100Y-118128600D01*
X130664100Y-118127600D01*
X130660100Y-118126600D01*
X130656100Y-118125600D01*
X130652100Y-118124600D01*
X130648100Y-118123600D01*
X130644100Y-118121600D01*
X130640100Y-118119600D01*
X130637100Y-118117600D01*
X130633100Y-118115600D01*
X130629100Y-118113600D01*
X130626100Y-118110600D01*
X130623100Y-118107600D01*
X130620100Y-118104600D01*
X130617100Y-118101600D01*
X130614100Y-118098600D01*
X130611100Y-118095600D01*
X130609100Y-118091600D01*
X130607100Y-118088600D01*
X130605100Y-118084600D01*
X130603100Y-118080600D01*
X130601100Y-118076600D01*
X130600100Y-118072600D01*
X130599100Y-118068600D01*
X130598100Y-118064600D01*
X130597100Y-118060600D01*
X130596100Y-118055600D01*
X130596100Y-118051600D01*
X130596100Y-118047600D01*
X130596100Y-117859600D01*
X130596100Y-117855600D01*
X130596100Y-117851600D01*
X130597100Y-117846600D01*
X130598100Y-117842600D01*
X130599100Y-117838600D01*
X130600100Y-117834600D01*
X130601100Y-117830600D01*
X130603100Y-117826600D01*
X130605100Y-117822600D01*
X130607100Y-117818600D01*
X130609100Y-117815600D01*
X130611100Y-117811600D01*
X130614100Y-117808600D01*
X130617100Y-117805600D01*
X130620100Y-117802600D01*
X130623100Y-117799600D01*
X130626100Y-117796600D01*
X130629100Y-117793600D01*
X130633100Y-117791600D01*
X130636100Y-117789600D01*
X130640100Y-117787600D01*
X130644100Y-117785600D01*
X130648100Y-117783600D01*
X130652100Y-117782600D01*
X130656100Y-117781600D01*
X130660100Y-117780600D01*
X130664100Y-117779600D01*
X130669100Y-117778600D01*
X130673100Y-117778600D01*
X130677100Y-117778600D01*
G36*
X131398100Y-117779600D02*
G01*
X131402100Y-117780600D01*
X131406100Y-117781600D01*
X131410100Y-117782600D01*
X131414100Y-117783600D01*
X131418100Y-117785600D01*
X131422100Y-117787600D01*
X131426100Y-117789600D01*
X131429100Y-117791600D01*
X131433100Y-117793600D01*
X131436100Y-117796600D01*
X131439100Y-117799600D01*
X131442100Y-117802600D01*
X131445100Y-117805600D01*
X131448100Y-117808600D01*
X131451100Y-117811600D01*
X131453100Y-117815600D01*
X131455100Y-117819600D01*
X131457100Y-117822600D01*
X131459100Y-117826600D01*
X131461100Y-117830600D01*
X131462100Y-117834600D01*
X131463100Y-117838600D01*
X131464100Y-117842600D01*
X131465100Y-117846600D01*
X131466100Y-117851600D01*
X131466100Y-117855600D01*
X131466100Y-117859600D01*
X131466100Y-118047600D01*
X131466100Y-118051600D01*
X131466100Y-118055600D01*
X131465100Y-118060600D01*
X131464100Y-118064600D01*
X131463100Y-118068600D01*
X131462100Y-118072600D01*
X131461100Y-118076600D01*
X131459100Y-118080600D01*
X131457100Y-118084600D01*
X131455100Y-118088600D01*
X131453100Y-118091600D01*
X131451100Y-118095600D01*
X131448100Y-118098600D01*
X131445100Y-118101600D01*
X131442100Y-118104600D01*
X131439100Y-118107600D01*
X131436100Y-118110600D01*
X131433100Y-118113600D01*
X131429100Y-118115600D01*
X131426100Y-118117600D01*
X131422100Y-118119600D01*
X131418100Y-118121600D01*
X131414100Y-118123600D01*
X131410100Y-118124600D01*
X131406100Y-118125600D01*
X131402100Y-118126600D01*
X131398100Y-118127600D01*
X131393100Y-118128600D01*
X131389100Y-118128600D01*
X131385100Y-118128600D01*
X130677100Y-118128600D01*
X130673100Y-118128600D01*
X130669100Y-118128600D01*
X130664100Y-118127600D01*
X130660100Y-118126600D01*
X130656100Y-118125600D01*
X130652100Y-118124600D01*
X130648100Y-118123600D01*
X130644100Y-118121600D01*
X130640100Y-118119600D01*
X130637100Y-118117600D01*
X130633100Y-118115600D01*
X130629100Y-118113600D01*
X130626100Y-118110600D01*
X130623100Y-118107600D01*
X130620100Y-118104600D01*
X130617100Y-118101600D01*
X130614100Y-118098600D01*
X130611100Y-118095600D01*
X130609100Y-118091600D01*
X130607100Y-118088600D01*
X130605100Y-118084600D01*
X130603100Y-118080600D01*
X130601100Y-118076600D01*
X130600100Y-118072600D01*
X130599100Y-118068600D01*
X130598100Y-118064600D01*
X130597100Y-118060600D01*
X130596100Y-118055600D01*
X130596100Y-118051600D01*
X130596100Y-118047600D01*
X130596100Y-117859600D01*
X130596100Y-117855600D01*
X130596100Y-117851600D01*
X130597100Y-117846600D01*
X130598100Y-117842600D01*
X130599100Y-117838600D01*
X130600100Y-117834600D01*
X130601100Y-117830600D01*
X130603100Y-117826600D01*
X130605100Y-117822600D01*
X130607100Y-117818600D01*
X130609100Y-117815600D01*
X130611100Y-117811600D01*
X130614100Y-117808600D01*
X130617100Y-117805600D01*
X130620100Y-117802600D01*
X130623100Y-117799600D01*
X130626100Y-117796600D01*
X130629100Y-117793600D01*
X130633100Y-117791600D01*
X130636100Y-117789600D01*
X130640100Y-117787600D01*
X130644100Y-117785600D01*
X130648100Y-117783600D01*
X130652100Y-117782600D01*
X130656100Y-117781600D01*
X130660100Y-117780600D01*
X130664100Y-117779600D01*
X130669100Y-117778600D01*
X130673100Y-117778600D01*
X130677100Y-117778600D01*
X131385100Y-117778600D01*
X131389100Y-117778600D01*
X131393100Y-117778600D01*
X131398100Y-117779600D01*
G37*
X130677100Y-118228600D02*
X131385100Y-118228600D01*
X131389100Y-118228600D01*
X131393100Y-118228600D01*
X131398100Y-118229600D01*
X131402100Y-118230600D01*
X131406100Y-118231600D01*
X131410100Y-118232600D01*
X131414100Y-118233600D01*
X131418100Y-118235600D01*
X131422100Y-118237600D01*
X131426100Y-118239600D01*
X131429100Y-118241600D01*
X131433100Y-118243600D01*
X131436100Y-118246600D01*
X131439100Y-118249600D01*
X131442100Y-118252600D01*
X131445100Y-118255600D01*
X131448100Y-118258600D01*
X131451100Y-118261600D01*
X131453100Y-118265600D01*
X131455100Y-118269600D01*
X131457100Y-118272600D01*
X131459100Y-118276600D01*
X131461100Y-118280600D01*
X131462100Y-118284600D01*
X131463100Y-118288600D01*
X131464100Y-118292600D01*
X131465100Y-118296600D01*
X131466100Y-118301600D01*
X131466100Y-118305600D01*
X131466100Y-118309600D01*
X131466100Y-118497600D01*
X131466100Y-118501600D01*
X131466100Y-118505600D01*
X131465100Y-118510600D01*
X131464100Y-118514600D01*
X131463100Y-118518600D01*
X131462100Y-118522600D01*
X131461100Y-118526600D01*
X131459100Y-118530600D01*
X131457100Y-118534600D01*
X131455100Y-118537600D01*
X131453100Y-118541600D01*
X131451100Y-118545600D01*
X131448100Y-118548600D01*
X131445100Y-118551600D01*
X131442100Y-118554600D01*
X131439100Y-118557600D01*
X131436100Y-118560600D01*
X131433100Y-118563600D01*
X131429100Y-118565600D01*
X131426100Y-118567600D01*
X131422100Y-118569600D01*
X131418100Y-118571600D01*
X131414100Y-118573600D01*
X131410100Y-118574600D01*
X131406100Y-118575600D01*
X131402100Y-118576600D01*
X131398100Y-118577600D01*
X131393100Y-118578600D01*
X131389100Y-118578600D01*
X131385100Y-118578600D01*
X130677100Y-118578600D01*
X130673100Y-118578600D01*
X130669100Y-118578600D01*
X130664100Y-118577600D01*
X130660100Y-118576600D01*
X130656100Y-118575600D01*
X130652100Y-118574600D01*
X130648100Y-118573600D01*
X130644100Y-118571600D01*
X130640100Y-118569600D01*
X130637100Y-118567600D01*
X130633100Y-118565600D01*
X130629100Y-118563600D01*
X130626100Y-118560600D01*
X130623100Y-118557600D01*
X130620100Y-118554600D01*
X130617100Y-118551600D01*
X130614100Y-118548600D01*
X130611100Y-118545600D01*
X130609100Y-118541600D01*
X130607100Y-118537600D01*
X130605100Y-118534600D01*
X130603100Y-118530600D01*
X130601100Y-118526600D01*
X130600100Y-118522600D01*
X130599100Y-118518600D01*
X130598100Y-118514600D01*
X130597100Y-118510600D01*
X130596100Y-118505600D01*
X130596100Y-118501600D01*
X130596100Y-118497600D01*
X130596100Y-118309600D01*
X130596100Y-118305600D01*
X130596100Y-118301600D01*
X130597100Y-118296600D01*
X130598100Y-118292600D01*
X130599100Y-118288600D01*
X130600100Y-118284600D01*
X130601100Y-118280600D01*
X130603100Y-118276600D01*
X130605100Y-118272600D01*
X130607100Y-118269600D01*
X130609100Y-118265600D01*
X130611100Y-118261600D01*
X130614100Y-118258600D01*
X130617100Y-118255600D01*
X130620100Y-118252600D01*
X130623100Y-118249600D01*
X130626100Y-118246600D01*
X130629100Y-118243600D01*
X130633100Y-118241600D01*
X130637100Y-118239600D01*
X130640100Y-118237600D01*
X130644100Y-118235600D01*
X130648100Y-118233600D01*
X130652100Y-118232600D01*
X130656100Y-118231600D01*
X130660100Y-118230600D01*
X130664100Y-118229600D01*
X130669100Y-118228600D01*
X130673100Y-118228600D01*
X130677100Y-118228600D01*
G36*
X131398100Y-118229600D02*
G01*
X131402100Y-118230600D01*
X131406100Y-118231600D01*
X131410100Y-118232600D01*
X131414100Y-118233600D01*
X131418100Y-118235600D01*
X131422100Y-118237600D01*
X131426100Y-118239600D01*
X131429100Y-118241600D01*
X131433100Y-118243600D01*
X131436100Y-118246600D01*
X131439100Y-118249600D01*
X131442100Y-118252600D01*
X131445100Y-118255600D01*
X131448100Y-118258600D01*
X131451100Y-118261600D01*
X131453100Y-118265600D01*
X131455100Y-118269600D01*
X131457100Y-118272600D01*
X131459100Y-118276600D01*
X131461100Y-118280600D01*
X131462100Y-118284600D01*
X131463100Y-118288600D01*
X131464100Y-118292600D01*
X131465100Y-118296600D01*
X131466100Y-118301600D01*
X131466100Y-118305600D01*
X131466100Y-118309600D01*
X131466100Y-118497600D01*
X131466100Y-118501600D01*
X131466100Y-118505600D01*
X131465100Y-118510600D01*
X131464100Y-118514600D01*
X131463100Y-118518600D01*
X131462100Y-118522600D01*
X131461100Y-118526600D01*
X131459100Y-118530600D01*
X131457100Y-118534600D01*
X131455100Y-118537600D01*
X131453100Y-118541600D01*
X131451100Y-118545600D01*
X131448100Y-118548600D01*
X131445100Y-118551600D01*
X131442100Y-118554600D01*
X131439100Y-118557600D01*
X131436100Y-118560600D01*
X131433100Y-118563600D01*
X131429100Y-118565600D01*
X131426100Y-118567600D01*
X131422100Y-118569600D01*
X131418100Y-118571600D01*
X131414100Y-118573600D01*
X131410100Y-118574600D01*
X131406100Y-118575600D01*
X131402100Y-118576600D01*
X131398100Y-118577600D01*
X131393100Y-118578600D01*
X131389100Y-118578600D01*
X131385100Y-118578600D01*
X130677100Y-118578600D01*
X130673100Y-118578600D01*
X130669100Y-118578600D01*
X130664100Y-118577600D01*
X130660100Y-118576600D01*
X130656100Y-118575600D01*
X130652100Y-118574600D01*
X130648100Y-118573600D01*
X130644100Y-118571600D01*
X130640100Y-118569600D01*
X130637100Y-118567600D01*
X130633100Y-118565600D01*
X130629100Y-118563600D01*
X130626100Y-118560600D01*
X130623100Y-118557600D01*
X130620100Y-118554600D01*
X130617100Y-118551600D01*
X130614100Y-118548600D01*
X130611100Y-118545600D01*
X130609100Y-118541600D01*
X130607100Y-118537600D01*
X130605100Y-118534600D01*
X130603100Y-118530600D01*
X130601100Y-118526600D01*
X130600100Y-118522600D01*
X130599100Y-118518600D01*
X130598100Y-118514600D01*
X130597100Y-118510600D01*
X130596100Y-118505600D01*
X130596100Y-118501600D01*
X130596100Y-118497600D01*
X130596100Y-118309600D01*
X130596100Y-118305600D01*
X130596100Y-118301600D01*
X130597100Y-118296600D01*
X130598100Y-118292600D01*
X130599100Y-118288600D01*
X130600100Y-118284600D01*
X130601100Y-118280600D01*
X130603100Y-118276600D01*
X130605100Y-118272600D01*
X130607100Y-118269600D01*
X130609100Y-118265600D01*
X130611100Y-118261600D01*
X130614100Y-118258600D01*
X130617100Y-118255600D01*
X130620100Y-118252600D01*
X130623100Y-118249600D01*
X130626100Y-118246600D01*
X130629100Y-118243600D01*
X130633100Y-118241600D01*
X130637100Y-118239600D01*
X130640100Y-118237600D01*
X130644100Y-118235600D01*
X130648100Y-118233600D01*
X130652100Y-118232600D01*
X130656100Y-118231600D01*
X130660100Y-118230600D01*
X130664100Y-118229600D01*
X130669100Y-118228600D01*
X130673100Y-118228600D01*
X130677100Y-118228600D01*
X131385100Y-118228600D01*
X131389100Y-118228600D01*
X131393100Y-118228600D01*
X131398100Y-118229600D01*
G37*
X130677100Y-118678600D02*
X131385100Y-118678600D01*
X131389100Y-118678600D01*
X131393100Y-118678600D01*
X131398100Y-118679600D01*
X131402100Y-118680600D01*
X131406100Y-118681600D01*
X131410100Y-118682600D01*
X131414100Y-118683600D01*
X131418100Y-118685600D01*
X131422100Y-118687600D01*
X131426100Y-118689600D01*
X131429100Y-118691600D01*
X131433100Y-118693600D01*
X131436100Y-118696600D01*
X131439100Y-118699600D01*
X131442100Y-118702600D01*
X131445100Y-118705600D01*
X131448100Y-118708600D01*
X131451100Y-118711600D01*
X131453100Y-118715600D01*
X131455100Y-118719600D01*
X131457100Y-118722600D01*
X131459100Y-118726600D01*
X131461100Y-118730600D01*
X131462100Y-118734600D01*
X131463100Y-118738600D01*
X131464100Y-118742600D01*
X131465100Y-118746600D01*
X131466100Y-118751600D01*
X131466100Y-118755600D01*
X131466100Y-118759600D01*
X131466100Y-118947600D01*
X131466100Y-118951600D01*
X131466100Y-118955600D01*
X131465100Y-118960600D01*
X131464100Y-118964600D01*
X131463100Y-118968600D01*
X131462100Y-118972600D01*
X131461100Y-118976600D01*
X131459100Y-118980600D01*
X131457100Y-118984600D01*
X131455100Y-118987600D01*
X131453100Y-118991600D01*
X131451100Y-118995600D01*
X131448100Y-118998600D01*
X131445100Y-119001600D01*
X131442100Y-119004600D01*
X131439100Y-119007600D01*
X131436100Y-119010600D01*
X131433100Y-119013600D01*
X131429100Y-119015600D01*
X131426100Y-119017600D01*
X131422100Y-119019600D01*
X131418100Y-119021600D01*
X131414100Y-119023600D01*
X131410100Y-119024600D01*
X131406100Y-119025600D01*
X131402100Y-119026600D01*
X131398100Y-119027600D01*
X131393100Y-119028600D01*
X131389100Y-119028600D01*
X131385100Y-119028600D01*
X130677100Y-119028600D01*
X130673100Y-119028600D01*
X130669100Y-119028600D01*
X130664100Y-119027600D01*
X130660100Y-119026600D01*
X130656100Y-119025600D01*
X130652100Y-119024600D01*
X130648100Y-119023600D01*
X130644100Y-119021600D01*
X130640100Y-119019600D01*
X130637100Y-119017600D01*
X130633100Y-119015600D01*
X130629100Y-119013600D01*
X130626100Y-119010600D01*
X130623100Y-119007600D01*
X130620100Y-119004600D01*
X130617100Y-119001600D01*
X130614100Y-118998600D01*
X130611100Y-118995600D01*
X130609100Y-118991600D01*
X130607100Y-118987600D01*
X130605100Y-118984600D01*
X130603100Y-118980600D01*
X130601100Y-118976600D01*
X130600100Y-118972600D01*
X130599100Y-118968600D01*
X130598100Y-118964600D01*
X130597100Y-118960600D01*
X130596100Y-118955600D01*
X130596100Y-118951600D01*
X130596100Y-118947600D01*
X130596100Y-118759600D01*
X130596100Y-118755600D01*
X130596100Y-118751600D01*
X130597100Y-118746600D01*
X130598100Y-118742600D01*
X130599100Y-118738600D01*
X130600100Y-118734600D01*
X130601100Y-118730600D01*
X130603100Y-118726600D01*
X130605100Y-118722600D01*
X130607100Y-118719600D01*
X130609100Y-118715600D01*
X130611100Y-118711600D01*
X130614100Y-118708600D01*
X130617100Y-118705600D01*
X130620100Y-118702600D01*
X130623100Y-118699600D01*
X130626100Y-118696600D01*
X130629100Y-118693600D01*
X130633100Y-118691600D01*
X130636100Y-118689600D01*
X130640100Y-118687600D01*
X130644100Y-118685600D01*
X130648100Y-118683600D01*
X130652100Y-118682600D01*
X130656100Y-118681600D01*
X130660100Y-118680600D01*
X130664100Y-118679600D01*
X130669100Y-118678600D01*
X130673100Y-118678600D01*
X130677100Y-118678600D01*
G36*
X131398100Y-118679600D02*
G01*
X131402100Y-118680600D01*
X131406100Y-118681600D01*
X131410100Y-118682600D01*
X131414100Y-118683600D01*
X131418100Y-118685600D01*
X131422100Y-118687600D01*
X131426100Y-118689600D01*
X131429100Y-118691600D01*
X131433100Y-118693600D01*
X131436100Y-118696600D01*
X131439100Y-118699600D01*
X131442100Y-118702600D01*
X131445100Y-118705600D01*
X131448100Y-118708600D01*
X131451100Y-118711600D01*
X131453100Y-118715600D01*
X131455100Y-118719600D01*
X131457100Y-118722600D01*
X131459100Y-118726600D01*
X131461100Y-118730600D01*
X131462100Y-118734600D01*
X131463100Y-118738600D01*
X131464100Y-118742600D01*
X131465100Y-118746600D01*
X131466100Y-118751600D01*
X131466100Y-118755600D01*
X131466100Y-118759600D01*
X131466100Y-118947600D01*
X131466100Y-118951600D01*
X131466100Y-118955600D01*
X131465100Y-118960600D01*
X131464100Y-118964600D01*
X131463100Y-118968600D01*
X131462100Y-118972600D01*
X131461100Y-118976600D01*
X131459100Y-118980600D01*
X131457100Y-118984600D01*
X131455100Y-118987600D01*
X131453100Y-118991600D01*
X131451100Y-118995600D01*
X131448100Y-118998600D01*
X131445100Y-119001600D01*
X131442100Y-119004600D01*
X131439100Y-119007600D01*
X131436100Y-119010600D01*
X131433100Y-119013600D01*
X131429100Y-119015600D01*
X131426100Y-119017600D01*
X131422100Y-119019600D01*
X131418100Y-119021600D01*
X131414100Y-119023600D01*
X131410100Y-119024600D01*
X131406100Y-119025600D01*
X131402100Y-119026600D01*
X131398100Y-119027600D01*
X131393100Y-119028600D01*
X131389100Y-119028600D01*
X131385100Y-119028600D01*
X130677100Y-119028600D01*
X130673100Y-119028600D01*
X130669100Y-119028600D01*
X130664100Y-119027600D01*
X130660100Y-119026600D01*
X130656100Y-119025600D01*
X130652100Y-119024600D01*
X130648100Y-119023600D01*
X130644100Y-119021600D01*
X130640100Y-119019600D01*
X130637100Y-119017600D01*
X130633100Y-119015600D01*
X130629100Y-119013600D01*
X130626100Y-119010600D01*
X130623100Y-119007600D01*
X130620100Y-119004600D01*
X130617100Y-119001600D01*
X130614100Y-118998600D01*
X130611100Y-118995600D01*
X130609100Y-118991600D01*
X130607100Y-118987600D01*
X130605100Y-118984600D01*
X130603100Y-118980600D01*
X130601100Y-118976600D01*
X130600100Y-118972600D01*
X130599100Y-118968600D01*
X130598100Y-118964600D01*
X130597100Y-118960600D01*
X130596100Y-118955600D01*
X130596100Y-118951600D01*
X130596100Y-118947600D01*
X130596100Y-118759600D01*
X130596100Y-118755600D01*
X130596100Y-118751600D01*
X130597100Y-118746600D01*
X130598100Y-118742600D01*
X130599100Y-118738600D01*
X130600100Y-118734600D01*
X130601100Y-118730600D01*
X130603100Y-118726600D01*
X130605100Y-118722600D01*
X130607100Y-118719600D01*
X130609100Y-118715600D01*
X130611100Y-118711600D01*
X130614100Y-118708600D01*
X130617100Y-118705600D01*
X130620100Y-118702600D01*
X130623100Y-118699600D01*
X130626100Y-118696600D01*
X130629100Y-118693600D01*
X130633100Y-118691600D01*
X130636100Y-118689600D01*
X130640100Y-118687600D01*
X130644100Y-118685600D01*
X130648100Y-118683600D01*
X130652100Y-118682600D01*
X130656100Y-118681600D01*
X130660100Y-118680600D01*
X130664100Y-118679600D01*
X130669100Y-118678600D01*
X130673100Y-118678600D01*
X130677100Y-118678600D01*
X131385100Y-118678600D01*
X131389100Y-118678600D01*
X131393100Y-118678600D01*
X131398100Y-118679600D01*
G37*
X131476100Y-119827600D02*
X131476100Y-119119600D01*
X131476100Y-119115600D01*
X131476100Y-119111600D01*
X131477100Y-119106600D01*
X131478100Y-119102600D01*
X131479100Y-119098600D01*
X131480100Y-119094600D01*
X131481100Y-119090600D01*
X131483100Y-119086600D01*
X131485100Y-119082600D01*
X131487100Y-119078600D01*
X131489100Y-119075600D01*
X131491100Y-119071600D01*
X131494100Y-119068600D01*
X131497100Y-119065600D01*
X131500100Y-119062600D01*
X131503100Y-119059600D01*
X131506100Y-119056600D01*
X131509100Y-119053600D01*
X131513100Y-119051600D01*
X131517100Y-119049600D01*
X131520100Y-119047600D01*
X131524100Y-119045600D01*
X131528100Y-119043600D01*
X131532100Y-119042600D01*
X131536100Y-119041600D01*
X131540100Y-119040600D01*
X131544100Y-119039600D01*
X131549100Y-119038600D01*
X131553100Y-119038600D01*
X131557100Y-119038600D01*
X131745100Y-119038600D01*
X131749100Y-119038600D01*
X131753100Y-119038600D01*
X131758100Y-119039600D01*
X131762100Y-119040600D01*
X131766100Y-119041600D01*
X131770100Y-119042600D01*
X131774100Y-119043600D01*
X131778100Y-119045600D01*
X131782100Y-119047600D01*
X131785100Y-119049600D01*
X131789100Y-119051600D01*
X131793100Y-119053600D01*
X131796100Y-119056600D01*
X131799100Y-119059600D01*
X131802100Y-119062600D01*
X131805100Y-119065600D01*
X131808100Y-119068600D01*
X131811100Y-119071600D01*
X131813100Y-119075600D01*
X131815100Y-119078600D01*
X131817100Y-119082600D01*
X131819100Y-119086600D01*
X131821100Y-119090600D01*
X131822100Y-119094600D01*
X131823100Y-119098600D01*
X131824100Y-119102600D01*
X131825100Y-119106600D01*
X131826100Y-119111600D01*
X131826100Y-119115600D01*
X131826100Y-119119600D01*
X131826100Y-119827600D01*
X131826100Y-119831600D01*
X131826100Y-119835600D01*
X131825100Y-119840600D01*
X131824100Y-119844600D01*
X131823100Y-119848600D01*
X131822100Y-119852600D01*
X131821100Y-119856600D01*
X131819100Y-119860600D01*
X131817100Y-119864600D01*
X131815100Y-119868600D01*
X131813100Y-119871600D01*
X131811100Y-119875600D01*
X131808100Y-119878600D01*
X131805100Y-119881600D01*
X131802100Y-119884600D01*
X131799100Y-119887600D01*
X131796100Y-119890600D01*
X131793100Y-119893600D01*
X131789100Y-119895600D01*
X131785100Y-119897600D01*
X131782100Y-119899600D01*
X131778100Y-119901600D01*
X131774100Y-119903600D01*
X131770100Y-119904600D01*
X131766100Y-119905600D01*
X131762100Y-119906600D01*
X131758100Y-119907600D01*
X131753100Y-119908600D01*
X131749100Y-119908600D01*
X131745100Y-119908600D01*
X131557100Y-119908600D01*
X131553100Y-119908600D01*
X131549100Y-119908600D01*
X131544100Y-119907600D01*
X131540100Y-119906600D01*
X131536100Y-119905600D01*
X131532100Y-119904600D01*
X131528100Y-119903600D01*
X131524100Y-119901600D01*
X131520100Y-119899600D01*
X131517100Y-119897600D01*
X131513100Y-119895600D01*
X131509100Y-119893600D01*
X131506100Y-119890600D01*
X131503100Y-119887600D01*
X131500100Y-119884600D01*
X131497100Y-119881600D01*
X131494100Y-119878600D01*
X131491100Y-119875600D01*
X131489100Y-119871600D01*
X131487100Y-119868600D01*
X131485100Y-119864600D01*
X131483100Y-119860600D01*
X131481100Y-119856600D01*
X131480100Y-119852600D01*
X131479100Y-119848600D01*
X131478100Y-119844600D01*
X131477100Y-119840600D01*
X131476100Y-119835600D01*
X131476100Y-119831600D01*
X131476100Y-119827600D01*
G36*
X131758100Y-119039600D02*
G01*
X131762100Y-119040600D01*
X131766100Y-119041600D01*
X131770100Y-119042600D01*
X131774100Y-119043600D01*
X131778100Y-119045600D01*
X131782100Y-119047600D01*
X131785100Y-119049600D01*
X131789100Y-119051600D01*
X131793100Y-119053600D01*
X131796100Y-119056600D01*
X131799100Y-119059600D01*
X131802100Y-119062600D01*
X131805100Y-119065600D01*
X131808100Y-119068600D01*
X131811100Y-119071600D01*
X131813100Y-119075600D01*
X131815100Y-119078600D01*
X131817100Y-119082600D01*
X131819100Y-119086600D01*
X131821100Y-119090600D01*
X131822100Y-119094600D01*
X131823100Y-119098600D01*
X131824100Y-119102600D01*
X131825100Y-119106600D01*
X131826100Y-119111600D01*
X131826100Y-119115600D01*
X131826100Y-119119600D01*
X131826100Y-119827600D01*
X131826100Y-119831600D01*
X131826100Y-119835600D01*
X131825100Y-119840600D01*
X131824100Y-119844600D01*
X131823100Y-119848600D01*
X131822100Y-119852600D01*
X131821100Y-119856600D01*
X131819100Y-119860600D01*
X131817100Y-119864600D01*
X131815100Y-119868600D01*
X131813100Y-119871600D01*
X131811100Y-119875600D01*
X131808100Y-119878600D01*
X131805100Y-119881600D01*
X131802100Y-119884600D01*
X131799100Y-119887600D01*
X131796100Y-119890600D01*
X131793100Y-119893600D01*
X131789100Y-119895600D01*
X131785100Y-119897600D01*
X131782100Y-119899600D01*
X131778100Y-119901600D01*
X131774100Y-119903600D01*
X131770100Y-119904600D01*
X131766100Y-119905600D01*
X131762100Y-119906600D01*
X131758100Y-119907600D01*
X131753100Y-119908600D01*
X131749100Y-119908600D01*
X131745100Y-119908600D01*
X131557100Y-119908600D01*
X131553100Y-119908600D01*
X131549100Y-119908600D01*
X131544100Y-119907600D01*
X131540100Y-119906600D01*
X131536100Y-119905600D01*
X131532100Y-119904600D01*
X131528100Y-119903600D01*
X131524100Y-119901600D01*
X131520100Y-119899600D01*
X131517100Y-119897600D01*
X131513100Y-119895600D01*
X131509100Y-119893600D01*
X131506100Y-119890600D01*
X131503100Y-119887600D01*
X131500100Y-119884600D01*
X131497100Y-119881600D01*
X131494100Y-119878600D01*
X131491100Y-119875600D01*
X131489100Y-119871600D01*
X131487100Y-119868600D01*
X131485100Y-119864600D01*
X131483100Y-119860600D01*
X131481100Y-119856600D01*
X131480100Y-119852600D01*
X131479100Y-119848600D01*
X131478100Y-119844600D01*
X131477100Y-119840600D01*
X131476100Y-119835600D01*
X131476100Y-119831600D01*
X131476100Y-119827600D01*
X131476100Y-119119600D01*
X131476100Y-119115600D01*
X131476100Y-119111600D01*
X131477100Y-119106600D01*
X131478100Y-119102600D01*
X131479100Y-119098600D01*
X131480100Y-119094600D01*
X131481100Y-119090600D01*
X131483100Y-119086600D01*
X131485100Y-119082600D01*
X131487100Y-119078600D01*
X131489100Y-119075600D01*
X131491100Y-119071600D01*
X131494100Y-119068600D01*
X131497100Y-119065600D01*
X131500100Y-119062600D01*
X131503100Y-119059600D01*
X131506100Y-119056600D01*
X131509100Y-119053600D01*
X131513100Y-119051600D01*
X131517100Y-119049600D01*
X131520100Y-119047600D01*
X131524100Y-119045600D01*
X131528100Y-119043600D01*
X131532100Y-119042600D01*
X131536100Y-119041600D01*
X131540100Y-119040600D01*
X131544100Y-119039600D01*
X131549100Y-119038600D01*
X131553100Y-119038600D01*
X131557100Y-119038600D01*
X131745100Y-119038600D01*
X131749100Y-119038600D01*
X131753100Y-119038600D01*
X131758100Y-119039600D01*
G37*
X131826100Y-115179600D02*
X131826100Y-115887600D01*
X131826100Y-115891600D01*
X131826100Y-115895600D01*
X131825100Y-115900600D01*
X131824100Y-115904600D01*
X131823100Y-115908600D01*
X131822100Y-115912600D01*
X131821100Y-115916600D01*
X131819100Y-115920600D01*
X131817100Y-115924600D01*
X131815100Y-115928600D01*
X131813100Y-115931600D01*
X131811100Y-115935600D01*
X131808100Y-115938600D01*
X131805100Y-115941600D01*
X131802100Y-115944600D01*
X131799100Y-115947600D01*
X131796100Y-115950600D01*
X131793100Y-115953600D01*
X131789100Y-115955600D01*
X131785100Y-115957600D01*
X131782100Y-115959600D01*
X131778100Y-115961600D01*
X131774100Y-115963600D01*
X131770100Y-115964600D01*
X131766100Y-115965600D01*
X131762100Y-115966600D01*
X131758100Y-115967600D01*
X131753100Y-115968600D01*
X131749100Y-115968600D01*
X131745100Y-115968600D01*
X131557100Y-115968600D01*
X131553100Y-115968600D01*
X131549100Y-115968600D01*
X131544100Y-115967600D01*
X131540100Y-115966600D01*
X131536100Y-115965600D01*
X131532100Y-115964600D01*
X131528100Y-115963600D01*
X131524100Y-115961600D01*
X131520100Y-115959600D01*
X131517100Y-115957600D01*
X131513100Y-115955600D01*
X131509100Y-115953600D01*
X131506100Y-115950600D01*
X131503100Y-115947600D01*
X131500100Y-115944600D01*
X131497100Y-115941600D01*
X131494100Y-115938600D01*
X131491100Y-115935600D01*
X131489100Y-115931600D01*
X131487100Y-115928600D01*
X131485100Y-115924600D01*
X131483100Y-115920600D01*
X131481100Y-115916600D01*
X131480100Y-115912600D01*
X131479100Y-115908600D01*
X131478100Y-115904600D01*
X131477100Y-115900600D01*
X131476100Y-115895600D01*
X131476100Y-115891600D01*
X131476100Y-115887600D01*
X131476100Y-115179600D01*
X131476100Y-115175600D01*
X131476100Y-115171600D01*
X131477100Y-115166600D01*
X131478100Y-115162600D01*
X131479100Y-115158600D01*
X131480100Y-115154600D01*
X131481100Y-115150600D01*
X131483100Y-115146600D01*
X131485100Y-115142600D01*
X131487100Y-115138600D01*
X131489100Y-115135600D01*
X131491100Y-115131600D01*
X131494100Y-115128600D01*
X131497100Y-115125600D01*
X131500100Y-115122600D01*
X131503100Y-115119600D01*
X131506100Y-115116600D01*
X131509100Y-115113600D01*
X131513100Y-115111600D01*
X131517100Y-115109600D01*
X131520100Y-115107600D01*
X131524100Y-115105600D01*
X131528100Y-115103600D01*
X131532100Y-115102600D01*
X131536100Y-115101600D01*
X131540100Y-115100600D01*
X131544100Y-115099600D01*
X131549100Y-115098600D01*
X131553100Y-115098600D01*
X131557100Y-115098600D01*
X131745100Y-115098600D01*
X131749100Y-115098600D01*
X131753100Y-115098600D01*
X131758100Y-115099600D01*
X131762100Y-115100600D01*
X131766100Y-115101600D01*
X131770100Y-115102600D01*
X131774100Y-115103600D01*
X131778100Y-115105600D01*
X131782100Y-115107600D01*
X131785100Y-115109600D01*
X131789100Y-115111600D01*
X131793100Y-115113600D01*
X131796100Y-115116600D01*
X131799100Y-115119600D01*
X131802100Y-115122600D01*
X131805100Y-115125600D01*
X131808100Y-115128600D01*
X131811100Y-115131600D01*
X131813100Y-115135600D01*
X131815100Y-115139600D01*
X131817100Y-115142600D01*
X131819100Y-115146600D01*
X131821100Y-115150600D01*
X131822100Y-115154600D01*
X131823100Y-115158600D01*
X131824100Y-115162600D01*
X131825100Y-115166600D01*
X131826100Y-115171600D01*
X131826100Y-115175600D01*
X131826100Y-115179600D01*
G36*
X131758100Y-115099600D02*
G01*
X131762100Y-115100600D01*
X131766100Y-115101600D01*
X131770100Y-115102600D01*
X131774100Y-115103600D01*
X131778100Y-115105600D01*
X131782100Y-115107600D01*
X131785100Y-115109600D01*
X131789100Y-115111600D01*
X131793100Y-115113600D01*
X131796100Y-115116600D01*
X131799100Y-115119600D01*
X131802100Y-115122600D01*
X131805100Y-115125600D01*
X131808100Y-115128600D01*
X131811100Y-115131600D01*
X131813100Y-115135600D01*
X131815100Y-115139600D01*
X131817100Y-115142600D01*
X131819100Y-115146600D01*
X131821100Y-115150600D01*
X131822100Y-115154600D01*
X131823100Y-115158600D01*
X131824100Y-115162600D01*
X131825100Y-115166600D01*
X131826100Y-115171600D01*
X131826100Y-115175600D01*
X131826100Y-115179600D01*
X131826100Y-115887600D01*
X131826100Y-115891600D01*
X131826100Y-115895600D01*
X131825100Y-115900600D01*
X131824100Y-115904600D01*
X131823100Y-115908600D01*
X131822100Y-115912600D01*
X131821100Y-115916600D01*
X131819100Y-115920600D01*
X131817100Y-115924600D01*
X131815100Y-115928600D01*
X131813100Y-115931600D01*
X131811100Y-115935600D01*
X131808100Y-115938600D01*
X131805100Y-115941600D01*
X131802100Y-115944600D01*
X131799100Y-115947600D01*
X131796100Y-115950600D01*
X131793100Y-115953600D01*
X131789100Y-115955600D01*
X131785100Y-115957600D01*
X131782100Y-115959600D01*
X131778100Y-115961600D01*
X131774100Y-115963600D01*
X131770100Y-115964600D01*
X131766100Y-115965600D01*
X131762100Y-115966600D01*
X131758100Y-115967600D01*
X131753100Y-115968600D01*
X131749100Y-115968600D01*
X131745100Y-115968600D01*
X131557100Y-115968600D01*
X131553100Y-115968600D01*
X131549100Y-115968600D01*
X131544100Y-115967600D01*
X131540100Y-115966600D01*
X131536100Y-115965600D01*
X131532100Y-115964600D01*
X131528100Y-115963600D01*
X131524100Y-115961600D01*
X131520100Y-115959600D01*
X131517100Y-115957600D01*
X131513100Y-115955600D01*
X131509100Y-115953600D01*
X131506100Y-115950600D01*
X131503100Y-115947600D01*
X131500100Y-115944600D01*
X131497100Y-115941600D01*
X131494100Y-115938600D01*
X131491100Y-115935600D01*
X131489100Y-115931600D01*
X131487100Y-115928600D01*
X131485100Y-115924600D01*
X131483100Y-115920600D01*
X131481100Y-115916600D01*
X131480100Y-115912600D01*
X131479100Y-115908600D01*
X131478100Y-115904600D01*
X131477100Y-115900600D01*
X131476100Y-115895600D01*
X131476100Y-115891600D01*
X131476100Y-115887600D01*
X131476100Y-115179600D01*
X131476100Y-115175600D01*
X131476100Y-115171600D01*
X131477100Y-115166600D01*
X131478100Y-115162600D01*
X131479100Y-115158600D01*
X131480100Y-115154600D01*
X131481100Y-115150600D01*
X131483100Y-115146600D01*
X131485100Y-115142600D01*
X131487100Y-115138600D01*
X131489100Y-115135600D01*
X131491100Y-115131600D01*
X131494100Y-115128600D01*
X131497100Y-115125600D01*
X131500100Y-115122600D01*
X131503100Y-115119600D01*
X131506100Y-115116600D01*
X131509100Y-115113600D01*
X131513100Y-115111600D01*
X131517100Y-115109600D01*
X131520100Y-115107600D01*
X131524100Y-115105600D01*
X131528100Y-115103600D01*
X131532100Y-115102600D01*
X131536100Y-115101600D01*
X131540100Y-115100600D01*
X131544100Y-115099600D01*
X131549100Y-115098600D01*
X131553100Y-115098600D01*
X131557100Y-115098600D01*
X131745100Y-115098600D01*
X131749100Y-115098600D01*
X131753100Y-115098600D01*
X131758100Y-115099600D01*
G37*
X131926100Y-119827600D02*
X131926100Y-119119600D01*
X131926100Y-119115600D01*
X131926100Y-119111600D01*
X131927100Y-119106600D01*
X131928100Y-119102600D01*
X131929100Y-119098600D01*
X131930100Y-119094600D01*
X131931100Y-119090600D01*
X131933100Y-119086600D01*
X131935100Y-119082600D01*
X131937100Y-119078600D01*
X131939100Y-119075600D01*
X131941100Y-119071600D01*
X131944100Y-119068600D01*
X131947100Y-119065600D01*
X131950100Y-119062600D01*
X131953100Y-119059600D01*
X131956100Y-119056600D01*
X131959100Y-119053600D01*
X131963100Y-119051600D01*
X131967100Y-119049600D01*
X131970100Y-119047600D01*
X131974100Y-119045600D01*
X131978100Y-119043600D01*
X131982100Y-119042600D01*
X131986100Y-119041600D01*
X131990100Y-119040600D01*
X131994100Y-119039600D01*
X131999100Y-119038600D01*
X132003100Y-119038600D01*
X132007100Y-119038600D01*
X132195100Y-119038600D01*
X132199100Y-119038600D01*
X132203100Y-119038600D01*
X132208100Y-119039600D01*
X132212100Y-119040600D01*
X132216100Y-119041600D01*
X132220100Y-119042600D01*
X132224100Y-119043600D01*
X132228100Y-119045600D01*
X132232100Y-119047600D01*
X132235100Y-119049600D01*
X132239100Y-119051600D01*
X132243100Y-119053600D01*
X132246100Y-119056600D01*
X132249100Y-119059600D01*
X132252100Y-119062600D01*
X132255100Y-119065600D01*
X132258100Y-119068600D01*
X132261100Y-119071600D01*
X132263100Y-119075600D01*
X132265100Y-119078600D01*
X132267100Y-119082600D01*
X132269100Y-119086600D01*
X132271100Y-119090600D01*
X132272100Y-119094600D01*
X132273100Y-119098600D01*
X132274100Y-119102600D01*
X132275100Y-119106600D01*
X132276100Y-119111600D01*
X132276100Y-119115600D01*
X132276100Y-119119600D01*
X132276100Y-119827600D01*
X132276100Y-119831600D01*
X132276100Y-119835600D01*
X132275100Y-119840600D01*
X132274100Y-119844600D01*
X132273100Y-119848600D01*
X132272100Y-119852600D01*
X132271100Y-119856600D01*
X132269100Y-119860600D01*
X132267100Y-119864600D01*
X132265100Y-119867600D01*
X132263100Y-119871600D01*
X132261100Y-119875600D01*
X132258100Y-119878600D01*
X132255100Y-119881600D01*
X132252100Y-119884600D01*
X132249100Y-119887600D01*
X132246100Y-119890600D01*
X132243100Y-119893600D01*
X132239100Y-119895600D01*
X132235100Y-119897600D01*
X132232100Y-119899600D01*
X132228100Y-119901600D01*
X132224100Y-119903600D01*
X132220100Y-119904600D01*
X132216100Y-119905600D01*
X132212100Y-119906600D01*
X132208100Y-119907600D01*
X132203100Y-119908600D01*
X132199100Y-119908600D01*
X132195100Y-119908600D01*
X132007100Y-119908600D01*
X132003100Y-119908600D01*
X131999100Y-119908600D01*
X131994100Y-119907600D01*
X131990100Y-119906600D01*
X131986100Y-119905600D01*
X131982100Y-119904600D01*
X131978100Y-119903600D01*
X131974100Y-119901600D01*
X131970100Y-119899600D01*
X131967100Y-119897600D01*
X131963100Y-119895600D01*
X131959100Y-119893600D01*
X131956100Y-119890600D01*
X131953100Y-119887600D01*
X131950100Y-119884600D01*
X131947100Y-119881600D01*
X131944100Y-119878600D01*
X131941100Y-119875600D01*
X131939100Y-119871600D01*
X131937100Y-119868600D01*
X131935100Y-119864600D01*
X131933100Y-119860600D01*
X131931100Y-119856600D01*
X131930100Y-119852600D01*
X131929100Y-119848600D01*
X131928100Y-119844600D01*
X131927100Y-119840600D01*
X131926100Y-119835600D01*
X131926100Y-119831600D01*
X131926100Y-119827600D01*
G36*
X132208100Y-119039600D02*
G01*
X132212100Y-119040600D01*
X132216100Y-119041600D01*
X132220100Y-119042600D01*
X132224100Y-119043600D01*
X132228100Y-119045600D01*
X132232100Y-119047600D01*
X132235100Y-119049600D01*
X132239100Y-119051600D01*
X132243100Y-119053600D01*
X132246100Y-119056600D01*
X132249100Y-119059600D01*
X132252100Y-119062600D01*
X132255100Y-119065600D01*
X132258100Y-119068600D01*
X132261100Y-119071600D01*
X132263100Y-119075600D01*
X132265100Y-119078600D01*
X132267100Y-119082600D01*
X132269100Y-119086600D01*
X132271100Y-119090600D01*
X132272100Y-119094600D01*
X132273100Y-119098600D01*
X132274100Y-119102600D01*
X132275100Y-119106600D01*
X132276100Y-119111600D01*
X132276100Y-119115600D01*
X132276100Y-119119600D01*
X132276100Y-119827600D01*
X132276100Y-119831600D01*
X132276100Y-119835600D01*
X132275100Y-119840600D01*
X132274100Y-119844600D01*
X132273100Y-119848600D01*
X132272100Y-119852600D01*
X132271100Y-119856600D01*
X132269100Y-119860600D01*
X132267100Y-119864600D01*
X132265100Y-119867600D01*
X132263100Y-119871600D01*
X132261100Y-119875600D01*
X132258100Y-119878600D01*
X132255100Y-119881600D01*
X132252100Y-119884600D01*
X132249100Y-119887600D01*
X132246100Y-119890600D01*
X132243100Y-119893600D01*
X132239100Y-119895600D01*
X132235100Y-119897600D01*
X132232100Y-119899600D01*
X132228100Y-119901600D01*
X132224100Y-119903600D01*
X132220100Y-119904600D01*
X132216100Y-119905600D01*
X132212100Y-119906600D01*
X132208100Y-119907600D01*
X132203100Y-119908600D01*
X132199100Y-119908600D01*
X132195100Y-119908600D01*
X132007100Y-119908600D01*
X132003100Y-119908600D01*
X131999100Y-119908600D01*
X131994100Y-119907600D01*
X131990100Y-119906600D01*
X131986100Y-119905600D01*
X131982100Y-119904600D01*
X131978100Y-119903600D01*
X131974100Y-119901600D01*
X131970100Y-119899600D01*
X131967100Y-119897600D01*
X131963100Y-119895600D01*
X131959100Y-119893600D01*
X131956100Y-119890600D01*
X131953100Y-119887600D01*
X131950100Y-119884600D01*
X131947100Y-119881600D01*
X131944100Y-119878600D01*
X131941100Y-119875600D01*
X131939100Y-119871600D01*
X131937100Y-119868600D01*
X131935100Y-119864600D01*
X131933100Y-119860600D01*
X131931100Y-119856600D01*
X131930100Y-119852600D01*
X131929100Y-119848600D01*
X131928100Y-119844600D01*
X131927100Y-119840600D01*
X131926100Y-119835600D01*
X131926100Y-119831600D01*
X131926100Y-119827600D01*
X131926100Y-119119600D01*
X131926100Y-119115600D01*
X131926100Y-119111600D01*
X131927100Y-119106600D01*
X131928100Y-119102600D01*
X131929100Y-119098600D01*
X131930100Y-119094600D01*
X131931100Y-119090600D01*
X131933100Y-119086600D01*
X131935100Y-119082600D01*
X131937100Y-119078600D01*
X131939100Y-119075600D01*
X131941100Y-119071600D01*
X131944100Y-119068600D01*
X131947100Y-119065600D01*
X131950100Y-119062600D01*
X131953100Y-119059600D01*
X131956100Y-119056600D01*
X131959100Y-119053600D01*
X131963100Y-119051600D01*
X131967100Y-119049600D01*
X131970100Y-119047600D01*
X131974100Y-119045600D01*
X131978100Y-119043600D01*
X131982100Y-119042600D01*
X131986100Y-119041600D01*
X131990100Y-119040600D01*
X131994100Y-119039600D01*
X131999100Y-119038600D01*
X132003100Y-119038600D01*
X132007100Y-119038600D01*
X132195100Y-119038600D01*
X132199100Y-119038600D01*
X132203100Y-119038600D01*
X132208100Y-119039600D01*
G37*
X132276100Y-115179600D02*
X132276100Y-115887600D01*
X132276100Y-115891600D01*
X132276100Y-115895600D01*
X132275100Y-115900600D01*
X132274100Y-115904600D01*
X132273100Y-115908600D01*
X132272100Y-115912600D01*
X132271100Y-115916600D01*
X132269100Y-115920600D01*
X132267100Y-115924600D01*
X132265100Y-115928600D01*
X132263100Y-115931600D01*
X132261100Y-115935600D01*
X132258100Y-115938600D01*
X132255100Y-115941600D01*
X132252100Y-115944600D01*
X132249100Y-115947600D01*
X132246100Y-115950600D01*
X132243100Y-115953600D01*
X132239100Y-115955600D01*
X132235100Y-115957600D01*
X132232100Y-115959600D01*
X132228100Y-115961600D01*
X132224100Y-115963600D01*
X132220100Y-115964600D01*
X132216100Y-115965600D01*
X132212100Y-115966600D01*
X132208100Y-115967600D01*
X132203100Y-115968600D01*
X132199100Y-115968600D01*
X132195100Y-115968600D01*
X132007100Y-115968600D01*
X132003100Y-115968600D01*
X131999100Y-115968600D01*
X131994100Y-115967600D01*
X131990100Y-115966600D01*
X131986100Y-115965600D01*
X131982100Y-115964600D01*
X131978100Y-115963600D01*
X131974100Y-115961600D01*
X131970100Y-115959600D01*
X131967100Y-115957600D01*
X131963100Y-115955600D01*
X131959100Y-115953600D01*
X131956100Y-115950600D01*
X131953100Y-115947600D01*
X131950100Y-115944600D01*
X131947100Y-115941600D01*
X131944100Y-115938600D01*
X131941100Y-115935600D01*
X131939100Y-115931600D01*
X131937100Y-115928600D01*
X131935100Y-115924600D01*
X131933100Y-115920600D01*
X131931100Y-115916600D01*
X131930100Y-115912600D01*
X131929100Y-115908600D01*
X131928100Y-115904600D01*
X131927100Y-115900600D01*
X131926100Y-115895600D01*
X131926100Y-115891600D01*
X131926100Y-115887600D01*
X131926100Y-115179600D01*
X131926100Y-115175600D01*
X131926100Y-115171600D01*
X131927100Y-115166600D01*
X131928100Y-115162600D01*
X131929100Y-115158600D01*
X131930100Y-115154600D01*
X131931100Y-115150600D01*
X131933100Y-115146600D01*
X131935100Y-115142600D01*
X131937100Y-115138600D01*
X131939100Y-115135600D01*
X131941100Y-115131600D01*
X131944100Y-115128600D01*
X131947100Y-115125600D01*
X131950100Y-115122600D01*
X131953100Y-115119600D01*
X131956100Y-115116600D01*
X131959100Y-115113600D01*
X131963100Y-115111600D01*
X131967100Y-115109600D01*
X131970100Y-115107600D01*
X131974100Y-115105600D01*
X131978100Y-115103600D01*
X131982100Y-115102600D01*
X131986100Y-115101600D01*
X131990100Y-115100600D01*
X131994100Y-115099600D01*
X131999100Y-115098600D01*
X132003100Y-115098600D01*
X132007100Y-115098600D01*
X132195100Y-115098600D01*
X132199100Y-115098600D01*
X132203100Y-115098600D01*
X132208100Y-115099600D01*
X132212100Y-115100600D01*
X132216100Y-115101600D01*
X132220100Y-115102600D01*
X132224100Y-115103600D01*
X132228100Y-115105600D01*
X132232100Y-115107600D01*
X132235100Y-115109600D01*
X132239100Y-115111600D01*
X132243100Y-115113600D01*
X132246100Y-115116600D01*
X132249100Y-115119600D01*
X132252100Y-115122600D01*
X132255100Y-115125600D01*
X132258100Y-115128600D01*
X132261100Y-115131600D01*
X132263100Y-115135600D01*
X132265100Y-115139600D01*
X132267100Y-115142600D01*
X132269100Y-115146600D01*
X132271100Y-115150600D01*
X132272100Y-115154600D01*
X132273100Y-115158600D01*
X132274100Y-115162600D01*
X132275100Y-115166600D01*
X132276100Y-115171600D01*
X132276100Y-115175600D01*
X132276100Y-115179600D01*
G36*
X132208100Y-115099600D02*
G01*
X132212100Y-115100600D01*
X132216100Y-115101600D01*
X132220100Y-115102600D01*
X132224100Y-115103600D01*
X132228100Y-115105600D01*
X132232100Y-115107600D01*
X132235100Y-115109600D01*
X132239100Y-115111600D01*
X132243100Y-115113600D01*
X132246100Y-115116600D01*
X132249100Y-115119600D01*
X132252100Y-115122600D01*
X132255100Y-115125600D01*
X132258100Y-115128600D01*
X132261100Y-115131600D01*
X132263100Y-115135600D01*
X132265100Y-115139600D01*
X132267100Y-115142600D01*
X132269100Y-115146600D01*
X132271100Y-115150600D01*
X132272100Y-115154600D01*
X132273100Y-115158600D01*
X132274100Y-115162600D01*
X132275100Y-115166600D01*
X132276100Y-115171600D01*
X132276100Y-115175600D01*
X132276100Y-115179600D01*
X132276100Y-115887600D01*
X132276100Y-115891600D01*
X132276100Y-115895600D01*
X132275100Y-115900600D01*
X132274100Y-115904600D01*
X132273100Y-115908600D01*
X132272100Y-115912600D01*
X132271100Y-115916600D01*
X132269100Y-115920600D01*
X132267100Y-115924600D01*
X132265100Y-115928600D01*
X132263100Y-115931600D01*
X132261100Y-115935600D01*
X132258100Y-115938600D01*
X132255100Y-115941600D01*
X132252100Y-115944600D01*
X132249100Y-115947600D01*
X132246100Y-115950600D01*
X132243100Y-115953600D01*
X132239100Y-115955600D01*
X132235100Y-115957600D01*
X132232100Y-115959600D01*
X132228100Y-115961600D01*
X132224100Y-115963600D01*
X132220100Y-115964600D01*
X132216100Y-115965600D01*
X132212100Y-115966600D01*
X132208100Y-115967600D01*
X132203100Y-115968600D01*
X132199100Y-115968600D01*
X132195100Y-115968600D01*
X132007100Y-115968600D01*
X132003100Y-115968600D01*
X131999100Y-115968600D01*
X131994100Y-115967600D01*
X131990100Y-115966600D01*
X131986100Y-115965600D01*
X131982100Y-115964600D01*
X131978100Y-115963600D01*
X131974100Y-115961600D01*
X131970100Y-115959600D01*
X131967100Y-115957600D01*
X131963100Y-115955600D01*
X131959100Y-115953600D01*
X131956100Y-115950600D01*
X131953100Y-115947600D01*
X131950100Y-115944600D01*
X131947100Y-115941600D01*
X131944100Y-115938600D01*
X131941100Y-115935600D01*
X131939100Y-115931600D01*
X131937100Y-115928600D01*
X131935100Y-115924600D01*
X131933100Y-115920600D01*
X131931100Y-115916600D01*
X131930100Y-115912600D01*
X131929100Y-115908600D01*
X131928100Y-115904600D01*
X131927100Y-115900600D01*
X131926100Y-115895600D01*
X131926100Y-115891600D01*
X131926100Y-115887600D01*
X131926100Y-115179600D01*
X131926100Y-115175600D01*
X131926100Y-115171600D01*
X131927100Y-115166600D01*
X131928100Y-115162600D01*
X131929100Y-115158600D01*
X131930100Y-115154600D01*
X131931100Y-115150600D01*
X131933100Y-115146600D01*
X131935100Y-115142600D01*
X131937100Y-115138600D01*
X131939100Y-115135600D01*
X131941100Y-115131600D01*
X131944100Y-115128600D01*
X131947100Y-115125600D01*
X131950100Y-115122600D01*
X131953100Y-115119600D01*
X131956100Y-115116600D01*
X131959100Y-115113600D01*
X131963100Y-115111600D01*
X131967100Y-115109600D01*
X131970100Y-115107600D01*
X131974100Y-115105600D01*
X131978100Y-115103600D01*
X131982100Y-115102600D01*
X131986100Y-115101600D01*
X131990100Y-115100600D01*
X131994100Y-115099600D01*
X131999100Y-115098600D01*
X132003100Y-115098600D01*
X132007100Y-115098600D01*
X132195100Y-115098600D01*
X132199100Y-115098600D01*
X132203100Y-115098600D01*
X132208100Y-115099600D01*
G37*
X132376100Y-119827600D02*
X132376100Y-119119600D01*
X132376100Y-119115600D01*
X132376100Y-119111600D01*
X132377100Y-119106600D01*
X132378100Y-119102600D01*
X132379100Y-119098600D01*
X132380100Y-119094600D01*
X132381100Y-119090600D01*
X132383100Y-119086600D01*
X132385100Y-119082600D01*
X132387100Y-119078600D01*
X132389100Y-119075600D01*
X132391100Y-119071600D01*
X132394100Y-119068600D01*
X132397100Y-119065600D01*
X132400100Y-119062600D01*
X132403100Y-119059600D01*
X132406100Y-119056600D01*
X132409100Y-119053600D01*
X132413100Y-119051600D01*
X132417100Y-119049600D01*
X132420100Y-119047600D01*
X132424100Y-119045600D01*
X132428100Y-119043600D01*
X132432100Y-119042600D01*
X132436100Y-119041600D01*
X132440100Y-119040600D01*
X132444100Y-119039600D01*
X132449100Y-119038600D01*
X132453100Y-119038600D01*
X132457100Y-119038600D01*
X132645100Y-119038600D01*
X132649100Y-119038600D01*
X132653100Y-119038600D01*
X132658100Y-119039600D01*
X132662100Y-119040600D01*
X132666100Y-119041600D01*
X132670100Y-119042600D01*
X132674100Y-119043600D01*
X132678100Y-119045600D01*
X132682100Y-119047600D01*
X132685100Y-119049600D01*
X132689100Y-119051600D01*
X132693100Y-119053600D01*
X132696100Y-119056600D01*
X132699100Y-119059600D01*
X132702100Y-119062600D01*
X132705100Y-119065600D01*
X132708100Y-119068600D01*
X132711100Y-119071600D01*
X132713100Y-119075600D01*
X132715100Y-119078600D01*
X132717100Y-119082600D01*
X132719100Y-119086600D01*
X132721100Y-119090600D01*
X132722100Y-119094600D01*
X132723100Y-119098600D01*
X132724100Y-119102600D01*
X132725100Y-119106600D01*
X132726100Y-119111600D01*
X132726100Y-119115600D01*
X132726100Y-119119600D01*
X132726100Y-119827600D01*
X132726100Y-119831600D01*
X132726100Y-119835600D01*
X132725100Y-119840600D01*
X132724100Y-119844600D01*
X132723100Y-119848600D01*
X132722100Y-119852600D01*
X132721100Y-119856600D01*
X132719100Y-119860600D01*
X132717100Y-119864600D01*
X132715100Y-119868600D01*
X132713100Y-119871600D01*
X132711100Y-119875600D01*
X132708100Y-119878600D01*
X132705100Y-119881600D01*
X132702100Y-119884600D01*
X132699100Y-119887600D01*
X132696100Y-119890600D01*
X132693100Y-119893600D01*
X132689100Y-119895600D01*
X132685100Y-119897600D01*
X132682100Y-119899600D01*
X132678100Y-119901600D01*
X132674100Y-119903600D01*
X132670100Y-119904600D01*
X132666100Y-119905600D01*
X132662100Y-119906600D01*
X132658100Y-119907600D01*
X132653100Y-119908600D01*
X132649100Y-119908600D01*
X132645100Y-119908600D01*
X132457100Y-119908600D01*
X132453100Y-119908600D01*
X132449100Y-119908600D01*
X132444100Y-119907600D01*
X132440100Y-119906600D01*
X132436100Y-119905600D01*
X132432100Y-119904600D01*
X132428100Y-119903600D01*
X132424100Y-119901600D01*
X132420100Y-119899600D01*
X132416100Y-119897600D01*
X132413100Y-119895600D01*
X132409100Y-119893600D01*
X132406100Y-119890600D01*
X132403100Y-119887600D01*
X132400100Y-119884600D01*
X132397100Y-119881600D01*
X132394100Y-119878600D01*
X132391100Y-119875600D01*
X132389100Y-119871600D01*
X132387100Y-119868600D01*
X132385100Y-119864600D01*
X132383100Y-119860600D01*
X132381100Y-119856600D01*
X132380100Y-119852600D01*
X132379100Y-119848600D01*
X132378100Y-119844600D01*
X132377100Y-119840600D01*
X132376100Y-119835600D01*
X132376100Y-119831600D01*
X132376100Y-119827600D01*
G36*
X132658100Y-119039600D02*
G01*
X132662100Y-119040600D01*
X132666100Y-119041600D01*
X132670100Y-119042600D01*
X132674100Y-119043600D01*
X132678100Y-119045600D01*
X132682100Y-119047600D01*
X132685100Y-119049600D01*
X132689100Y-119051600D01*
X132693100Y-119053600D01*
X132696100Y-119056600D01*
X132699100Y-119059600D01*
X132702100Y-119062600D01*
X132705100Y-119065600D01*
X132708100Y-119068600D01*
X132711100Y-119071600D01*
X132713100Y-119075600D01*
X132715100Y-119078600D01*
X132717100Y-119082600D01*
X132719100Y-119086600D01*
X132721100Y-119090600D01*
X132722100Y-119094600D01*
X132723100Y-119098600D01*
X132724100Y-119102600D01*
X132725100Y-119106600D01*
X132726100Y-119111600D01*
X132726100Y-119115600D01*
X132726100Y-119119600D01*
X132726100Y-119827600D01*
X132726100Y-119831600D01*
X132726100Y-119835600D01*
X132725100Y-119840600D01*
X132724100Y-119844600D01*
X132723100Y-119848600D01*
X132722100Y-119852600D01*
X132721100Y-119856600D01*
X132719100Y-119860600D01*
X132717100Y-119864600D01*
X132715100Y-119868600D01*
X132713100Y-119871600D01*
X132711100Y-119875600D01*
X132708100Y-119878600D01*
X132705100Y-119881600D01*
X132702100Y-119884600D01*
X132699100Y-119887600D01*
X132696100Y-119890600D01*
X132693100Y-119893600D01*
X132689100Y-119895600D01*
X132685100Y-119897600D01*
X132682100Y-119899600D01*
X132678100Y-119901600D01*
X132674100Y-119903600D01*
X132670100Y-119904600D01*
X132666100Y-119905600D01*
X132662100Y-119906600D01*
X132658100Y-119907600D01*
X132653100Y-119908600D01*
X132649100Y-119908600D01*
X132645100Y-119908600D01*
X132457100Y-119908600D01*
X132453100Y-119908600D01*
X132449100Y-119908600D01*
X132444100Y-119907600D01*
X132440100Y-119906600D01*
X132436100Y-119905600D01*
X132432100Y-119904600D01*
X132428100Y-119903600D01*
X132424100Y-119901600D01*
X132420100Y-119899600D01*
X132416100Y-119897600D01*
X132413100Y-119895600D01*
X132409100Y-119893600D01*
X132406100Y-119890600D01*
X132403100Y-119887600D01*
X132400100Y-119884600D01*
X132397100Y-119881600D01*
X132394100Y-119878600D01*
X132391100Y-119875600D01*
X132389100Y-119871600D01*
X132387100Y-119868600D01*
X132385100Y-119864600D01*
X132383100Y-119860600D01*
X132381100Y-119856600D01*
X132380100Y-119852600D01*
X132379100Y-119848600D01*
X132378100Y-119844600D01*
X132377100Y-119840600D01*
X132376100Y-119835600D01*
X132376100Y-119831600D01*
X132376100Y-119827600D01*
X132376100Y-119119600D01*
X132376100Y-119115600D01*
X132376100Y-119111600D01*
X132377100Y-119106600D01*
X132378100Y-119102600D01*
X132379100Y-119098600D01*
X132380100Y-119094600D01*
X132381100Y-119090600D01*
X132383100Y-119086600D01*
X132385100Y-119082600D01*
X132387100Y-119078600D01*
X132389100Y-119075600D01*
X132391100Y-119071600D01*
X132394100Y-119068600D01*
X132397100Y-119065600D01*
X132400100Y-119062600D01*
X132403100Y-119059600D01*
X132406100Y-119056600D01*
X132409100Y-119053600D01*
X132413100Y-119051600D01*
X132417100Y-119049600D01*
X132420100Y-119047600D01*
X132424100Y-119045600D01*
X132428100Y-119043600D01*
X132432100Y-119042600D01*
X132436100Y-119041600D01*
X132440100Y-119040600D01*
X132444100Y-119039600D01*
X132449100Y-119038600D01*
X132453100Y-119038600D01*
X132457100Y-119038600D01*
X132645100Y-119038600D01*
X132649100Y-119038600D01*
X132653100Y-119038600D01*
X132658100Y-119039600D01*
G37*
X132726100Y-115179600D02*
X132726100Y-115887600D01*
X132726100Y-115891600D01*
X132726100Y-115895600D01*
X132725100Y-115900600D01*
X132724100Y-115904600D01*
X132723100Y-115908600D01*
X132722100Y-115912600D01*
X132721100Y-115916600D01*
X132719100Y-115920600D01*
X132717100Y-115924600D01*
X132715100Y-115928600D01*
X132713100Y-115931600D01*
X132711100Y-115935600D01*
X132708100Y-115938600D01*
X132705100Y-115941600D01*
X132702100Y-115944600D01*
X132699100Y-115947600D01*
X132696100Y-115950600D01*
X132693100Y-115953600D01*
X132689100Y-115955600D01*
X132685100Y-115957600D01*
X132682100Y-115959600D01*
X132678100Y-115961600D01*
X132674100Y-115963600D01*
X132670100Y-115964600D01*
X132666100Y-115965600D01*
X132662100Y-115966600D01*
X132658100Y-115967600D01*
X132653100Y-115968600D01*
X132649100Y-115968600D01*
X132645100Y-115968600D01*
X132457100Y-115968600D01*
X132453100Y-115968600D01*
X132449100Y-115968600D01*
X132444100Y-115967600D01*
X132440100Y-115966600D01*
X132436100Y-115965600D01*
X132432100Y-115964600D01*
X132428100Y-115963600D01*
X132424100Y-115961600D01*
X132420100Y-115959600D01*
X132417100Y-115957600D01*
X132413100Y-115955600D01*
X132409100Y-115953600D01*
X132406100Y-115950600D01*
X132403100Y-115947600D01*
X132400100Y-115944600D01*
X132397100Y-115941600D01*
X132394100Y-115938600D01*
X132391100Y-115935600D01*
X132389100Y-115931600D01*
X132387100Y-115928600D01*
X132385100Y-115924600D01*
X132383100Y-115920600D01*
X132381100Y-115916600D01*
X132380100Y-115912600D01*
X132379100Y-115908600D01*
X132378100Y-115904600D01*
X132377100Y-115900600D01*
X132376100Y-115895600D01*
X132376100Y-115891600D01*
X132376100Y-115887600D01*
X132376100Y-115179600D01*
X132376100Y-115175600D01*
X132376100Y-115171600D01*
X132377100Y-115166600D01*
X132378100Y-115162600D01*
X132379100Y-115158600D01*
X132380100Y-115154600D01*
X132381100Y-115150600D01*
X132383100Y-115146600D01*
X132385100Y-115142600D01*
X132387100Y-115138600D01*
X132389100Y-115135600D01*
X132391100Y-115131600D01*
X132394100Y-115128600D01*
X132397100Y-115125600D01*
X132400100Y-115122600D01*
X132403100Y-115119600D01*
X132406100Y-115116600D01*
X132409100Y-115113600D01*
X132413100Y-115111600D01*
X132416100Y-115109600D01*
X132420100Y-115107600D01*
X132424100Y-115105600D01*
X132428100Y-115103600D01*
X132432100Y-115102600D01*
X132436100Y-115101600D01*
X132440100Y-115100600D01*
X132444100Y-115099600D01*
X132449100Y-115098600D01*
X132453100Y-115098600D01*
X132457100Y-115098600D01*
X132645100Y-115098600D01*
X132649100Y-115098600D01*
X132653100Y-115098600D01*
X132658100Y-115099600D01*
X132662100Y-115100600D01*
X132666100Y-115101600D01*
X132670100Y-115102600D01*
X132674100Y-115103600D01*
X132678100Y-115105600D01*
X132682100Y-115107600D01*
X132685100Y-115109600D01*
X132689100Y-115111600D01*
X132693100Y-115113600D01*
X132696100Y-115116600D01*
X132699100Y-115119600D01*
X132702100Y-115122600D01*
X132705100Y-115125600D01*
X132708100Y-115128600D01*
X132711100Y-115131600D01*
X132713100Y-115135600D01*
X132715100Y-115139600D01*
X132717100Y-115142600D01*
X132719100Y-115146600D01*
X132721100Y-115150600D01*
X132722100Y-115154600D01*
X132723100Y-115158600D01*
X132724100Y-115162600D01*
X132725100Y-115166600D01*
X132726100Y-115171600D01*
X132726100Y-115175600D01*
X132726100Y-115179600D01*
G36*
X132658100Y-115099600D02*
G01*
X132662100Y-115100600D01*
X132666100Y-115101600D01*
X132670100Y-115102600D01*
X132674100Y-115103600D01*
X132678100Y-115105600D01*
X132682100Y-115107600D01*
X132685100Y-115109600D01*
X132689100Y-115111600D01*
X132693100Y-115113600D01*
X132696100Y-115116600D01*
X132699100Y-115119600D01*
X132702100Y-115122600D01*
X132705100Y-115125600D01*
X132708100Y-115128600D01*
X132711100Y-115131600D01*
X132713100Y-115135600D01*
X132715100Y-115139600D01*
X132717100Y-115142600D01*
X132719100Y-115146600D01*
X132721100Y-115150600D01*
X132722100Y-115154600D01*
X132723100Y-115158600D01*
X132724100Y-115162600D01*
X132725100Y-115166600D01*
X132726100Y-115171600D01*
X132726100Y-115175600D01*
X132726100Y-115179600D01*
X132726100Y-115887600D01*
X132726100Y-115891600D01*
X132726100Y-115895600D01*
X132725100Y-115900600D01*
X132724100Y-115904600D01*
X132723100Y-115908600D01*
X132722100Y-115912600D01*
X132721100Y-115916600D01*
X132719100Y-115920600D01*
X132717100Y-115924600D01*
X132715100Y-115928600D01*
X132713100Y-115931600D01*
X132711100Y-115935600D01*
X132708100Y-115938600D01*
X132705100Y-115941600D01*
X132702100Y-115944600D01*
X132699100Y-115947600D01*
X132696100Y-115950600D01*
X132693100Y-115953600D01*
X132689100Y-115955600D01*
X132685100Y-115957600D01*
X132682100Y-115959600D01*
X132678100Y-115961600D01*
X132674100Y-115963600D01*
X132670100Y-115964600D01*
X132666100Y-115965600D01*
X132662100Y-115966600D01*
X132658100Y-115967600D01*
X132653100Y-115968600D01*
X132649100Y-115968600D01*
X132645100Y-115968600D01*
X132457100Y-115968600D01*
X132453100Y-115968600D01*
X132449100Y-115968600D01*
X132444100Y-115967600D01*
X132440100Y-115966600D01*
X132436100Y-115965600D01*
X132432100Y-115964600D01*
X132428100Y-115963600D01*
X132424100Y-115961600D01*
X132420100Y-115959600D01*
X132417100Y-115957600D01*
X132413100Y-115955600D01*
X132409100Y-115953600D01*
X132406100Y-115950600D01*
X132403100Y-115947600D01*
X132400100Y-115944600D01*
X132397100Y-115941600D01*
X132394100Y-115938600D01*
X132391100Y-115935600D01*
X132389100Y-115931600D01*
X132387100Y-115928600D01*
X132385100Y-115924600D01*
X132383100Y-115920600D01*
X132381100Y-115916600D01*
X132380100Y-115912600D01*
X132379100Y-115908600D01*
X132378100Y-115904600D01*
X132377100Y-115900600D01*
X132376100Y-115895600D01*
X132376100Y-115891600D01*
X132376100Y-115887600D01*
X132376100Y-115179600D01*
X132376100Y-115175600D01*
X132376100Y-115171600D01*
X132377100Y-115166600D01*
X132378100Y-115162600D01*
X132379100Y-115158600D01*
X132380100Y-115154600D01*
X132381100Y-115150600D01*
X132383100Y-115146600D01*
X132385100Y-115142600D01*
X132387100Y-115138600D01*
X132389100Y-115135600D01*
X132391100Y-115131600D01*
X132394100Y-115128600D01*
X132397100Y-115125600D01*
X132400100Y-115122600D01*
X132403100Y-115119600D01*
X132406100Y-115116600D01*
X132409100Y-115113600D01*
X132413100Y-115111600D01*
X132416100Y-115109600D01*
X132420100Y-115107600D01*
X132424100Y-115105600D01*
X132428100Y-115103600D01*
X132432100Y-115102600D01*
X132436100Y-115101600D01*
X132440100Y-115100600D01*
X132444100Y-115099600D01*
X132449100Y-115098600D01*
X132453100Y-115098600D01*
X132457100Y-115098600D01*
X132645100Y-115098600D01*
X132649100Y-115098600D01*
X132653100Y-115098600D01*
X132658100Y-115099600D01*
G37*
X132826100Y-119827600D02*
X132826100Y-119119600D01*
X132826100Y-119115600D01*
X132826100Y-119111600D01*
X132827100Y-119106600D01*
X132828100Y-119102600D01*
X132829100Y-119098600D01*
X132830100Y-119094600D01*
X132831100Y-119090600D01*
X132833100Y-119086600D01*
X132835100Y-119082600D01*
X132837100Y-119078600D01*
X132839100Y-119075600D01*
X132841100Y-119071600D01*
X132844100Y-119068600D01*
X132847100Y-119065600D01*
X132850100Y-119062600D01*
X132853100Y-119059600D01*
X132856100Y-119056600D01*
X132859100Y-119053600D01*
X132863100Y-119051600D01*
X132867100Y-119049600D01*
X132870100Y-119047600D01*
X132874100Y-119045600D01*
X132878100Y-119043600D01*
X132882100Y-119042600D01*
X132886100Y-119041600D01*
X132890100Y-119040600D01*
X132894100Y-119039600D01*
X132899100Y-119038600D01*
X132903100Y-119038600D01*
X132907100Y-119038600D01*
X133095100Y-119038600D01*
X133099100Y-119038600D01*
X133103100Y-119038600D01*
X133108100Y-119039600D01*
X133112100Y-119040600D01*
X133116100Y-119041600D01*
X133120100Y-119042600D01*
X133124100Y-119043600D01*
X133128100Y-119045600D01*
X133132100Y-119047600D01*
X133135100Y-119049600D01*
X133139100Y-119051600D01*
X133143100Y-119053600D01*
X133146100Y-119056600D01*
X133149100Y-119059600D01*
X133152100Y-119062600D01*
X133155100Y-119065600D01*
X133158100Y-119068600D01*
X133161100Y-119071600D01*
X133163100Y-119075600D01*
X133165100Y-119078600D01*
X133167100Y-119082600D01*
X133169100Y-119086600D01*
X133171100Y-119090600D01*
X133172100Y-119094600D01*
X133173100Y-119098600D01*
X133174100Y-119102600D01*
X133175100Y-119106600D01*
X133176100Y-119111600D01*
X133176100Y-119115600D01*
X133176100Y-119119600D01*
X133176100Y-119827600D01*
X133176100Y-119831600D01*
X133176100Y-119835600D01*
X133175100Y-119840600D01*
X133174100Y-119844600D01*
X133173100Y-119848600D01*
X133172100Y-119852600D01*
X133171100Y-119856600D01*
X133169100Y-119860600D01*
X133167100Y-119864600D01*
X133165100Y-119867600D01*
X133163100Y-119871600D01*
X133161100Y-119875600D01*
X133158100Y-119878600D01*
X133155100Y-119881600D01*
X133152100Y-119884600D01*
X133149100Y-119887600D01*
X133146100Y-119890600D01*
X133143100Y-119893600D01*
X133139100Y-119895600D01*
X133136100Y-119897600D01*
X133132100Y-119899600D01*
X133128100Y-119901600D01*
X133124100Y-119903600D01*
X133120100Y-119904600D01*
X133116100Y-119905600D01*
X133112100Y-119906600D01*
X133108100Y-119907600D01*
X133103100Y-119908600D01*
X133099100Y-119908600D01*
X133095100Y-119908600D01*
X132907100Y-119908600D01*
X132903100Y-119908600D01*
X132899100Y-119908600D01*
X132894100Y-119907600D01*
X132890100Y-119906600D01*
X132886100Y-119905600D01*
X132882100Y-119904600D01*
X132878100Y-119903600D01*
X132874100Y-119901600D01*
X132870100Y-119899600D01*
X132866100Y-119897600D01*
X132863100Y-119895600D01*
X132859100Y-119893600D01*
X132856100Y-119890600D01*
X132853100Y-119887600D01*
X132850100Y-119884600D01*
X132847100Y-119881600D01*
X132844100Y-119878600D01*
X132841100Y-119875600D01*
X132839100Y-119871600D01*
X132837100Y-119867600D01*
X132835100Y-119864600D01*
X132833100Y-119860600D01*
X132831100Y-119856600D01*
X132830100Y-119852600D01*
X132829100Y-119848600D01*
X132828100Y-119844600D01*
X132827100Y-119840600D01*
X132826100Y-119835600D01*
X132826100Y-119831600D01*
X132826100Y-119827600D01*
G36*
X133108100Y-119039600D02*
G01*
X133112100Y-119040600D01*
X133116100Y-119041600D01*
X133120100Y-119042600D01*
X133124100Y-119043600D01*
X133128100Y-119045600D01*
X133132100Y-119047600D01*
X133135100Y-119049600D01*
X133139100Y-119051600D01*
X133143100Y-119053600D01*
X133146100Y-119056600D01*
X133149100Y-119059600D01*
X133152100Y-119062600D01*
X133155100Y-119065600D01*
X133158100Y-119068600D01*
X133161100Y-119071600D01*
X133163100Y-119075600D01*
X133165100Y-119078600D01*
X133167100Y-119082600D01*
X133169100Y-119086600D01*
X133171100Y-119090600D01*
X133172100Y-119094600D01*
X133173100Y-119098600D01*
X133174100Y-119102600D01*
X133175100Y-119106600D01*
X133176100Y-119111600D01*
X133176100Y-119115600D01*
X133176100Y-119119600D01*
X133176100Y-119827600D01*
X133176100Y-119831600D01*
X133176100Y-119835600D01*
X133175100Y-119840600D01*
X133174100Y-119844600D01*
X133173100Y-119848600D01*
X133172100Y-119852600D01*
X133171100Y-119856600D01*
X133169100Y-119860600D01*
X133167100Y-119864600D01*
X133165100Y-119867600D01*
X133163100Y-119871600D01*
X133161100Y-119875600D01*
X133158100Y-119878600D01*
X133155100Y-119881600D01*
X133152100Y-119884600D01*
X133149100Y-119887600D01*
X133146100Y-119890600D01*
X133143100Y-119893600D01*
X133139100Y-119895600D01*
X133136100Y-119897600D01*
X133132100Y-119899600D01*
X133128100Y-119901600D01*
X133124100Y-119903600D01*
X133120100Y-119904600D01*
X133116100Y-119905600D01*
X133112100Y-119906600D01*
X133108100Y-119907600D01*
X133103100Y-119908600D01*
X133099100Y-119908600D01*
X133095100Y-119908600D01*
X132907100Y-119908600D01*
X132903100Y-119908600D01*
X132899100Y-119908600D01*
X132894100Y-119907600D01*
X132890100Y-119906600D01*
X132886100Y-119905600D01*
X132882100Y-119904600D01*
X132878100Y-119903600D01*
X132874100Y-119901600D01*
X132870100Y-119899600D01*
X132866100Y-119897600D01*
X132863100Y-119895600D01*
X132859100Y-119893600D01*
X132856100Y-119890600D01*
X132853100Y-119887600D01*
X132850100Y-119884600D01*
X132847100Y-119881600D01*
X132844100Y-119878600D01*
X132841100Y-119875600D01*
X132839100Y-119871600D01*
X132837100Y-119867600D01*
X132835100Y-119864600D01*
X132833100Y-119860600D01*
X132831100Y-119856600D01*
X132830100Y-119852600D01*
X132829100Y-119848600D01*
X132828100Y-119844600D01*
X132827100Y-119840600D01*
X132826100Y-119835600D01*
X132826100Y-119831600D01*
X132826100Y-119827600D01*
X132826100Y-119119600D01*
X132826100Y-119115600D01*
X132826100Y-119111600D01*
X132827100Y-119106600D01*
X132828100Y-119102600D01*
X132829100Y-119098600D01*
X132830100Y-119094600D01*
X132831100Y-119090600D01*
X132833100Y-119086600D01*
X132835100Y-119082600D01*
X132837100Y-119078600D01*
X132839100Y-119075600D01*
X132841100Y-119071600D01*
X132844100Y-119068600D01*
X132847100Y-119065600D01*
X132850100Y-119062600D01*
X132853100Y-119059600D01*
X132856100Y-119056600D01*
X132859100Y-119053600D01*
X132863100Y-119051600D01*
X132867100Y-119049600D01*
X132870100Y-119047600D01*
X132874100Y-119045600D01*
X132878100Y-119043600D01*
X132882100Y-119042600D01*
X132886100Y-119041600D01*
X132890100Y-119040600D01*
X132894100Y-119039600D01*
X132899100Y-119038600D01*
X132903100Y-119038600D01*
X132907100Y-119038600D01*
X133095100Y-119038600D01*
X133099100Y-119038600D01*
X133103100Y-119038600D01*
X133108100Y-119039600D01*
G37*
X133176100Y-115179600D02*
X133176100Y-115887600D01*
X133176100Y-115891600D01*
X133176100Y-115895600D01*
X133175100Y-115900600D01*
X133174100Y-115904600D01*
X133173100Y-115908600D01*
X133172100Y-115912600D01*
X133171100Y-115916600D01*
X133169100Y-115920600D01*
X133167100Y-115924600D01*
X133165100Y-115928600D01*
X133163100Y-115931600D01*
X133161100Y-115935600D01*
X133158100Y-115938600D01*
X133155100Y-115941600D01*
X133152100Y-115944600D01*
X133149100Y-115947600D01*
X133146100Y-115950600D01*
X133143100Y-115953600D01*
X133139100Y-115955600D01*
X133135100Y-115957600D01*
X133132100Y-115959600D01*
X133128100Y-115961600D01*
X133124100Y-115963600D01*
X133120100Y-115964600D01*
X133116100Y-115965600D01*
X133112100Y-115966600D01*
X133108100Y-115967600D01*
X133103100Y-115968600D01*
X133099100Y-115968600D01*
X133095100Y-115968600D01*
X132907100Y-115968600D01*
X132903100Y-115968600D01*
X132899100Y-115968600D01*
X132894100Y-115967600D01*
X132890100Y-115966600D01*
X132886100Y-115965600D01*
X132882100Y-115964600D01*
X132878100Y-115963600D01*
X132874100Y-115961600D01*
X132870100Y-115959600D01*
X132867100Y-115957600D01*
X132863100Y-115955600D01*
X132859100Y-115953600D01*
X132856100Y-115950600D01*
X132853100Y-115947600D01*
X132850100Y-115944600D01*
X132847100Y-115941600D01*
X132844100Y-115938600D01*
X132841100Y-115935600D01*
X132839100Y-115931600D01*
X132837100Y-115928600D01*
X132835100Y-115924600D01*
X132833100Y-115920600D01*
X132831100Y-115916600D01*
X132830100Y-115912600D01*
X132829100Y-115908600D01*
X132828100Y-115904600D01*
X132827100Y-115900600D01*
X132826100Y-115895600D01*
X132826100Y-115891600D01*
X132826100Y-115887600D01*
X132826100Y-115179600D01*
X132826100Y-115175600D01*
X132826100Y-115171600D01*
X132827100Y-115166600D01*
X132828100Y-115162600D01*
X132829100Y-115158600D01*
X132830100Y-115154600D01*
X132831100Y-115150600D01*
X132833100Y-115146600D01*
X132835100Y-115142600D01*
X132837100Y-115139600D01*
X132839100Y-115135600D01*
X132841100Y-115131600D01*
X132844100Y-115128600D01*
X132847100Y-115125600D01*
X132850100Y-115122600D01*
X132853100Y-115119600D01*
X132856100Y-115116600D01*
X132859100Y-115113600D01*
X132863100Y-115111600D01*
X132866100Y-115109600D01*
X132870100Y-115107600D01*
X132874100Y-115105600D01*
X132878100Y-115103600D01*
X132882100Y-115102600D01*
X132886100Y-115101600D01*
X132890100Y-115100600D01*
X132894100Y-115099600D01*
X132899100Y-115098600D01*
X132903100Y-115098600D01*
X132907100Y-115098600D01*
X133095100Y-115098600D01*
X133099100Y-115098600D01*
X133103100Y-115098600D01*
X133108100Y-115099600D01*
X133112100Y-115100600D01*
X133116100Y-115101600D01*
X133120100Y-115102600D01*
X133124100Y-115103600D01*
X133128100Y-115105600D01*
X133132100Y-115107600D01*
X133136100Y-115109600D01*
X133139100Y-115111600D01*
X133143100Y-115113600D01*
X133146100Y-115116600D01*
X133149100Y-115119600D01*
X133152100Y-115122600D01*
X133155100Y-115125600D01*
X133158100Y-115128600D01*
X133161100Y-115131600D01*
X133163100Y-115135600D01*
X133165100Y-115139600D01*
X133167100Y-115142600D01*
X133169100Y-115146600D01*
X133171100Y-115150600D01*
X133172100Y-115154600D01*
X133173100Y-115158600D01*
X133174100Y-115162600D01*
X133175100Y-115166600D01*
X133176100Y-115171600D01*
X133176100Y-115175600D01*
X133176100Y-115179600D01*
G36*
X133108100Y-115099600D02*
G01*
X133112100Y-115100600D01*
X133116100Y-115101600D01*
X133120100Y-115102600D01*
X133124100Y-115103600D01*
X133128100Y-115105600D01*
X133132100Y-115107600D01*
X133136100Y-115109600D01*
X133139100Y-115111600D01*
X133143100Y-115113600D01*
X133146100Y-115116600D01*
X133149100Y-115119600D01*
X133152100Y-115122600D01*
X133155100Y-115125600D01*
X133158100Y-115128600D01*
X133161100Y-115131600D01*
X133163100Y-115135600D01*
X133165100Y-115139600D01*
X133167100Y-115142600D01*
X133169100Y-115146600D01*
X133171100Y-115150600D01*
X133172100Y-115154600D01*
X133173100Y-115158600D01*
X133174100Y-115162600D01*
X133175100Y-115166600D01*
X133176100Y-115171600D01*
X133176100Y-115175600D01*
X133176100Y-115179600D01*
X133176100Y-115887600D01*
X133176100Y-115891600D01*
X133176100Y-115895600D01*
X133175100Y-115900600D01*
X133174100Y-115904600D01*
X133173100Y-115908600D01*
X133172100Y-115912600D01*
X133171100Y-115916600D01*
X133169100Y-115920600D01*
X133167100Y-115924600D01*
X133165100Y-115928600D01*
X133163100Y-115931600D01*
X133161100Y-115935600D01*
X133158100Y-115938600D01*
X133155100Y-115941600D01*
X133152100Y-115944600D01*
X133149100Y-115947600D01*
X133146100Y-115950600D01*
X133143100Y-115953600D01*
X133139100Y-115955600D01*
X133135100Y-115957600D01*
X133132100Y-115959600D01*
X133128100Y-115961600D01*
X133124100Y-115963600D01*
X133120100Y-115964600D01*
X133116100Y-115965600D01*
X133112100Y-115966600D01*
X133108100Y-115967600D01*
X133103100Y-115968600D01*
X133099100Y-115968600D01*
X133095100Y-115968600D01*
X132907100Y-115968600D01*
X132903100Y-115968600D01*
X132899100Y-115968600D01*
X132894100Y-115967600D01*
X132890100Y-115966600D01*
X132886100Y-115965600D01*
X132882100Y-115964600D01*
X132878100Y-115963600D01*
X132874100Y-115961600D01*
X132870100Y-115959600D01*
X132867100Y-115957600D01*
X132863100Y-115955600D01*
X132859100Y-115953600D01*
X132856100Y-115950600D01*
X132853100Y-115947600D01*
X132850100Y-115944600D01*
X132847100Y-115941600D01*
X132844100Y-115938600D01*
X132841100Y-115935600D01*
X132839100Y-115931600D01*
X132837100Y-115928600D01*
X132835100Y-115924600D01*
X132833100Y-115920600D01*
X132831100Y-115916600D01*
X132830100Y-115912600D01*
X132829100Y-115908600D01*
X132828100Y-115904600D01*
X132827100Y-115900600D01*
X132826100Y-115895600D01*
X132826100Y-115891600D01*
X132826100Y-115887600D01*
X132826100Y-115179600D01*
X132826100Y-115175600D01*
X132826100Y-115171600D01*
X132827100Y-115166600D01*
X132828100Y-115162600D01*
X132829100Y-115158600D01*
X132830100Y-115154600D01*
X132831100Y-115150600D01*
X132833100Y-115146600D01*
X132835100Y-115142600D01*
X132837100Y-115139600D01*
X132839100Y-115135600D01*
X132841100Y-115131600D01*
X132844100Y-115128600D01*
X132847100Y-115125600D01*
X132850100Y-115122600D01*
X132853100Y-115119600D01*
X132856100Y-115116600D01*
X132859100Y-115113600D01*
X132863100Y-115111600D01*
X132866100Y-115109600D01*
X132870100Y-115107600D01*
X132874100Y-115105600D01*
X132878100Y-115103600D01*
X132882100Y-115102600D01*
X132886100Y-115101600D01*
X132890100Y-115100600D01*
X132894100Y-115099600D01*
X132899100Y-115098600D01*
X132903100Y-115098600D01*
X132907100Y-115098600D01*
X133095100Y-115098600D01*
X133099100Y-115098600D01*
X133103100Y-115098600D01*
X133108100Y-115099600D01*
G37*
X133276100Y-119827600D02*
X133276100Y-119119600D01*
X133276100Y-119115600D01*
X133276100Y-119111600D01*
X133277100Y-119106600D01*
X133278100Y-119102600D01*
X133279100Y-119098600D01*
X133280100Y-119094600D01*
X133281100Y-119090600D01*
X133283100Y-119086600D01*
X133285100Y-119082600D01*
X133287100Y-119078600D01*
X133289100Y-119075600D01*
X133291100Y-119071600D01*
X133294100Y-119068600D01*
X133297100Y-119065600D01*
X133300100Y-119062600D01*
X133303100Y-119059600D01*
X133306100Y-119056600D01*
X133309100Y-119053600D01*
X133313100Y-119051600D01*
X133317100Y-119049600D01*
X133320100Y-119047600D01*
X133324100Y-119045600D01*
X133328100Y-119043600D01*
X133332100Y-119042600D01*
X133336100Y-119041600D01*
X133340100Y-119040600D01*
X133344100Y-119039600D01*
X133349100Y-119038600D01*
X133353100Y-119038600D01*
X133357100Y-119038600D01*
X133545100Y-119038600D01*
X133549100Y-119038600D01*
X133553100Y-119038600D01*
X133558100Y-119039600D01*
X133562100Y-119040600D01*
X133566100Y-119041600D01*
X133570100Y-119042600D01*
X133574100Y-119043600D01*
X133578100Y-119045600D01*
X133582100Y-119047600D01*
X133585100Y-119049600D01*
X133589100Y-119051600D01*
X133593100Y-119053600D01*
X133596100Y-119056600D01*
X133599100Y-119059600D01*
X133602100Y-119062600D01*
X133605100Y-119065600D01*
X133608100Y-119068600D01*
X133611100Y-119071600D01*
X133613100Y-119075600D01*
X133615100Y-119078600D01*
X133617100Y-119082600D01*
X133619100Y-119086600D01*
X133621100Y-119090600D01*
X133622100Y-119094600D01*
X133623100Y-119098600D01*
X133624100Y-119102600D01*
X133625100Y-119106600D01*
X133626100Y-119111600D01*
X133626100Y-119115600D01*
X133626100Y-119119600D01*
X133626100Y-119827600D01*
X133626100Y-119831600D01*
X133626100Y-119835600D01*
X133625100Y-119840600D01*
X133624100Y-119844600D01*
X133623100Y-119848600D01*
X133622100Y-119852600D01*
X133621100Y-119856600D01*
X133619100Y-119860600D01*
X133617100Y-119864600D01*
X133615100Y-119868600D01*
X133613100Y-119871600D01*
X133611100Y-119875600D01*
X133608100Y-119878600D01*
X133605100Y-119881600D01*
X133602100Y-119884600D01*
X133599100Y-119887600D01*
X133596100Y-119890600D01*
X133593100Y-119893600D01*
X133589100Y-119895600D01*
X133586100Y-119897600D01*
X133582100Y-119899600D01*
X133578100Y-119901600D01*
X133574100Y-119903600D01*
X133570100Y-119904600D01*
X133566100Y-119905600D01*
X133562100Y-119906600D01*
X133558100Y-119907600D01*
X133553100Y-119908600D01*
X133549100Y-119908600D01*
X133545100Y-119908600D01*
X133357100Y-119908600D01*
X133353100Y-119908600D01*
X133349100Y-119908600D01*
X133344100Y-119907600D01*
X133340100Y-119906600D01*
X133336100Y-119905600D01*
X133332100Y-119904600D01*
X133328100Y-119903600D01*
X133324100Y-119901600D01*
X133320100Y-119899600D01*
X133317100Y-119897600D01*
X133313100Y-119895600D01*
X133309100Y-119893600D01*
X133306100Y-119890600D01*
X133303100Y-119887600D01*
X133300100Y-119884600D01*
X133297100Y-119881600D01*
X133294100Y-119878600D01*
X133291100Y-119875600D01*
X133289100Y-119871600D01*
X133287100Y-119868600D01*
X133285100Y-119864600D01*
X133283100Y-119860600D01*
X133281100Y-119856600D01*
X133280100Y-119852600D01*
X133279100Y-119848600D01*
X133278100Y-119844600D01*
X133277100Y-119840600D01*
X133276100Y-119835600D01*
X133276100Y-119831600D01*
X133276100Y-119827600D01*
G36*
X133558100Y-119039600D02*
G01*
X133562100Y-119040600D01*
X133566100Y-119041600D01*
X133570100Y-119042600D01*
X133574100Y-119043600D01*
X133578100Y-119045600D01*
X133582100Y-119047600D01*
X133585100Y-119049600D01*
X133589100Y-119051600D01*
X133593100Y-119053600D01*
X133596100Y-119056600D01*
X133599100Y-119059600D01*
X133602100Y-119062600D01*
X133605100Y-119065600D01*
X133608100Y-119068600D01*
X133611100Y-119071600D01*
X133613100Y-119075600D01*
X133615100Y-119078600D01*
X133617100Y-119082600D01*
X133619100Y-119086600D01*
X133621100Y-119090600D01*
X133622100Y-119094600D01*
X133623100Y-119098600D01*
X133624100Y-119102600D01*
X133625100Y-119106600D01*
X133626100Y-119111600D01*
X133626100Y-119115600D01*
X133626100Y-119119600D01*
X133626100Y-119827600D01*
X133626100Y-119831600D01*
X133626100Y-119835600D01*
X133625100Y-119840600D01*
X133624100Y-119844600D01*
X133623100Y-119848600D01*
X133622100Y-119852600D01*
X133621100Y-119856600D01*
X133619100Y-119860600D01*
X133617100Y-119864600D01*
X133615100Y-119868600D01*
X133613100Y-119871600D01*
X133611100Y-119875600D01*
X133608100Y-119878600D01*
X133605100Y-119881600D01*
X133602100Y-119884600D01*
X133599100Y-119887600D01*
X133596100Y-119890600D01*
X133593100Y-119893600D01*
X133589100Y-119895600D01*
X133586100Y-119897600D01*
X133582100Y-119899600D01*
X133578100Y-119901600D01*
X133574100Y-119903600D01*
X133570100Y-119904600D01*
X133566100Y-119905600D01*
X133562100Y-119906600D01*
X133558100Y-119907600D01*
X133553100Y-119908600D01*
X133549100Y-119908600D01*
X133545100Y-119908600D01*
X133357100Y-119908600D01*
X133353100Y-119908600D01*
X133349100Y-119908600D01*
X133344100Y-119907600D01*
X133340100Y-119906600D01*
X133336100Y-119905600D01*
X133332100Y-119904600D01*
X133328100Y-119903600D01*
X133324100Y-119901600D01*
X133320100Y-119899600D01*
X133317100Y-119897600D01*
X133313100Y-119895600D01*
X133309100Y-119893600D01*
X133306100Y-119890600D01*
X133303100Y-119887600D01*
X133300100Y-119884600D01*
X133297100Y-119881600D01*
X133294100Y-119878600D01*
X133291100Y-119875600D01*
X133289100Y-119871600D01*
X133287100Y-119868600D01*
X133285100Y-119864600D01*
X133283100Y-119860600D01*
X133281100Y-119856600D01*
X133280100Y-119852600D01*
X133279100Y-119848600D01*
X133278100Y-119844600D01*
X133277100Y-119840600D01*
X133276100Y-119835600D01*
X133276100Y-119831600D01*
X133276100Y-119827600D01*
X133276100Y-119119600D01*
X133276100Y-119115600D01*
X133276100Y-119111600D01*
X133277100Y-119106600D01*
X133278100Y-119102600D01*
X133279100Y-119098600D01*
X133280100Y-119094600D01*
X133281100Y-119090600D01*
X133283100Y-119086600D01*
X133285100Y-119082600D01*
X133287100Y-119078600D01*
X133289100Y-119075600D01*
X133291100Y-119071600D01*
X133294100Y-119068600D01*
X133297100Y-119065600D01*
X133300100Y-119062600D01*
X133303100Y-119059600D01*
X133306100Y-119056600D01*
X133309100Y-119053600D01*
X133313100Y-119051600D01*
X133317100Y-119049600D01*
X133320100Y-119047600D01*
X133324100Y-119045600D01*
X133328100Y-119043600D01*
X133332100Y-119042600D01*
X133336100Y-119041600D01*
X133340100Y-119040600D01*
X133344100Y-119039600D01*
X133349100Y-119038600D01*
X133353100Y-119038600D01*
X133357100Y-119038600D01*
X133545100Y-119038600D01*
X133549100Y-119038600D01*
X133553100Y-119038600D01*
X133558100Y-119039600D01*
G37*
X133626100Y-115179600D02*
X133626100Y-115887600D01*
X133626100Y-115891600D01*
X133626100Y-115895600D01*
X133625100Y-115900600D01*
X133624100Y-115904600D01*
X133623100Y-115908600D01*
X133622100Y-115912600D01*
X133621100Y-115916600D01*
X133619100Y-115920600D01*
X133617100Y-115924600D01*
X133615100Y-115928600D01*
X133613100Y-115931600D01*
X133611100Y-115935600D01*
X133608100Y-115938600D01*
X133605100Y-115941600D01*
X133602100Y-115944600D01*
X133599100Y-115947600D01*
X133596100Y-115950600D01*
X133593100Y-115953600D01*
X133589100Y-115955600D01*
X133585100Y-115957600D01*
X133582100Y-115959600D01*
X133578100Y-115961600D01*
X133574100Y-115963600D01*
X133570100Y-115964600D01*
X133566100Y-115965600D01*
X133562100Y-115966600D01*
X133558100Y-115967600D01*
X133553100Y-115968600D01*
X133549100Y-115968600D01*
X133545100Y-115968600D01*
X133357100Y-115968600D01*
X133353100Y-115968600D01*
X133349100Y-115968600D01*
X133344100Y-115967600D01*
X133340100Y-115966600D01*
X133336100Y-115965600D01*
X133332100Y-115964600D01*
X133328100Y-115963600D01*
X133324100Y-115961600D01*
X133320100Y-115959600D01*
X133317100Y-115957600D01*
X133313100Y-115955600D01*
X133309100Y-115953600D01*
X133306100Y-115950600D01*
X133303100Y-115947600D01*
X133300100Y-115944600D01*
X133297100Y-115941600D01*
X133294100Y-115938600D01*
X133291100Y-115935600D01*
X133289100Y-115931600D01*
X133287100Y-115928600D01*
X133285100Y-115924600D01*
X133283100Y-115920600D01*
X133281100Y-115916600D01*
X133280100Y-115912600D01*
X133279100Y-115908600D01*
X133278100Y-115904600D01*
X133277100Y-115900600D01*
X133276100Y-115895600D01*
X133276100Y-115891600D01*
X133276100Y-115887600D01*
X133276100Y-115179600D01*
X133276100Y-115175600D01*
X133276100Y-115171600D01*
X133277100Y-115166600D01*
X133278100Y-115162600D01*
X133279100Y-115158600D01*
X133280100Y-115154600D01*
X133281100Y-115150600D01*
X133283100Y-115146600D01*
X133285100Y-115142600D01*
X133287100Y-115138600D01*
X133289100Y-115135600D01*
X133291100Y-115131600D01*
X133294100Y-115128600D01*
X133297100Y-115125600D01*
X133300100Y-115122600D01*
X133303100Y-115119600D01*
X133306100Y-115116600D01*
X133309100Y-115113600D01*
X133313100Y-115111600D01*
X133317100Y-115109600D01*
X133320100Y-115107600D01*
X133324100Y-115105600D01*
X133328100Y-115103600D01*
X133332100Y-115102600D01*
X133336100Y-115101600D01*
X133340100Y-115100600D01*
X133344100Y-115099600D01*
X133349100Y-115098600D01*
X133353100Y-115098600D01*
X133357100Y-115098600D01*
X133545100Y-115098600D01*
X133549100Y-115098600D01*
X133553100Y-115098600D01*
X133558100Y-115099600D01*
X133562100Y-115100600D01*
X133566100Y-115101600D01*
X133570100Y-115102600D01*
X133574100Y-115103600D01*
X133578100Y-115105600D01*
X133582100Y-115107600D01*
X133586100Y-115109600D01*
X133589100Y-115111600D01*
X133593100Y-115113600D01*
X133596100Y-115116600D01*
X133599100Y-115119600D01*
X133602100Y-115122600D01*
X133605100Y-115125600D01*
X133608100Y-115128600D01*
X133611100Y-115131600D01*
X133613100Y-115135600D01*
X133615100Y-115139600D01*
X133617100Y-115142600D01*
X133619100Y-115146600D01*
X133621100Y-115150600D01*
X133622100Y-115154600D01*
X133623100Y-115158600D01*
X133624100Y-115162600D01*
X133625100Y-115166600D01*
X133626100Y-115171600D01*
X133626100Y-115175600D01*
X133626100Y-115179600D01*
G36*
X133558100Y-115099600D02*
G01*
X133562100Y-115100600D01*
X133566100Y-115101600D01*
X133570100Y-115102600D01*
X133574100Y-115103600D01*
X133578100Y-115105600D01*
X133582100Y-115107600D01*
X133586100Y-115109600D01*
X133589100Y-115111600D01*
X133593100Y-115113600D01*
X133596100Y-115116600D01*
X133599100Y-115119600D01*
X133602100Y-115122600D01*
X133605100Y-115125600D01*
X133608100Y-115128600D01*
X133611100Y-115131600D01*
X133613100Y-115135600D01*
X133615100Y-115139600D01*
X133617100Y-115142600D01*
X133619100Y-115146600D01*
X133621100Y-115150600D01*
X133622100Y-115154600D01*
X133623100Y-115158600D01*
X133624100Y-115162600D01*
X133625100Y-115166600D01*
X133626100Y-115171600D01*
X133626100Y-115175600D01*
X133626100Y-115179600D01*
X133626100Y-115887600D01*
X133626100Y-115891600D01*
X133626100Y-115895600D01*
X133625100Y-115900600D01*
X133624100Y-115904600D01*
X133623100Y-115908600D01*
X133622100Y-115912600D01*
X133621100Y-115916600D01*
X133619100Y-115920600D01*
X133617100Y-115924600D01*
X133615100Y-115928600D01*
X133613100Y-115931600D01*
X133611100Y-115935600D01*
X133608100Y-115938600D01*
X133605100Y-115941600D01*
X133602100Y-115944600D01*
X133599100Y-115947600D01*
X133596100Y-115950600D01*
X133593100Y-115953600D01*
X133589100Y-115955600D01*
X133585100Y-115957600D01*
X133582100Y-115959600D01*
X133578100Y-115961600D01*
X133574100Y-115963600D01*
X133570100Y-115964600D01*
X133566100Y-115965600D01*
X133562100Y-115966600D01*
X133558100Y-115967600D01*
X133553100Y-115968600D01*
X133549100Y-115968600D01*
X133545100Y-115968600D01*
X133357100Y-115968600D01*
X133353100Y-115968600D01*
X133349100Y-115968600D01*
X133344100Y-115967600D01*
X133340100Y-115966600D01*
X133336100Y-115965600D01*
X133332100Y-115964600D01*
X133328100Y-115963600D01*
X133324100Y-115961600D01*
X133320100Y-115959600D01*
X133317100Y-115957600D01*
X133313100Y-115955600D01*
X133309100Y-115953600D01*
X133306100Y-115950600D01*
X133303100Y-115947600D01*
X133300100Y-115944600D01*
X133297100Y-115941600D01*
X133294100Y-115938600D01*
X133291100Y-115935600D01*
X133289100Y-115931600D01*
X133287100Y-115928600D01*
X133285100Y-115924600D01*
X133283100Y-115920600D01*
X133281100Y-115916600D01*
X133280100Y-115912600D01*
X133279100Y-115908600D01*
X133278100Y-115904600D01*
X133277100Y-115900600D01*
X133276100Y-115895600D01*
X133276100Y-115891600D01*
X133276100Y-115887600D01*
X133276100Y-115179600D01*
X133276100Y-115175600D01*
X133276100Y-115171600D01*
X133277100Y-115166600D01*
X133278100Y-115162600D01*
X133279100Y-115158600D01*
X133280100Y-115154600D01*
X133281100Y-115150600D01*
X133283100Y-115146600D01*
X133285100Y-115142600D01*
X133287100Y-115138600D01*
X133289100Y-115135600D01*
X133291100Y-115131600D01*
X133294100Y-115128600D01*
X133297100Y-115125600D01*
X133300100Y-115122600D01*
X133303100Y-115119600D01*
X133306100Y-115116600D01*
X133309100Y-115113600D01*
X133313100Y-115111600D01*
X133317100Y-115109600D01*
X133320100Y-115107600D01*
X133324100Y-115105600D01*
X133328100Y-115103600D01*
X133332100Y-115102600D01*
X133336100Y-115101600D01*
X133340100Y-115100600D01*
X133344100Y-115099600D01*
X133349100Y-115098600D01*
X133353100Y-115098600D01*
X133357100Y-115098600D01*
X133545100Y-115098600D01*
X133549100Y-115098600D01*
X133553100Y-115098600D01*
X133558100Y-115099600D01*
G37*
X133726100Y-119827600D02*
X133726100Y-119119600D01*
X133726100Y-119115600D01*
X133726100Y-119111600D01*
X133727100Y-119106600D01*
X133728100Y-119102600D01*
X133729100Y-119098600D01*
X133730100Y-119094600D01*
X133731100Y-119090600D01*
X133733100Y-119086600D01*
X133735100Y-119082600D01*
X133737100Y-119078600D01*
X133739100Y-119075600D01*
X133741100Y-119071600D01*
X133744100Y-119068600D01*
X133747100Y-119065600D01*
X133750100Y-119062600D01*
X133753100Y-119059600D01*
X133756100Y-119056600D01*
X133759100Y-119053600D01*
X133763100Y-119051600D01*
X133767100Y-119049600D01*
X133770100Y-119047600D01*
X133774100Y-119045600D01*
X133778100Y-119043600D01*
X133782100Y-119042600D01*
X133786100Y-119041600D01*
X133790100Y-119040600D01*
X133794100Y-119039600D01*
X133799100Y-119038600D01*
X133803100Y-119038600D01*
X133807100Y-119038600D01*
X133995100Y-119038600D01*
X133999100Y-119038600D01*
X134003100Y-119038600D01*
X134008100Y-119039600D01*
X134012100Y-119040600D01*
X134016100Y-119041600D01*
X134020100Y-119042600D01*
X134024100Y-119043600D01*
X134028100Y-119045600D01*
X134032100Y-119047600D01*
X134035100Y-119049600D01*
X134039100Y-119051600D01*
X134043100Y-119053600D01*
X134046100Y-119056600D01*
X134049100Y-119059600D01*
X134052100Y-119062600D01*
X134055100Y-119065600D01*
X134058100Y-119068600D01*
X134061100Y-119071600D01*
X134063100Y-119075600D01*
X134065100Y-119078600D01*
X134067100Y-119082600D01*
X134069100Y-119086600D01*
X134071100Y-119090600D01*
X134072100Y-119094600D01*
X134073100Y-119098600D01*
X134074100Y-119102600D01*
X134075100Y-119106600D01*
X134076100Y-119111600D01*
X134076100Y-119115600D01*
X134076100Y-119119600D01*
X134076100Y-119827600D01*
X134076100Y-119831600D01*
X134076100Y-119835600D01*
X134075100Y-119840600D01*
X134074100Y-119844600D01*
X134073100Y-119848600D01*
X134072100Y-119852600D01*
X134071100Y-119856600D01*
X134069100Y-119860600D01*
X134067100Y-119864600D01*
X134065100Y-119868600D01*
X134063100Y-119871600D01*
X134061100Y-119875600D01*
X134058100Y-119878600D01*
X134055100Y-119881600D01*
X134052100Y-119884600D01*
X134049100Y-119887600D01*
X134046100Y-119890600D01*
X134043100Y-119893600D01*
X134039100Y-119895600D01*
X134035100Y-119897600D01*
X134032100Y-119899600D01*
X134028100Y-119901600D01*
X134024100Y-119903600D01*
X134020100Y-119904600D01*
X134016100Y-119905600D01*
X134012100Y-119906600D01*
X134008100Y-119907600D01*
X134003100Y-119908600D01*
X133999100Y-119908600D01*
X133995100Y-119908600D01*
X133807100Y-119908600D01*
X133803100Y-119908600D01*
X133799100Y-119908600D01*
X133794100Y-119907600D01*
X133790100Y-119906600D01*
X133786100Y-119905600D01*
X133782100Y-119904600D01*
X133778100Y-119903600D01*
X133774100Y-119901600D01*
X133770100Y-119899600D01*
X133767100Y-119897600D01*
X133763100Y-119895600D01*
X133759100Y-119893600D01*
X133756100Y-119890600D01*
X133753100Y-119887600D01*
X133750100Y-119884600D01*
X133747100Y-119881600D01*
X133744100Y-119878600D01*
X133741100Y-119875600D01*
X133739100Y-119871600D01*
X133737100Y-119867600D01*
X133735100Y-119864600D01*
X133733100Y-119860600D01*
X133731100Y-119856600D01*
X133730100Y-119852600D01*
X133729100Y-119848600D01*
X133728100Y-119844600D01*
X133727100Y-119840600D01*
X133726100Y-119835600D01*
X133726100Y-119831600D01*
X133726100Y-119827600D01*
G36*
X134008100Y-119039600D02*
G01*
X134012100Y-119040600D01*
X134016100Y-119041600D01*
X134020100Y-119042600D01*
X134024100Y-119043600D01*
X134028100Y-119045600D01*
X134032100Y-119047600D01*
X134035100Y-119049600D01*
X134039100Y-119051600D01*
X134043100Y-119053600D01*
X134046100Y-119056600D01*
X134049100Y-119059600D01*
X134052100Y-119062600D01*
X134055100Y-119065600D01*
X134058100Y-119068600D01*
X134061100Y-119071600D01*
X134063100Y-119075600D01*
X134065100Y-119078600D01*
X134067100Y-119082600D01*
X134069100Y-119086600D01*
X134071100Y-119090600D01*
X134072100Y-119094600D01*
X134073100Y-119098600D01*
X134074100Y-119102600D01*
X134075100Y-119106600D01*
X134076100Y-119111600D01*
X134076100Y-119115600D01*
X134076100Y-119119600D01*
X134076100Y-119827600D01*
X134076100Y-119831600D01*
X134076100Y-119835600D01*
X134075100Y-119840600D01*
X134074100Y-119844600D01*
X134073100Y-119848600D01*
X134072100Y-119852600D01*
X134071100Y-119856600D01*
X134069100Y-119860600D01*
X134067100Y-119864600D01*
X134065100Y-119868600D01*
X134063100Y-119871600D01*
X134061100Y-119875600D01*
X134058100Y-119878600D01*
X134055100Y-119881600D01*
X134052100Y-119884600D01*
X134049100Y-119887600D01*
X134046100Y-119890600D01*
X134043100Y-119893600D01*
X134039100Y-119895600D01*
X134035100Y-119897600D01*
X134032100Y-119899600D01*
X134028100Y-119901600D01*
X134024100Y-119903600D01*
X134020100Y-119904600D01*
X134016100Y-119905600D01*
X134012100Y-119906600D01*
X134008100Y-119907600D01*
X134003100Y-119908600D01*
X133999100Y-119908600D01*
X133995100Y-119908600D01*
X133807100Y-119908600D01*
X133803100Y-119908600D01*
X133799100Y-119908600D01*
X133794100Y-119907600D01*
X133790100Y-119906600D01*
X133786100Y-119905600D01*
X133782100Y-119904600D01*
X133778100Y-119903600D01*
X133774100Y-119901600D01*
X133770100Y-119899600D01*
X133767100Y-119897600D01*
X133763100Y-119895600D01*
X133759100Y-119893600D01*
X133756100Y-119890600D01*
X133753100Y-119887600D01*
X133750100Y-119884600D01*
X133747100Y-119881600D01*
X133744100Y-119878600D01*
X133741100Y-119875600D01*
X133739100Y-119871600D01*
X133737100Y-119867600D01*
X133735100Y-119864600D01*
X133733100Y-119860600D01*
X133731100Y-119856600D01*
X133730100Y-119852600D01*
X133729100Y-119848600D01*
X133728100Y-119844600D01*
X133727100Y-119840600D01*
X133726100Y-119835600D01*
X133726100Y-119831600D01*
X133726100Y-119827600D01*
X133726100Y-119119600D01*
X133726100Y-119115600D01*
X133726100Y-119111600D01*
X133727100Y-119106600D01*
X133728100Y-119102600D01*
X133729100Y-119098600D01*
X133730100Y-119094600D01*
X133731100Y-119090600D01*
X133733100Y-119086600D01*
X133735100Y-119082600D01*
X133737100Y-119078600D01*
X133739100Y-119075600D01*
X133741100Y-119071600D01*
X133744100Y-119068600D01*
X133747100Y-119065600D01*
X133750100Y-119062600D01*
X133753100Y-119059600D01*
X133756100Y-119056600D01*
X133759100Y-119053600D01*
X133763100Y-119051600D01*
X133767100Y-119049600D01*
X133770100Y-119047600D01*
X133774100Y-119045600D01*
X133778100Y-119043600D01*
X133782100Y-119042600D01*
X133786100Y-119041600D01*
X133790100Y-119040600D01*
X133794100Y-119039600D01*
X133799100Y-119038600D01*
X133803100Y-119038600D01*
X133807100Y-119038600D01*
X133995100Y-119038600D01*
X133999100Y-119038600D01*
X134003100Y-119038600D01*
X134008100Y-119039600D01*
G37*
X134076100Y-115179600D02*
X134076100Y-115887600D01*
X134076100Y-115891600D01*
X134076100Y-115895600D01*
X134075100Y-115900600D01*
X134074100Y-115904600D01*
X134073100Y-115908600D01*
X134072100Y-115912600D01*
X134071100Y-115916600D01*
X134069100Y-115920600D01*
X134067100Y-115924600D01*
X134065100Y-115928600D01*
X134063100Y-115931600D01*
X134061100Y-115935600D01*
X134058100Y-115938600D01*
X134055100Y-115941600D01*
X134052100Y-115944600D01*
X134049100Y-115947600D01*
X134046100Y-115950600D01*
X134043100Y-115953600D01*
X134039100Y-115955600D01*
X134035100Y-115957600D01*
X134032100Y-115959600D01*
X134028100Y-115961600D01*
X134024100Y-115963600D01*
X134020100Y-115964600D01*
X134016100Y-115965600D01*
X134012100Y-115966600D01*
X134008100Y-115967600D01*
X134003100Y-115968600D01*
X133999100Y-115968600D01*
X133995100Y-115968600D01*
X133807100Y-115968600D01*
X133803100Y-115968600D01*
X133799100Y-115968600D01*
X133794100Y-115967600D01*
X133790100Y-115966600D01*
X133786100Y-115965600D01*
X133782100Y-115964600D01*
X133778100Y-115963600D01*
X133774100Y-115961600D01*
X133770100Y-115959600D01*
X133767100Y-115957600D01*
X133763100Y-115955600D01*
X133759100Y-115953600D01*
X133756100Y-115950600D01*
X133753100Y-115947600D01*
X133750100Y-115944600D01*
X133747100Y-115941600D01*
X133744100Y-115938600D01*
X133741100Y-115935600D01*
X133739100Y-115931600D01*
X133737100Y-115928600D01*
X133735100Y-115924600D01*
X133733100Y-115920600D01*
X133731100Y-115916600D01*
X133730100Y-115912600D01*
X133729100Y-115908600D01*
X133728100Y-115904600D01*
X133727100Y-115900600D01*
X133726100Y-115895600D01*
X133726100Y-115891600D01*
X133726100Y-115887600D01*
X133726100Y-115179600D01*
X133726100Y-115175600D01*
X133726100Y-115171600D01*
X133727100Y-115166600D01*
X133728100Y-115162600D01*
X133729100Y-115158600D01*
X133730100Y-115154600D01*
X133731100Y-115150600D01*
X133733100Y-115146600D01*
X133735100Y-115142600D01*
X133737100Y-115139600D01*
X133739100Y-115135600D01*
X133741100Y-115131600D01*
X133744100Y-115128600D01*
X133747100Y-115125600D01*
X133750100Y-115122600D01*
X133753100Y-115119600D01*
X133756100Y-115116600D01*
X133759100Y-115113600D01*
X133763100Y-115111600D01*
X133767100Y-115109600D01*
X133770100Y-115107600D01*
X133774100Y-115105600D01*
X133778100Y-115103600D01*
X133782100Y-115102600D01*
X133786100Y-115101600D01*
X133790100Y-115100600D01*
X133794100Y-115099600D01*
X133799100Y-115098600D01*
X133803100Y-115098600D01*
X133807100Y-115098600D01*
X133995100Y-115098600D01*
X133999100Y-115098600D01*
X134003100Y-115098600D01*
X134008100Y-115099600D01*
X134012100Y-115100600D01*
X134016100Y-115101600D01*
X134020100Y-115102600D01*
X134024100Y-115103600D01*
X134028100Y-115105600D01*
X134032100Y-115107600D01*
X134035100Y-115109600D01*
X134039100Y-115111600D01*
X134043100Y-115113600D01*
X134046100Y-115116600D01*
X134049100Y-115119600D01*
X134052100Y-115122600D01*
X134055100Y-115125600D01*
X134058100Y-115128600D01*
X134061100Y-115131600D01*
X134063100Y-115135600D01*
X134065100Y-115139600D01*
X134067100Y-115142600D01*
X134069100Y-115146600D01*
X134071100Y-115150600D01*
X134072100Y-115154600D01*
X134073100Y-115158600D01*
X134074100Y-115162600D01*
X134075100Y-115166600D01*
X134076100Y-115171600D01*
X134076100Y-115175600D01*
X134076100Y-115179600D01*
G36*
X134008100Y-115099600D02*
G01*
X134012100Y-115100600D01*
X134016100Y-115101600D01*
X134020100Y-115102600D01*
X134024100Y-115103600D01*
X134028100Y-115105600D01*
X134032100Y-115107600D01*
X134035100Y-115109600D01*
X134039100Y-115111600D01*
X134043100Y-115113600D01*
X134046100Y-115116600D01*
X134049100Y-115119600D01*
X134052100Y-115122600D01*
X134055100Y-115125600D01*
X134058100Y-115128600D01*
X134061100Y-115131600D01*
X134063100Y-115135600D01*
X134065100Y-115139600D01*
X134067100Y-115142600D01*
X134069100Y-115146600D01*
X134071100Y-115150600D01*
X134072100Y-115154600D01*
X134073100Y-115158600D01*
X134074100Y-115162600D01*
X134075100Y-115166600D01*
X134076100Y-115171600D01*
X134076100Y-115175600D01*
X134076100Y-115179600D01*
X134076100Y-115887600D01*
X134076100Y-115891600D01*
X134076100Y-115895600D01*
X134075100Y-115900600D01*
X134074100Y-115904600D01*
X134073100Y-115908600D01*
X134072100Y-115912600D01*
X134071100Y-115916600D01*
X134069100Y-115920600D01*
X134067100Y-115924600D01*
X134065100Y-115928600D01*
X134063100Y-115931600D01*
X134061100Y-115935600D01*
X134058100Y-115938600D01*
X134055100Y-115941600D01*
X134052100Y-115944600D01*
X134049100Y-115947600D01*
X134046100Y-115950600D01*
X134043100Y-115953600D01*
X134039100Y-115955600D01*
X134035100Y-115957600D01*
X134032100Y-115959600D01*
X134028100Y-115961600D01*
X134024100Y-115963600D01*
X134020100Y-115964600D01*
X134016100Y-115965600D01*
X134012100Y-115966600D01*
X134008100Y-115967600D01*
X134003100Y-115968600D01*
X133999100Y-115968600D01*
X133995100Y-115968600D01*
X133807100Y-115968600D01*
X133803100Y-115968600D01*
X133799100Y-115968600D01*
X133794100Y-115967600D01*
X133790100Y-115966600D01*
X133786100Y-115965600D01*
X133782100Y-115964600D01*
X133778100Y-115963600D01*
X133774100Y-115961600D01*
X133770100Y-115959600D01*
X133767100Y-115957600D01*
X133763100Y-115955600D01*
X133759100Y-115953600D01*
X133756100Y-115950600D01*
X133753100Y-115947600D01*
X133750100Y-115944600D01*
X133747100Y-115941600D01*
X133744100Y-115938600D01*
X133741100Y-115935600D01*
X133739100Y-115931600D01*
X133737100Y-115928600D01*
X133735100Y-115924600D01*
X133733100Y-115920600D01*
X133731100Y-115916600D01*
X133730100Y-115912600D01*
X133729100Y-115908600D01*
X133728100Y-115904600D01*
X133727100Y-115900600D01*
X133726100Y-115895600D01*
X133726100Y-115891600D01*
X133726100Y-115887600D01*
X133726100Y-115179600D01*
X133726100Y-115175600D01*
X133726100Y-115171600D01*
X133727100Y-115166600D01*
X133728100Y-115162600D01*
X133729100Y-115158600D01*
X133730100Y-115154600D01*
X133731100Y-115150600D01*
X133733100Y-115146600D01*
X133735100Y-115142600D01*
X133737100Y-115139600D01*
X133739100Y-115135600D01*
X133741100Y-115131600D01*
X133744100Y-115128600D01*
X133747100Y-115125600D01*
X133750100Y-115122600D01*
X133753100Y-115119600D01*
X133756100Y-115116600D01*
X133759100Y-115113600D01*
X133763100Y-115111600D01*
X133767100Y-115109600D01*
X133770100Y-115107600D01*
X133774100Y-115105600D01*
X133778100Y-115103600D01*
X133782100Y-115102600D01*
X133786100Y-115101600D01*
X133790100Y-115100600D01*
X133794100Y-115099600D01*
X133799100Y-115098600D01*
X133803100Y-115098600D01*
X133807100Y-115098600D01*
X133995100Y-115098600D01*
X133999100Y-115098600D01*
X134003100Y-115098600D01*
X134008100Y-115099600D01*
G37*
X134176100Y-119827600D02*
X134176100Y-119119600D01*
X134176100Y-119115600D01*
X134176100Y-119111600D01*
X134177100Y-119106600D01*
X134178100Y-119102600D01*
X134179100Y-119098600D01*
X134180100Y-119094600D01*
X134181100Y-119090600D01*
X134183100Y-119086600D01*
X134185100Y-119082600D01*
X134187100Y-119078600D01*
X134189100Y-119075600D01*
X134191100Y-119071600D01*
X134194100Y-119068600D01*
X134197100Y-119065600D01*
X134200100Y-119062600D01*
X134203100Y-119059600D01*
X134206100Y-119056600D01*
X134209100Y-119053600D01*
X134213100Y-119051600D01*
X134217100Y-119049600D01*
X134220100Y-119047600D01*
X134224100Y-119045600D01*
X134228100Y-119043600D01*
X134232100Y-119042600D01*
X134236100Y-119041600D01*
X134240100Y-119040600D01*
X134244100Y-119039600D01*
X134249100Y-119038600D01*
X134253100Y-119038600D01*
X134257100Y-119038600D01*
X134445100Y-119038600D01*
X134449100Y-119038600D01*
X134453100Y-119038600D01*
X134458100Y-119039600D01*
X134462100Y-119040600D01*
X134466100Y-119041600D01*
X134470100Y-119042600D01*
X134474100Y-119043600D01*
X134478100Y-119045600D01*
X134482100Y-119047600D01*
X134485100Y-119049600D01*
X134489100Y-119051600D01*
X134493100Y-119053600D01*
X134496100Y-119056600D01*
X134499100Y-119059600D01*
X134502100Y-119062600D01*
X134505100Y-119065600D01*
X134508100Y-119068600D01*
X134511100Y-119071600D01*
X134513100Y-119075600D01*
X134515100Y-119078600D01*
X134517100Y-119082600D01*
X134519100Y-119086600D01*
X134521100Y-119090600D01*
X134522100Y-119094600D01*
X134523100Y-119098600D01*
X134524100Y-119102600D01*
X134525100Y-119106600D01*
X134526100Y-119111600D01*
X134526100Y-119115600D01*
X134526100Y-119119600D01*
X134526100Y-119827600D01*
X134526100Y-119831600D01*
X134526100Y-119835600D01*
X134525100Y-119840600D01*
X134524100Y-119844600D01*
X134523100Y-119848600D01*
X134522100Y-119852600D01*
X134521100Y-119856600D01*
X134519100Y-119860600D01*
X134517100Y-119864600D01*
X134515100Y-119868600D01*
X134513100Y-119871600D01*
X134511100Y-119875600D01*
X134508100Y-119878600D01*
X134505100Y-119881600D01*
X134502100Y-119884600D01*
X134499100Y-119887600D01*
X134496100Y-119890600D01*
X134493100Y-119893600D01*
X134489100Y-119895600D01*
X134485100Y-119897600D01*
X134482100Y-119899600D01*
X134478100Y-119901600D01*
X134474100Y-119903600D01*
X134470100Y-119904600D01*
X134466100Y-119905600D01*
X134462100Y-119906600D01*
X134458100Y-119907600D01*
X134453100Y-119908600D01*
X134449100Y-119908600D01*
X134445100Y-119908600D01*
X134257100Y-119908600D01*
X134253100Y-119908600D01*
X134249100Y-119908600D01*
X134244100Y-119907600D01*
X134240100Y-119906600D01*
X134236100Y-119905600D01*
X134232100Y-119904600D01*
X134228100Y-119903600D01*
X134224100Y-119901600D01*
X134220100Y-119899600D01*
X134217100Y-119897600D01*
X134213100Y-119895600D01*
X134209100Y-119893600D01*
X134206100Y-119890600D01*
X134203100Y-119887600D01*
X134200100Y-119884600D01*
X134197100Y-119881600D01*
X134194100Y-119878600D01*
X134191100Y-119875600D01*
X134189100Y-119871600D01*
X134187100Y-119868600D01*
X134185100Y-119864600D01*
X134183100Y-119860600D01*
X134181100Y-119856600D01*
X134180100Y-119852600D01*
X134179100Y-119848600D01*
X134178100Y-119844600D01*
X134177100Y-119840600D01*
X134176100Y-119835600D01*
X134176100Y-119831600D01*
X134176100Y-119827600D01*
G36*
X134458100Y-119039600D02*
G01*
X134462100Y-119040600D01*
X134466100Y-119041600D01*
X134470100Y-119042600D01*
X134474100Y-119043600D01*
X134478100Y-119045600D01*
X134482100Y-119047600D01*
X134485100Y-119049600D01*
X134489100Y-119051600D01*
X134493100Y-119053600D01*
X134496100Y-119056600D01*
X134499100Y-119059600D01*
X134502100Y-119062600D01*
X134505100Y-119065600D01*
X134508100Y-119068600D01*
X134511100Y-119071600D01*
X134513100Y-119075600D01*
X134515100Y-119078600D01*
X134517100Y-119082600D01*
X134519100Y-119086600D01*
X134521100Y-119090600D01*
X134522100Y-119094600D01*
X134523100Y-119098600D01*
X134524100Y-119102600D01*
X134525100Y-119106600D01*
X134526100Y-119111600D01*
X134526100Y-119115600D01*
X134526100Y-119119600D01*
X134526100Y-119827600D01*
X134526100Y-119831600D01*
X134526100Y-119835600D01*
X134525100Y-119840600D01*
X134524100Y-119844600D01*
X134523100Y-119848600D01*
X134522100Y-119852600D01*
X134521100Y-119856600D01*
X134519100Y-119860600D01*
X134517100Y-119864600D01*
X134515100Y-119868600D01*
X134513100Y-119871600D01*
X134511100Y-119875600D01*
X134508100Y-119878600D01*
X134505100Y-119881600D01*
X134502100Y-119884600D01*
X134499100Y-119887600D01*
X134496100Y-119890600D01*
X134493100Y-119893600D01*
X134489100Y-119895600D01*
X134485100Y-119897600D01*
X134482100Y-119899600D01*
X134478100Y-119901600D01*
X134474100Y-119903600D01*
X134470100Y-119904600D01*
X134466100Y-119905600D01*
X134462100Y-119906600D01*
X134458100Y-119907600D01*
X134453100Y-119908600D01*
X134449100Y-119908600D01*
X134445100Y-119908600D01*
X134257100Y-119908600D01*
X134253100Y-119908600D01*
X134249100Y-119908600D01*
X134244100Y-119907600D01*
X134240100Y-119906600D01*
X134236100Y-119905600D01*
X134232100Y-119904600D01*
X134228100Y-119903600D01*
X134224100Y-119901600D01*
X134220100Y-119899600D01*
X134217100Y-119897600D01*
X134213100Y-119895600D01*
X134209100Y-119893600D01*
X134206100Y-119890600D01*
X134203100Y-119887600D01*
X134200100Y-119884600D01*
X134197100Y-119881600D01*
X134194100Y-119878600D01*
X134191100Y-119875600D01*
X134189100Y-119871600D01*
X134187100Y-119868600D01*
X134185100Y-119864600D01*
X134183100Y-119860600D01*
X134181100Y-119856600D01*
X134180100Y-119852600D01*
X134179100Y-119848600D01*
X134178100Y-119844600D01*
X134177100Y-119840600D01*
X134176100Y-119835600D01*
X134176100Y-119831600D01*
X134176100Y-119827600D01*
X134176100Y-119119600D01*
X134176100Y-119115600D01*
X134176100Y-119111600D01*
X134177100Y-119106600D01*
X134178100Y-119102600D01*
X134179100Y-119098600D01*
X134180100Y-119094600D01*
X134181100Y-119090600D01*
X134183100Y-119086600D01*
X134185100Y-119082600D01*
X134187100Y-119078600D01*
X134189100Y-119075600D01*
X134191100Y-119071600D01*
X134194100Y-119068600D01*
X134197100Y-119065600D01*
X134200100Y-119062600D01*
X134203100Y-119059600D01*
X134206100Y-119056600D01*
X134209100Y-119053600D01*
X134213100Y-119051600D01*
X134217100Y-119049600D01*
X134220100Y-119047600D01*
X134224100Y-119045600D01*
X134228100Y-119043600D01*
X134232100Y-119042600D01*
X134236100Y-119041600D01*
X134240100Y-119040600D01*
X134244100Y-119039600D01*
X134249100Y-119038600D01*
X134253100Y-119038600D01*
X134257100Y-119038600D01*
X134445100Y-119038600D01*
X134449100Y-119038600D01*
X134453100Y-119038600D01*
X134458100Y-119039600D01*
G37*
X134526100Y-115179600D02*
X134526100Y-115887600D01*
X134526100Y-115891600D01*
X134526100Y-115895600D01*
X134525100Y-115900600D01*
X134524100Y-115904600D01*
X134523100Y-115908600D01*
X134522100Y-115912600D01*
X134521100Y-115916600D01*
X134519100Y-115920600D01*
X134517100Y-115924600D01*
X134515100Y-115928600D01*
X134513100Y-115931600D01*
X134511100Y-115935600D01*
X134508100Y-115938600D01*
X134505100Y-115941600D01*
X134502100Y-115944600D01*
X134499100Y-115947600D01*
X134496100Y-115950600D01*
X134493100Y-115953600D01*
X134489100Y-115955600D01*
X134485100Y-115957600D01*
X134482100Y-115959600D01*
X134478100Y-115961600D01*
X134474100Y-115963600D01*
X134470100Y-115964600D01*
X134466100Y-115965600D01*
X134462100Y-115966600D01*
X134458100Y-115967600D01*
X134453100Y-115968600D01*
X134449100Y-115968600D01*
X134445100Y-115968600D01*
X134257100Y-115968600D01*
X134253100Y-115968600D01*
X134249100Y-115968600D01*
X134244100Y-115967600D01*
X134240100Y-115966600D01*
X134236100Y-115965600D01*
X134232100Y-115964600D01*
X134228100Y-115963600D01*
X134224100Y-115961600D01*
X134220100Y-115959600D01*
X134217100Y-115957600D01*
X134213100Y-115955600D01*
X134209100Y-115953600D01*
X134206100Y-115950600D01*
X134203100Y-115947600D01*
X134200100Y-115944600D01*
X134197100Y-115941600D01*
X134194100Y-115938600D01*
X134191100Y-115935600D01*
X134189100Y-115931600D01*
X134187100Y-115928600D01*
X134185100Y-115924600D01*
X134183100Y-115920600D01*
X134181100Y-115916600D01*
X134180100Y-115912600D01*
X134179100Y-115908600D01*
X134178100Y-115904600D01*
X134177100Y-115900600D01*
X134176100Y-115895600D01*
X134176100Y-115891600D01*
X134176100Y-115887600D01*
X134176100Y-115179600D01*
X134176100Y-115175600D01*
X134176100Y-115171600D01*
X134177100Y-115166600D01*
X134178100Y-115162600D01*
X134179100Y-115158600D01*
X134180100Y-115154600D01*
X134181100Y-115150600D01*
X134183100Y-115146600D01*
X134185100Y-115142600D01*
X134187100Y-115138600D01*
X134189100Y-115135600D01*
X134191100Y-115131600D01*
X134194100Y-115128600D01*
X134197100Y-115125600D01*
X134200100Y-115122600D01*
X134203100Y-115119600D01*
X134206100Y-115116600D01*
X134209100Y-115113600D01*
X134213100Y-115111600D01*
X134217100Y-115109600D01*
X134220100Y-115107600D01*
X134224100Y-115105600D01*
X134228100Y-115103600D01*
X134232100Y-115102600D01*
X134236100Y-115101600D01*
X134240100Y-115100600D01*
X134244100Y-115099600D01*
X134249100Y-115098600D01*
X134253100Y-115098600D01*
X134257100Y-115098600D01*
X134445100Y-115098600D01*
X134449100Y-115098600D01*
X134453100Y-115098600D01*
X134458100Y-115099600D01*
X134462100Y-115100600D01*
X134466100Y-115101600D01*
X134470100Y-115102600D01*
X134474100Y-115103600D01*
X134478100Y-115105600D01*
X134482100Y-115107600D01*
X134485100Y-115109600D01*
X134489100Y-115111600D01*
X134493100Y-115113600D01*
X134496100Y-115116600D01*
X134499100Y-115119600D01*
X134502100Y-115122600D01*
X134505100Y-115125600D01*
X134508100Y-115128600D01*
X134511100Y-115131600D01*
X134513100Y-115135600D01*
X134515100Y-115139600D01*
X134517100Y-115142600D01*
X134519100Y-115146600D01*
X134521100Y-115150600D01*
X134522100Y-115154600D01*
X134523100Y-115158600D01*
X134524100Y-115162600D01*
X134525100Y-115166600D01*
X134526100Y-115171600D01*
X134526100Y-115175600D01*
X134526100Y-115179600D01*
G36*
X134458100Y-115099600D02*
G01*
X134462100Y-115100600D01*
X134466100Y-115101600D01*
X134470100Y-115102600D01*
X134474100Y-115103600D01*
X134478100Y-115105600D01*
X134482100Y-115107600D01*
X134485100Y-115109600D01*
X134489100Y-115111600D01*
X134493100Y-115113600D01*
X134496100Y-115116600D01*
X134499100Y-115119600D01*
X134502100Y-115122600D01*
X134505100Y-115125600D01*
X134508100Y-115128600D01*
X134511100Y-115131600D01*
X134513100Y-115135600D01*
X134515100Y-115139600D01*
X134517100Y-115142600D01*
X134519100Y-115146600D01*
X134521100Y-115150600D01*
X134522100Y-115154600D01*
X134523100Y-115158600D01*
X134524100Y-115162600D01*
X134525100Y-115166600D01*
X134526100Y-115171600D01*
X134526100Y-115175600D01*
X134526100Y-115179600D01*
X134526100Y-115887600D01*
X134526100Y-115891600D01*
X134526100Y-115895600D01*
X134525100Y-115900600D01*
X134524100Y-115904600D01*
X134523100Y-115908600D01*
X134522100Y-115912600D01*
X134521100Y-115916600D01*
X134519100Y-115920600D01*
X134517100Y-115924600D01*
X134515100Y-115928600D01*
X134513100Y-115931600D01*
X134511100Y-115935600D01*
X134508100Y-115938600D01*
X134505100Y-115941600D01*
X134502100Y-115944600D01*
X134499100Y-115947600D01*
X134496100Y-115950600D01*
X134493100Y-115953600D01*
X134489100Y-115955600D01*
X134485100Y-115957600D01*
X134482100Y-115959600D01*
X134478100Y-115961600D01*
X134474100Y-115963600D01*
X134470100Y-115964600D01*
X134466100Y-115965600D01*
X134462100Y-115966600D01*
X134458100Y-115967600D01*
X134453100Y-115968600D01*
X134449100Y-115968600D01*
X134445100Y-115968600D01*
X134257100Y-115968600D01*
X134253100Y-115968600D01*
X134249100Y-115968600D01*
X134244100Y-115967600D01*
X134240100Y-115966600D01*
X134236100Y-115965600D01*
X134232100Y-115964600D01*
X134228100Y-115963600D01*
X134224100Y-115961600D01*
X134220100Y-115959600D01*
X134217100Y-115957600D01*
X134213100Y-115955600D01*
X134209100Y-115953600D01*
X134206100Y-115950600D01*
X134203100Y-115947600D01*
X134200100Y-115944600D01*
X134197100Y-115941600D01*
X134194100Y-115938600D01*
X134191100Y-115935600D01*
X134189100Y-115931600D01*
X134187100Y-115928600D01*
X134185100Y-115924600D01*
X134183100Y-115920600D01*
X134181100Y-115916600D01*
X134180100Y-115912600D01*
X134179100Y-115908600D01*
X134178100Y-115904600D01*
X134177100Y-115900600D01*
X134176100Y-115895600D01*
X134176100Y-115891600D01*
X134176100Y-115887600D01*
X134176100Y-115179600D01*
X134176100Y-115175600D01*
X134176100Y-115171600D01*
X134177100Y-115166600D01*
X134178100Y-115162600D01*
X134179100Y-115158600D01*
X134180100Y-115154600D01*
X134181100Y-115150600D01*
X134183100Y-115146600D01*
X134185100Y-115142600D01*
X134187100Y-115138600D01*
X134189100Y-115135600D01*
X134191100Y-115131600D01*
X134194100Y-115128600D01*
X134197100Y-115125600D01*
X134200100Y-115122600D01*
X134203100Y-115119600D01*
X134206100Y-115116600D01*
X134209100Y-115113600D01*
X134213100Y-115111600D01*
X134217100Y-115109600D01*
X134220100Y-115107600D01*
X134224100Y-115105600D01*
X134228100Y-115103600D01*
X134232100Y-115102600D01*
X134236100Y-115101600D01*
X134240100Y-115100600D01*
X134244100Y-115099600D01*
X134249100Y-115098600D01*
X134253100Y-115098600D01*
X134257100Y-115098600D01*
X134445100Y-115098600D01*
X134449100Y-115098600D01*
X134453100Y-115098600D01*
X134458100Y-115099600D01*
G37*
X135325100Y-116328600D02*
X134617100Y-116328600D01*
X134613100Y-116328600D01*
X134609100Y-116328600D01*
X134604100Y-116327600D01*
X134600100Y-116326600D01*
X134596100Y-116325600D01*
X134592100Y-116324600D01*
X134588100Y-116323600D01*
X134584100Y-116321600D01*
X134580100Y-116319600D01*
X134576100Y-116317600D01*
X134573100Y-116315600D01*
X134569100Y-116313600D01*
X134566100Y-116310600D01*
X134563100Y-116307600D01*
X134560100Y-116304600D01*
X134557100Y-116301600D01*
X134554100Y-116298600D01*
X134551100Y-116295600D01*
X134549100Y-116291600D01*
X134547100Y-116287600D01*
X134545100Y-116284600D01*
X134543100Y-116280600D01*
X134541100Y-116276600D01*
X134540100Y-116272600D01*
X134539100Y-116268600D01*
X134538100Y-116264600D01*
X134537100Y-116260600D01*
X134536100Y-116255600D01*
X134536100Y-116251600D01*
X134536100Y-116247600D01*
X134536100Y-116059600D01*
X134536100Y-116055600D01*
X134536100Y-116051600D01*
X134537100Y-116046600D01*
X134538100Y-116042600D01*
X134539100Y-116038600D01*
X134540100Y-116034600D01*
X134541100Y-116030600D01*
X134543100Y-116026600D01*
X134545100Y-116022600D01*
X134547100Y-116019600D01*
X134549100Y-116015600D01*
X134551100Y-116011600D01*
X134554100Y-116008600D01*
X134557100Y-116005600D01*
X134560100Y-116002600D01*
X134563100Y-115999600D01*
X134566100Y-115996600D01*
X134569100Y-115993600D01*
X134573100Y-115991600D01*
X134576100Y-115989600D01*
X134580100Y-115987600D01*
X134584100Y-115985600D01*
X134588100Y-115983600D01*
X134592100Y-115982600D01*
X134596100Y-115981600D01*
X134600100Y-115980600D01*
X134604100Y-115979600D01*
X134609100Y-115978600D01*
X134613100Y-115978600D01*
X134617100Y-115978600D01*
X135325100Y-115978600D01*
X135329100Y-115978600D01*
X135333100Y-115978600D01*
X135338100Y-115979600D01*
X135342100Y-115980600D01*
X135346100Y-115981600D01*
X135350100Y-115982600D01*
X135354100Y-115983600D01*
X135358100Y-115985600D01*
X135362100Y-115987600D01*
X135365100Y-115989600D01*
X135369100Y-115991600D01*
X135373100Y-115993600D01*
X135376100Y-115996600D01*
X135379100Y-115999600D01*
X135382100Y-116002600D01*
X135385100Y-116005600D01*
X135388100Y-116008600D01*
X135391100Y-116011600D01*
X135393100Y-116015600D01*
X135395100Y-116019600D01*
X135397100Y-116022600D01*
X135399100Y-116026600D01*
X135401100Y-116030600D01*
X135402100Y-116034600D01*
X135403100Y-116038600D01*
X135404100Y-116042600D01*
X135405100Y-116046600D01*
X135406100Y-116051600D01*
X135406100Y-116055600D01*
X135406100Y-116059600D01*
X135406100Y-116247600D01*
X135406100Y-116251600D01*
X135406100Y-116255600D01*
X135405100Y-116260600D01*
X135404100Y-116264600D01*
X135403100Y-116268600D01*
X135402100Y-116272600D01*
X135401100Y-116276600D01*
X135399100Y-116280600D01*
X135397100Y-116284600D01*
X135395100Y-116287600D01*
X135393100Y-116291600D01*
X135391100Y-116295600D01*
X135388100Y-116298600D01*
X135385100Y-116301600D01*
X135382100Y-116304600D01*
X135379100Y-116307600D01*
X135376100Y-116310600D01*
X135373100Y-116313600D01*
X135369100Y-116315600D01*
X135365100Y-116317600D01*
X135362100Y-116319600D01*
X135358100Y-116321600D01*
X135354100Y-116323600D01*
X135350100Y-116324600D01*
X135346100Y-116325600D01*
X135342100Y-116326600D01*
X135338100Y-116327600D01*
X135333100Y-116328600D01*
X135329100Y-116328600D01*
X135325100Y-116328600D01*
G36*
X135338100Y-115979600D02*
G01*
X135342100Y-115980600D01*
X135346100Y-115981600D01*
X135350100Y-115982600D01*
X135354100Y-115983600D01*
X135358100Y-115985600D01*
X135362100Y-115987600D01*
X135365100Y-115989600D01*
X135369100Y-115991600D01*
X135373100Y-115993600D01*
X135376100Y-115996600D01*
X135379100Y-115999600D01*
X135382100Y-116002600D01*
X135385100Y-116005600D01*
X135388100Y-116008600D01*
X135391100Y-116011600D01*
X135393100Y-116015600D01*
X135395100Y-116019600D01*
X135397100Y-116022600D01*
X135399100Y-116026600D01*
X135401100Y-116030600D01*
X135402100Y-116034600D01*
X135403100Y-116038600D01*
X135404100Y-116042600D01*
X135405100Y-116046600D01*
X135406100Y-116051600D01*
X135406100Y-116055600D01*
X135406100Y-116059600D01*
X135406100Y-116247600D01*
X135406100Y-116251600D01*
X135406100Y-116255600D01*
X135405100Y-116260600D01*
X135404100Y-116264600D01*
X135403100Y-116268600D01*
X135402100Y-116272600D01*
X135401100Y-116276600D01*
X135399100Y-116280600D01*
X135397100Y-116284600D01*
X135395100Y-116287600D01*
X135393100Y-116291600D01*
X135391100Y-116295600D01*
X135388100Y-116298600D01*
X135385100Y-116301600D01*
X135382100Y-116304600D01*
X135379100Y-116307600D01*
X135376100Y-116310600D01*
X135373100Y-116313600D01*
X135369100Y-116315600D01*
X135365100Y-116317600D01*
X135362100Y-116319600D01*
X135358100Y-116321600D01*
X135354100Y-116323600D01*
X135350100Y-116324600D01*
X135346100Y-116325600D01*
X135342100Y-116326600D01*
X135338100Y-116327600D01*
X135333100Y-116328600D01*
X135329100Y-116328600D01*
X135325100Y-116328600D01*
X134617100Y-116328600D01*
X134613100Y-116328600D01*
X134609100Y-116328600D01*
X134604100Y-116327600D01*
X134600100Y-116326600D01*
X134596100Y-116325600D01*
X134592100Y-116324600D01*
X134588100Y-116323600D01*
X134584100Y-116321600D01*
X134580100Y-116319600D01*
X134576100Y-116317600D01*
X134573100Y-116315600D01*
X134569100Y-116313600D01*
X134566100Y-116310600D01*
X134563100Y-116307600D01*
X134560100Y-116304600D01*
X134557100Y-116301600D01*
X134554100Y-116298600D01*
X134551100Y-116295600D01*
X134549100Y-116291600D01*
X134547100Y-116287600D01*
X134545100Y-116284600D01*
X134543100Y-116280600D01*
X134541100Y-116276600D01*
X134540100Y-116272600D01*
X134539100Y-116268600D01*
X134538100Y-116264600D01*
X134537100Y-116260600D01*
X134536100Y-116255600D01*
X134536100Y-116251600D01*
X134536100Y-116247600D01*
X134536100Y-116059600D01*
X134536100Y-116055600D01*
X134536100Y-116051600D01*
X134537100Y-116046600D01*
X134538100Y-116042600D01*
X134539100Y-116038600D01*
X134540100Y-116034600D01*
X134541100Y-116030600D01*
X134543100Y-116026600D01*
X134545100Y-116022600D01*
X134547100Y-116019600D01*
X134549100Y-116015600D01*
X134551100Y-116011600D01*
X134554100Y-116008600D01*
X134557100Y-116005600D01*
X134560100Y-116002600D01*
X134563100Y-115999600D01*
X134566100Y-115996600D01*
X134569100Y-115993600D01*
X134573100Y-115991600D01*
X134576100Y-115989600D01*
X134580100Y-115987600D01*
X134584100Y-115985600D01*
X134588100Y-115983600D01*
X134592100Y-115982600D01*
X134596100Y-115981600D01*
X134600100Y-115980600D01*
X134604100Y-115979600D01*
X134609100Y-115978600D01*
X134613100Y-115978600D01*
X134617100Y-115978600D01*
X135325100Y-115978600D01*
X135329100Y-115978600D01*
X135333100Y-115978600D01*
X135338100Y-115979600D01*
G37*
X135325100Y-116778600D02*
X134617100Y-116778600D01*
X134613100Y-116778600D01*
X134609100Y-116778600D01*
X134604100Y-116777600D01*
X134600100Y-116776600D01*
X134596100Y-116775600D01*
X134592100Y-116774600D01*
X134588100Y-116773600D01*
X134584100Y-116771600D01*
X134580100Y-116769600D01*
X134576100Y-116767600D01*
X134573100Y-116765600D01*
X134569100Y-116763600D01*
X134566100Y-116760600D01*
X134563100Y-116757600D01*
X134560100Y-116754600D01*
X134557100Y-116751600D01*
X134554100Y-116748600D01*
X134551100Y-116745600D01*
X134549100Y-116741600D01*
X134547100Y-116737600D01*
X134545100Y-116734600D01*
X134543100Y-116730600D01*
X134541100Y-116726600D01*
X134540100Y-116722600D01*
X134539100Y-116718600D01*
X134538100Y-116714600D01*
X134537100Y-116710600D01*
X134536100Y-116705600D01*
X134536100Y-116701600D01*
X134536100Y-116697600D01*
X134536100Y-116509600D01*
X134536100Y-116505600D01*
X134536100Y-116501600D01*
X134537100Y-116496600D01*
X134538100Y-116492600D01*
X134539100Y-116488600D01*
X134540100Y-116484600D01*
X134541100Y-116480600D01*
X134543100Y-116476600D01*
X134545100Y-116472600D01*
X134547100Y-116469600D01*
X134549100Y-116465600D01*
X134551100Y-116461600D01*
X134554100Y-116458600D01*
X134557100Y-116455600D01*
X134560100Y-116452600D01*
X134563100Y-116449600D01*
X134566100Y-116446600D01*
X134569100Y-116443600D01*
X134573100Y-116441600D01*
X134576100Y-116439600D01*
X134580100Y-116437600D01*
X134584100Y-116435600D01*
X134588100Y-116433600D01*
X134592100Y-116432600D01*
X134596100Y-116431600D01*
X134600100Y-116430600D01*
X134604100Y-116429600D01*
X134609100Y-116428600D01*
X134613100Y-116428600D01*
X134617100Y-116428600D01*
X135325100Y-116428600D01*
X135329100Y-116428600D01*
X135333100Y-116428600D01*
X135338100Y-116429600D01*
X135342100Y-116430600D01*
X135346100Y-116431600D01*
X135350100Y-116432600D01*
X135354100Y-116433600D01*
X135358100Y-116435600D01*
X135362100Y-116437600D01*
X135365100Y-116439600D01*
X135369100Y-116441600D01*
X135373100Y-116443600D01*
X135376100Y-116446600D01*
X135379100Y-116449600D01*
X135382100Y-116452600D01*
X135385100Y-116455600D01*
X135388100Y-116458600D01*
X135391100Y-116461600D01*
X135393100Y-116465600D01*
X135395100Y-116469600D01*
X135397100Y-116472600D01*
X135399100Y-116476600D01*
X135401100Y-116480600D01*
X135402100Y-116484600D01*
X135403100Y-116488600D01*
X135404100Y-116492600D01*
X135405100Y-116496600D01*
X135406100Y-116501600D01*
X135406100Y-116505600D01*
X135406100Y-116509600D01*
X135406100Y-116697600D01*
X135406100Y-116701600D01*
X135406100Y-116705600D01*
X135405100Y-116710600D01*
X135404100Y-116714600D01*
X135403100Y-116718600D01*
X135402100Y-116722600D01*
X135401100Y-116726600D01*
X135399100Y-116730600D01*
X135397100Y-116734600D01*
X135395100Y-116737600D01*
X135393100Y-116741600D01*
X135391100Y-116745600D01*
X135388100Y-116748600D01*
X135385100Y-116751600D01*
X135382100Y-116754600D01*
X135379100Y-116757600D01*
X135376100Y-116760600D01*
X135373100Y-116763600D01*
X135369100Y-116765600D01*
X135365100Y-116767600D01*
X135362100Y-116769600D01*
X135358100Y-116771600D01*
X135354100Y-116773600D01*
X135350100Y-116774600D01*
X135346100Y-116775600D01*
X135342100Y-116776600D01*
X135338100Y-116777600D01*
X135333100Y-116778600D01*
X135329100Y-116778600D01*
X135325100Y-116778600D01*
G36*
X135338100Y-116429600D02*
G01*
X135342100Y-116430600D01*
X135346100Y-116431600D01*
X135350100Y-116432600D01*
X135354100Y-116433600D01*
X135358100Y-116435600D01*
X135362100Y-116437600D01*
X135365100Y-116439600D01*
X135369100Y-116441600D01*
X135373100Y-116443600D01*
X135376100Y-116446600D01*
X135379100Y-116449600D01*
X135382100Y-116452600D01*
X135385100Y-116455600D01*
X135388100Y-116458600D01*
X135391100Y-116461600D01*
X135393100Y-116465600D01*
X135395100Y-116469600D01*
X135397100Y-116472600D01*
X135399100Y-116476600D01*
X135401100Y-116480600D01*
X135402100Y-116484600D01*
X135403100Y-116488600D01*
X135404100Y-116492600D01*
X135405100Y-116496600D01*
X135406100Y-116501600D01*
X135406100Y-116505600D01*
X135406100Y-116509600D01*
X135406100Y-116697600D01*
X135406100Y-116701600D01*
X135406100Y-116705600D01*
X135405100Y-116710600D01*
X135404100Y-116714600D01*
X135403100Y-116718600D01*
X135402100Y-116722600D01*
X135401100Y-116726600D01*
X135399100Y-116730600D01*
X135397100Y-116734600D01*
X135395100Y-116737600D01*
X135393100Y-116741600D01*
X135391100Y-116745600D01*
X135388100Y-116748600D01*
X135385100Y-116751600D01*
X135382100Y-116754600D01*
X135379100Y-116757600D01*
X135376100Y-116760600D01*
X135373100Y-116763600D01*
X135369100Y-116765600D01*
X135365100Y-116767600D01*
X135362100Y-116769600D01*
X135358100Y-116771600D01*
X135354100Y-116773600D01*
X135350100Y-116774600D01*
X135346100Y-116775600D01*
X135342100Y-116776600D01*
X135338100Y-116777600D01*
X135333100Y-116778600D01*
X135329100Y-116778600D01*
X135325100Y-116778600D01*
X134617100Y-116778600D01*
X134613100Y-116778600D01*
X134609100Y-116778600D01*
X134604100Y-116777600D01*
X134600100Y-116776600D01*
X134596100Y-116775600D01*
X134592100Y-116774600D01*
X134588100Y-116773600D01*
X134584100Y-116771600D01*
X134580100Y-116769600D01*
X134576100Y-116767600D01*
X134573100Y-116765600D01*
X134569100Y-116763600D01*
X134566100Y-116760600D01*
X134563100Y-116757600D01*
X134560100Y-116754600D01*
X134557100Y-116751600D01*
X134554100Y-116748600D01*
X134551100Y-116745600D01*
X134549100Y-116741600D01*
X134547100Y-116737600D01*
X134545100Y-116734600D01*
X134543100Y-116730600D01*
X134541100Y-116726600D01*
X134540100Y-116722600D01*
X134539100Y-116718600D01*
X134538100Y-116714600D01*
X134537100Y-116710600D01*
X134536100Y-116705600D01*
X134536100Y-116701600D01*
X134536100Y-116697600D01*
X134536100Y-116509600D01*
X134536100Y-116505600D01*
X134536100Y-116501600D01*
X134537100Y-116496600D01*
X134538100Y-116492600D01*
X134539100Y-116488600D01*
X134540100Y-116484600D01*
X134541100Y-116480600D01*
X134543100Y-116476600D01*
X134545100Y-116472600D01*
X134547100Y-116469600D01*
X134549100Y-116465600D01*
X134551100Y-116461600D01*
X134554100Y-116458600D01*
X134557100Y-116455600D01*
X134560100Y-116452600D01*
X134563100Y-116449600D01*
X134566100Y-116446600D01*
X134569100Y-116443600D01*
X134573100Y-116441600D01*
X134576100Y-116439600D01*
X134580100Y-116437600D01*
X134584100Y-116435600D01*
X134588100Y-116433600D01*
X134592100Y-116432600D01*
X134596100Y-116431600D01*
X134600100Y-116430600D01*
X134604100Y-116429600D01*
X134609100Y-116428600D01*
X134613100Y-116428600D01*
X134617100Y-116428600D01*
X135325100Y-116428600D01*
X135329100Y-116428600D01*
X135333100Y-116428600D01*
X135338100Y-116429600D01*
G37*
X135325100Y-117228600D02*
X134617100Y-117228600D01*
X134613100Y-117228600D01*
X134609100Y-117228600D01*
X134604100Y-117227600D01*
X134600100Y-117226600D01*
X134596100Y-117225600D01*
X134592100Y-117224600D01*
X134588100Y-117223600D01*
X134584100Y-117221600D01*
X134580100Y-117219600D01*
X134576100Y-117217600D01*
X134573100Y-117215600D01*
X134569100Y-117213600D01*
X134566100Y-117210600D01*
X134563100Y-117207600D01*
X134560100Y-117204600D01*
X134557100Y-117201600D01*
X134554100Y-117198600D01*
X134551100Y-117195600D01*
X134549100Y-117191600D01*
X134547100Y-117187600D01*
X134545100Y-117184600D01*
X134543100Y-117180600D01*
X134541100Y-117176600D01*
X134540100Y-117172600D01*
X134539100Y-117168600D01*
X134538100Y-117164600D01*
X134537100Y-117160600D01*
X134536100Y-117155600D01*
X134536100Y-117151600D01*
X134536100Y-117147600D01*
X134536100Y-116959600D01*
X134536100Y-116955600D01*
X134536100Y-116951600D01*
X134537100Y-116946600D01*
X134538100Y-116942600D01*
X134539100Y-116938600D01*
X134540100Y-116934600D01*
X134541100Y-116930600D01*
X134543100Y-116926600D01*
X134545100Y-116922600D01*
X134547100Y-116918600D01*
X134549100Y-116915600D01*
X134551100Y-116911600D01*
X134554100Y-116908600D01*
X134557100Y-116905600D01*
X134560100Y-116902600D01*
X134563100Y-116899600D01*
X134566100Y-116896600D01*
X134569100Y-116893600D01*
X134573100Y-116891600D01*
X134576100Y-116889600D01*
X134580100Y-116887600D01*
X134584100Y-116885600D01*
X134588100Y-116883600D01*
X134592100Y-116882600D01*
X134596100Y-116881600D01*
X134600100Y-116880600D01*
X134604100Y-116879600D01*
X134609100Y-116878600D01*
X134613100Y-116878600D01*
X134617100Y-116878600D01*
X135325100Y-116878600D01*
X135329100Y-116878600D01*
X135333100Y-116878600D01*
X135338100Y-116879600D01*
X135342100Y-116880600D01*
X135346100Y-116881600D01*
X135350100Y-116882600D01*
X135354100Y-116883600D01*
X135358100Y-116885600D01*
X135362100Y-116887600D01*
X135365100Y-116889600D01*
X135369100Y-116891600D01*
X135373100Y-116893600D01*
X135376100Y-116896600D01*
X135379100Y-116899600D01*
X135382100Y-116902600D01*
X135385100Y-116905600D01*
X135388100Y-116908600D01*
X135391100Y-116911600D01*
X135393100Y-116915600D01*
X135395100Y-116918600D01*
X135397100Y-116922600D01*
X135399100Y-116926600D01*
X135401100Y-116930600D01*
X135402100Y-116934600D01*
X135403100Y-116938600D01*
X135404100Y-116942600D01*
X135405100Y-116946600D01*
X135406100Y-116951600D01*
X135406100Y-116955600D01*
X135406100Y-116959600D01*
X135406100Y-117147600D01*
X135406100Y-117151600D01*
X135406100Y-117155600D01*
X135405100Y-117160600D01*
X135404100Y-117164600D01*
X135403100Y-117168600D01*
X135402100Y-117172600D01*
X135401100Y-117176600D01*
X135399100Y-117180600D01*
X135397100Y-117184600D01*
X135395100Y-117187600D01*
X135393100Y-117191600D01*
X135391100Y-117195600D01*
X135388100Y-117198600D01*
X135385100Y-117201600D01*
X135382100Y-117204600D01*
X135379100Y-117207600D01*
X135376100Y-117210600D01*
X135373100Y-117213600D01*
X135369100Y-117215600D01*
X135365100Y-117217600D01*
X135362100Y-117219600D01*
X135358100Y-117221600D01*
X135354100Y-117223600D01*
X135350100Y-117224600D01*
X135346100Y-117225600D01*
X135342100Y-117226600D01*
X135338100Y-117227600D01*
X135333100Y-117228600D01*
X135329100Y-117228600D01*
X135325100Y-117228600D01*
G36*
X135338100Y-116879600D02*
G01*
X135342100Y-116880600D01*
X135346100Y-116881600D01*
X135350100Y-116882600D01*
X135354100Y-116883600D01*
X135358100Y-116885600D01*
X135362100Y-116887600D01*
X135365100Y-116889600D01*
X135369100Y-116891600D01*
X135373100Y-116893600D01*
X135376100Y-116896600D01*
X135379100Y-116899600D01*
X135382100Y-116902600D01*
X135385100Y-116905600D01*
X135388100Y-116908600D01*
X135391100Y-116911600D01*
X135393100Y-116915600D01*
X135395100Y-116918600D01*
X135397100Y-116922600D01*
X135399100Y-116926600D01*
X135401100Y-116930600D01*
X135402100Y-116934600D01*
X135403100Y-116938600D01*
X135404100Y-116942600D01*
X135405100Y-116946600D01*
X135406100Y-116951600D01*
X135406100Y-116955600D01*
X135406100Y-116959600D01*
X135406100Y-117147600D01*
X135406100Y-117151600D01*
X135406100Y-117155600D01*
X135405100Y-117160600D01*
X135404100Y-117164600D01*
X135403100Y-117168600D01*
X135402100Y-117172600D01*
X135401100Y-117176600D01*
X135399100Y-117180600D01*
X135397100Y-117184600D01*
X135395100Y-117187600D01*
X135393100Y-117191600D01*
X135391100Y-117195600D01*
X135388100Y-117198600D01*
X135385100Y-117201600D01*
X135382100Y-117204600D01*
X135379100Y-117207600D01*
X135376100Y-117210600D01*
X135373100Y-117213600D01*
X135369100Y-117215600D01*
X135365100Y-117217600D01*
X135362100Y-117219600D01*
X135358100Y-117221600D01*
X135354100Y-117223600D01*
X135350100Y-117224600D01*
X135346100Y-117225600D01*
X135342100Y-117226600D01*
X135338100Y-117227600D01*
X135333100Y-117228600D01*
X135329100Y-117228600D01*
X135325100Y-117228600D01*
X134617100Y-117228600D01*
X134613100Y-117228600D01*
X134609100Y-117228600D01*
X134604100Y-117227600D01*
X134600100Y-117226600D01*
X134596100Y-117225600D01*
X134592100Y-117224600D01*
X134588100Y-117223600D01*
X134584100Y-117221600D01*
X134580100Y-117219600D01*
X134576100Y-117217600D01*
X134573100Y-117215600D01*
X134569100Y-117213600D01*
X134566100Y-117210600D01*
X134563100Y-117207600D01*
X134560100Y-117204600D01*
X134557100Y-117201600D01*
X134554100Y-117198600D01*
X134551100Y-117195600D01*
X134549100Y-117191600D01*
X134547100Y-117187600D01*
X134545100Y-117184600D01*
X134543100Y-117180600D01*
X134541100Y-117176600D01*
X134540100Y-117172600D01*
X134539100Y-117168600D01*
X134538100Y-117164600D01*
X134537100Y-117160600D01*
X134536100Y-117155600D01*
X134536100Y-117151600D01*
X134536100Y-117147600D01*
X134536100Y-116959600D01*
X134536100Y-116955600D01*
X134536100Y-116951600D01*
X134537100Y-116946600D01*
X134538100Y-116942600D01*
X134539100Y-116938600D01*
X134540100Y-116934600D01*
X134541100Y-116930600D01*
X134543100Y-116926600D01*
X134545100Y-116922600D01*
X134547100Y-116918600D01*
X134549100Y-116915600D01*
X134551100Y-116911600D01*
X134554100Y-116908600D01*
X134557100Y-116905600D01*
X134560100Y-116902600D01*
X134563100Y-116899600D01*
X134566100Y-116896600D01*
X134569100Y-116893600D01*
X134573100Y-116891600D01*
X134576100Y-116889600D01*
X134580100Y-116887600D01*
X134584100Y-116885600D01*
X134588100Y-116883600D01*
X134592100Y-116882600D01*
X134596100Y-116881600D01*
X134600100Y-116880600D01*
X134604100Y-116879600D01*
X134609100Y-116878600D01*
X134613100Y-116878600D01*
X134617100Y-116878600D01*
X135325100Y-116878600D01*
X135329100Y-116878600D01*
X135333100Y-116878600D01*
X135338100Y-116879600D01*
G37*
X135325100Y-117678600D02*
X134617100Y-117678600D01*
X134613100Y-117678600D01*
X134609100Y-117678600D01*
X134604100Y-117677600D01*
X134600100Y-117676600D01*
X134596100Y-117675600D01*
X134592100Y-117674600D01*
X134588100Y-117673600D01*
X134584100Y-117671600D01*
X134580100Y-117669600D01*
X134576100Y-117667600D01*
X134573100Y-117665600D01*
X134569100Y-117663600D01*
X134566100Y-117660600D01*
X134563100Y-117657600D01*
X134560100Y-117654600D01*
X134557100Y-117651600D01*
X134554100Y-117648600D01*
X134551100Y-117645600D01*
X134549100Y-117641600D01*
X134547100Y-117637600D01*
X134545100Y-117634600D01*
X134543100Y-117630600D01*
X134541100Y-117626600D01*
X134540100Y-117622600D01*
X134539100Y-117618600D01*
X134538100Y-117614600D01*
X134537100Y-117610600D01*
X134536100Y-117605600D01*
X134536100Y-117601600D01*
X134536100Y-117597600D01*
X134536100Y-117409600D01*
X134536100Y-117405600D01*
X134536100Y-117401600D01*
X134537100Y-117396600D01*
X134538100Y-117392600D01*
X134539100Y-117388600D01*
X134540100Y-117384600D01*
X134541100Y-117380600D01*
X134543100Y-117376600D01*
X134545100Y-117372600D01*
X134547100Y-117369600D01*
X134549100Y-117365600D01*
X134551100Y-117361600D01*
X134554100Y-117358600D01*
X134557100Y-117355600D01*
X134560100Y-117352600D01*
X134563100Y-117349600D01*
X134566100Y-117346600D01*
X134569100Y-117343600D01*
X134573100Y-117341600D01*
X134576100Y-117339600D01*
X134580100Y-117337600D01*
X134584100Y-117335600D01*
X134588100Y-117333600D01*
X134592100Y-117332600D01*
X134596100Y-117331600D01*
X134600100Y-117330600D01*
X134604100Y-117329600D01*
X134609100Y-117328600D01*
X134613100Y-117328600D01*
X134617100Y-117328600D01*
X135325100Y-117328600D01*
X135329100Y-117328600D01*
X135333100Y-117328600D01*
X135338100Y-117329600D01*
X135342100Y-117330600D01*
X135346100Y-117331600D01*
X135350100Y-117332600D01*
X135354100Y-117333600D01*
X135358100Y-117335600D01*
X135362100Y-117337600D01*
X135365100Y-117339600D01*
X135369100Y-117341600D01*
X135373100Y-117343600D01*
X135376100Y-117346600D01*
X135379100Y-117349600D01*
X135382100Y-117352600D01*
X135385100Y-117355600D01*
X135388100Y-117358600D01*
X135391100Y-117361600D01*
X135393100Y-117365600D01*
X135395100Y-117368600D01*
X135397100Y-117372600D01*
X135399100Y-117376600D01*
X135401100Y-117380600D01*
X135402100Y-117384600D01*
X135403100Y-117388600D01*
X135404100Y-117392600D01*
X135405100Y-117396600D01*
X135406100Y-117401600D01*
X135406100Y-117405600D01*
X135406100Y-117409600D01*
X135406100Y-117597600D01*
X135406100Y-117601600D01*
X135406100Y-117605600D01*
X135405100Y-117610600D01*
X135404100Y-117614600D01*
X135403100Y-117618600D01*
X135402100Y-117622600D01*
X135401100Y-117626600D01*
X135399100Y-117630600D01*
X135397100Y-117634600D01*
X135395100Y-117638600D01*
X135393100Y-117641600D01*
X135391100Y-117645600D01*
X135388100Y-117648600D01*
X135385100Y-117651600D01*
X135382100Y-117654600D01*
X135379100Y-117657600D01*
X135376100Y-117660600D01*
X135373100Y-117663600D01*
X135369100Y-117665600D01*
X135365100Y-117667600D01*
X135362100Y-117669600D01*
X135358100Y-117671600D01*
X135354100Y-117673600D01*
X135350100Y-117674600D01*
X135346100Y-117675600D01*
X135342100Y-117676600D01*
X135338100Y-117677600D01*
X135333100Y-117678600D01*
X135329100Y-117678600D01*
X135325100Y-117678600D01*
G36*
X135338100Y-117329600D02*
G01*
X135342100Y-117330600D01*
X135346100Y-117331600D01*
X135350100Y-117332600D01*
X135354100Y-117333600D01*
X135358100Y-117335600D01*
X135362100Y-117337600D01*
X135365100Y-117339600D01*
X135369100Y-117341600D01*
X135373100Y-117343600D01*
X135376100Y-117346600D01*
X135379100Y-117349600D01*
X135382100Y-117352600D01*
X135385100Y-117355600D01*
X135388100Y-117358600D01*
X135391100Y-117361600D01*
X135393100Y-117365600D01*
X135395100Y-117368600D01*
X135397100Y-117372600D01*
X135399100Y-117376600D01*
X135401100Y-117380600D01*
X135402100Y-117384600D01*
X135403100Y-117388600D01*
X135404100Y-117392600D01*
X135405100Y-117396600D01*
X135406100Y-117401600D01*
X135406100Y-117405600D01*
X135406100Y-117409600D01*
X135406100Y-117597600D01*
X135406100Y-117601600D01*
X135406100Y-117605600D01*
X135405100Y-117610600D01*
X135404100Y-117614600D01*
X135403100Y-117618600D01*
X135402100Y-117622600D01*
X135401100Y-117626600D01*
X135399100Y-117630600D01*
X135397100Y-117634600D01*
X135395100Y-117638600D01*
X135393100Y-117641600D01*
X135391100Y-117645600D01*
X135388100Y-117648600D01*
X135385100Y-117651600D01*
X135382100Y-117654600D01*
X135379100Y-117657600D01*
X135376100Y-117660600D01*
X135373100Y-117663600D01*
X135369100Y-117665600D01*
X135365100Y-117667600D01*
X135362100Y-117669600D01*
X135358100Y-117671600D01*
X135354100Y-117673600D01*
X135350100Y-117674600D01*
X135346100Y-117675600D01*
X135342100Y-117676600D01*
X135338100Y-117677600D01*
X135333100Y-117678600D01*
X135329100Y-117678600D01*
X135325100Y-117678600D01*
X134617100Y-117678600D01*
X134613100Y-117678600D01*
X134609100Y-117678600D01*
X134604100Y-117677600D01*
X134600100Y-117676600D01*
X134596100Y-117675600D01*
X134592100Y-117674600D01*
X134588100Y-117673600D01*
X134584100Y-117671600D01*
X134580100Y-117669600D01*
X134576100Y-117667600D01*
X134573100Y-117665600D01*
X134569100Y-117663600D01*
X134566100Y-117660600D01*
X134563100Y-117657600D01*
X134560100Y-117654600D01*
X134557100Y-117651600D01*
X134554100Y-117648600D01*
X134551100Y-117645600D01*
X134549100Y-117641600D01*
X134547100Y-117637600D01*
X134545100Y-117634600D01*
X134543100Y-117630600D01*
X134541100Y-117626600D01*
X134540100Y-117622600D01*
X134539100Y-117618600D01*
X134538100Y-117614600D01*
X134537100Y-117610600D01*
X134536100Y-117605600D01*
X134536100Y-117601600D01*
X134536100Y-117597600D01*
X134536100Y-117409600D01*
X134536100Y-117405600D01*
X134536100Y-117401600D01*
X134537100Y-117396600D01*
X134538100Y-117392600D01*
X134539100Y-117388600D01*
X134540100Y-117384600D01*
X134541100Y-117380600D01*
X134543100Y-117376600D01*
X134545100Y-117372600D01*
X134547100Y-117369600D01*
X134549100Y-117365600D01*
X134551100Y-117361600D01*
X134554100Y-117358600D01*
X134557100Y-117355600D01*
X134560100Y-117352600D01*
X134563100Y-117349600D01*
X134566100Y-117346600D01*
X134569100Y-117343600D01*
X134573100Y-117341600D01*
X134576100Y-117339600D01*
X134580100Y-117337600D01*
X134584100Y-117335600D01*
X134588100Y-117333600D01*
X134592100Y-117332600D01*
X134596100Y-117331600D01*
X134600100Y-117330600D01*
X134604100Y-117329600D01*
X134609100Y-117328600D01*
X134613100Y-117328600D01*
X134617100Y-117328600D01*
X135325100Y-117328600D01*
X135329100Y-117328600D01*
X135333100Y-117328600D01*
X135338100Y-117329600D01*
G37*
X135325100Y-118128600D02*
X134617100Y-118128600D01*
X134613100Y-118128600D01*
X134609100Y-118128600D01*
X134604100Y-118127600D01*
X134600100Y-118126600D01*
X134596100Y-118125600D01*
X134592100Y-118124600D01*
X134588100Y-118123600D01*
X134584100Y-118121600D01*
X134580100Y-118119600D01*
X134576100Y-118117600D01*
X134573100Y-118115600D01*
X134569100Y-118113600D01*
X134566100Y-118110600D01*
X134563100Y-118107600D01*
X134560100Y-118104600D01*
X134557100Y-118101600D01*
X134554100Y-118098600D01*
X134551100Y-118095600D01*
X134549100Y-118091600D01*
X134547100Y-118088600D01*
X134545100Y-118084600D01*
X134543100Y-118080600D01*
X134541100Y-118076600D01*
X134540100Y-118072600D01*
X134539100Y-118068600D01*
X134538100Y-118064600D01*
X134537100Y-118060600D01*
X134536100Y-118055600D01*
X134536100Y-118051600D01*
X134536100Y-118047600D01*
X134536100Y-117859600D01*
X134536100Y-117855600D01*
X134536100Y-117851600D01*
X134537100Y-117846600D01*
X134538100Y-117842600D01*
X134539100Y-117838600D01*
X134540100Y-117834600D01*
X134541100Y-117830600D01*
X134543100Y-117826600D01*
X134545100Y-117822600D01*
X134547100Y-117819600D01*
X134549100Y-117815600D01*
X134551100Y-117811600D01*
X134554100Y-117808600D01*
X134557100Y-117805600D01*
X134560100Y-117802600D01*
X134563100Y-117799600D01*
X134566100Y-117796600D01*
X134569100Y-117793600D01*
X134573100Y-117791600D01*
X134576100Y-117789600D01*
X134580100Y-117787600D01*
X134584100Y-117785600D01*
X134588100Y-117783600D01*
X134592100Y-117782600D01*
X134596100Y-117781600D01*
X134600100Y-117780600D01*
X134604100Y-117779600D01*
X134609100Y-117778600D01*
X134613100Y-117778600D01*
X134617100Y-117778600D01*
X135325100Y-117778600D01*
X135329100Y-117778600D01*
X135333100Y-117778600D01*
X135338100Y-117779600D01*
X135342100Y-117780600D01*
X135346100Y-117781600D01*
X135350100Y-117782600D01*
X135354100Y-117783600D01*
X135358100Y-117785600D01*
X135362100Y-117787600D01*
X135365100Y-117789600D01*
X135369100Y-117791600D01*
X135373100Y-117793600D01*
X135376100Y-117796600D01*
X135379100Y-117799600D01*
X135382100Y-117802600D01*
X135385100Y-117805600D01*
X135388100Y-117808600D01*
X135391100Y-117811600D01*
X135393100Y-117815600D01*
X135395100Y-117819600D01*
X135397100Y-117822600D01*
X135399100Y-117826600D01*
X135401100Y-117830600D01*
X135402100Y-117834600D01*
X135403100Y-117838600D01*
X135404100Y-117842600D01*
X135405100Y-117846600D01*
X135406100Y-117851600D01*
X135406100Y-117855600D01*
X135406100Y-117859600D01*
X135406100Y-118047600D01*
X135406100Y-118051600D01*
X135406100Y-118055600D01*
X135405100Y-118060600D01*
X135404100Y-118064600D01*
X135403100Y-118068600D01*
X135402100Y-118072600D01*
X135401100Y-118076600D01*
X135399100Y-118080600D01*
X135397100Y-118084600D01*
X135395100Y-118088600D01*
X135393100Y-118091600D01*
X135391100Y-118095600D01*
X135388100Y-118098600D01*
X135385100Y-118101600D01*
X135382100Y-118104600D01*
X135379100Y-118107600D01*
X135376100Y-118110600D01*
X135373100Y-118113600D01*
X135369100Y-118115600D01*
X135365100Y-118117600D01*
X135362100Y-118119600D01*
X135358100Y-118121600D01*
X135354100Y-118123600D01*
X135350100Y-118124600D01*
X135346100Y-118125600D01*
X135342100Y-118126600D01*
X135338100Y-118127600D01*
X135333100Y-118128600D01*
X135329100Y-118128600D01*
X135325100Y-118128600D01*
G36*
X135338100Y-117779600D02*
G01*
X135342100Y-117780600D01*
X135346100Y-117781600D01*
X135350100Y-117782600D01*
X135354100Y-117783600D01*
X135358100Y-117785600D01*
X135362100Y-117787600D01*
X135365100Y-117789600D01*
X135369100Y-117791600D01*
X135373100Y-117793600D01*
X135376100Y-117796600D01*
X135379100Y-117799600D01*
X135382100Y-117802600D01*
X135385100Y-117805600D01*
X135388100Y-117808600D01*
X135391100Y-117811600D01*
X135393100Y-117815600D01*
X135395100Y-117819600D01*
X135397100Y-117822600D01*
X135399100Y-117826600D01*
X135401100Y-117830600D01*
X135402100Y-117834600D01*
X135403100Y-117838600D01*
X135404100Y-117842600D01*
X135405100Y-117846600D01*
X135406100Y-117851600D01*
X135406100Y-117855600D01*
X135406100Y-117859600D01*
X135406100Y-118047600D01*
X135406100Y-118051600D01*
X135406100Y-118055600D01*
X135405100Y-118060600D01*
X135404100Y-118064600D01*
X135403100Y-118068600D01*
X135402100Y-118072600D01*
X135401100Y-118076600D01*
X135399100Y-118080600D01*
X135397100Y-118084600D01*
X135395100Y-118088600D01*
X135393100Y-118091600D01*
X135391100Y-118095600D01*
X135388100Y-118098600D01*
X135385100Y-118101600D01*
X135382100Y-118104600D01*
X135379100Y-118107600D01*
X135376100Y-118110600D01*
X135373100Y-118113600D01*
X135369100Y-118115600D01*
X135365100Y-118117600D01*
X135362100Y-118119600D01*
X135358100Y-118121600D01*
X135354100Y-118123600D01*
X135350100Y-118124600D01*
X135346100Y-118125600D01*
X135342100Y-118126600D01*
X135338100Y-118127600D01*
X135333100Y-118128600D01*
X135329100Y-118128600D01*
X135325100Y-118128600D01*
X134617100Y-118128600D01*
X134613100Y-118128600D01*
X134609100Y-118128600D01*
X134604100Y-118127600D01*
X134600100Y-118126600D01*
X134596100Y-118125600D01*
X134592100Y-118124600D01*
X134588100Y-118123600D01*
X134584100Y-118121600D01*
X134580100Y-118119600D01*
X134576100Y-118117600D01*
X134573100Y-118115600D01*
X134569100Y-118113600D01*
X134566100Y-118110600D01*
X134563100Y-118107600D01*
X134560100Y-118104600D01*
X134557100Y-118101600D01*
X134554100Y-118098600D01*
X134551100Y-118095600D01*
X134549100Y-118091600D01*
X134547100Y-118088600D01*
X134545100Y-118084600D01*
X134543100Y-118080600D01*
X134541100Y-118076600D01*
X134540100Y-118072600D01*
X134539100Y-118068600D01*
X134538100Y-118064600D01*
X134537100Y-118060600D01*
X134536100Y-118055600D01*
X134536100Y-118051600D01*
X134536100Y-118047600D01*
X134536100Y-117859600D01*
X134536100Y-117855600D01*
X134536100Y-117851600D01*
X134537100Y-117846600D01*
X134538100Y-117842600D01*
X134539100Y-117838600D01*
X134540100Y-117834600D01*
X134541100Y-117830600D01*
X134543100Y-117826600D01*
X134545100Y-117822600D01*
X134547100Y-117819600D01*
X134549100Y-117815600D01*
X134551100Y-117811600D01*
X134554100Y-117808600D01*
X134557100Y-117805600D01*
X134560100Y-117802600D01*
X134563100Y-117799600D01*
X134566100Y-117796600D01*
X134569100Y-117793600D01*
X134573100Y-117791600D01*
X134576100Y-117789600D01*
X134580100Y-117787600D01*
X134584100Y-117785600D01*
X134588100Y-117783600D01*
X134592100Y-117782600D01*
X134596100Y-117781600D01*
X134600100Y-117780600D01*
X134604100Y-117779600D01*
X134609100Y-117778600D01*
X134613100Y-117778600D01*
X134617100Y-117778600D01*
X135325100Y-117778600D01*
X135329100Y-117778600D01*
X135333100Y-117778600D01*
X135338100Y-117779600D01*
G37*
X135325100Y-118578600D02*
X134617100Y-118578600D01*
X134613100Y-118578600D01*
X134609100Y-118578600D01*
X134604100Y-118577600D01*
X134600100Y-118576600D01*
X134596100Y-118575600D01*
X134592100Y-118574600D01*
X134588100Y-118573600D01*
X134584100Y-118571600D01*
X134580100Y-118569600D01*
X134576100Y-118567600D01*
X134573100Y-118565600D01*
X134569100Y-118563600D01*
X134566100Y-118560600D01*
X134563100Y-118557600D01*
X134560100Y-118554600D01*
X134557100Y-118551600D01*
X134554100Y-118548600D01*
X134551100Y-118545600D01*
X134549100Y-118541600D01*
X134547100Y-118537600D01*
X134545100Y-118534600D01*
X134543100Y-118530600D01*
X134541100Y-118526600D01*
X134540100Y-118522600D01*
X134539100Y-118518600D01*
X134538100Y-118514600D01*
X134537100Y-118510600D01*
X134536100Y-118505600D01*
X134536100Y-118501600D01*
X134536100Y-118497600D01*
X134536100Y-118309600D01*
X134536100Y-118305600D01*
X134536100Y-118301600D01*
X134537100Y-118296600D01*
X134538100Y-118292600D01*
X134539100Y-118288600D01*
X134540100Y-118284600D01*
X134541100Y-118280600D01*
X134543100Y-118276600D01*
X134545100Y-118272600D01*
X134547100Y-118269600D01*
X134549100Y-118265600D01*
X134551100Y-118261600D01*
X134554100Y-118258600D01*
X134557100Y-118255600D01*
X134560100Y-118252600D01*
X134563100Y-118249600D01*
X134566100Y-118246600D01*
X134569100Y-118243600D01*
X134573100Y-118241600D01*
X134576100Y-118239600D01*
X134580100Y-118237600D01*
X134584100Y-118235600D01*
X134588100Y-118233600D01*
X134592100Y-118232600D01*
X134596100Y-118231600D01*
X134600100Y-118230600D01*
X134604100Y-118229600D01*
X134609100Y-118228600D01*
X134613100Y-118228600D01*
X134617100Y-118228600D01*
X135325100Y-118228600D01*
X135329100Y-118228600D01*
X135333100Y-118228600D01*
X135338100Y-118229600D01*
X135342100Y-118230600D01*
X135346100Y-118231600D01*
X135350100Y-118232600D01*
X135354100Y-118233600D01*
X135358100Y-118235600D01*
X135362100Y-118237600D01*
X135365100Y-118239600D01*
X135369100Y-118241600D01*
X135373100Y-118243600D01*
X135376100Y-118246600D01*
X135379100Y-118249600D01*
X135382100Y-118252600D01*
X135385100Y-118255600D01*
X135388100Y-118258600D01*
X135391100Y-118261600D01*
X135393100Y-118265600D01*
X135395100Y-118269600D01*
X135397100Y-118272600D01*
X135399100Y-118276600D01*
X135401100Y-118280600D01*
X135402100Y-118284600D01*
X135403100Y-118288600D01*
X135404100Y-118292600D01*
X135405100Y-118296600D01*
X135406100Y-118301600D01*
X135406100Y-118305600D01*
X135406100Y-118309600D01*
X135406100Y-118497600D01*
X135406100Y-118501600D01*
X135406100Y-118505600D01*
X135405100Y-118510600D01*
X135404100Y-118514600D01*
X135403100Y-118518600D01*
X135402100Y-118522600D01*
X135401100Y-118526600D01*
X135399100Y-118530600D01*
X135397100Y-118534600D01*
X135395100Y-118537600D01*
X135393100Y-118541600D01*
X135391100Y-118545600D01*
X135388100Y-118548600D01*
X135385100Y-118551600D01*
X135382100Y-118554600D01*
X135379100Y-118557600D01*
X135376100Y-118560600D01*
X135373100Y-118563600D01*
X135369100Y-118565600D01*
X135365100Y-118567600D01*
X135362100Y-118569600D01*
X135358100Y-118571600D01*
X135354100Y-118573600D01*
X135350100Y-118574600D01*
X135346100Y-118575600D01*
X135342100Y-118576600D01*
X135338100Y-118577600D01*
X135333100Y-118578600D01*
X135329100Y-118578600D01*
X135325100Y-118578600D01*
G36*
X135338100Y-118229600D02*
G01*
X135342100Y-118230600D01*
X135346100Y-118231600D01*
X135350100Y-118232600D01*
X135354100Y-118233600D01*
X135358100Y-118235600D01*
X135362100Y-118237600D01*
X135365100Y-118239600D01*
X135369100Y-118241600D01*
X135373100Y-118243600D01*
X135376100Y-118246600D01*
X135379100Y-118249600D01*
X135382100Y-118252600D01*
X135385100Y-118255600D01*
X135388100Y-118258600D01*
X135391100Y-118261600D01*
X135393100Y-118265600D01*
X135395100Y-118269600D01*
X135397100Y-118272600D01*
X135399100Y-118276600D01*
X135401100Y-118280600D01*
X135402100Y-118284600D01*
X135403100Y-118288600D01*
X135404100Y-118292600D01*
X135405100Y-118296600D01*
X135406100Y-118301600D01*
X135406100Y-118305600D01*
X135406100Y-118309600D01*
X135406100Y-118497600D01*
X135406100Y-118501600D01*
X135406100Y-118505600D01*
X135405100Y-118510600D01*
X135404100Y-118514600D01*
X135403100Y-118518600D01*
X135402100Y-118522600D01*
X135401100Y-118526600D01*
X135399100Y-118530600D01*
X135397100Y-118534600D01*
X135395100Y-118537600D01*
X135393100Y-118541600D01*
X135391100Y-118545600D01*
X135388100Y-118548600D01*
X135385100Y-118551600D01*
X135382100Y-118554600D01*
X135379100Y-118557600D01*
X135376100Y-118560600D01*
X135373100Y-118563600D01*
X135369100Y-118565600D01*
X135365100Y-118567600D01*
X135362100Y-118569600D01*
X135358100Y-118571600D01*
X135354100Y-118573600D01*
X135350100Y-118574600D01*
X135346100Y-118575600D01*
X135342100Y-118576600D01*
X135338100Y-118577600D01*
X135333100Y-118578600D01*
X135329100Y-118578600D01*
X135325100Y-118578600D01*
X134617100Y-118578600D01*
X134613100Y-118578600D01*
X134609100Y-118578600D01*
X134604100Y-118577600D01*
X134600100Y-118576600D01*
X134596100Y-118575600D01*
X134592100Y-118574600D01*
X134588100Y-118573600D01*
X134584100Y-118571600D01*
X134580100Y-118569600D01*
X134576100Y-118567600D01*
X134573100Y-118565600D01*
X134569100Y-118563600D01*
X134566100Y-118560600D01*
X134563100Y-118557600D01*
X134560100Y-118554600D01*
X134557100Y-118551600D01*
X134554100Y-118548600D01*
X134551100Y-118545600D01*
X134549100Y-118541600D01*
X134547100Y-118537600D01*
X134545100Y-118534600D01*
X134543100Y-118530600D01*
X134541100Y-118526600D01*
X134540100Y-118522600D01*
X134539100Y-118518600D01*
X134538100Y-118514600D01*
X134537100Y-118510600D01*
X134536100Y-118505600D01*
X134536100Y-118501600D01*
X134536100Y-118497600D01*
X134536100Y-118309600D01*
X134536100Y-118305600D01*
X134536100Y-118301600D01*
X134537100Y-118296600D01*
X134538100Y-118292600D01*
X134539100Y-118288600D01*
X134540100Y-118284600D01*
X134541100Y-118280600D01*
X134543100Y-118276600D01*
X134545100Y-118272600D01*
X134547100Y-118269600D01*
X134549100Y-118265600D01*
X134551100Y-118261600D01*
X134554100Y-118258600D01*
X134557100Y-118255600D01*
X134560100Y-118252600D01*
X134563100Y-118249600D01*
X134566100Y-118246600D01*
X134569100Y-118243600D01*
X134573100Y-118241600D01*
X134576100Y-118239600D01*
X134580100Y-118237600D01*
X134584100Y-118235600D01*
X134588100Y-118233600D01*
X134592100Y-118232600D01*
X134596100Y-118231600D01*
X134600100Y-118230600D01*
X134604100Y-118229600D01*
X134609100Y-118228600D01*
X134613100Y-118228600D01*
X134617100Y-118228600D01*
X135325100Y-118228600D01*
X135329100Y-118228600D01*
X135333100Y-118228600D01*
X135338100Y-118229600D01*
G37*
X135325100Y-119028600D02*
X134617100Y-119028600D01*
X134613100Y-119028600D01*
X134609100Y-119028600D01*
X134604100Y-119027600D01*
X134600100Y-119026600D01*
X134596100Y-119025600D01*
X134592100Y-119024600D01*
X134588100Y-119023600D01*
X134584100Y-119021600D01*
X134580100Y-119019600D01*
X134576100Y-119017600D01*
X134573100Y-119015600D01*
X134569100Y-119013600D01*
X134566100Y-119010600D01*
X134563100Y-119007600D01*
X134560100Y-119004600D01*
X134557100Y-119001600D01*
X134554100Y-118998600D01*
X134551100Y-118995600D01*
X134549100Y-118991600D01*
X134547100Y-118987600D01*
X134545100Y-118984600D01*
X134543100Y-118980600D01*
X134541100Y-118976600D01*
X134540100Y-118972600D01*
X134539100Y-118968600D01*
X134538100Y-118964600D01*
X134537100Y-118960600D01*
X134536100Y-118955600D01*
X134536100Y-118951600D01*
X134536100Y-118947600D01*
X134536100Y-118759600D01*
X134536100Y-118755600D01*
X134536100Y-118751600D01*
X134537100Y-118746600D01*
X134538100Y-118742600D01*
X134539100Y-118738600D01*
X134540100Y-118734600D01*
X134541100Y-118730600D01*
X134543100Y-118726600D01*
X134545100Y-118722600D01*
X134547100Y-118719600D01*
X134549100Y-118715600D01*
X134551100Y-118711600D01*
X134554100Y-118708600D01*
X134557100Y-118705600D01*
X134560100Y-118702600D01*
X134563100Y-118699600D01*
X134566100Y-118696600D01*
X134569100Y-118693600D01*
X134573100Y-118691600D01*
X134576100Y-118689600D01*
X134580100Y-118687600D01*
X134584100Y-118685600D01*
X134588100Y-118683600D01*
X134592100Y-118682600D01*
X134596100Y-118681600D01*
X134600100Y-118680600D01*
X134604100Y-118679600D01*
X134609100Y-118678600D01*
X134613100Y-118678600D01*
X134617100Y-118678600D01*
X135325100Y-118678600D01*
X135329100Y-118678600D01*
X135333100Y-118678600D01*
X135338100Y-118679600D01*
X135342100Y-118680600D01*
X135346100Y-118681600D01*
X135350100Y-118682600D01*
X135354100Y-118683600D01*
X135358100Y-118685600D01*
X135362100Y-118687600D01*
X135365100Y-118689600D01*
X135369100Y-118691600D01*
X135373100Y-118693600D01*
X135376100Y-118696600D01*
X135379100Y-118699600D01*
X135382100Y-118702600D01*
X135385100Y-118705600D01*
X135388100Y-118708600D01*
X135391100Y-118711600D01*
X135393100Y-118715600D01*
X135395100Y-118719600D01*
X135397100Y-118722600D01*
X135399100Y-118726600D01*
X135401100Y-118730600D01*
X135402100Y-118734600D01*
X135403100Y-118738600D01*
X135404100Y-118742600D01*
X135405100Y-118746600D01*
X135406100Y-118751600D01*
X135406100Y-118755600D01*
X135406100Y-118759600D01*
X135406100Y-118947600D01*
X135406100Y-118951600D01*
X135406100Y-118955600D01*
X135405100Y-118960600D01*
X135404100Y-118964600D01*
X135403100Y-118968600D01*
X135402100Y-118972600D01*
X135401100Y-118976600D01*
X135399100Y-118980600D01*
X135397100Y-118984600D01*
X135395100Y-118987600D01*
X135393100Y-118991600D01*
X135391100Y-118995600D01*
X135388100Y-118998600D01*
X135385100Y-119001600D01*
X135382100Y-119004600D01*
X135379100Y-119007600D01*
X135376100Y-119010600D01*
X135373100Y-119013600D01*
X135369100Y-119015600D01*
X135365100Y-119017600D01*
X135362100Y-119019600D01*
X135358100Y-119021600D01*
X135354100Y-119023600D01*
X135350100Y-119024600D01*
X135346100Y-119025600D01*
X135342100Y-119026600D01*
X135338100Y-119027600D01*
X135333100Y-119028600D01*
X135329100Y-119028600D01*
X135325100Y-119028600D01*
G36*
X135338100Y-118679600D02*
G01*
X135342100Y-118680600D01*
X135346100Y-118681600D01*
X135350100Y-118682600D01*
X135354100Y-118683600D01*
X135358100Y-118685600D01*
X135362100Y-118687600D01*
X135365100Y-118689600D01*
X135369100Y-118691600D01*
X135373100Y-118693600D01*
X135376100Y-118696600D01*
X135379100Y-118699600D01*
X135382100Y-118702600D01*
X135385100Y-118705600D01*
X135388100Y-118708600D01*
X135391100Y-118711600D01*
X135393100Y-118715600D01*
X135395100Y-118719600D01*
X135397100Y-118722600D01*
X135399100Y-118726600D01*
X135401100Y-118730600D01*
X135402100Y-118734600D01*
X135403100Y-118738600D01*
X135404100Y-118742600D01*
X135405100Y-118746600D01*
X135406100Y-118751600D01*
X135406100Y-118755600D01*
X135406100Y-118759600D01*
X135406100Y-118947600D01*
X135406100Y-118951600D01*
X135406100Y-118955600D01*
X135405100Y-118960600D01*
X135404100Y-118964600D01*
X135403100Y-118968600D01*
X135402100Y-118972600D01*
X135401100Y-118976600D01*
X135399100Y-118980600D01*
X135397100Y-118984600D01*
X135395100Y-118987600D01*
X135393100Y-118991600D01*
X135391100Y-118995600D01*
X135388100Y-118998600D01*
X135385100Y-119001600D01*
X135382100Y-119004600D01*
X135379100Y-119007600D01*
X135376100Y-119010600D01*
X135373100Y-119013600D01*
X135369100Y-119015600D01*
X135365100Y-119017600D01*
X135362100Y-119019600D01*
X135358100Y-119021600D01*
X135354100Y-119023600D01*
X135350100Y-119024600D01*
X135346100Y-119025600D01*
X135342100Y-119026600D01*
X135338100Y-119027600D01*
X135333100Y-119028600D01*
X135329100Y-119028600D01*
X135325100Y-119028600D01*
X134617100Y-119028600D01*
X134613100Y-119028600D01*
X134609100Y-119028600D01*
X134604100Y-119027600D01*
X134600100Y-119026600D01*
X134596100Y-119025600D01*
X134592100Y-119024600D01*
X134588100Y-119023600D01*
X134584100Y-119021600D01*
X134580100Y-119019600D01*
X134576100Y-119017600D01*
X134573100Y-119015600D01*
X134569100Y-119013600D01*
X134566100Y-119010600D01*
X134563100Y-119007600D01*
X134560100Y-119004600D01*
X134557100Y-119001600D01*
X134554100Y-118998600D01*
X134551100Y-118995600D01*
X134549100Y-118991600D01*
X134547100Y-118987600D01*
X134545100Y-118984600D01*
X134543100Y-118980600D01*
X134541100Y-118976600D01*
X134540100Y-118972600D01*
X134539100Y-118968600D01*
X134538100Y-118964600D01*
X134537100Y-118960600D01*
X134536100Y-118955600D01*
X134536100Y-118951600D01*
X134536100Y-118947600D01*
X134536100Y-118759600D01*
X134536100Y-118755600D01*
X134536100Y-118751600D01*
X134537100Y-118746600D01*
X134538100Y-118742600D01*
X134539100Y-118738600D01*
X134540100Y-118734600D01*
X134541100Y-118730600D01*
X134543100Y-118726600D01*
X134545100Y-118722600D01*
X134547100Y-118719600D01*
X134549100Y-118715600D01*
X134551100Y-118711600D01*
X134554100Y-118708600D01*
X134557100Y-118705600D01*
X134560100Y-118702600D01*
X134563100Y-118699600D01*
X134566100Y-118696600D01*
X134569100Y-118693600D01*
X134573100Y-118691600D01*
X134576100Y-118689600D01*
X134580100Y-118687600D01*
X134584100Y-118685600D01*
X134588100Y-118683600D01*
X134592100Y-118682600D01*
X134596100Y-118681600D01*
X134600100Y-118680600D01*
X134604100Y-118679600D01*
X134609100Y-118678600D01*
X134613100Y-118678600D01*
X134617100Y-118678600D01*
X135325100Y-118678600D01*
X135329100Y-118678600D01*
X135333100Y-118678600D01*
X135338100Y-118679600D01*
G37*
D11*
%TO.C,JP1*%
G36*
X116054000Y-79440500D02*
G01*
X115546000Y-79440500D01*
X115546000Y-78959500D01*
X116054000Y-78959500D01*
X116054000Y-79440500D01*
G37*
%TD*%
D12*
%TO.C,C25*%
X128560100Y-120853600D03*
X127042100Y-120853600D03*
%TD*%
%TO.C,C26*%
X128560100Y-119253600D03*
X127042100Y-119253600D03*
%TD*%
D13*
%TO.C,C19*%
X137151100Y-124003600D03*
X138851100Y-124003600D03*
%TD*%
%TO.C,C12*%
X133901100Y-110953600D03*
X135601100Y-110953600D03*
%TD*%
%TO.C,C2*%
X160400000Y-108300000D03*
X162100000Y-108300000D03*
%TD*%
D14*
%TO.C,R17*%
X115801100Y-98153600D03*
X115801100Y-96453600D03*
%TD*%
D13*
%TO.C,C15*%
X133901100Y-106003600D03*
X135601100Y-106003600D03*
%TD*%
%TO.C,C9*%
X130401100Y-122403600D03*
X132101100Y-122403600D03*
%TD*%
D15*
%TO.C,J5*%
X172140000Y-120200000D03*
X169600000Y-120200000D03*
%TD*%
D13*
%TO.C,R5*%
X162050000Y-112800000D03*
X160350000Y-112800000D03*
%TD*%
%TO.C,R12*%
X141100000Y-115500000D03*
X139400000Y-115500000D03*
%TD*%
%TO.C,C14*%
X155050000Y-112800000D03*
X153350000Y-112800000D03*
%TD*%
D16*
%TO.C,U1*%
X121695902Y-90733600D03*
X121695902Y-92003600D03*
X121695902Y-93273600D03*
D17*
X120871100Y-94098402D03*
X119601100Y-94098402D03*
X118331100Y-94098402D03*
D16*
X117506298Y-93273600D03*
X117506298Y-92003600D03*
X117506298Y-90733600D03*
D17*
X118331100Y-89908798D03*
X119601100Y-89908798D03*
X120871100Y-89908798D03*
%TD*%
D13*
%TO.C,C16*%
X128651100Y-124003600D03*
X126951100Y-124003600D03*
%TD*%
D18*
%TO.C,H3*%
X180000000Y-73500000D03*
%TD*%
D13*
%TO.C,C5*%
X158500000Y-120200000D03*
X156800000Y-120200000D03*
%TD*%
%TO.C,R18*%
X142351100Y-113703600D03*
X140651100Y-113703600D03*
%TD*%
D19*
%TO.C,IC2*%
X156776121Y-118479150D03*
X157426107Y-118479150D03*
X158076093Y-118479150D03*
X158726079Y-118479150D03*
X158726079Y-116028050D03*
X158076093Y-116028050D03*
X157426107Y-116028050D03*
X156776121Y-116028050D03*
%TD*%
D13*
%TO.C,C13*%
X121651100Y-116903600D03*
X119951100Y-116903600D03*
%TD*%
%TO.C,R14*%
X128351100Y-78253600D03*
X126651100Y-78253600D03*
%TD*%
D14*
%TO.C,R6*%
X137251100Y-110853600D03*
X137251100Y-112553600D03*
%TD*%
D13*
%TO.C,R1*%
X162100000Y-121800000D03*
X160400000Y-121800000D03*
%TD*%
D18*
%TO.C,H2*%
X180000000Y-136500000D03*
%TD*%
D13*
%TO.C,C21*%
X137201100Y-117753600D03*
X138901100Y-117753600D03*
%TD*%
%TO.C,C6*%
X165450000Y-114300000D03*
X163750000Y-114300000D03*
%TD*%
%TO.C,C33*%
X163750000Y-116000000D03*
X162050000Y-116000000D03*
%TD*%
%TO.C,C8*%
X156800000Y-112800000D03*
X158500000Y-112800000D03*
%TD*%
%TO.C,R13*%
X128351100Y-76753600D03*
X126651100Y-76753600D03*
%TD*%
%TO.C,R24*%
X160350000Y-120200000D03*
X162050000Y-120200000D03*
%TD*%
%TO.C,C27*%
X137201100Y-120828600D03*
X138901100Y-120828600D03*
%TD*%
%TO.C,C22*%
X137201100Y-119253600D03*
X138901100Y-119253600D03*
%TD*%
%TO.C,C1*%
X165500000Y-121800000D03*
X163800000Y-121800000D03*
%TD*%
%TO.C,C7*%
X133801100Y-122403600D03*
X135501100Y-122403600D03*
%TD*%
D20*
%TO.C,JP1*%
X115279300Y-79200000D03*
X116320700Y-79200000D03*
%TD*%
D13*
%TO.C,R23*%
X160350000Y-114300000D03*
X162050000Y-114300000D03*
%TD*%
%TO.C,C30*%
X118750000Y-96400000D03*
X120450000Y-96400000D03*
%TD*%
D14*
%TO.C,R20*%
X133901100Y-107703600D03*
X133901100Y-109403600D03*
%TD*%
D13*
%TO.C,C17*%
X130401100Y-124003600D03*
X132101100Y-124003600D03*
%TD*%
D14*
%TO.C,R10*%
X129151100Y-110903600D03*
X129151100Y-112603600D03*
%TD*%
D18*
%TO.C,H4*%
X117000000Y-73500000D03*
%TD*%
D15*
%TO.C,J4*%
X115800000Y-84370000D03*
X115800000Y-81830000D03*
%TD*%
D21*
%TO.C,D1*%
X118950000Y-79200000D03*
X117450000Y-79200000D03*
%TD*%
D13*
%TO.C,C28*%
X120501100Y-87703600D03*
X118801100Y-87703600D03*
%TD*%
%TO.C,R8*%
X156800000Y-114300000D03*
X158500000Y-114300000D03*
%TD*%
%TO.C,C24*%
X126951100Y-117553600D03*
X128651100Y-117553600D03*
%TD*%
%TO.C,R29*%
X165450000Y-120200000D03*
X163750000Y-120200000D03*
%TD*%
%TO.C,C11*%
X137151100Y-122403600D03*
X138851100Y-122403600D03*
%TD*%
D22*
%TO.C,J3*%
X127201100Y-137703600D03*
X127201100Y-130703600D03*
D23*
X130651100Y-127703600D03*
D24*
X123851100Y-129203600D03*
X123651100Y-133203600D03*
X123651100Y-136203600D03*
%TD*%
D14*
%TO.C,R11*%
X127601100Y-110903600D03*
X127601100Y-112603600D03*
%TD*%
D13*
%TO.C,C10*%
X128651100Y-122403600D03*
X126951100Y-122403600D03*
%TD*%
%TO.C,R19*%
X142351100Y-112003600D03*
X140651100Y-112003600D03*
%TD*%
%TO.C,R4*%
X158550000Y-121800000D03*
X156850000Y-121800000D03*
%TD*%
%TO.C,R16*%
X122900000Y-76700000D03*
X124600000Y-76700000D03*
%TD*%
%TO.C,C4*%
X155050000Y-111203600D03*
X153350000Y-111203600D03*
%TD*%
%TO.C,R22*%
X135601100Y-112503600D03*
X133901100Y-112503600D03*
%TD*%
%TO.C,C3*%
X160400000Y-109700000D03*
X162100000Y-109700000D03*
%TD*%
D14*
%TO.C,R7*%
X132351100Y-110903600D03*
X132351100Y-112603600D03*
%TD*%
D13*
%TO.C,C31*%
X144550000Y-115500000D03*
X142850000Y-115500000D03*
%TD*%
%TO.C,C18*%
X133801100Y-124003600D03*
X135501100Y-124003600D03*
%TD*%
%TO.C,R2*%
X156800000Y-111203600D03*
X158500000Y-111203600D03*
%TD*%
D15*
%TO.C,J2*%
X124391100Y-72203600D03*
X126931100Y-72203600D03*
X129471100Y-72203600D03*
X132011100Y-72203600D03*
X134551100Y-72203600D03*
X137091100Y-72203600D03*
X139631100Y-72203600D03*
X142171100Y-72203600D03*
X144711100Y-72203600D03*
X147251100Y-72203600D03*
%TD*%
D13*
%TO.C,R30*%
X165400000Y-112800000D03*
X163700000Y-112800000D03*
%TD*%
D25*
%TO.C,J1*%
X140001100Y-136503600D03*
X140001100Y-129503600D03*
D26*
X143701100Y-137603600D03*
D27*
X143701100Y-128203600D03*
D26*
X136301100Y-135603600D03*
%TD*%
D13*
%TO.C,R21*%
X124651100Y-125153600D03*
X122951100Y-125153600D03*
%TD*%
%TO.C,C29*%
X120501100Y-86103600D03*
X118801100Y-86103600D03*
%TD*%
%TO.C,C20*%
X121651100Y-115253600D03*
X119951100Y-115253600D03*
%TD*%
D18*
%TO.C,H1*%
X117000000Y-136500000D03*
%TD*%
D13*
%TO.C,C32*%
X142351100Y-110503600D03*
X140651100Y-110503600D03*
%TD*%
%TO.C,R15*%
X124551100Y-78253600D03*
X122851100Y-78253600D03*
%TD*%
%TO.C,C23*%
X126951100Y-116053600D03*
X128651100Y-116053600D03*
%TD*%
%TO.C,R3*%
X158500000Y-109700000D03*
X156800000Y-109700000D03*
%TD*%
D14*
%TO.C,R9*%
X130751100Y-110903600D03*
X130751100Y-112603600D03*
%TD*%
D15*
%TO.C,J6*%
X172140000Y-114200000D03*
X169600000Y-114200000D03*
%TD*%
M02*
