%TF.GenerationSoftware,KiCad,Pcbnew,10.0.3-10.0.3~ubuntu24.04.1*%
%TF.CreationDate,2026-06-14T11:51:17-07:00*%
%TF.ProjectId,Sound,536f756e-642e-46b6-9963-61645f706362,4*%
%TF.SameCoordinates,Original*%
%TF.FileFunction,Copper,L2,Bot*%
%TF.FilePolarity,Positive*%
%FSLAX46Y46*%
G04 Gerber Fmt 4.6, Leading zero omitted, Abs format (unit mm)*
G04 Created by KiCad (PCBNEW 10.0.3-10.0.3~ubuntu24.04.1) date 2026-06-14 11:51:17*
%MOMM*%
%LPD*%
G01*
G04 APERTURE LIST*
%TA.AperFunction,ComponentPad*%
%ADD10C,1.879600*%
%TD*%
%TA.AperFunction,ViaPad*%
%ADD11C,0.700000*%
%TD*%
%TA.AperFunction,ViaPad*%
%ADD12C,0.756400*%
%TD*%
%TA.AperFunction,ViaPad*%
%ADD13C,0.500000*%
%TD*%
%TA.AperFunction,Conductor*%
%ADD14C,0.508000*%
%TD*%
%TA.AperFunction,Conductor*%
%ADD15C,0.500000*%
%TD*%
%TA.AperFunction,Conductor*%
%ADD16C,0.254000*%
%TD*%
G04 APERTURE END LIST*
D10*
%TO.P,J5,1,1_1*%
%TO.N,GND*%
X172140000Y-120200000D03*
%TO.P,J5,2,2_2*%
%TO.N,Net-(C1-Pad1)*%
X169600000Y-120200000D03*
%TD*%
%TO.P,J4,1,1_1*%
%TO.N,/EOC*%
X115800000Y-84370000D03*
%TO.P,J4,2,2_2*%
%TO.N,/RST*%
X115800000Y-81830000D03*
%TD*%
%TO.P,J2,1,1_1*%
%TO.N,GND*%
X124391100Y-72203600D03*
%TO.P,J2,2,2_2*%
%TO.N,/3.3V*%
X126931100Y-72203600D03*
%TO.P,J2,3,3_3*%
%TO.N,/SDA*%
X129471100Y-72203600D03*
%TO.P,J2,4,4_4*%
%TO.N,/SCL*%
X132011100Y-72203600D03*
%TO.P,J2,5,5_5*%
%TO.N,Net-(J2-Pad5)*%
X134551100Y-72203600D03*
%TO.P,J2,6,6_6*%
%TO.N,Net-(J2-Pad6)*%
X137091100Y-72203600D03*
%TO.P,J2,7,7_7*%
%TO.N,Net-(J2-Pad7)*%
X139631100Y-72203600D03*
%TO.P,J2,8,8_8*%
%TO.N,Net-(J2-Pad8)*%
X142171100Y-72203600D03*
%TO.P,J2,9,9_9*%
%TO.N,Net-(J2-Pad9)*%
X144711100Y-72203600D03*
%TO.P,J2,10,10_10*%
%TO.N,/A_3.3V*%
X147251100Y-72203600D03*
%TD*%
%TO.P,J6,1,1_1*%
%TO.N,GND*%
X172140000Y-114200000D03*
%TO.P,J6,2,2_2*%
%TO.N,Net-(C6-Pad1)*%
X169600000Y-114200000D03*
%TD*%
D11*
%TO.N,GND*%
X161200000Y-117300000D03*
X121701100Y-112703600D03*
D12*
X141451100Y-121153600D03*
X141701100Y-118503600D03*
X132901100Y-77553600D03*
D11*
X133051100Y-86553600D03*
X123951100Y-122453600D03*
X120501100Y-119003600D03*
X139251100Y-100853600D03*
D12*
X171751100Y-97753600D03*
X162398900Y-123900000D03*
X128201100Y-74253600D03*
X126751100Y-97753600D03*
D11*
X125151100Y-107353600D03*
X132201100Y-116703600D03*
D12*
X151251100Y-97753600D03*
X130751100Y-74253600D03*
D11*
X132201100Y-118303600D03*
X124600000Y-116000000D03*
X133051100Y-127353600D03*
X140851100Y-86553600D03*
D12*
X135751100Y-74253600D03*
X135901100Y-77253600D03*
D11*
X131601100Y-103253600D03*
D12*
X153501100Y-120103600D03*
D11*
X171000000Y-109100000D03*
D12*
X121751100Y-97753600D03*
X151001100Y-118503600D03*
X155001100Y-119503600D03*
D11*
X144001100Y-86553600D03*
D12*
X151001100Y-120103600D03*
D11*
X126801100Y-86553600D03*
X140551100Y-102153600D03*
X124301100Y-112703600D03*
X153401100Y-113753600D03*
D12*
X119451100Y-82700000D03*
D11*
X122001100Y-86553600D03*
X144501100Y-125253600D03*
D12*
X128351100Y-97753600D03*
D11*
X145101100Y-111403600D03*
X161200000Y-111700000D03*
X134451100Y-125753600D03*
X141451100Y-123953600D03*
X128401100Y-86553600D03*
D12*
X138251100Y-74253600D03*
X130601100Y-76753600D03*
X138301100Y-105853600D03*
X162300000Y-97753600D03*
X130701100Y-81503600D03*
D11*
X121501100Y-136253600D03*
X131600000Y-107500000D03*
X136351100Y-109603600D03*
D12*
X138301100Y-97753600D03*
X162300000Y-86553600D03*
X143501100Y-77253600D03*
X150501100Y-77253600D03*
X133251100Y-74253600D03*
D11*
X118501100Y-131503600D03*
D12*
X148451100Y-120103600D03*
X162300000Y-77253600D03*
X145501100Y-74253600D03*
D11*
X131651100Y-129753600D03*
D12*
X138401100Y-77253600D03*
D11*
X135451100Y-127353600D03*
X133000000Y-121100000D03*
X151001100Y-116903600D03*
X154001100Y-117603600D03*
X144801100Y-113103600D03*
D13*
X125100000Y-120100000D03*
D11*
X131651100Y-136753600D03*
D12*
X121751100Y-107403600D03*
X146651100Y-135753600D03*
D11*
X138151100Y-125753600D03*
D12*
X117500000Y-83000000D03*
D11*
X130701100Y-86553600D03*
X148551100Y-116903600D03*
X122251100Y-127003600D03*
D12*
X141001100Y-77253600D03*
X124251100Y-81503600D03*
D11*
X135101100Y-103603600D03*
D12*
X170600000Y-123700000D03*
D11*
X125201100Y-86553600D03*
D12*
X125151100Y-97753600D03*
X159600000Y-118500000D03*
D11*
X133901100Y-116703600D03*
X118501100Y-126003600D03*
D12*
X143501100Y-74253600D03*
D11*
X128351100Y-107353600D03*
D12*
X141001100Y-74253600D03*
X181501100Y-86548600D03*
D11*
X133200000Y-135100000D03*
X155201100Y-115253600D03*
X120501100Y-126003600D03*
X138151100Y-127353600D03*
X135101100Y-100903600D03*
X135601100Y-86553600D03*
X136351100Y-103603600D03*
X120501100Y-130003600D03*
D12*
X151251100Y-86553600D03*
X141151100Y-97753600D03*
D11*
X121501100Y-134503600D03*
X138301100Y-109603600D03*
D12*
X130701100Y-79153600D03*
X121551100Y-81503600D03*
X128601100Y-81503600D03*
D11*
X141051100Y-126753600D03*
X133901100Y-118303600D03*
X139800000Y-123200000D03*
X118501100Y-121503600D03*
X121651100Y-121553600D03*
D12*
X171751100Y-86553600D03*
X129951100Y-97753600D03*
X135001100Y-97753600D03*
D11*
X129951100Y-103253600D03*
D12*
X150501100Y-74253600D03*
X132201100Y-97753600D03*
D11*
X121500000Y-118400000D03*
X145951100Y-116903600D03*
D12*
X170900000Y-117300000D03*
X144051100Y-97753600D03*
X145851100Y-120103600D03*
D11*
%TO.N,/A_3.3V*%
X156001100Y-116003600D03*
X160300000Y-110800000D03*
X161100000Y-116000000D03*
%TO.N,/3.3V*%
X122951100Y-123303600D03*
X133901100Y-103603600D03*
D12*
%TO.N,/SDA*%
X129501100Y-79603600D03*
D11*
X143701100Y-113103600D03*
D12*
X129501100Y-76753600D03*
%TO.N,/SCL*%
X132001100Y-78253600D03*
D11*
X145101100Y-110403600D03*
D12*
%TO.N,Net-(IC2-OUT1)*%
X155000000Y-118503600D03*
X140501100Y-119253600D03*
%TO.N,Net-(IC2-OUT2)*%
X140501100Y-117753600D03*
D11*
X155701100Y-114303600D03*
%TO.N,Net-(C24-Pad1)*%
X143701100Y-126003600D03*
X125751100Y-117900000D03*
%TO.N,Net-(C23-Pad1)*%
X134201100Y-135100000D03*
X125751100Y-116053600D03*
%TD*%
%TO.N,GND*%
D14*
X143501100Y-74253600D02*
X150501100Y-74253600D01*
%TO.N,/A_3.3V*%
D15*
X161100000Y-116000000D02*
X160300000Y-116000000D01*
X160300000Y-116000000D02*
X156004700Y-116000000D01*
X160300000Y-110800000D02*
X160300000Y-116000000D01*
X156004700Y-116000000D02*
X156001100Y-116003600D01*
%TO.N,/3.3V*%
D14*
X123001100Y-77253600D02*
X125001100Y-75253600D01*
X126931100Y-75253600D02*
X132051100Y-75253600D01*
X126931100Y-72203600D02*
X126931100Y-75253600D01*
X123001100Y-123253600D02*
X123001100Y-77253600D01*
X125001100Y-75253600D02*
X126931100Y-75253600D01*
X133901100Y-77153600D02*
X133901100Y-103603600D01*
X132051100Y-75253600D02*
X133901100Y-77153600D01*
X122951100Y-123303600D02*
X123001100Y-123253600D01*
%TO.N,/SDA*%
D16*
X143701100Y-113103600D02*
X143701100Y-108703600D01*
X124301100Y-102003600D02*
X128993500Y-106696000D01*
X124301100Y-84803600D02*
X124301100Y-102003600D01*
X143701100Y-108703600D02*
X141693500Y-106696000D01*
X129501100Y-79603600D02*
X129501100Y-76753600D01*
X129501100Y-79603600D02*
X124301100Y-84803600D01*
X141693500Y-106696000D02*
X128993500Y-106696000D01*
%TO.N,/SCL*%
X126001100Y-85153600D02*
X126001100Y-101203600D01*
X132001100Y-78253600D02*
X132001100Y-79153600D01*
X145101100Y-107903600D02*
X145101100Y-110403600D01*
X142201100Y-105003600D02*
X145101100Y-107903600D01*
X132001100Y-79153600D02*
X126001100Y-85153600D01*
X129801100Y-105003600D02*
X142201100Y-105003600D01*
X126001100Y-101203600D02*
X129801100Y-105003600D01*
%TO.N,Net-(IC2-OUT1)*%
X155000000Y-118503600D02*
X154501100Y-118503600D01*
X154501100Y-118503600D02*
X153751100Y-119253600D01*
X153751100Y-119253600D02*
X140501100Y-119253600D01*
%TO.N,Net-(IC2-OUT2)*%
X154451100Y-114303600D02*
X153751100Y-115003600D01*
X153751100Y-115003600D02*
X153751100Y-116503600D01*
X155701100Y-114303600D02*
X154451100Y-114303600D01*
X152501100Y-117753600D02*
X140501100Y-117753600D01*
X153751100Y-116503600D02*
X152501100Y-117753600D01*
%TO.N,Net-(C24-Pad1)*%
X142501100Y-124753600D02*
X143701100Y-125953600D01*
X143701100Y-125953600D02*
X143701100Y-126003600D01*
X129751100Y-124753600D02*
X142501100Y-124753600D01*
X125751100Y-120753600D02*
X129751100Y-124753600D01*
X125751100Y-117900000D02*
X125751100Y-120753600D01*
%TO.N,Net-(C23-Pad1)*%
X124501100Y-121253600D02*
X124501100Y-117353600D01*
X134201100Y-127003600D02*
X133251100Y-126003600D01*
X124501100Y-117353600D02*
X125751100Y-116053600D01*
X134201100Y-135100000D02*
X134201100Y-127003600D01*
X129251100Y-126003600D02*
X124501100Y-121253600D01*
X133251100Y-126003600D02*
X129251100Y-126003600D01*
%TD*%
%TA.AperFunction,Conductor*%
%TO.N,GND*%
G36*
X176508465Y-70080787D02*
G01*
X176513751Y-70093549D01*
X176500000Y-76000000D01*
X177586615Y-77085651D01*
X183406273Y-77028734D01*
X183419088Y-77033896D01*
X183424499Y-77046606D01*
X183424500Y-77046783D01*
X183424500Y-133009032D01*
X183419213Y-133021795D01*
X183406450Y-133027082D01*
X183406408Y-133027082D01*
X177538545Y-133013421D01*
X177522985Y-133013385D01*
X177522984Y-133013385D01*
X176437333Y-134100000D01*
X176494120Y-139906273D01*
X176488958Y-139919088D01*
X176476248Y-139924499D01*
X176476071Y-139924500D01*
X170821605Y-139924500D01*
X170808842Y-139919213D01*
X170808029Y-139918400D01*
X170808026Y-139918398D01*
X170771091Y-139903100D01*
X170731109Y-139903100D01*
X170731108Y-139903100D01*
X170694173Y-139918398D01*
X170694170Y-139918400D01*
X170693358Y-139919213D01*
X170680595Y-139924500D01*
X160821605Y-139924500D01*
X160808842Y-139919213D01*
X160808029Y-139918400D01*
X160808026Y-139918398D01*
X160771091Y-139903100D01*
X160731109Y-139903100D01*
X160731108Y-139903100D01*
X160694173Y-139918398D01*
X160694170Y-139918400D01*
X160693358Y-139919213D01*
X160680595Y-139924500D01*
X140071605Y-139924500D01*
X140058842Y-139919213D01*
X140058029Y-139918400D01*
X140058026Y-139918398D01*
X140021091Y-139903100D01*
X139981109Y-139903100D01*
X139981108Y-139903100D01*
X139944173Y-139918398D01*
X139944170Y-139918400D01*
X139943358Y-139919213D01*
X139930595Y-139924500D01*
X127271605Y-139924500D01*
X127258842Y-139919213D01*
X127258029Y-139918400D01*
X127258026Y-139918398D01*
X127221091Y-139903100D01*
X127181109Y-139903100D01*
X127181108Y-139903100D01*
X127144173Y-139918398D01*
X127144170Y-139918400D01*
X127143358Y-139919213D01*
X127130595Y-139924500D01*
X120549562Y-139924500D01*
X120536799Y-139919213D01*
X120531512Y-139906450D01*
X120531512Y-139906408D01*
X120532242Y-139592890D01*
X120536824Y-137624755D01*
X126400600Y-137624755D01*
X126400600Y-137782444D01*
X126431362Y-137937093D01*
X126431363Y-137937097D01*
X126491703Y-138082773D01*
X126491708Y-138082783D01*
X126535508Y-138148334D01*
X126579311Y-138213889D01*
X126690811Y-138325389D01*
X126788698Y-138390795D01*
X126821916Y-138412991D01*
X126821918Y-138412992D01*
X126821921Y-138412994D01*
X126967603Y-138473337D01*
X127122258Y-138504100D01*
X127122260Y-138504100D01*
X127279940Y-138504100D01*
X127279942Y-138504100D01*
X127434597Y-138473337D01*
X127580279Y-138412994D01*
X127711389Y-138325389D01*
X127822889Y-138213889D01*
X127910494Y-138082779D01*
X127970837Y-137937097D01*
X128001600Y-137782442D01*
X128001600Y-137624758D01*
X127970837Y-137470103D01*
X127910494Y-137324421D01*
X127822889Y-137193311D01*
X127711389Y-137081811D01*
X127645834Y-137038008D01*
X127580283Y-136994208D01*
X127580273Y-136994203D01*
X127434597Y-136933863D01*
X127434593Y-136933862D01*
X127279944Y-136903100D01*
X127279942Y-136903100D01*
X127122258Y-136903100D01*
X127122255Y-136903100D01*
X126967606Y-136933862D01*
X126967602Y-136933863D01*
X126821926Y-136994203D01*
X126821916Y-136994208D01*
X126692941Y-137080388D01*
X126690811Y-137081811D01*
X126690809Y-137081813D01*
X126690804Y-137081817D01*
X126579317Y-137193304D01*
X126579309Y-137193314D01*
X126491708Y-137324416D01*
X126491703Y-137324426D01*
X126431363Y-137470102D01*
X126431362Y-137470106D01*
X126400600Y-137624755D01*
X120536824Y-137624755D01*
X120539636Y-136416986D01*
X138900600Y-136416986D01*
X138900600Y-136590213D01*
X138927697Y-136761299D01*
X138981229Y-136926050D01*
X139059869Y-137080390D01*
X139060906Y-137081817D01*
X139161686Y-137220528D01*
X139161688Y-137220530D01*
X139161691Y-137220534D01*
X139284165Y-137343008D01*
X139284168Y-137343010D01*
X139284172Y-137343014D01*
X139424312Y-137444832D01*
X139578655Y-137523473D01*
X139743399Y-137577002D01*
X139914489Y-137604100D01*
X139914492Y-137604100D01*
X140087708Y-137604100D01*
X140087711Y-137604100D01*
X140258801Y-137577002D01*
X140423545Y-137523473D01*
X140577888Y-137444832D01*
X140718028Y-137343014D01*
X140840514Y-137220528D01*
X140942332Y-137080388D01*
X141020973Y-136926045D01*
X141074502Y-136761301D01*
X141101600Y-136590211D01*
X141101600Y-136416989D01*
X141074502Y-136245899D01*
X141020973Y-136081155D01*
X140942332Y-135926812D01*
X140840514Y-135786672D01*
X140840510Y-135786668D01*
X140840508Y-135786665D01*
X140718034Y-135664191D01*
X140718030Y-135664188D01*
X140718028Y-135664186D01*
X140635941Y-135604546D01*
X140577890Y-135562369D01*
X140423550Y-135483729D01*
X140423547Y-135483728D01*
X140423545Y-135483727D01*
X140338309Y-135456032D01*
X140258799Y-135430197D01*
X140087713Y-135403100D01*
X140087711Y-135403100D01*
X139914489Y-135403100D01*
X139914486Y-135403100D01*
X139743400Y-135430197D01*
X139578649Y-135483729D01*
X139424309Y-135562369D01*
X139284165Y-135664191D01*
X139161691Y-135786665D01*
X139059869Y-135926809D01*
X138981229Y-136081149D01*
X138927697Y-136245900D01*
X138900600Y-136416986D01*
X120539636Y-136416986D01*
X120544976Y-134123486D01*
X119458361Y-133037835D01*
X119458360Y-133037834D01*
X113593727Y-133095190D01*
X113580912Y-133090028D01*
X113575501Y-133077318D01*
X113575500Y-133077141D01*
X113575500Y-130624755D01*
X126400600Y-130624755D01*
X126400600Y-130782444D01*
X126431362Y-130937093D01*
X126431363Y-130937097D01*
X126491703Y-131082773D01*
X126491708Y-131082783D01*
X126535508Y-131148334D01*
X126579311Y-131213889D01*
X126690811Y-131325389D01*
X126788698Y-131390795D01*
X126821916Y-131412991D01*
X126821918Y-131412992D01*
X126821921Y-131412994D01*
X126967603Y-131473337D01*
X127122258Y-131504100D01*
X127122260Y-131504100D01*
X127279940Y-131504100D01*
X127279942Y-131504100D01*
X127434597Y-131473337D01*
X127580279Y-131412994D01*
X127711389Y-131325389D01*
X127822889Y-131213889D01*
X127910494Y-131082779D01*
X127970837Y-130937097D01*
X128001600Y-130782442D01*
X128001600Y-130624758D01*
X127970837Y-130470103D01*
X127910494Y-130324421D01*
X127822889Y-130193311D01*
X127711389Y-130081811D01*
X127645834Y-130038008D01*
X127580283Y-129994208D01*
X127580273Y-129994203D01*
X127434597Y-129933863D01*
X127434593Y-129933862D01*
X127279944Y-129903100D01*
X127279942Y-129903100D01*
X127122258Y-129903100D01*
X127122255Y-129903100D01*
X126967606Y-129933862D01*
X126967602Y-129933863D01*
X126821926Y-129994203D01*
X126821916Y-129994208D01*
X126692941Y-130080388D01*
X126690811Y-130081811D01*
X126690809Y-130081813D01*
X126690804Y-130081817D01*
X126579317Y-130193304D01*
X126579309Y-130193314D01*
X126491708Y-130324416D01*
X126491703Y-130324426D01*
X126431363Y-130470102D01*
X126431362Y-130470106D01*
X126400600Y-130624755D01*
X113575500Y-130624755D01*
X113575500Y-126078805D01*
X113580787Y-126066042D01*
X113586300Y-126060529D01*
X113601600Y-126023591D01*
X113601600Y-125983609D01*
X113586300Y-125946671D01*
X113580787Y-125941158D01*
X113575500Y-125928395D01*
X113575500Y-113933550D01*
X113580787Y-113920787D01*
X113593550Y-113915500D01*
X122474550Y-113915500D01*
X122487313Y-113920787D01*
X122492600Y-113933550D01*
X122492600Y-122899731D01*
X122487313Y-122912494D01*
X122467382Y-122932424D01*
X122467381Y-122932426D01*
X122387796Y-123070272D01*
X122387794Y-123070276D01*
X122346600Y-123224016D01*
X122346600Y-123383183D01*
X122387794Y-123536923D01*
X122387795Y-123536925D01*
X122387796Y-123536928D01*
X122467380Y-123674772D01*
X122467381Y-123674773D01*
X122467382Y-123674775D01*
X122579924Y-123787317D01*
X122579926Y-123787318D01*
X122579928Y-123787320D01*
X122717772Y-123866904D01*
X122871516Y-123908100D01*
X122871517Y-123908100D01*
X123030683Y-123908100D01*
X123030684Y-123908100D01*
X123184428Y-123866904D01*
X123322272Y-123787320D01*
X123434820Y-123674772D01*
X123514404Y-123536928D01*
X123555600Y-123383184D01*
X123555600Y-123224016D01*
X123514404Y-123070272D01*
X123512017Y-123066137D01*
X123509600Y-123057114D01*
X123509600Y-117310864D01*
X124118688Y-117310864D01*
X124118700Y-117311501D01*
X124118700Y-117311504D01*
X124119597Y-117357204D01*
X124119600Y-117357558D01*
X124119600Y-121303825D01*
X124127104Y-121331833D01*
X124145597Y-121400849D01*
X124145598Y-121400851D01*
X124145599Y-121400854D01*
X124195824Y-121487847D01*
X124195825Y-121487848D01*
X124195826Y-121487850D01*
X128945183Y-126237205D01*
X128945204Y-126237228D01*
X129016849Y-126308873D01*
X129016851Y-126308874D01*
X129016853Y-126308876D01*
X129103846Y-126359101D01*
X129200875Y-126385100D01*
X133079568Y-126385100D01*
X133092331Y-126390387D01*
X133092654Y-126390718D01*
X133814636Y-127150698D01*
X133819600Y-127163129D01*
X133819600Y-134619131D01*
X133814313Y-134631894D01*
X133717382Y-134728824D01*
X133717381Y-134728826D01*
X133637796Y-134866672D01*
X133637794Y-134866676D01*
X133596600Y-135020416D01*
X133596600Y-135179583D01*
X133637794Y-135333323D01*
X133637795Y-135333325D01*
X133637796Y-135333328D01*
X133693724Y-135430198D01*
X133717381Y-135471173D01*
X133717382Y-135471175D01*
X133829924Y-135583717D01*
X133829926Y-135583718D01*
X133829928Y-135583720D01*
X133967772Y-135663304D01*
X134121516Y-135704500D01*
X134121517Y-135704500D01*
X134280683Y-135704500D01*
X134280684Y-135704500D01*
X134434428Y-135663304D01*
X134572272Y-135583720D01*
X134684820Y-135471172D01*
X134764404Y-135333328D01*
X134805600Y-135179584D01*
X134805600Y-135020416D01*
X134764404Y-134866672D01*
X134684820Y-134728828D01*
X134684818Y-134728826D01*
X134684817Y-134728824D01*
X134587887Y-134631894D01*
X134582600Y-134619131D01*
X134582600Y-129416986D01*
X138900600Y-129416986D01*
X138900600Y-129590213D01*
X138927697Y-129761299D01*
X138981229Y-129926050D01*
X139059869Y-130080390D01*
X139060906Y-130081817D01*
X139161686Y-130220528D01*
X139161688Y-130220530D01*
X139161691Y-130220534D01*
X139284165Y-130343008D01*
X139284168Y-130343010D01*
X139284172Y-130343014D01*
X139424312Y-130444832D01*
X139578655Y-130523473D01*
X139743399Y-130577002D01*
X139914489Y-130604100D01*
X139914492Y-130604100D01*
X140087708Y-130604100D01*
X140087711Y-130604100D01*
X140258801Y-130577002D01*
X140423545Y-130523473D01*
X140577888Y-130444832D01*
X140718028Y-130343014D01*
X140840514Y-130220528D01*
X140942332Y-130080388D01*
X141020973Y-129926045D01*
X141074502Y-129761301D01*
X141101600Y-129590211D01*
X141101600Y-129416989D01*
X141074502Y-129245899D01*
X141020973Y-129081155D01*
X140942332Y-128926812D01*
X140840514Y-128786672D01*
X140840510Y-128786668D01*
X140840508Y-128786665D01*
X140718034Y-128664191D01*
X140718030Y-128664188D01*
X140718028Y-128664186D01*
X140635941Y-128604546D01*
X140577890Y-128562369D01*
X140423550Y-128483729D01*
X140423547Y-128483728D01*
X140423545Y-128483727D01*
X140338309Y-128456032D01*
X140258799Y-128430197D01*
X140087713Y-128403100D01*
X140087711Y-128403100D01*
X139914489Y-128403100D01*
X139914486Y-128403100D01*
X139743400Y-128430197D01*
X139578649Y-128483729D01*
X139424309Y-128562369D01*
X139284165Y-128664191D01*
X139161691Y-128786665D01*
X139059869Y-128926809D01*
X138981229Y-129081149D01*
X138927697Y-129245900D01*
X138900600Y-129416986D01*
X134582600Y-129416986D01*
X134582600Y-127008712D01*
X134582606Y-127008249D01*
X134583762Y-126963170D01*
X134583101Y-126960422D01*
X134582600Y-126956199D01*
X134582600Y-126953376D01*
X134570924Y-126909801D01*
X134570810Y-126909352D01*
X134560259Y-126865508D01*
X134558910Y-126863028D01*
X134557332Y-126859075D01*
X134557229Y-126858692D01*
X134556601Y-126856346D01*
X134534030Y-126817252D01*
X134533804Y-126816848D01*
X134512280Y-126777256D01*
X134510335Y-126775209D01*
X134507787Y-126771798D01*
X134506375Y-126769351D01*
X134506374Y-126769350D01*
X134474468Y-126737445D01*
X134474145Y-126737114D01*
X133560335Y-125775208D01*
X133557789Y-125771801D01*
X133557565Y-125771413D01*
X133556376Y-125769353D01*
X133524482Y-125737459D01*
X133524159Y-125737128D01*
X133493097Y-125704431D01*
X133493095Y-125704429D01*
X133490682Y-125702952D01*
X133487345Y-125700322D01*
X133485347Y-125698324D01*
X133459831Y-125683591D01*
X133446246Y-125675748D01*
X133445867Y-125675522D01*
X133435274Y-125669039D01*
X133407420Y-125651991D01*
X133407414Y-125651988D01*
X133404706Y-125651188D01*
X133400806Y-125649514D01*
X133398354Y-125648099D01*
X133398351Y-125648098D01*
X133398349Y-125648097D01*
X133354812Y-125636431D01*
X133354367Y-125636306D01*
X133340876Y-125632318D01*
X133311087Y-125623512D01*
X133311085Y-125623511D01*
X133308252Y-125623438D01*
X133304053Y-125622830D01*
X133301326Y-125622100D01*
X133301325Y-125622100D01*
X133256231Y-125622100D01*
X133255769Y-125622094D01*
X133210671Y-125620938D01*
X133210666Y-125620938D01*
X133207924Y-125621599D01*
X133203700Y-125622100D01*
X129416598Y-125622100D01*
X129403835Y-125616813D01*
X124887887Y-121100864D01*
X124882600Y-121088101D01*
X124882600Y-117820416D01*
X125146600Y-117820416D01*
X125146600Y-117979583D01*
X125187794Y-118133323D01*
X125187795Y-118133325D01*
X125187796Y-118133328D01*
X125267380Y-118271172D01*
X125267381Y-118271173D01*
X125267382Y-118271175D01*
X125364313Y-118368105D01*
X125369600Y-118380868D01*
X125369600Y-120803824D01*
X125395597Y-120900849D01*
X125395598Y-120900851D01*
X125395599Y-120900854D01*
X125414272Y-120933197D01*
X125440158Y-120978034D01*
X125445825Y-120987848D01*
X125445826Y-120987850D01*
X129445183Y-124987205D01*
X129445204Y-124987228D01*
X129516849Y-125058873D01*
X129516851Y-125058874D01*
X129516853Y-125058876D01*
X129603846Y-125109101D01*
X129700875Y-125135100D01*
X129801325Y-125135100D01*
X142335601Y-125135100D01*
X142348364Y-125140387D01*
X143096710Y-125888732D01*
X143101997Y-125901495D01*
X143101382Y-125906166D01*
X143096600Y-125924015D01*
X143096600Y-125924016D01*
X143096600Y-126083184D01*
X143108491Y-126127564D01*
X143137794Y-126236923D01*
X143137795Y-126236925D01*
X143137796Y-126236928D01*
X143208333Y-126359102D01*
X143217381Y-126374773D01*
X143217382Y-126374775D01*
X143329924Y-126487317D01*
X143329926Y-126487318D01*
X143329928Y-126487320D01*
X143467772Y-126566904D01*
X143621516Y-126608100D01*
X143621517Y-126608100D01*
X143780683Y-126608100D01*
X143780684Y-126608100D01*
X143934428Y-126566904D01*
X144072272Y-126487320D01*
X144184820Y-126374772D01*
X144264404Y-126236928D01*
X144305600Y-126083184D01*
X144305600Y-125924016D01*
X144264404Y-125770272D01*
X144184820Y-125632428D01*
X144184818Y-125632426D01*
X144184817Y-125632424D01*
X144072275Y-125519882D01*
X144072273Y-125519881D01*
X144072272Y-125519880D01*
X143934428Y-125440296D01*
X143934425Y-125440295D01*
X143934423Y-125440294D01*
X143825064Y-125410991D01*
X143780684Y-125399100D01*
X143780683Y-125399100D01*
X143693598Y-125399100D01*
X143680835Y-125393813D01*
X142735350Y-124448326D01*
X142735348Y-124448325D01*
X142735347Y-124448324D01*
X142648354Y-124398099D01*
X142648351Y-124398098D01*
X142648349Y-124398097D01*
X142579333Y-124379604D01*
X142551325Y-124372100D01*
X142551324Y-124372100D01*
X129916598Y-124372100D01*
X129903835Y-124366813D01*
X126137887Y-120600864D01*
X126132600Y-120588101D01*
X126132600Y-120106004D01*
X168405700Y-120106004D01*
X168405700Y-120293995D01*
X168435107Y-120479664D01*
X168435108Y-120479666D01*
X168476319Y-120606502D01*
X168493201Y-120658457D01*
X168567269Y-120803824D01*
X168578543Y-120825950D01*
X168689039Y-120978034D01*
X168689041Y-120978036D01*
X168689044Y-120978040D01*
X168821959Y-121110955D01*
X168821962Y-121110957D01*
X168821966Y-121110961D01*
X168974050Y-121221457D01*
X169141548Y-121306801D01*
X169320334Y-121364892D01*
X169506007Y-121394300D01*
X169506010Y-121394300D01*
X169693990Y-121394300D01*
X169693993Y-121394300D01*
X169879666Y-121364892D01*
X170058452Y-121306801D01*
X170225950Y-121221457D01*
X170378034Y-121110961D01*
X170510961Y-120978034D01*
X170621457Y-120825950D01*
X170706801Y-120658452D01*
X170764892Y-120479666D01*
X170794300Y-120293993D01*
X170794300Y-120106007D01*
X170792558Y-120095009D01*
X170792557Y-120095005D01*
X171074000Y-120095005D01*
X171074000Y-120136900D01*
X171632000Y-120136900D01*
X171632000Y-120263100D01*
X171074000Y-120263100D01*
X171074000Y-120304994D01*
X171114965Y-120510938D01*
X171114966Y-120510941D01*
X171195320Y-120704934D01*
X171195325Y-120704944D01*
X171311982Y-120879531D01*
X171311990Y-120879541D01*
X171460458Y-121028009D01*
X171460468Y-121028017D01*
X171635055Y-121144674D01*
X171635065Y-121144679D01*
X171829058Y-121225033D01*
X171829061Y-121225034D01*
X172035005Y-121265999D01*
X172035010Y-121266000D01*
X172076900Y-121266000D01*
X172076900Y-120708000D01*
X172203100Y-120708000D01*
X172203100Y-121266000D01*
X172244990Y-121266000D01*
X172244994Y-121265999D01*
X172450938Y-121225034D01*
X172450941Y-121225033D01*
X172644934Y-121144679D01*
X172644944Y-121144674D01*
X172819531Y-121028017D01*
X172819541Y-121028009D01*
X172968009Y-120879541D01*
X172968017Y-120879531D01*
X173084674Y-120704944D01*
X173084679Y-120704934D01*
X173165033Y-120510941D01*
X173165034Y-120510938D01*
X173205999Y-120304994D01*
X173206000Y-120304990D01*
X173206000Y-120263100D01*
X172648000Y-120263100D01*
X172648000Y-120136900D01*
X173206000Y-120136900D01*
X173206000Y-120095009D01*
X173205999Y-120095005D01*
X173165034Y-119889061D01*
X173165033Y-119889058D01*
X173084679Y-119695065D01*
X173084674Y-119695055D01*
X172968017Y-119520468D01*
X172968009Y-119520458D01*
X172819541Y-119371990D01*
X172819531Y-119371982D01*
X172644944Y-119255325D01*
X172644934Y-119255320D01*
X172450941Y-119174966D01*
X172450938Y-119174965D01*
X172244994Y-119134000D01*
X172203100Y-119134000D01*
X172203100Y-119692000D01*
X172076900Y-119692000D01*
X172076900Y-119134000D01*
X172035005Y-119134000D01*
X171829061Y-119174965D01*
X171829058Y-119174966D01*
X171635065Y-119255320D01*
X171635055Y-119255325D01*
X171460468Y-119371982D01*
X171460458Y-119371990D01*
X171311990Y-119520458D01*
X171311982Y-119520468D01*
X171195325Y-119695055D01*
X171195320Y-119695065D01*
X171114966Y-119889058D01*
X171114965Y-119889061D01*
X171074000Y-120095005D01*
X170792557Y-120095005D01*
X170764892Y-119920335D01*
X170764892Y-119920334D01*
X170706801Y-119741548D01*
X170621457Y-119574050D01*
X170510961Y-119421966D01*
X170510957Y-119421962D01*
X170510955Y-119421959D01*
X170378040Y-119289044D01*
X170378036Y-119289041D01*
X170378034Y-119289039D01*
X170243484Y-119191282D01*
X170225952Y-119178544D01*
X170058457Y-119093201D01*
X170058454Y-119093200D01*
X170058452Y-119093199D01*
X169965950Y-119063143D01*
X169879664Y-119035107D01*
X169693995Y-119005700D01*
X169693993Y-119005700D01*
X169506007Y-119005700D01*
X169506004Y-119005700D01*
X169320335Y-119035107D01*
X169141542Y-119093201D01*
X168974047Y-119178544D01*
X168821959Y-119289044D01*
X168689044Y-119421959D01*
X168578544Y-119574047D01*
X168493201Y-119741542D01*
X168435107Y-119920335D01*
X168405700Y-120106004D01*
X126132600Y-120106004D01*
X126132600Y-119191282D01*
X139868400Y-119191282D01*
X139868400Y-119315917D01*
X139892714Y-119438148D01*
X139892715Y-119438152D01*
X139940406Y-119553290D01*
X139940411Y-119553300D01*
X139944137Y-119558876D01*
X140009650Y-119656923D01*
X140097777Y-119745050D01*
X140170285Y-119793498D01*
X140201399Y-119814288D01*
X140201401Y-119814289D01*
X140201404Y-119814291D01*
X140316548Y-119861985D01*
X140438785Y-119886300D01*
X140438787Y-119886300D01*
X140563413Y-119886300D01*
X140563415Y-119886300D01*
X140685652Y-119861985D01*
X140800796Y-119814291D01*
X140904423Y-119745050D01*
X140992550Y-119656923D01*
X141001772Y-119643120D01*
X141013259Y-119635447D01*
X141016780Y-119635100D01*
X153801324Y-119635100D01*
X153801325Y-119635100D01*
X153898354Y-119609101D01*
X153985347Y-119558876D01*
X154056376Y-119487847D01*
X154560162Y-118984061D01*
X154572925Y-118978774D01*
X154585688Y-118984061D01*
X154596677Y-118995050D01*
X154674045Y-119046745D01*
X154700299Y-119064288D01*
X154700301Y-119064289D01*
X154700304Y-119064291D01*
X154815448Y-119111985D01*
X154937685Y-119136300D01*
X154937687Y-119136300D01*
X155062313Y-119136300D01*
X155062315Y-119136300D01*
X155184552Y-119111985D01*
X155299696Y-119064291D01*
X155403323Y-118995050D01*
X155491450Y-118906923D01*
X155560691Y-118803296D01*
X155608385Y-118688152D01*
X155632700Y-118565915D01*
X155632700Y-118441285D01*
X155608385Y-118319048D01*
X155560691Y-118203904D01*
X155556963Y-118198325D01*
X155520077Y-118143121D01*
X155491450Y-118100277D01*
X155403323Y-118012150D01*
X155351509Y-117977529D01*
X155299700Y-117942911D01*
X155299690Y-117942906D01*
X155184552Y-117895215D01*
X155184548Y-117895214D01*
X155062317Y-117870900D01*
X155062315Y-117870900D01*
X154937685Y-117870900D01*
X154937682Y-117870900D01*
X154815451Y-117895214D01*
X154815447Y-117895215D01*
X154700309Y-117942906D01*
X154700299Y-117942911D01*
X154597028Y-118011915D01*
X154596677Y-118012150D01*
X154596675Y-118012152D01*
X154596670Y-118012156D01*
X154508556Y-118100270D01*
X154508551Y-118100276D01*
X154508550Y-118100277D01*
X154502654Y-118109102D01*
X154499328Y-118114079D01*
X154487841Y-118121753D01*
X154484320Y-118122100D01*
X154450875Y-118122100D01*
X154429141Y-118127923D01*
X154353850Y-118148097D01*
X154353846Y-118148099D01*
X154293222Y-118183100D01*
X154266851Y-118198325D01*
X154266849Y-118198326D01*
X153598364Y-118866813D01*
X153585601Y-118872100D01*
X141016780Y-118872100D01*
X141004017Y-118866813D01*
X141001772Y-118864079D01*
X140992550Y-118850277D01*
X140904423Y-118762150D01*
X140852609Y-118727529D01*
X140800800Y-118692911D01*
X140800790Y-118692906D01*
X140685652Y-118645215D01*
X140685648Y-118645214D01*
X140563417Y-118620900D01*
X140563415Y-118620900D01*
X140438785Y-118620900D01*
X140438782Y-118620900D01*
X140316551Y-118645214D01*
X140316547Y-118645215D01*
X140201409Y-118692906D01*
X140201399Y-118692911D01*
X140098128Y-118761915D01*
X140097777Y-118762150D01*
X140097775Y-118762152D01*
X140097770Y-118762156D01*
X140009656Y-118850270D01*
X140009648Y-118850280D01*
X139940411Y-118953899D01*
X139940406Y-118953909D01*
X139892715Y-119069047D01*
X139892714Y-119069051D01*
X139868400Y-119191282D01*
X126132600Y-119191282D01*
X126132600Y-118380868D01*
X126137887Y-118368105D01*
X126234817Y-118271175D01*
X126234820Y-118271172D01*
X126314404Y-118133328D01*
X126355600Y-117979584D01*
X126355600Y-117820416D01*
X126320998Y-117691282D01*
X139868400Y-117691282D01*
X139868400Y-117815917D01*
X139892714Y-117938148D01*
X139892715Y-117938152D01*
X139940406Y-118053290D01*
X139940411Y-118053300D01*
X139975029Y-118105109D01*
X140009650Y-118156923D01*
X140097777Y-118245050D01*
X140175145Y-118296745D01*
X140201399Y-118314288D01*
X140201401Y-118314289D01*
X140201404Y-118314291D01*
X140316548Y-118361985D01*
X140438785Y-118386300D01*
X140438787Y-118386300D01*
X140563413Y-118386300D01*
X140563415Y-118386300D01*
X140685652Y-118361985D01*
X140800796Y-118314291D01*
X140904423Y-118245050D01*
X140992550Y-118156923D01*
X141001772Y-118143120D01*
X141013259Y-118135447D01*
X141016780Y-118135100D01*
X152551324Y-118135100D01*
X152551325Y-118135100D01*
X152648354Y-118109101D01*
X152735347Y-118058876D01*
X152806376Y-117987847D01*
X154056376Y-116737847D01*
X154106602Y-116650853D01*
X154132600Y-116553825D01*
X154132600Y-116453375D01*
X154132600Y-115924016D01*
X155396600Y-115924016D01*
X155396600Y-116083183D01*
X155437794Y-116236923D01*
X155437795Y-116236925D01*
X155437796Y-116236928D01*
X155517380Y-116374772D01*
X155517381Y-116374773D01*
X155517382Y-116374775D01*
X155629924Y-116487317D01*
X155629926Y-116487318D01*
X155629928Y-116487320D01*
X155767772Y-116566904D01*
X155921516Y-116608100D01*
X155921517Y-116608100D01*
X156080683Y-116608100D01*
X156080684Y-116608100D01*
X156234428Y-116566904D01*
X156338327Y-116506918D01*
X156347352Y-116504500D01*
X160233581Y-116504500D01*
X160366419Y-116504500D01*
X160759983Y-116504500D01*
X160769008Y-116506918D01*
X160866672Y-116563304D01*
X161020416Y-116604500D01*
X161020417Y-116604500D01*
X161179583Y-116604500D01*
X161179584Y-116604500D01*
X161333328Y-116563304D01*
X161471172Y-116483720D01*
X161583720Y-116371172D01*
X161663304Y-116233328D01*
X161704500Y-116079584D01*
X161704500Y-115920416D01*
X161663304Y-115766672D01*
X161583720Y-115628828D01*
X161583718Y-115628826D01*
X161583717Y-115628824D01*
X161471175Y-115516282D01*
X161471173Y-115516281D01*
X161471172Y-115516280D01*
X161333328Y-115436696D01*
X161333325Y-115436695D01*
X161333323Y-115436694D01*
X161193019Y-115399100D01*
X161179584Y-115395500D01*
X161020416Y-115395500D01*
X161006981Y-115399100D01*
X160866676Y-115436694D01*
X160866672Y-115436696D01*
X160831574Y-115456959D01*
X160817878Y-115458762D01*
X160806918Y-115450352D01*
X160804500Y-115441327D01*
X160804500Y-114106004D01*
X168405700Y-114106004D01*
X168405700Y-114293995D01*
X168435107Y-114479664D01*
X168463143Y-114565950D01*
X168476319Y-114606502D01*
X168493201Y-114658457D01*
X168558859Y-114787318D01*
X168578543Y-114825950D01*
X168689039Y-114978034D01*
X168689041Y-114978036D01*
X168689044Y-114978040D01*
X168821959Y-115110955D01*
X168821962Y-115110957D01*
X168821966Y-115110961D01*
X168974050Y-115221457D01*
X169141548Y-115306801D01*
X169320334Y-115364892D01*
X169506007Y-115394300D01*
X169506010Y-115394300D01*
X169693990Y-115394300D01*
X169693993Y-115394300D01*
X169879666Y-115364892D01*
X170058452Y-115306801D01*
X170225950Y-115221457D01*
X170378034Y-115110961D01*
X170510961Y-114978034D01*
X170621457Y-114825950D01*
X170706801Y-114658452D01*
X170764892Y-114479666D01*
X170794300Y-114293993D01*
X170794300Y-114106007D01*
X170792558Y-114095009D01*
X170792557Y-114095005D01*
X171074000Y-114095005D01*
X171074000Y-114136900D01*
X171632000Y-114136900D01*
X171632000Y-114263100D01*
X171074000Y-114263100D01*
X171074000Y-114304994D01*
X171114965Y-114510938D01*
X171114966Y-114510941D01*
X171195320Y-114704934D01*
X171195325Y-114704944D01*
X171311982Y-114879531D01*
X171311990Y-114879541D01*
X171460458Y-115028009D01*
X171460468Y-115028017D01*
X171635055Y-115144674D01*
X171635065Y-115144679D01*
X171829058Y-115225033D01*
X171829061Y-115225034D01*
X172035005Y-115265999D01*
X172035010Y-115266000D01*
X172076900Y-115266000D01*
X172076900Y-114708000D01*
X172203100Y-114708000D01*
X172203100Y-115266000D01*
X172244990Y-115266000D01*
X172244994Y-115265999D01*
X172450938Y-115225034D01*
X172450941Y-115225033D01*
X172644934Y-115144679D01*
X172644944Y-115144674D01*
X172819531Y-115028017D01*
X172819541Y-115028009D01*
X172968009Y-114879541D01*
X172968017Y-114879531D01*
X173084674Y-114704944D01*
X173084679Y-114704934D01*
X173165033Y-114510941D01*
X173165034Y-114510938D01*
X173205999Y-114304994D01*
X173206000Y-114304990D01*
X173206000Y-114263100D01*
X172648000Y-114263100D01*
X172648000Y-114136900D01*
X173206000Y-114136900D01*
X173206000Y-114095009D01*
X173205999Y-114095005D01*
X173165034Y-113889061D01*
X173165033Y-113889058D01*
X173084679Y-113695065D01*
X173084674Y-113695055D01*
X172968017Y-113520468D01*
X172968009Y-113520458D01*
X172819541Y-113371990D01*
X172819531Y-113371982D01*
X172644944Y-113255325D01*
X172644934Y-113255320D01*
X172450941Y-113174966D01*
X172450938Y-113174965D01*
X172244994Y-113134000D01*
X172203100Y-113134000D01*
X172203100Y-113692000D01*
X172076900Y-113692000D01*
X172076900Y-113134000D01*
X172035005Y-113134000D01*
X171829061Y-113174965D01*
X171829058Y-113174966D01*
X171635065Y-113255320D01*
X171635055Y-113255325D01*
X171460468Y-113371982D01*
X171460458Y-113371990D01*
X171311990Y-113520458D01*
X171311982Y-113520468D01*
X171195325Y-113695055D01*
X171195320Y-113695065D01*
X171114966Y-113889058D01*
X171114965Y-113889061D01*
X171074000Y-114095005D01*
X170792557Y-114095005D01*
X170766985Y-113933550D01*
X170764892Y-113920334D01*
X170706801Y-113741548D01*
X170621457Y-113574050D01*
X170510961Y-113421966D01*
X170510957Y-113421962D01*
X170510955Y-113421959D01*
X170378040Y-113289044D01*
X170378036Y-113289041D01*
X170378034Y-113289039D01*
X170232338Y-113183184D01*
X170225952Y-113178544D01*
X170058457Y-113093201D01*
X170058454Y-113093200D01*
X170058452Y-113093199D01*
X169965950Y-113063143D01*
X169879664Y-113035107D01*
X169693995Y-113005700D01*
X169693993Y-113005700D01*
X169506007Y-113005700D01*
X169506004Y-113005700D01*
X169320335Y-113035107D01*
X169141542Y-113093201D01*
X168974047Y-113178544D01*
X168821959Y-113289044D01*
X168689044Y-113421959D01*
X168578544Y-113574047D01*
X168493201Y-113741542D01*
X168435107Y-113920335D01*
X168405700Y-114106004D01*
X160804500Y-114106004D01*
X160804500Y-111140015D01*
X160806917Y-111130991D01*
X160863304Y-111033328D01*
X160904500Y-110879584D01*
X160904500Y-110720416D01*
X160863304Y-110566672D01*
X160783720Y-110428828D01*
X160783718Y-110428826D01*
X160783717Y-110428824D01*
X160671175Y-110316282D01*
X160671173Y-110316281D01*
X160671172Y-110316280D01*
X160533328Y-110236696D01*
X160533325Y-110236695D01*
X160533323Y-110236694D01*
X160423964Y-110207391D01*
X160379584Y-110195500D01*
X160220416Y-110195500D01*
X160185977Y-110204727D01*
X160066676Y-110236694D01*
X160066672Y-110236696D01*
X159928826Y-110316281D01*
X159928824Y-110316282D01*
X159816282Y-110428824D01*
X159816281Y-110428826D01*
X159736696Y-110566672D01*
X159736694Y-110566676D01*
X159695500Y-110720416D01*
X159695500Y-110879583D01*
X159736694Y-111033323D01*
X159736695Y-111033325D01*
X159736696Y-111033328D01*
X159793082Y-111130991D01*
X159795500Y-111140015D01*
X159795500Y-115477450D01*
X159790213Y-115490213D01*
X159777450Y-115495500D01*
X156334881Y-115495500D01*
X156325856Y-115493082D01*
X156318073Y-115488588D01*
X156234428Y-115440296D01*
X156234425Y-115440295D01*
X156234423Y-115440294D01*
X156125064Y-115410991D01*
X156080684Y-115399100D01*
X155921516Y-115399100D01*
X155887077Y-115408327D01*
X155767776Y-115440294D01*
X155767772Y-115440296D01*
X155629926Y-115519881D01*
X155629924Y-115519882D01*
X155517382Y-115632424D01*
X155517381Y-115632426D01*
X155437796Y-115770272D01*
X155437794Y-115770276D01*
X155396600Y-115924016D01*
X154132600Y-115924016D01*
X154132600Y-115169098D01*
X154137887Y-115156335D01*
X154603835Y-114690387D01*
X154616598Y-114685100D01*
X155220232Y-114685100D01*
X155232995Y-114690387D01*
X155329924Y-114787317D01*
X155329926Y-114787318D01*
X155329928Y-114787320D01*
X155467772Y-114866904D01*
X155621516Y-114908100D01*
X155621517Y-114908100D01*
X155780683Y-114908100D01*
X155780684Y-114908100D01*
X155934428Y-114866904D01*
X156072272Y-114787320D01*
X156184820Y-114674772D01*
X156264404Y-114536928D01*
X156305600Y-114383184D01*
X156305600Y-114224016D01*
X156264404Y-114070272D01*
X156184820Y-113932428D01*
X156184818Y-113932426D01*
X156184817Y-113932424D01*
X156072275Y-113819882D01*
X156072273Y-113819881D01*
X156072272Y-113819880D01*
X155934428Y-113740296D01*
X155934425Y-113740295D01*
X155934423Y-113740294D01*
X155814272Y-113708100D01*
X155780684Y-113699100D01*
X155621516Y-113699100D01*
X155587928Y-113708100D01*
X155467776Y-113740294D01*
X155467772Y-113740296D01*
X155329926Y-113819881D01*
X155329924Y-113819882D01*
X155232995Y-113916813D01*
X155220232Y-113922100D01*
X154400875Y-113922100D01*
X154379141Y-113927923D01*
X154303850Y-113948097D01*
X154303846Y-113948099D01*
X154216851Y-113998325D01*
X154216849Y-113998326D01*
X154145824Y-114069353D01*
X154145822Y-114069355D01*
X153514314Y-114700861D01*
X153514312Y-114700864D01*
X153445826Y-114769349D01*
X153445825Y-114769351D01*
X153395599Y-114856346D01*
X153395597Y-114856350D01*
X153369600Y-114953375D01*
X153369600Y-116338101D01*
X153364313Y-116350864D01*
X152348364Y-117366813D01*
X152335601Y-117372100D01*
X141016780Y-117372100D01*
X141004017Y-117366813D01*
X141001772Y-117364079D01*
X140992550Y-117350277D01*
X140904423Y-117262150D01*
X140831378Y-117213343D01*
X140800800Y-117192911D01*
X140800790Y-117192906D01*
X140685652Y-117145215D01*
X140685648Y-117145214D01*
X140563417Y-117120900D01*
X140563415Y-117120900D01*
X140438785Y-117120900D01*
X140438782Y-117120900D01*
X140316551Y-117145214D01*
X140316547Y-117145215D01*
X140201409Y-117192906D01*
X140201399Y-117192911D01*
X140103515Y-117258316D01*
X140097777Y-117262150D01*
X140097775Y-117262152D01*
X140097770Y-117262156D01*
X140009656Y-117350270D01*
X140009648Y-117350280D01*
X139940411Y-117453899D01*
X139940406Y-117453909D01*
X139892715Y-117569047D01*
X139892714Y-117569051D01*
X139868400Y-117691282D01*
X126320998Y-117691282D01*
X126314404Y-117666672D01*
X126234820Y-117528828D01*
X126234818Y-117528826D01*
X126234817Y-117528824D01*
X126122275Y-117416282D01*
X126122273Y-117416281D01*
X126122272Y-117416280D01*
X125984428Y-117336696D01*
X125984425Y-117336695D01*
X125984423Y-117336694D01*
X125874244Y-117307172D01*
X125830684Y-117295500D01*
X125671516Y-117295500D01*
X125637077Y-117304727D01*
X125517776Y-117336694D01*
X125517772Y-117336696D01*
X125379926Y-117416281D01*
X125379924Y-117416282D01*
X125267382Y-117528824D01*
X125267381Y-117528826D01*
X125187796Y-117666672D01*
X125187794Y-117666676D01*
X125146600Y-117820416D01*
X124882600Y-117820416D01*
X124882600Y-117514528D01*
X124887639Y-117502017D01*
X124933907Y-117453899D01*
X125693772Y-116663638D01*
X125706429Y-116658103D01*
X125706783Y-116658100D01*
X125830683Y-116658100D01*
X125830684Y-116658100D01*
X125984428Y-116616904D01*
X126122272Y-116537320D01*
X126234820Y-116424772D01*
X126314404Y-116286928D01*
X126355600Y-116133184D01*
X126355600Y-115974016D01*
X126314404Y-115820272D01*
X126234820Y-115682428D01*
X126234818Y-115682426D01*
X126234817Y-115682424D01*
X126122275Y-115569882D01*
X126122273Y-115569881D01*
X126122272Y-115569880D01*
X125984428Y-115490296D01*
X125984425Y-115490295D01*
X125984423Y-115490294D01*
X125835356Y-115450352D01*
X125830684Y-115449100D01*
X125671516Y-115449100D01*
X125666844Y-115450352D01*
X125517776Y-115490294D01*
X125517772Y-115490296D01*
X125379926Y-115569881D01*
X125379924Y-115569882D01*
X125267382Y-115682424D01*
X125267381Y-115682426D01*
X125187796Y-115820272D01*
X125187794Y-115820276D01*
X125146600Y-115974016D01*
X125146600Y-116124590D01*
X125141561Y-116137101D01*
X124228815Y-117086356D01*
X124228567Y-117086608D01*
X124195823Y-117119352D01*
X124195014Y-117120753D01*
X124192405Y-117124223D01*
X124191290Y-117125382D01*
X124191288Y-117125385D01*
X124168953Y-117165883D01*
X124168780Y-117166190D01*
X124145599Y-117206344D01*
X124145598Y-117206347D01*
X124145181Y-117207904D01*
X124143555Y-117211939D01*
X124142781Y-117213342D01*
X124142780Y-117213343D01*
X124131669Y-117258316D01*
X124131581Y-117258657D01*
X124119600Y-117303374D01*
X124119600Y-117304976D01*
X124119237Y-117307950D01*
X124119301Y-117308246D01*
X124119201Y-117308784D01*
X124118688Y-117310864D01*
X123509600Y-117310864D01*
X123509600Y-113933550D01*
X123514887Y-113920787D01*
X123527650Y-113915500D01*
X128759406Y-113915500D01*
X128772169Y-113920787D01*
X131533913Y-116682531D01*
X131539200Y-116695294D01*
X131539200Y-117565500D01*
X136185318Y-117565500D01*
X136185319Y-117565500D01*
X136185319Y-117565499D01*
X136880031Y-116870787D01*
X136892794Y-116865500D01*
X145285319Y-116865500D01*
X145285319Y-116865499D01*
X146263000Y-115887818D01*
X146263000Y-72931013D01*
X146268287Y-72918250D01*
X146281050Y-72912963D01*
X146293813Y-72918250D01*
X146295653Y-72920404D01*
X146340140Y-72981636D01*
X146473059Y-73114555D01*
X146473062Y-73114557D01*
X146473066Y-73114561D01*
X146625150Y-73225057D01*
X146792648Y-73310401D01*
X146971434Y-73368492D01*
X147157107Y-73397900D01*
X147157110Y-73397900D01*
X147345090Y-73397900D01*
X147345093Y-73397900D01*
X147530766Y-73368492D01*
X147709552Y-73310401D01*
X147877050Y-73225057D01*
X148029134Y-73114561D01*
X148162061Y-72981634D01*
X148272557Y-72829550D01*
X148357901Y-72662052D01*
X148415992Y-72483266D01*
X148445400Y-72297593D01*
X148445400Y-72109607D01*
X148415992Y-71923934D01*
X148357901Y-71745148D01*
X148272557Y-71577650D01*
X148162061Y-71425566D01*
X148162057Y-71425562D01*
X148162055Y-71425559D01*
X148029140Y-71292644D01*
X148029136Y-71292641D01*
X148029134Y-71292639D01*
X147940051Y-71227916D01*
X147877052Y-71182144D01*
X147709557Y-71096801D01*
X147709554Y-71096800D01*
X147709552Y-71096799D01*
X147617050Y-71066743D01*
X147530764Y-71038707D01*
X147345095Y-71009300D01*
X147345093Y-71009300D01*
X147157107Y-71009300D01*
X147157104Y-71009300D01*
X146971435Y-71038707D01*
X146792642Y-71096801D01*
X146625147Y-71182144D01*
X146473059Y-71292644D01*
X146340144Y-71425559D01*
X146295653Y-71486795D01*
X146283873Y-71494013D01*
X146270440Y-71490788D01*
X146263222Y-71479008D01*
X146263000Y-71476185D01*
X146263000Y-70093550D01*
X146268287Y-70080787D01*
X146281050Y-70075500D01*
X176495702Y-70075500D01*
X176508465Y-70080787D01*
G37*
%TD.AperFunction*%
%TD*%
%TA.AperFunction,Conductor*%
%TO.N,GND*%
G36*
X145733913Y-70080787D02*
G01*
X145739200Y-70093550D01*
X145739200Y-71531240D01*
X145733913Y-71544003D01*
X145721150Y-71549290D01*
X145708387Y-71544003D01*
X145706547Y-71541850D01*
X145683560Y-71510212D01*
X145622061Y-71425566D01*
X145622057Y-71425562D01*
X145622055Y-71425559D01*
X145489140Y-71292644D01*
X145489136Y-71292641D01*
X145489134Y-71292639D01*
X145400051Y-71227916D01*
X145337052Y-71182144D01*
X145169557Y-71096801D01*
X145169554Y-71096800D01*
X145169552Y-71096799D01*
X145077050Y-71066743D01*
X144990764Y-71038707D01*
X144805095Y-71009300D01*
X144805093Y-71009300D01*
X144617107Y-71009300D01*
X144617104Y-71009300D01*
X144431435Y-71038707D01*
X144252642Y-71096801D01*
X144085147Y-71182144D01*
X143933059Y-71292644D01*
X143800144Y-71425559D01*
X143689644Y-71577647D01*
X143604301Y-71745142D01*
X143546207Y-71923935D01*
X143516800Y-72109604D01*
X143516800Y-72297595D01*
X143546207Y-72483264D01*
X143546208Y-72483266D01*
X143587419Y-72610102D01*
X143604301Y-72662057D01*
X143689644Y-72829552D01*
X143723361Y-72875959D01*
X143800139Y-72981634D01*
X143800141Y-72981636D01*
X143800144Y-72981640D01*
X143933059Y-73114555D01*
X143933062Y-73114557D01*
X143933066Y-73114561D01*
X144085150Y-73225057D01*
X144252648Y-73310401D01*
X144431434Y-73368492D01*
X144617107Y-73397900D01*
X144617110Y-73397900D01*
X144805090Y-73397900D01*
X144805093Y-73397900D01*
X144990766Y-73368492D01*
X145169552Y-73310401D01*
X145337050Y-73225057D01*
X145489134Y-73114561D01*
X145622061Y-72981634D01*
X145706547Y-72865348D01*
X145718326Y-72858131D01*
X145731760Y-72861356D01*
X145738978Y-72873135D01*
X145739200Y-72875959D01*
X145739200Y-110312310D01*
X145733913Y-110325073D01*
X145721150Y-110330360D01*
X145708387Y-110325073D01*
X145703715Y-110316982D01*
X145664405Y-110170276D01*
X145664404Y-110170272D01*
X145584820Y-110032428D01*
X145584818Y-110032426D01*
X145584817Y-110032424D01*
X145487887Y-109935494D01*
X145482600Y-109922731D01*
X145482600Y-107853375D01*
X145456602Y-107756350D01*
X145456601Y-107756346D01*
X145406376Y-107669353D01*
X145406374Y-107669351D01*
X145406373Y-107669349D01*
X145334728Y-107597704D01*
X145334705Y-107597683D01*
X142435350Y-104698326D01*
X142435348Y-104698325D01*
X142435347Y-104698324D01*
X142348354Y-104648099D01*
X142348351Y-104648098D01*
X142348349Y-104648097D01*
X142279333Y-104629604D01*
X142251325Y-104622100D01*
X142251324Y-104622100D01*
X129966598Y-104622100D01*
X129953835Y-104616813D01*
X126387887Y-101050864D01*
X126382600Y-101038101D01*
X126382600Y-85319097D01*
X126387886Y-85306335D01*
X132233860Y-79460360D01*
X132233865Y-79460357D01*
X132235345Y-79458876D01*
X132235347Y-79458876D01*
X132306376Y-79387847D01*
X132356601Y-79300854D01*
X132382600Y-79203825D01*
X132382600Y-78769279D01*
X132387887Y-78756516D01*
X132390623Y-78754271D01*
X132399074Y-78748623D01*
X132404423Y-78745050D01*
X132492550Y-78656923D01*
X132561791Y-78553296D01*
X132609485Y-78438152D01*
X132633800Y-78315915D01*
X132633800Y-78191285D01*
X132609485Y-78069048D01*
X132561791Y-77953904D01*
X132492550Y-77850277D01*
X132404423Y-77762150D01*
X132352609Y-77727529D01*
X132300800Y-77692911D01*
X132300790Y-77692906D01*
X132185652Y-77645215D01*
X132185648Y-77645214D01*
X132063417Y-77620900D01*
X132063415Y-77620900D01*
X131938785Y-77620900D01*
X131938782Y-77620900D01*
X131816551Y-77645214D01*
X131816547Y-77645215D01*
X131701409Y-77692906D01*
X131701399Y-77692911D01*
X131598128Y-77761915D01*
X131597777Y-77762150D01*
X131597775Y-77762152D01*
X131597770Y-77762156D01*
X131509656Y-77850270D01*
X131509648Y-77850280D01*
X131440411Y-77953899D01*
X131440406Y-77953909D01*
X131392715Y-78069047D01*
X131392714Y-78069051D01*
X131368400Y-78191282D01*
X131368400Y-78315917D01*
X131392714Y-78438148D01*
X131392715Y-78438152D01*
X131440406Y-78553290D01*
X131440411Y-78553300D01*
X131475029Y-78605109D01*
X131509650Y-78656923D01*
X131597777Y-78745050D01*
X131597783Y-78745054D01*
X131597787Y-78745057D01*
X131611577Y-78754271D01*
X131619253Y-78765757D01*
X131619600Y-78769279D01*
X131619600Y-78988100D01*
X131614313Y-79000863D01*
X125764314Y-84850861D01*
X125764312Y-84850864D01*
X125695826Y-84919349D01*
X125695825Y-84919351D01*
X125645599Y-85006346D01*
X125645597Y-85006350D01*
X125619600Y-85103375D01*
X125619600Y-101253824D01*
X125645597Y-101350849D01*
X125645598Y-101350851D01*
X125645599Y-101350854D01*
X125695824Y-101437847D01*
X125695825Y-101437848D01*
X125695826Y-101437850D01*
X129495183Y-105237205D01*
X129495204Y-105237228D01*
X129566849Y-105308873D01*
X129566851Y-105308874D01*
X129566853Y-105308876D01*
X129617079Y-105337873D01*
X129653847Y-105359102D01*
X129653849Y-105359102D01*
X129653850Y-105359103D01*
X129694856Y-105370090D01*
X129750875Y-105385101D01*
X129750876Y-105385101D01*
X129852424Y-105385101D01*
X129852440Y-105385100D01*
X142035601Y-105385100D01*
X142048364Y-105390387D01*
X144714313Y-108056335D01*
X144719600Y-108069098D01*
X144719600Y-109922731D01*
X144714313Y-109935494D01*
X144617382Y-110032424D01*
X144617381Y-110032426D01*
X144537796Y-110170272D01*
X144537794Y-110170276D01*
X144499737Y-110312310D01*
X144496600Y-110324016D01*
X144496600Y-110483184D01*
X144508491Y-110527564D01*
X144537794Y-110636923D01*
X144537795Y-110636925D01*
X144537796Y-110636928D01*
X144617380Y-110774772D01*
X144617381Y-110774773D01*
X144617382Y-110774775D01*
X144729924Y-110887317D01*
X144729926Y-110887318D01*
X144729928Y-110887320D01*
X144867772Y-110966904D01*
X145021516Y-111008100D01*
X145021517Y-111008100D01*
X145180683Y-111008100D01*
X145180684Y-111008100D01*
X145334428Y-110966904D01*
X145472272Y-110887320D01*
X145584820Y-110774772D01*
X145664404Y-110636928D01*
X145703715Y-110490216D01*
X145712125Y-110479257D01*
X145725822Y-110477454D01*
X145736782Y-110485864D01*
X145739200Y-110494889D01*
X145739200Y-115853104D01*
X145734413Y-115865347D01*
X145023141Y-116635893D01*
X145010599Y-116641686D01*
X145009878Y-116641700D01*
X136916880Y-116641700D01*
X136122169Y-117436413D01*
X136109406Y-117441700D01*
X131681050Y-117441700D01*
X131668287Y-117436413D01*
X131663000Y-117423650D01*
X131663000Y-116619192D01*
X131662999Y-116619191D01*
X128785127Y-113691700D01*
X123527650Y-113691700D01*
X123514887Y-113686413D01*
X123509600Y-113673650D01*
X123509600Y-84753375D01*
X123919600Y-84753375D01*
X123919600Y-102053824D01*
X123945597Y-102150849D01*
X123945598Y-102150851D01*
X123945599Y-102150854D01*
X123995824Y-102237847D01*
X123995825Y-102237848D01*
X123995826Y-102237850D01*
X128759249Y-107001273D01*
X128759251Y-107001274D01*
X128759253Y-107001276D01*
X128846247Y-107051502D01*
X128943275Y-107077501D01*
X128943276Y-107077501D01*
X129044824Y-107077501D01*
X129044840Y-107077500D01*
X141528001Y-107077500D01*
X141540764Y-107082787D01*
X143314313Y-108856336D01*
X143319600Y-108869099D01*
X143319600Y-112622731D01*
X143314313Y-112635494D01*
X143217382Y-112732424D01*
X143217381Y-112732426D01*
X143137796Y-112870272D01*
X143137794Y-112870276D01*
X143096600Y-113024016D01*
X143096600Y-113183183D01*
X143137794Y-113336923D01*
X143137795Y-113336925D01*
X143137796Y-113336928D01*
X143217380Y-113474772D01*
X143217381Y-113474773D01*
X143217382Y-113474775D01*
X143329924Y-113587317D01*
X143329926Y-113587318D01*
X143329928Y-113587320D01*
X143467772Y-113666904D01*
X143621516Y-113708100D01*
X143621517Y-113708100D01*
X143780683Y-113708100D01*
X143780684Y-113708100D01*
X143934428Y-113666904D01*
X144072272Y-113587320D01*
X144184820Y-113474772D01*
X144264404Y-113336928D01*
X144305600Y-113183184D01*
X144305600Y-113024016D01*
X144264404Y-112870272D01*
X144184820Y-112732428D01*
X144184818Y-112732426D01*
X144184817Y-112732424D01*
X144087887Y-112635494D01*
X144082600Y-112622731D01*
X144082600Y-108653375D01*
X144056602Y-108556350D01*
X144056601Y-108556346D01*
X144006376Y-108469353D01*
X144006374Y-108469351D01*
X144006373Y-108469349D01*
X143935347Y-108398324D01*
X141927750Y-106390726D01*
X141927748Y-106390725D01*
X141927747Y-106390724D01*
X141840754Y-106340499D01*
X141840751Y-106340498D01*
X141840749Y-106340497D01*
X141771733Y-106322004D01*
X141743725Y-106314500D01*
X141743724Y-106314500D01*
X129158999Y-106314500D01*
X129146236Y-106309213D01*
X124687887Y-101850864D01*
X124682600Y-101838101D01*
X124682600Y-84969097D01*
X124687886Y-84956335D01*
X129406220Y-80238000D01*
X129418982Y-80232714D01*
X129422501Y-80233060D01*
X129438785Y-80236300D01*
X129438787Y-80236300D01*
X129563413Y-80236300D01*
X129563415Y-80236300D01*
X129685652Y-80211985D01*
X129800796Y-80164291D01*
X129904423Y-80095050D01*
X129992550Y-80006923D01*
X130061791Y-79903296D01*
X130109485Y-79788152D01*
X130133800Y-79665915D01*
X130133800Y-79541285D01*
X130109485Y-79419048D01*
X130061791Y-79303904D01*
X130059752Y-79300853D01*
X130044245Y-79277645D01*
X129992550Y-79200277D01*
X129904423Y-79112150D01*
X129890620Y-79102927D01*
X129882947Y-79091441D01*
X129882600Y-79087920D01*
X129882600Y-77269279D01*
X129887887Y-77256516D01*
X129890623Y-77254271D01*
X129899074Y-77248623D01*
X129904423Y-77245050D01*
X129992550Y-77156923D01*
X130061791Y-77053296D01*
X130109485Y-76938152D01*
X130133800Y-76815915D01*
X130133800Y-76691285D01*
X130109485Y-76569048D01*
X130061791Y-76453904D01*
X129992550Y-76350277D01*
X129904423Y-76262150D01*
X129852609Y-76227529D01*
X129800800Y-76192911D01*
X129800790Y-76192906D01*
X129685652Y-76145215D01*
X129685648Y-76145214D01*
X129563417Y-76120900D01*
X129563415Y-76120900D01*
X129438785Y-76120900D01*
X129438782Y-76120900D01*
X129316551Y-76145214D01*
X129316547Y-76145215D01*
X129201409Y-76192906D01*
X129201399Y-76192911D01*
X129098128Y-76261915D01*
X129097777Y-76262150D01*
X129097775Y-76262152D01*
X129097770Y-76262156D01*
X129009656Y-76350270D01*
X129009648Y-76350280D01*
X128940411Y-76453899D01*
X128940406Y-76453909D01*
X128892715Y-76569047D01*
X128892714Y-76569051D01*
X128868400Y-76691282D01*
X128868400Y-76815917D01*
X128892714Y-76938148D01*
X128892715Y-76938152D01*
X128940406Y-77053290D01*
X128940411Y-77053300D01*
X128967232Y-77093440D01*
X129009650Y-77156923D01*
X129097777Y-77245050D01*
X129097783Y-77245054D01*
X129097787Y-77245057D01*
X129111577Y-77254271D01*
X129119253Y-77265757D01*
X129119600Y-77269279D01*
X129119600Y-79087920D01*
X129114313Y-79100683D01*
X129111581Y-79102925D01*
X129097777Y-79112150D01*
X129097776Y-79112151D01*
X129097770Y-79112156D01*
X129009656Y-79200270D01*
X129009648Y-79200280D01*
X128940411Y-79303899D01*
X128940406Y-79303909D01*
X128892715Y-79419047D01*
X128892714Y-79419051D01*
X128868400Y-79541282D01*
X128868400Y-79665917D01*
X128871638Y-79682194D01*
X128868943Y-79695743D01*
X128866698Y-79698478D01*
X124064314Y-84500861D01*
X124064312Y-84500864D01*
X123995826Y-84569349D01*
X123995825Y-84569351D01*
X123945599Y-84656346D01*
X123945597Y-84656350D01*
X123919600Y-84753375D01*
X123509600Y-84753375D01*
X123509600Y-77471704D01*
X123514887Y-77458941D01*
X125206441Y-75767387D01*
X125219204Y-75762100D01*
X126864155Y-75762100D01*
X126998045Y-75762100D01*
X131828871Y-75762100D01*
X131841634Y-75767387D01*
X131841803Y-75767558D01*
X131989654Y-75919405D01*
X133387482Y-77355011D01*
X133392600Y-77367602D01*
X133392600Y-103270511D01*
X133390182Y-103279536D01*
X133337796Y-103370272D01*
X133337794Y-103370276D01*
X133296600Y-103524016D01*
X133296600Y-103683183D01*
X133337794Y-103836923D01*
X133337795Y-103836925D01*
X133337796Y-103836928D01*
X133417380Y-103974772D01*
X133417381Y-103974773D01*
X133417382Y-103974775D01*
X133529924Y-104087317D01*
X133529926Y-104087318D01*
X133529928Y-104087320D01*
X133667772Y-104166904D01*
X133821516Y-104208100D01*
X133821517Y-104208100D01*
X133980683Y-104208100D01*
X133980684Y-104208100D01*
X134134428Y-104166904D01*
X134272272Y-104087320D01*
X134384820Y-103974772D01*
X134464404Y-103836928D01*
X134505600Y-103683184D01*
X134505600Y-103524016D01*
X134464404Y-103370272D01*
X134412018Y-103279536D01*
X134409600Y-103270511D01*
X134409600Y-77157057D01*
X134409602Y-77156816D01*
X134410447Y-77093441D01*
X134410447Y-77093440D01*
X134410153Y-77092284D01*
X134409600Y-77087846D01*
X134409600Y-77086655D01*
X134401741Y-77057326D01*
X134393152Y-77025270D01*
X134377522Y-76963661D01*
X134376941Y-76962623D01*
X134375253Y-76958470D01*
X134374946Y-76957324D01*
X134343235Y-76902399D01*
X134343117Y-76902190D01*
X134312131Y-76846832D01*
X134312128Y-76846829D01*
X134312127Y-76846826D01*
X134311295Y-76845971D01*
X134308595Y-76842402D01*
X134308002Y-76841375D01*
X134307999Y-76841371D01*
X134263159Y-76796532D01*
X134262990Y-76796361D01*
X132461296Y-74945972D01*
X132458593Y-74942400D01*
X132458001Y-74941374D01*
X132413180Y-74896553D01*
X132413011Y-74896382D01*
X132368725Y-74850899D01*
X132368724Y-74850898D01*
X132367695Y-74850285D01*
X132364163Y-74847536D01*
X132363327Y-74846700D01*
X132363326Y-74846699D01*
X132331761Y-74828474D01*
X132308395Y-74814984D01*
X132308187Y-74814862D01*
X132253671Y-74782410D01*
X132252528Y-74782088D01*
X132248406Y-74780349D01*
X132247374Y-74779753D01*
X132247370Y-74779751D01*
X132186057Y-74763322D01*
X132185826Y-74763258D01*
X132124824Y-74746038D01*
X132124812Y-74746037D01*
X132123625Y-74746021D01*
X132119201Y-74745409D01*
X132118047Y-74745100D01*
X132118045Y-74745100D01*
X132054558Y-74745100D01*
X132054317Y-74745098D01*
X131990941Y-74744252D01*
X131990939Y-74744253D01*
X131989785Y-74744546D01*
X131985346Y-74745100D01*
X127457650Y-74745100D01*
X127444887Y-74739813D01*
X127439600Y-74727050D01*
X127439600Y-73295961D01*
X127444887Y-73283198D01*
X127449456Y-73279878D01*
X127469630Y-73269599D01*
X127557050Y-73225057D01*
X127709134Y-73114561D01*
X127842061Y-72981634D01*
X127952557Y-72829550D01*
X128037901Y-72662052D01*
X128095992Y-72483266D01*
X128125400Y-72297593D01*
X128125400Y-72109607D01*
X128125400Y-72109604D01*
X128276800Y-72109604D01*
X128276800Y-72297595D01*
X128306207Y-72483264D01*
X128306208Y-72483266D01*
X128347419Y-72610102D01*
X128364301Y-72662057D01*
X128449644Y-72829552D01*
X128483361Y-72875959D01*
X128560139Y-72981634D01*
X128560141Y-72981636D01*
X128560144Y-72981640D01*
X128693059Y-73114555D01*
X128693062Y-73114557D01*
X128693066Y-73114561D01*
X128845150Y-73225057D01*
X129012648Y-73310401D01*
X129191434Y-73368492D01*
X129377107Y-73397900D01*
X129377110Y-73397900D01*
X129565090Y-73397900D01*
X129565093Y-73397900D01*
X129750766Y-73368492D01*
X129929552Y-73310401D01*
X130097050Y-73225057D01*
X130249134Y-73114561D01*
X130382061Y-72981634D01*
X130492557Y-72829550D01*
X130577901Y-72662052D01*
X130635992Y-72483266D01*
X130665400Y-72297593D01*
X130665400Y-72109607D01*
X130665400Y-72109604D01*
X130816800Y-72109604D01*
X130816800Y-72297595D01*
X130846207Y-72483264D01*
X130846208Y-72483266D01*
X130887419Y-72610102D01*
X130904301Y-72662057D01*
X130989644Y-72829552D01*
X131023361Y-72875959D01*
X131100139Y-72981634D01*
X131100141Y-72981636D01*
X131100144Y-72981640D01*
X131233059Y-73114555D01*
X131233062Y-73114557D01*
X131233066Y-73114561D01*
X131385150Y-73225057D01*
X131552648Y-73310401D01*
X131731434Y-73368492D01*
X131917107Y-73397900D01*
X131917110Y-73397900D01*
X132105090Y-73397900D01*
X132105093Y-73397900D01*
X132290766Y-73368492D01*
X132469552Y-73310401D01*
X132637050Y-73225057D01*
X132789134Y-73114561D01*
X132922061Y-72981634D01*
X133032557Y-72829550D01*
X133117901Y-72662052D01*
X133175992Y-72483266D01*
X133205400Y-72297593D01*
X133205400Y-72109607D01*
X133205400Y-72109604D01*
X133356800Y-72109604D01*
X133356800Y-72297595D01*
X133386207Y-72483264D01*
X133386208Y-72483266D01*
X133427419Y-72610102D01*
X133444301Y-72662057D01*
X133529644Y-72829552D01*
X133563361Y-72875959D01*
X133640139Y-72981634D01*
X133640141Y-72981636D01*
X133640144Y-72981640D01*
X133773059Y-73114555D01*
X133773062Y-73114557D01*
X133773066Y-73114561D01*
X133925150Y-73225057D01*
X134092648Y-73310401D01*
X134271434Y-73368492D01*
X134457107Y-73397900D01*
X134457110Y-73397900D01*
X134645090Y-73397900D01*
X134645093Y-73397900D01*
X134830766Y-73368492D01*
X135009552Y-73310401D01*
X135177050Y-73225057D01*
X135329134Y-73114561D01*
X135462061Y-72981634D01*
X135572557Y-72829550D01*
X135657901Y-72662052D01*
X135715992Y-72483266D01*
X135745400Y-72297593D01*
X135745400Y-72109607D01*
X135745400Y-72109604D01*
X135896800Y-72109604D01*
X135896800Y-72297595D01*
X135926207Y-72483264D01*
X135926208Y-72483266D01*
X135967419Y-72610102D01*
X135984301Y-72662057D01*
X136069644Y-72829552D01*
X136103361Y-72875959D01*
X136180139Y-72981634D01*
X136180141Y-72981636D01*
X136180144Y-72981640D01*
X136313059Y-73114555D01*
X136313062Y-73114557D01*
X136313066Y-73114561D01*
X136465150Y-73225057D01*
X136632648Y-73310401D01*
X136811434Y-73368492D01*
X136997107Y-73397900D01*
X136997110Y-73397900D01*
X137185090Y-73397900D01*
X137185093Y-73397900D01*
X137370766Y-73368492D01*
X137549552Y-73310401D01*
X137717050Y-73225057D01*
X137869134Y-73114561D01*
X138002061Y-72981634D01*
X138112557Y-72829550D01*
X138197901Y-72662052D01*
X138255992Y-72483266D01*
X138285400Y-72297593D01*
X138285400Y-72109607D01*
X138285400Y-72109604D01*
X138436800Y-72109604D01*
X138436800Y-72297595D01*
X138466207Y-72483264D01*
X138466208Y-72483266D01*
X138507419Y-72610102D01*
X138524301Y-72662057D01*
X138609644Y-72829552D01*
X138643361Y-72875959D01*
X138720139Y-72981634D01*
X138720141Y-72981636D01*
X138720144Y-72981640D01*
X138853059Y-73114555D01*
X138853062Y-73114557D01*
X138853066Y-73114561D01*
X139005150Y-73225057D01*
X139172648Y-73310401D01*
X139351434Y-73368492D01*
X139537107Y-73397900D01*
X139537110Y-73397900D01*
X139725090Y-73397900D01*
X139725093Y-73397900D01*
X139910766Y-73368492D01*
X140089552Y-73310401D01*
X140257050Y-73225057D01*
X140409134Y-73114561D01*
X140542061Y-72981634D01*
X140652557Y-72829550D01*
X140737901Y-72662052D01*
X140795992Y-72483266D01*
X140825400Y-72297593D01*
X140825400Y-72109607D01*
X140825400Y-72109604D01*
X140976800Y-72109604D01*
X140976800Y-72297595D01*
X141006207Y-72483264D01*
X141006208Y-72483266D01*
X141047419Y-72610102D01*
X141064301Y-72662057D01*
X141149644Y-72829552D01*
X141183361Y-72875959D01*
X141260139Y-72981634D01*
X141260141Y-72981636D01*
X141260144Y-72981640D01*
X141393059Y-73114555D01*
X141393062Y-73114557D01*
X141393066Y-73114561D01*
X141545150Y-73225057D01*
X141712648Y-73310401D01*
X141891434Y-73368492D01*
X142077107Y-73397900D01*
X142077110Y-73397900D01*
X142265090Y-73397900D01*
X142265093Y-73397900D01*
X142450766Y-73368492D01*
X142629552Y-73310401D01*
X142797050Y-73225057D01*
X142949134Y-73114561D01*
X143082061Y-72981634D01*
X143192557Y-72829550D01*
X143277901Y-72662052D01*
X143335992Y-72483266D01*
X143365400Y-72297593D01*
X143365400Y-72109607D01*
X143335992Y-71923934D01*
X143277901Y-71745148D01*
X143192557Y-71577650D01*
X143082061Y-71425566D01*
X143082057Y-71425562D01*
X143082055Y-71425559D01*
X142949140Y-71292644D01*
X142949136Y-71292641D01*
X142949134Y-71292639D01*
X142860051Y-71227916D01*
X142797052Y-71182144D01*
X142629557Y-71096801D01*
X142629554Y-71096800D01*
X142629552Y-71096799D01*
X142537050Y-71066743D01*
X142450764Y-71038707D01*
X142265095Y-71009300D01*
X142265093Y-71009300D01*
X142077107Y-71009300D01*
X142077104Y-71009300D01*
X141891435Y-71038707D01*
X141712642Y-71096801D01*
X141545147Y-71182144D01*
X141393059Y-71292644D01*
X141260144Y-71425559D01*
X141149644Y-71577647D01*
X141064301Y-71745142D01*
X141006207Y-71923935D01*
X140976800Y-72109604D01*
X140825400Y-72109604D01*
X140795992Y-71923934D01*
X140737901Y-71745148D01*
X140652557Y-71577650D01*
X140542061Y-71425566D01*
X140542057Y-71425562D01*
X140542055Y-71425559D01*
X140409140Y-71292644D01*
X140409136Y-71292641D01*
X140409134Y-71292639D01*
X140320051Y-71227916D01*
X140257052Y-71182144D01*
X140089557Y-71096801D01*
X140089554Y-71096800D01*
X140089552Y-71096799D01*
X139997050Y-71066743D01*
X139910764Y-71038707D01*
X139725095Y-71009300D01*
X139725093Y-71009300D01*
X139537107Y-71009300D01*
X139537104Y-71009300D01*
X139351435Y-71038707D01*
X139172642Y-71096801D01*
X139005147Y-71182144D01*
X138853059Y-71292644D01*
X138720144Y-71425559D01*
X138609644Y-71577647D01*
X138524301Y-71745142D01*
X138466207Y-71923935D01*
X138436800Y-72109604D01*
X138285400Y-72109604D01*
X138255992Y-71923934D01*
X138197901Y-71745148D01*
X138112557Y-71577650D01*
X138002061Y-71425566D01*
X138002057Y-71425562D01*
X138002055Y-71425559D01*
X137869140Y-71292644D01*
X137869136Y-71292641D01*
X137869134Y-71292639D01*
X137780051Y-71227916D01*
X137717052Y-71182144D01*
X137549557Y-71096801D01*
X137549554Y-71096800D01*
X137549552Y-71096799D01*
X137457050Y-71066743D01*
X137370764Y-71038707D01*
X137185095Y-71009300D01*
X137185093Y-71009300D01*
X136997107Y-71009300D01*
X136997104Y-71009300D01*
X136811435Y-71038707D01*
X136632642Y-71096801D01*
X136465147Y-71182144D01*
X136313059Y-71292644D01*
X136180144Y-71425559D01*
X136069644Y-71577647D01*
X135984301Y-71745142D01*
X135926207Y-71923935D01*
X135896800Y-72109604D01*
X135745400Y-72109604D01*
X135715992Y-71923934D01*
X135657901Y-71745148D01*
X135572557Y-71577650D01*
X135462061Y-71425566D01*
X135462057Y-71425562D01*
X135462055Y-71425559D01*
X135329140Y-71292644D01*
X135329136Y-71292641D01*
X135329134Y-71292639D01*
X135240051Y-71227916D01*
X135177052Y-71182144D01*
X135009557Y-71096801D01*
X135009554Y-71096800D01*
X135009552Y-71096799D01*
X134917050Y-71066743D01*
X134830764Y-71038707D01*
X134645095Y-71009300D01*
X134645093Y-71009300D01*
X134457107Y-71009300D01*
X134457104Y-71009300D01*
X134271435Y-71038707D01*
X134092642Y-71096801D01*
X133925147Y-71182144D01*
X133773059Y-71292644D01*
X133640144Y-71425559D01*
X133529644Y-71577647D01*
X133444301Y-71745142D01*
X133386207Y-71923935D01*
X133356800Y-72109604D01*
X133205400Y-72109604D01*
X133175992Y-71923934D01*
X133117901Y-71745148D01*
X133032557Y-71577650D01*
X132922061Y-71425566D01*
X132922057Y-71425562D01*
X132922055Y-71425559D01*
X132789140Y-71292644D01*
X132789136Y-71292641D01*
X132789134Y-71292639D01*
X132700051Y-71227916D01*
X132637052Y-71182144D01*
X132469557Y-71096801D01*
X132469554Y-71096800D01*
X132469552Y-71096799D01*
X132377050Y-71066743D01*
X132290764Y-71038707D01*
X132105095Y-71009300D01*
X132105093Y-71009300D01*
X131917107Y-71009300D01*
X131917104Y-71009300D01*
X131731435Y-71038707D01*
X131552642Y-71096801D01*
X131385147Y-71182144D01*
X131233059Y-71292644D01*
X131100144Y-71425559D01*
X130989644Y-71577647D01*
X130904301Y-71745142D01*
X130846207Y-71923935D01*
X130816800Y-72109604D01*
X130665400Y-72109604D01*
X130635992Y-71923934D01*
X130577901Y-71745148D01*
X130492557Y-71577650D01*
X130382061Y-71425566D01*
X130382057Y-71425562D01*
X130382055Y-71425559D01*
X130249140Y-71292644D01*
X130249136Y-71292641D01*
X130249134Y-71292639D01*
X130160051Y-71227916D01*
X130097052Y-71182144D01*
X129929557Y-71096801D01*
X129929554Y-71096800D01*
X129929552Y-71096799D01*
X129837050Y-71066743D01*
X129750764Y-71038707D01*
X129565095Y-71009300D01*
X129565093Y-71009300D01*
X129377107Y-71009300D01*
X129377104Y-71009300D01*
X129191435Y-71038707D01*
X129012642Y-71096801D01*
X128845147Y-71182144D01*
X128693059Y-71292644D01*
X128560144Y-71425559D01*
X128449644Y-71577647D01*
X128364301Y-71745142D01*
X128306207Y-71923935D01*
X128276800Y-72109604D01*
X128125400Y-72109604D01*
X128095992Y-71923934D01*
X128037901Y-71745148D01*
X127952557Y-71577650D01*
X127842061Y-71425566D01*
X127842057Y-71425562D01*
X127842055Y-71425559D01*
X127709140Y-71292644D01*
X127709136Y-71292641D01*
X127709134Y-71292639D01*
X127620051Y-71227916D01*
X127557052Y-71182144D01*
X127389557Y-71096801D01*
X127389554Y-71096800D01*
X127389552Y-71096799D01*
X127297050Y-71066743D01*
X127210764Y-71038707D01*
X127025095Y-71009300D01*
X127025093Y-71009300D01*
X126837107Y-71009300D01*
X126837104Y-71009300D01*
X126651435Y-71038707D01*
X126472642Y-71096801D01*
X126305147Y-71182144D01*
X126153059Y-71292644D01*
X126020144Y-71425559D01*
X125909644Y-71577647D01*
X125824301Y-71745142D01*
X125766207Y-71923935D01*
X125736800Y-72109604D01*
X125736800Y-72297595D01*
X125766207Y-72483264D01*
X125766208Y-72483266D01*
X125807419Y-72610102D01*
X125824301Y-72662057D01*
X125909644Y-72829552D01*
X125943361Y-72875959D01*
X126020139Y-72981634D01*
X126020141Y-72981636D01*
X126020144Y-72981640D01*
X126153059Y-73114555D01*
X126153062Y-73114557D01*
X126153066Y-73114561D01*
X126305149Y-73225056D01*
X126305150Y-73225057D01*
X126412744Y-73279878D01*
X126421717Y-73290383D01*
X126422600Y-73295961D01*
X126422600Y-74727050D01*
X126417313Y-74739813D01*
X126404550Y-74745100D01*
X124934155Y-74745100D01*
X124814436Y-74777178D01*
X124804830Y-74779751D01*
X124804826Y-74779753D01*
X124688871Y-74846700D01*
X124688869Y-74846701D01*
X122594201Y-76941369D01*
X122594200Y-76941371D01*
X122581331Y-76963661D01*
X122527253Y-77057326D01*
X122527251Y-77057330D01*
X122492600Y-77186655D01*
X122492600Y-113673650D01*
X122487313Y-113686413D01*
X122474550Y-113691700D01*
X113593550Y-113691700D01*
X113580787Y-113686413D01*
X113575500Y-113673650D01*
X113575500Y-105578805D01*
X113580787Y-105566042D01*
X113586300Y-105560529D01*
X113601600Y-105523591D01*
X113601600Y-105483609D01*
X113586300Y-105446671D01*
X113580787Y-105441158D01*
X113575500Y-105428395D01*
X113575500Y-84276004D01*
X114605700Y-84276004D01*
X114605700Y-84463995D01*
X114635107Y-84649664D01*
X114693201Y-84828457D01*
X114704618Y-84850864D01*
X114778543Y-84995950D01*
X114889039Y-85148034D01*
X114889041Y-85148036D01*
X114889044Y-85148040D01*
X115021959Y-85280955D01*
X115021962Y-85280957D01*
X115021966Y-85280961D01*
X115174050Y-85391457D01*
X115341548Y-85476801D01*
X115520334Y-85534892D01*
X115706007Y-85564300D01*
X115706010Y-85564300D01*
X115893990Y-85564300D01*
X115893993Y-85564300D01*
X116079666Y-85534892D01*
X116258452Y-85476801D01*
X116425950Y-85391457D01*
X116578034Y-85280961D01*
X116710961Y-85148034D01*
X116821457Y-84995950D01*
X116906801Y-84828452D01*
X116964892Y-84649666D01*
X116994300Y-84463993D01*
X116994300Y-84276007D01*
X116964892Y-84090334D01*
X116906801Y-83911548D01*
X116821457Y-83744050D01*
X116710961Y-83591966D01*
X116710957Y-83591962D01*
X116710955Y-83591959D01*
X116578040Y-83459044D01*
X116578036Y-83459041D01*
X116578034Y-83459039D01*
X116488951Y-83394316D01*
X116425952Y-83348544D01*
X116258457Y-83263201D01*
X116258454Y-83263200D01*
X116258452Y-83263199D01*
X116165950Y-83233143D01*
X116079664Y-83205107D01*
X115893995Y-83175700D01*
X115893993Y-83175700D01*
X115706007Y-83175700D01*
X115706004Y-83175700D01*
X115520335Y-83205107D01*
X115341542Y-83263201D01*
X115174047Y-83348544D01*
X115021959Y-83459044D01*
X114889044Y-83591959D01*
X114778544Y-83744047D01*
X114693201Y-83911542D01*
X114635107Y-84090335D01*
X114605700Y-84276004D01*
X113575500Y-84276004D01*
X113575500Y-81736004D01*
X114605700Y-81736004D01*
X114605700Y-81923995D01*
X114635107Y-82109664D01*
X114693201Y-82288457D01*
X114778543Y-82455950D01*
X114889039Y-82608034D01*
X114889041Y-82608036D01*
X114889044Y-82608040D01*
X115021959Y-82740955D01*
X115021962Y-82740957D01*
X115021966Y-82740961D01*
X115174050Y-82851457D01*
X115341548Y-82936801D01*
X115520334Y-82994892D01*
X115706007Y-83024300D01*
X115706010Y-83024300D01*
X115893990Y-83024300D01*
X115893993Y-83024300D01*
X116079666Y-82994892D01*
X116258452Y-82936801D01*
X116425950Y-82851457D01*
X116578034Y-82740961D01*
X116710961Y-82608034D01*
X116821457Y-82455950D01*
X116906801Y-82288452D01*
X116964892Y-82109666D01*
X116994300Y-81923993D01*
X116994300Y-81736007D01*
X116964892Y-81550334D01*
X116906801Y-81371548D01*
X116821457Y-81204050D01*
X116710961Y-81051966D01*
X116710957Y-81051962D01*
X116710955Y-81051959D01*
X116578040Y-80919044D01*
X116578036Y-80919041D01*
X116578034Y-80919039D01*
X116488951Y-80854316D01*
X116425952Y-80808544D01*
X116258457Y-80723201D01*
X116258454Y-80723200D01*
X116258452Y-80723199D01*
X116165950Y-80693143D01*
X116079664Y-80665107D01*
X115893995Y-80635700D01*
X115893993Y-80635700D01*
X115706007Y-80635700D01*
X115706004Y-80635700D01*
X115520335Y-80665107D01*
X115341542Y-80723201D01*
X115174047Y-80808544D01*
X115021959Y-80919044D01*
X114889044Y-81051959D01*
X114778544Y-81204047D01*
X114693201Y-81371542D01*
X114635107Y-81550335D01*
X114605700Y-81736004D01*
X113575500Y-81736004D01*
X113575500Y-77010551D01*
X113580787Y-76997788D01*
X113593549Y-76992501D01*
X119399979Y-77006020D01*
X120485630Y-75919405D01*
X120448561Y-72129140D01*
X120448263Y-72098605D01*
X123325100Y-72098605D01*
X123325100Y-72140500D01*
X123883100Y-72140500D01*
X123883100Y-72266700D01*
X123325100Y-72266700D01*
X123325100Y-72308594D01*
X123366065Y-72514538D01*
X123366066Y-72514541D01*
X123446420Y-72708534D01*
X123446425Y-72708544D01*
X123563082Y-72883131D01*
X123563090Y-72883141D01*
X123711558Y-73031609D01*
X123711568Y-73031617D01*
X123886155Y-73148274D01*
X123886165Y-73148279D01*
X124080158Y-73228633D01*
X124080161Y-73228634D01*
X124286105Y-73269599D01*
X124286110Y-73269600D01*
X124328000Y-73269600D01*
X124328000Y-72711600D01*
X124454200Y-72711600D01*
X124454200Y-73269600D01*
X124496090Y-73269600D01*
X124496094Y-73269599D01*
X124702038Y-73228634D01*
X124702041Y-73228633D01*
X124896034Y-73148279D01*
X124896044Y-73148274D01*
X125070631Y-73031617D01*
X125070641Y-73031609D01*
X125219109Y-72883141D01*
X125219117Y-72883131D01*
X125335774Y-72708544D01*
X125335779Y-72708534D01*
X125416133Y-72514541D01*
X125416134Y-72514538D01*
X125457099Y-72308594D01*
X125457100Y-72308590D01*
X125457100Y-72266700D01*
X124899100Y-72266700D01*
X124899100Y-72140500D01*
X125457100Y-72140500D01*
X125457100Y-72098609D01*
X125457099Y-72098605D01*
X125416134Y-71892661D01*
X125416133Y-71892658D01*
X125335779Y-71698665D01*
X125335774Y-71698655D01*
X125219117Y-71524068D01*
X125219109Y-71524058D01*
X125070641Y-71375590D01*
X125070631Y-71375582D01*
X124896044Y-71258925D01*
X124896034Y-71258920D01*
X124702041Y-71178566D01*
X124702038Y-71178565D01*
X124496094Y-71137600D01*
X124454200Y-71137600D01*
X124454200Y-71695600D01*
X124328000Y-71695600D01*
X124328000Y-71137600D01*
X124286105Y-71137600D01*
X124080161Y-71178565D01*
X124080158Y-71178566D01*
X123886165Y-71258920D01*
X123886155Y-71258925D01*
X123711568Y-71375582D01*
X123711558Y-71375590D01*
X123563090Y-71524058D01*
X123563082Y-71524068D01*
X123446425Y-71698655D01*
X123446420Y-71698665D01*
X123366066Y-71892658D01*
X123366065Y-71892661D01*
X123325100Y-72098605D01*
X120448263Y-72098605D01*
X120448256Y-72097897D01*
X120440381Y-71292644D01*
X120428655Y-70093726D01*
X120433817Y-70080912D01*
X120446527Y-70075501D01*
X120446704Y-70075500D01*
X145721150Y-70075500D01*
X145733913Y-70080787D01*
G37*
%TD.AperFunction*%
%TD*%
M02*
