%TF.GenerationSoftware,KiCad,Pcbnew,10.0.3-10.0.3~ubuntu24.04.1*%
%TF.CreationDate,2026-06-14T11:51:17-07:00*%
%TF.ProjectId,Sound,536f756e-642e-46b6-9963-61645f706362,4*%
%TF.SameCoordinates,Original*%
%TF.FileFunction,Paste,Top*%
%TF.FilePolarity,Positive*%
%FSLAX46Y46*%
G04 Gerber Fmt 4.6, Leading zero omitted, Abs format (unit mm)*
G04 Created by KiCad (PCBNEW 10.0.3-10.0.3~ubuntu24.04.1) date 2026-06-14 11:51:17*
%MOMM*%
%LPD*%
G01*
G04 APERTURE LIST*
G04 Aperture macros list*
%AMRoundRect*
0 Rectangle with rounded corners*
0 $1 Rounding radius*
0 $2 $3 $4 $5 $6 $7 $8 $9 X,Y pos of 4 corners*
0 Add a 4 corners polygon primitive as box body*
4,1,4,$2,$3,$4,$5,$6,$7,$8,$9,$2,$3,0*
0 Add four circle primitives for the rounded corners*
1,1,$1+$1,$2,$3*
1,1,$1+$1,$4,$5*
1,1,$1+$1,$6,$7*
1,1,$1+$1,$8,$9*
0 Add four rect primitives between the rounded corners*
20,1,$1+$1,$2,$3,$4,$5,0*
20,1,$1+$1,$4,$5,$6,$7,0*
20,1,$1+$1,$6,$7,$8,$9,0*
20,1,$1+$1,$8,$9,$2,$3,0*%
G04 Aperture macros list end*
%ADD10C,0.010000*%
%ADD11R,1.000000X1.020000*%
%ADD12R,1.100000X1.000000*%
%ADD13R,1.000000X1.100000*%
%ADD14R,0.660400X0.711200*%
%ADD15R,0.711200X0.660400*%
%ADD16R,0.406400X0.800100*%
%ADD17RoundRect,0.031250X-0.093750X0.353750X-0.093750X-0.353750X0.093750X-0.353750X0.093750X0.353750X0*%
%ADD18RoundRect,0.031250X-0.353750X0.093750X-0.353750X-0.093750X0.353750X-0.093750X0.353750X0.093750X0*%
%ADD19R,0.800000X0.800000*%
%ADD20R,2.500000X2.200000*%
%ADD21R,2.300000X2.200000*%
%ADD22R,2.800000X2.200000*%
%ADD23R,2.800000X2.800000*%
G04 APERTURE END LIST*
D10*
%TO.C,IC1*%
X133823100Y-116681600D02*
X133823100Y-118325600D01*
X132179100Y-118325600D01*
X132179100Y-116681600D01*
X133823100Y-116681600D01*
G36*
X133823100Y-118325600D02*
G01*
X132179100Y-118325600D01*
X132179100Y-116681600D01*
X133823100Y-116681600D01*
X133823100Y-118325600D01*
G37*
%TD*%
D11*
%TO.C,C25*%
X128560100Y-120853600D03*
X127042100Y-120853600D03*
%TD*%
%TO.C,C26*%
X128560100Y-119253600D03*
X127042100Y-119253600D03*
%TD*%
D12*
%TO.C,C19*%
X137151100Y-124003600D03*
X138851100Y-124003600D03*
%TD*%
%TO.C,C12*%
X133901100Y-110953600D03*
X135601100Y-110953600D03*
%TD*%
%TO.C,C2*%
X160400000Y-108300000D03*
X162100000Y-108300000D03*
%TD*%
D13*
%TO.C,R17*%
X115801100Y-98153600D03*
X115801100Y-96453600D03*
%TD*%
D12*
%TO.C,C15*%
X133901100Y-106003600D03*
X135601100Y-106003600D03*
%TD*%
%TO.C,C9*%
X130401100Y-122403600D03*
X132101100Y-122403600D03*
%TD*%
%TO.C,R5*%
X162050000Y-112800000D03*
X160350000Y-112800000D03*
%TD*%
%TO.C,R12*%
X141100000Y-115500000D03*
X139400000Y-115500000D03*
%TD*%
%TO.C,C14*%
X155050000Y-112800000D03*
X153350000Y-112800000D03*
%TD*%
D14*
%TO.C,U1*%
X121695902Y-90733600D03*
X121695902Y-92003600D03*
X121695902Y-93273600D03*
D15*
X120871100Y-94098402D03*
X119601100Y-94098402D03*
X118331100Y-94098402D03*
D14*
X117506298Y-93273600D03*
X117506298Y-92003600D03*
X117506298Y-90733600D03*
D15*
X118331100Y-89908798D03*
X119601100Y-89908798D03*
X120871100Y-89908798D03*
%TD*%
D12*
%TO.C,C16*%
X128651100Y-124003600D03*
X126951100Y-124003600D03*
%TD*%
%TO.C,C5*%
X158500000Y-120200000D03*
X156800000Y-120200000D03*
%TD*%
%TO.C,R18*%
X142351100Y-113703600D03*
X140651100Y-113703600D03*
%TD*%
D16*
%TO.C,IC2*%
X156776121Y-118479150D03*
X157426107Y-118479150D03*
X158076093Y-118479150D03*
X158726079Y-118479150D03*
X158726079Y-116028050D03*
X158076093Y-116028050D03*
X157426107Y-116028050D03*
X156776121Y-116028050D03*
%TD*%
D12*
%TO.C,C13*%
X121651100Y-116903600D03*
X119951100Y-116903600D03*
%TD*%
%TO.C,R14*%
X128351100Y-78253600D03*
X126651100Y-78253600D03*
%TD*%
D13*
%TO.C,R6*%
X137251100Y-110853600D03*
X137251100Y-112553600D03*
%TD*%
D12*
%TO.C,R1*%
X162100000Y-121800000D03*
X160400000Y-121800000D03*
%TD*%
%TO.C,C21*%
X137201100Y-117753600D03*
X138901100Y-117753600D03*
%TD*%
D17*
%TO.C,IC1*%
X134351100Y-115533600D03*
X133901100Y-115533600D03*
X133451100Y-115533600D03*
X133001100Y-115533600D03*
X132551100Y-115533600D03*
X132101100Y-115533600D03*
X131651100Y-115533600D03*
D18*
X131031100Y-116153600D03*
X131031100Y-116603600D03*
X131031100Y-117053600D03*
X131031100Y-117503600D03*
X131031100Y-117953600D03*
X131031100Y-118403600D03*
X131031100Y-118853600D03*
D17*
X131651100Y-119473600D03*
X132101100Y-119473600D03*
X132551100Y-119473600D03*
X133001100Y-119473600D03*
X133451100Y-119473600D03*
X133901100Y-119473600D03*
X134351100Y-119473600D03*
D18*
X134971100Y-118853600D03*
X134971100Y-118403600D03*
X134971100Y-117953600D03*
X134971100Y-117503600D03*
X134971100Y-117053600D03*
X134971100Y-116603600D03*
X134971100Y-116153600D03*
%TD*%
D12*
%TO.C,C6*%
X165450000Y-114300000D03*
X163750000Y-114300000D03*
%TD*%
%TO.C,C33*%
X163750000Y-116000000D03*
X162050000Y-116000000D03*
%TD*%
%TO.C,C8*%
X156800000Y-112800000D03*
X158500000Y-112800000D03*
%TD*%
%TO.C,R13*%
X128351100Y-76753600D03*
X126651100Y-76753600D03*
%TD*%
%TO.C,R24*%
X160350000Y-120200000D03*
X162050000Y-120200000D03*
%TD*%
%TO.C,C27*%
X137201100Y-120828600D03*
X138901100Y-120828600D03*
%TD*%
%TO.C,C22*%
X137201100Y-119253600D03*
X138901100Y-119253600D03*
%TD*%
%TO.C,C1*%
X165500000Y-121800000D03*
X163800000Y-121800000D03*
%TD*%
%TO.C,C7*%
X133801100Y-122403600D03*
X135501100Y-122403600D03*
%TD*%
%TO.C,R23*%
X160350000Y-114300000D03*
X162050000Y-114300000D03*
%TD*%
%TO.C,C30*%
X118750000Y-96400000D03*
X120450000Y-96400000D03*
%TD*%
D13*
%TO.C,R20*%
X133901100Y-107703600D03*
X133901100Y-109403600D03*
%TD*%
D12*
%TO.C,C17*%
X130401100Y-124003600D03*
X132101100Y-124003600D03*
%TD*%
D13*
%TO.C,R10*%
X129151100Y-110903600D03*
X129151100Y-112603600D03*
%TD*%
D19*
%TO.C,D1*%
X118950000Y-79200000D03*
X117450000Y-79200000D03*
%TD*%
D12*
%TO.C,C28*%
X120501100Y-87703600D03*
X118801100Y-87703600D03*
%TD*%
%TO.C,R8*%
X156800000Y-114300000D03*
X158500000Y-114300000D03*
%TD*%
%TO.C,C24*%
X126951100Y-117553600D03*
X128651100Y-117553600D03*
%TD*%
%TO.C,R29*%
X165450000Y-120200000D03*
X163750000Y-120200000D03*
%TD*%
%TO.C,C11*%
X137151100Y-122403600D03*
X138851100Y-122403600D03*
%TD*%
D20*
%TO.C,J3*%
X130651100Y-127703600D03*
D21*
X123851100Y-129203600D03*
X123651100Y-133203600D03*
X123651100Y-136203600D03*
%TD*%
D13*
%TO.C,R11*%
X127601100Y-110903600D03*
X127601100Y-112603600D03*
%TD*%
D12*
%TO.C,C10*%
X128651100Y-122403600D03*
X126951100Y-122403600D03*
%TD*%
%TO.C,R19*%
X142351100Y-112003600D03*
X140651100Y-112003600D03*
%TD*%
%TO.C,R4*%
X158550000Y-121800000D03*
X156850000Y-121800000D03*
%TD*%
%TO.C,R16*%
X122900000Y-76700000D03*
X124600000Y-76700000D03*
%TD*%
%TO.C,C4*%
X155050000Y-111203600D03*
X153350000Y-111203600D03*
%TD*%
%TO.C,R22*%
X135601100Y-112503600D03*
X133901100Y-112503600D03*
%TD*%
%TO.C,C3*%
X160400000Y-109700000D03*
X162100000Y-109700000D03*
%TD*%
D13*
%TO.C,R7*%
X132351100Y-110903600D03*
X132351100Y-112603600D03*
%TD*%
D12*
%TO.C,C31*%
X144550000Y-115500000D03*
X142850000Y-115500000D03*
%TD*%
%TO.C,C18*%
X133801100Y-124003600D03*
X135501100Y-124003600D03*
%TD*%
%TO.C,R2*%
X156800000Y-111203600D03*
X158500000Y-111203600D03*
%TD*%
%TO.C,R30*%
X165400000Y-112800000D03*
X163700000Y-112800000D03*
%TD*%
D22*
%TO.C,J1*%
X143701100Y-137603600D03*
D23*
X143701100Y-128203600D03*
D22*
X136301100Y-135603600D03*
%TD*%
D12*
%TO.C,R21*%
X124651100Y-125153600D03*
X122951100Y-125153600D03*
%TD*%
%TO.C,C29*%
X120501100Y-86103600D03*
X118801100Y-86103600D03*
%TD*%
%TO.C,C20*%
X121651100Y-115253600D03*
X119951100Y-115253600D03*
%TD*%
%TO.C,C32*%
X142351100Y-110503600D03*
X140651100Y-110503600D03*
%TD*%
%TO.C,R15*%
X124551100Y-78253600D03*
X122851100Y-78253600D03*
%TD*%
%TO.C,C23*%
X126951100Y-116053600D03*
X128651100Y-116053600D03*
%TD*%
%TO.C,R3*%
X158500000Y-109700000D03*
X156800000Y-109700000D03*
%TD*%
D13*
%TO.C,R9*%
X130751100Y-110903600D03*
X130751100Y-112603600D03*
%TD*%
M02*
