%TF.GenerationSoftware,KiCad,Pcbnew,10.0.3-10.0.3~ubuntu24.04.1*%
%TF.CreationDate,2026-06-14T11:51:18-07:00*%
%TF.ProjectId,Sound,536f756e-642e-46b6-9963-61645f706362,4*%
%TF.SameCoordinates,Original*%
%TF.FileFunction,Legend,Top*%
%TF.FilePolarity,Positive*%
%FSLAX46Y46*%
G04 Gerber Fmt 4.6, Leading zero omitted, Abs format (unit mm)*
G04 Created by KiCad (PCBNEW 10.0.3-10.0.3~ubuntu24.04.1) date 2026-06-14 11:51:18*
%MOMM*%
%LPD*%
G01*
G04 APERTURE LIST*
%ADD10C,0.100000*%
%ADD11C,0.152400*%
%ADD12C,0.040000*%
%ADD13C,0.150000*%
%ADD14C,0.093472*%
%ADD15C,0.093644*%
%ADD16C,0.203200*%
%ADD17C,0.127000*%
%ADD18C,0.200000*%
G04 APERTURE END LIST*
D10*
X117110157Y-107655639D02*
X117110157Y-107405639D01*
X117503014Y-107298496D02*
X117503014Y-107655639D01*
X117503014Y-107655639D02*
X116753014Y-107655639D01*
X116753014Y-107655639D02*
X116753014Y-107298496D01*
X117503014Y-106869925D02*
X117467300Y-106941354D01*
X117467300Y-106941354D02*
X117395871Y-106977068D01*
X117395871Y-106977068D02*
X116753014Y-106977068D01*
X117467300Y-106298497D02*
X117503014Y-106369925D01*
X117503014Y-106369925D02*
X117503014Y-106512783D01*
X117503014Y-106512783D02*
X117467300Y-106584211D01*
X117467300Y-106584211D02*
X117395871Y-106619925D01*
X117395871Y-106619925D02*
X117110157Y-106619925D01*
X117110157Y-106619925D02*
X117038728Y-106584211D01*
X117038728Y-106584211D02*
X117003014Y-106512783D01*
X117003014Y-106512783D02*
X117003014Y-106369925D01*
X117003014Y-106369925D02*
X117038728Y-106298497D01*
X117038728Y-106298497D02*
X117110157Y-106262783D01*
X117110157Y-106262783D02*
X117181585Y-106262783D01*
X117181585Y-106262783D02*
X117253014Y-106619925D01*
X117467300Y-105619926D02*
X117503014Y-105691354D01*
X117503014Y-105691354D02*
X117503014Y-105834211D01*
X117503014Y-105834211D02*
X117467300Y-105905640D01*
X117467300Y-105905640D02*
X117431585Y-105941354D01*
X117431585Y-105941354D02*
X117360157Y-105977068D01*
X117360157Y-105977068D02*
X117145871Y-105977068D01*
X117145871Y-105977068D02*
X117074442Y-105941354D01*
X117074442Y-105941354D02*
X117038728Y-105905640D01*
X117038728Y-105905640D02*
X117003014Y-105834211D01*
X117003014Y-105834211D02*
X117003014Y-105691354D01*
X117003014Y-105691354D02*
X117038728Y-105619926D01*
X117003014Y-105405640D02*
X117003014Y-105119926D01*
X116753014Y-105298497D02*
X117395871Y-105298497D01*
X117395871Y-105298497D02*
X117467300Y-105262783D01*
X117467300Y-105262783D02*
X117503014Y-105191354D01*
X117503014Y-105191354D02*
X117503014Y-105119926D01*
X117503014Y-104869926D02*
X117003014Y-104869926D01*
X117145871Y-104869926D02*
X117074442Y-104834212D01*
X117074442Y-104834212D02*
X117038728Y-104798498D01*
X117038728Y-104798498D02*
X117003014Y-104727069D01*
X117003014Y-104727069D02*
X117003014Y-104655640D01*
X117467300Y-104119926D02*
X117503014Y-104191354D01*
X117503014Y-104191354D02*
X117503014Y-104334212D01*
X117503014Y-104334212D02*
X117467300Y-104405640D01*
X117467300Y-104405640D02*
X117395871Y-104441354D01*
X117395871Y-104441354D02*
X117110157Y-104441354D01*
X117110157Y-104441354D02*
X117038728Y-104405640D01*
X117038728Y-104405640D02*
X117003014Y-104334212D01*
X117003014Y-104334212D02*
X117003014Y-104191354D01*
X117003014Y-104191354D02*
X117038728Y-104119926D01*
X117038728Y-104119926D02*
X117110157Y-104084212D01*
X117110157Y-104084212D02*
X117181585Y-104084212D01*
X117181585Y-104084212D02*
X117253014Y-104441354D01*
X117003014Y-103869926D02*
X117003014Y-103584212D01*
X116753014Y-103762783D02*
X117395871Y-103762783D01*
X117395871Y-103762783D02*
X117467300Y-103727069D01*
X117467300Y-103727069D02*
X117503014Y-103655640D01*
X117503014Y-103655640D02*
X117503014Y-103584212D01*
X117503014Y-102762783D02*
X116753014Y-102762783D01*
X116753014Y-102762783D02*
X117288728Y-102512783D01*
X117288728Y-102512783D02*
X116753014Y-102262783D01*
X116753014Y-102262783D02*
X117503014Y-102262783D01*
X117503014Y-101905640D02*
X117003014Y-101905640D01*
X116753014Y-101905640D02*
X116788728Y-101941354D01*
X116788728Y-101941354D02*
X116824442Y-101905640D01*
X116824442Y-101905640D02*
X116788728Y-101869926D01*
X116788728Y-101869926D02*
X116753014Y-101905640D01*
X116753014Y-101905640D02*
X116824442Y-101905640D01*
X117467300Y-101227069D02*
X117503014Y-101298497D01*
X117503014Y-101298497D02*
X117503014Y-101441354D01*
X117503014Y-101441354D02*
X117467300Y-101512783D01*
X117467300Y-101512783D02*
X117431585Y-101548497D01*
X117431585Y-101548497D02*
X117360157Y-101584211D01*
X117360157Y-101584211D02*
X117145871Y-101584211D01*
X117145871Y-101584211D02*
X117074442Y-101548497D01*
X117074442Y-101548497D02*
X117038728Y-101512783D01*
X117038728Y-101512783D02*
X117003014Y-101441354D01*
X117003014Y-101441354D02*
X117003014Y-101298497D01*
X117003014Y-101298497D02*
X117038728Y-101227069D01*
D11*
X114451100Y-100503600D02*
X118301100Y-100503600D01*
X118301100Y-108503600D01*
X114451100Y-108503600D01*
X114451100Y-100503600D01*
X120201100Y-100503600D02*
X118301100Y-100503600D01*
X120201100Y-108453600D02*
X120201100Y-100503600D01*
X120201100Y-108503600D02*
X118301100Y-108503600D01*
D10*
X117872931Y-82103014D02*
X117622931Y-81745871D01*
X117444360Y-82103014D02*
X117444360Y-81353014D01*
X117444360Y-81353014D02*
X117730074Y-81353014D01*
X117730074Y-81353014D02*
X117801503Y-81388728D01*
X117801503Y-81388728D02*
X117837217Y-81424442D01*
X117837217Y-81424442D02*
X117872931Y-81495871D01*
X117872931Y-81495871D02*
X117872931Y-81603014D01*
X117872931Y-81603014D02*
X117837217Y-81674442D01*
X117837217Y-81674442D02*
X117801503Y-81710157D01*
X117801503Y-81710157D02*
X117730074Y-81745871D01*
X117730074Y-81745871D02*
X117444360Y-81745871D01*
X118158646Y-82067300D02*
X118265789Y-82103014D01*
X118265789Y-82103014D02*
X118444360Y-82103014D01*
X118444360Y-82103014D02*
X118515789Y-82067300D01*
X118515789Y-82067300D02*
X118551503Y-82031585D01*
X118551503Y-82031585D02*
X118587217Y-81960157D01*
X118587217Y-81960157D02*
X118587217Y-81888728D01*
X118587217Y-81888728D02*
X118551503Y-81817300D01*
X118551503Y-81817300D02*
X118515789Y-81781585D01*
X118515789Y-81781585D02*
X118444360Y-81745871D01*
X118444360Y-81745871D02*
X118301503Y-81710157D01*
X118301503Y-81710157D02*
X118230074Y-81674442D01*
X118230074Y-81674442D02*
X118194360Y-81638728D01*
X118194360Y-81638728D02*
X118158646Y-81567300D01*
X118158646Y-81567300D02*
X118158646Y-81495871D01*
X118158646Y-81495871D02*
X118194360Y-81424442D01*
X118194360Y-81424442D02*
X118230074Y-81388728D01*
X118230074Y-81388728D02*
X118301503Y-81353014D01*
X118301503Y-81353014D02*
X118480074Y-81353014D01*
X118480074Y-81353014D02*
X118587217Y-81388728D01*
X118801503Y-81353014D02*
X119230075Y-81353014D01*
X119015789Y-82103014D02*
X119015789Y-81353014D01*
X117544360Y-84310157D02*
X117794360Y-84310157D01*
X117901503Y-84703014D02*
X117544360Y-84703014D01*
X117544360Y-84703014D02*
X117544360Y-83953014D01*
X117544360Y-83953014D02*
X117901503Y-83953014D01*
X118365788Y-83953014D02*
X118508645Y-83953014D01*
X118508645Y-83953014D02*
X118580074Y-83988728D01*
X118580074Y-83988728D02*
X118651502Y-84060157D01*
X118651502Y-84060157D02*
X118687217Y-84203014D01*
X118687217Y-84203014D02*
X118687217Y-84453014D01*
X118687217Y-84453014D02*
X118651502Y-84595871D01*
X118651502Y-84595871D02*
X118580074Y-84667300D01*
X118580074Y-84667300D02*
X118508645Y-84703014D01*
X118508645Y-84703014D02*
X118365788Y-84703014D01*
X118365788Y-84703014D02*
X118294360Y-84667300D01*
X118294360Y-84667300D02*
X118222931Y-84595871D01*
X118222931Y-84595871D02*
X118187217Y-84453014D01*
X118187217Y-84453014D02*
X118187217Y-84203014D01*
X118187217Y-84203014D02*
X118222931Y-84060157D01*
X118222931Y-84060157D02*
X118294360Y-83988728D01*
X118294360Y-83988728D02*
X118365788Y-83953014D01*
X119437216Y-84631585D02*
X119401502Y-84667300D01*
X119401502Y-84667300D02*
X119294359Y-84703014D01*
X119294359Y-84703014D02*
X119222931Y-84703014D01*
X119222931Y-84703014D02*
X119115788Y-84667300D01*
X119115788Y-84667300D02*
X119044359Y-84595871D01*
X119044359Y-84595871D02*
X119008645Y-84524442D01*
X119008645Y-84524442D02*
X118972931Y-84381585D01*
X118972931Y-84381585D02*
X118972931Y-84274442D01*
X118972931Y-84274442D02*
X119008645Y-84131585D01*
X119008645Y-84131585D02*
X119044359Y-84060157D01*
X119044359Y-84060157D02*
X119115788Y-83988728D01*
X119115788Y-83988728D02*
X119222931Y-83953014D01*
X119222931Y-83953014D02*
X119294359Y-83953014D01*
X119294359Y-83953014D02*
X119401502Y-83988728D01*
X119401502Y-83988728D02*
X119437216Y-84024442D01*
X123337217Y-74888728D02*
X123265789Y-74853014D01*
X123265789Y-74853014D02*
X123158646Y-74853014D01*
X123158646Y-74853014D02*
X123051503Y-74888728D01*
X123051503Y-74888728D02*
X122980074Y-74960157D01*
X122980074Y-74960157D02*
X122944360Y-75031585D01*
X122944360Y-75031585D02*
X122908646Y-75174442D01*
X122908646Y-75174442D02*
X122908646Y-75281585D01*
X122908646Y-75281585D02*
X122944360Y-75424442D01*
X122944360Y-75424442D02*
X122980074Y-75495871D01*
X122980074Y-75495871D02*
X123051503Y-75567300D01*
X123051503Y-75567300D02*
X123158646Y-75603014D01*
X123158646Y-75603014D02*
X123230074Y-75603014D01*
X123230074Y-75603014D02*
X123337217Y-75567300D01*
X123337217Y-75567300D02*
X123372931Y-75531585D01*
X123372931Y-75531585D02*
X123372931Y-75281585D01*
X123372931Y-75281585D02*
X123230074Y-75281585D01*
X123694360Y-75603014D02*
X123694360Y-74853014D01*
X123694360Y-74853014D02*
X124122931Y-75603014D01*
X124122931Y-75603014D02*
X124122931Y-74853014D01*
X124480074Y-75603014D02*
X124480074Y-74853014D01*
X124480074Y-74853014D02*
X124658645Y-74853014D01*
X124658645Y-74853014D02*
X124765788Y-74888728D01*
X124765788Y-74888728D02*
X124837217Y-74960157D01*
X124837217Y-74960157D02*
X124872931Y-75031585D01*
X124872931Y-75031585D02*
X124908645Y-75174442D01*
X124908645Y-75174442D02*
X124908645Y-75281585D01*
X124908645Y-75281585D02*
X124872931Y-75424442D01*
X124872931Y-75424442D02*
X124837217Y-75495871D01*
X124837217Y-75495871D02*
X124765788Y-75567300D01*
X124765788Y-75567300D02*
X124658645Y-75603014D01*
X124658645Y-75603014D02*
X124480074Y-75603014D01*
X125249244Y-74853014D02*
X125713530Y-74853014D01*
X125713530Y-74853014D02*
X125463530Y-75138728D01*
X125463530Y-75138728D02*
X125570673Y-75138728D01*
X125570673Y-75138728D02*
X125642102Y-75174442D01*
X125642102Y-75174442D02*
X125677816Y-75210157D01*
X125677816Y-75210157D02*
X125713530Y-75281585D01*
X125713530Y-75281585D02*
X125713530Y-75460157D01*
X125713530Y-75460157D02*
X125677816Y-75531585D01*
X125677816Y-75531585D02*
X125642102Y-75567300D01*
X125642102Y-75567300D02*
X125570673Y-75603014D01*
X125570673Y-75603014D02*
X125356387Y-75603014D01*
X125356387Y-75603014D02*
X125284959Y-75567300D01*
X125284959Y-75567300D02*
X125249244Y-75531585D01*
X126034959Y-75531585D02*
X126070673Y-75567300D01*
X126070673Y-75567300D02*
X126034959Y-75603014D01*
X126034959Y-75603014D02*
X125999245Y-75567300D01*
X125999245Y-75567300D02*
X126034959Y-75531585D01*
X126034959Y-75531585D02*
X126034959Y-75603014D01*
X126320673Y-74853014D02*
X126784959Y-74853014D01*
X126784959Y-74853014D02*
X126534959Y-75138728D01*
X126534959Y-75138728D02*
X126642102Y-75138728D01*
X126642102Y-75138728D02*
X126713531Y-75174442D01*
X126713531Y-75174442D02*
X126749245Y-75210157D01*
X126749245Y-75210157D02*
X126784959Y-75281585D01*
X126784959Y-75281585D02*
X126784959Y-75460157D01*
X126784959Y-75460157D02*
X126749245Y-75531585D01*
X126749245Y-75531585D02*
X126713531Y-75567300D01*
X126713531Y-75567300D02*
X126642102Y-75603014D01*
X126642102Y-75603014D02*
X126427816Y-75603014D01*
X126427816Y-75603014D02*
X126356388Y-75567300D01*
X126356388Y-75567300D02*
X126320673Y-75531585D01*
X126999245Y-74853014D02*
X127249245Y-75603014D01*
X127249245Y-75603014D02*
X127499245Y-74853014D01*
X127813652Y-75620900D02*
X127920795Y-75656614D01*
X127920795Y-75656614D02*
X128099366Y-75656614D01*
X128099366Y-75656614D02*
X128170795Y-75620900D01*
X128170795Y-75620900D02*
X128206509Y-75585185D01*
X128206509Y-75585185D02*
X128242223Y-75513757D01*
X128242223Y-75513757D02*
X128242223Y-75442328D01*
X128242223Y-75442328D02*
X128206509Y-75370900D01*
X128206509Y-75370900D02*
X128170795Y-75335185D01*
X128170795Y-75335185D02*
X128099366Y-75299471D01*
X128099366Y-75299471D02*
X127956509Y-75263757D01*
X127956509Y-75263757D02*
X127885080Y-75228042D01*
X127885080Y-75228042D02*
X127849366Y-75192328D01*
X127849366Y-75192328D02*
X127813652Y-75120900D01*
X127813652Y-75120900D02*
X127813652Y-75049471D01*
X127813652Y-75049471D02*
X127849366Y-74978042D01*
X127849366Y-74978042D02*
X127885080Y-74942328D01*
X127885080Y-74942328D02*
X127956509Y-74906614D01*
X127956509Y-74906614D02*
X128135080Y-74906614D01*
X128135080Y-74906614D02*
X128242223Y-74942328D01*
X128563652Y-75656614D02*
X128563652Y-74906614D01*
X128563652Y-74906614D02*
X128742223Y-74906614D01*
X128742223Y-74906614D02*
X128849366Y-74942328D01*
X128849366Y-74942328D02*
X128920795Y-75013757D01*
X128920795Y-75013757D02*
X128956509Y-75085185D01*
X128956509Y-75085185D02*
X128992223Y-75228042D01*
X128992223Y-75228042D02*
X128992223Y-75335185D01*
X128992223Y-75335185D02*
X128956509Y-75478042D01*
X128956509Y-75478042D02*
X128920795Y-75549471D01*
X128920795Y-75549471D02*
X128849366Y-75620900D01*
X128849366Y-75620900D02*
X128742223Y-75656614D01*
X128742223Y-75656614D02*
X128563652Y-75656614D01*
X129277938Y-75442328D02*
X129635081Y-75442328D01*
X129206509Y-75656614D02*
X129456509Y-74906614D01*
X129456509Y-74906614D02*
X129706509Y-75656614D01*
X129999489Y-75620900D02*
X130106632Y-75656614D01*
X130106632Y-75656614D02*
X130285203Y-75656614D01*
X130285203Y-75656614D02*
X130356632Y-75620900D01*
X130356632Y-75620900D02*
X130392346Y-75585185D01*
X130392346Y-75585185D02*
X130428060Y-75513757D01*
X130428060Y-75513757D02*
X130428060Y-75442328D01*
X130428060Y-75442328D02*
X130392346Y-75370900D01*
X130392346Y-75370900D02*
X130356632Y-75335185D01*
X130356632Y-75335185D02*
X130285203Y-75299471D01*
X130285203Y-75299471D02*
X130142346Y-75263757D01*
X130142346Y-75263757D02*
X130070917Y-75228042D01*
X130070917Y-75228042D02*
X130035203Y-75192328D01*
X130035203Y-75192328D02*
X129999489Y-75120900D01*
X129999489Y-75120900D02*
X129999489Y-75049471D01*
X129999489Y-75049471D02*
X130035203Y-74978042D01*
X130035203Y-74978042D02*
X130070917Y-74942328D01*
X130070917Y-74942328D02*
X130142346Y-74906614D01*
X130142346Y-74906614D02*
X130320917Y-74906614D01*
X130320917Y-74906614D02*
X130428060Y-74942328D01*
X131178060Y-75585185D02*
X131142346Y-75620900D01*
X131142346Y-75620900D02*
X131035203Y-75656614D01*
X131035203Y-75656614D02*
X130963775Y-75656614D01*
X130963775Y-75656614D02*
X130856632Y-75620900D01*
X130856632Y-75620900D02*
X130785203Y-75549471D01*
X130785203Y-75549471D02*
X130749489Y-75478042D01*
X130749489Y-75478042D02*
X130713775Y-75335185D01*
X130713775Y-75335185D02*
X130713775Y-75228042D01*
X130713775Y-75228042D02*
X130749489Y-75085185D01*
X130749489Y-75085185D02*
X130785203Y-75013757D01*
X130785203Y-75013757D02*
X130856632Y-74942328D01*
X130856632Y-74942328D02*
X130963775Y-74906614D01*
X130963775Y-74906614D02*
X131035203Y-74906614D01*
X131035203Y-74906614D02*
X131142346Y-74942328D01*
X131142346Y-74942328D02*
X131178060Y-74978042D01*
X131856632Y-75656614D02*
X131499489Y-75656614D01*
X131499489Y-75656614D02*
X131499489Y-74906614D01*
X130409746Y-131837412D02*
X130766889Y-131837412D01*
X130338317Y-132051698D02*
X130588317Y-131301698D01*
X130588317Y-131301698D02*
X130838317Y-132051698D01*
X131409746Y-131551698D02*
X131409746Y-132051698D01*
X131088317Y-131551698D02*
X131088317Y-131944555D01*
X131088317Y-131944555D02*
X131124031Y-132015984D01*
X131124031Y-132015984D02*
X131195460Y-132051698D01*
X131195460Y-132051698D02*
X131302603Y-132051698D01*
X131302603Y-132051698D02*
X131374031Y-132015984D01*
X131374031Y-132015984D02*
X131409746Y-131980269D01*
X132088317Y-132051698D02*
X132088317Y-131301698D01*
X132088317Y-132015984D02*
X132016888Y-132051698D01*
X132016888Y-132051698D02*
X131874031Y-132051698D01*
X131874031Y-132051698D02*
X131802602Y-132015984D01*
X131802602Y-132015984D02*
X131766888Y-131980269D01*
X131766888Y-131980269D02*
X131731174Y-131908841D01*
X131731174Y-131908841D02*
X131731174Y-131694555D01*
X131731174Y-131694555D02*
X131766888Y-131623126D01*
X131766888Y-131623126D02*
X131802602Y-131587412D01*
X131802602Y-131587412D02*
X131874031Y-131551698D01*
X131874031Y-131551698D02*
X132016888Y-131551698D01*
X132016888Y-131551698D02*
X132088317Y-131587412D01*
X132445459Y-132051698D02*
X132445459Y-131551698D01*
X132445459Y-131301698D02*
X132409745Y-131337412D01*
X132409745Y-131337412D02*
X132445459Y-131373126D01*
X132445459Y-131373126D02*
X132481173Y-131337412D01*
X132481173Y-131337412D02*
X132445459Y-131301698D01*
X132445459Y-131301698D02*
X132445459Y-131373126D01*
X132909745Y-132051698D02*
X132838316Y-132015984D01*
X132838316Y-132015984D02*
X132802602Y-131980269D01*
X132802602Y-131980269D02*
X132766888Y-131908841D01*
X132766888Y-131908841D02*
X132766888Y-131694555D01*
X132766888Y-131694555D02*
X132802602Y-131623126D01*
X132802602Y-131623126D02*
X132838316Y-131587412D01*
X132838316Y-131587412D02*
X132909745Y-131551698D01*
X132909745Y-131551698D02*
X133016888Y-131551698D01*
X133016888Y-131551698D02*
X133088316Y-131587412D01*
X133088316Y-131587412D02*
X133124031Y-131623126D01*
X133124031Y-131623126D02*
X133159745Y-131694555D01*
X133159745Y-131694555D02*
X133159745Y-131908841D01*
X133159745Y-131908841D02*
X133124031Y-131980269D01*
X133124031Y-131980269D02*
X133088316Y-132015984D01*
X133088316Y-132015984D02*
X133016888Y-132051698D01*
X133016888Y-132051698D02*
X132909745Y-132051698D01*
X130445460Y-133259156D02*
X130445460Y-132509156D01*
X130802603Y-132759156D02*
X130802603Y-133259156D01*
X130802603Y-132830584D02*
X130838317Y-132794870D01*
X130838317Y-132794870D02*
X130909746Y-132759156D01*
X130909746Y-132759156D02*
X131016889Y-132759156D01*
X131016889Y-132759156D02*
X131088317Y-132794870D01*
X131088317Y-132794870D02*
X131124032Y-132866299D01*
X131124032Y-132866299D02*
X131124032Y-133259156D01*
X132016888Y-132473442D02*
X131374031Y-133437727D01*
X132409745Y-132509156D02*
X132552602Y-132509156D01*
X132552602Y-132509156D02*
X132624031Y-132544870D01*
X132624031Y-132544870D02*
X132695459Y-132616299D01*
X132695459Y-132616299D02*
X132731174Y-132759156D01*
X132731174Y-132759156D02*
X132731174Y-133009156D01*
X132731174Y-133009156D02*
X132695459Y-133152013D01*
X132695459Y-133152013D02*
X132624031Y-133223442D01*
X132624031Y-133223442D02*
X132552602Y-133259156D01*
X132552602Y-133259156D02*
X132409745Y-133259156D01*
X132409745Y-133259156D02*
X132338317Y-133223442D01*
X132338317Y-133223442D02*
X132266888Y-133152013D01*
X132266888Y-133152013D02*
X132231174Y-133009156D01*
X132231174Y-133009156D02*
X132231174Y-132759156D01*
X132231174Y-132759156D02*
X132266888Y-132616299D01*
X132266888Y-132616299D02*
X132338317Y-132544870D01*
X132338317Y-132544870D02*
X132409745Y-132509156D01*
X133374031Y-132759156D02*
X133374031Y-133259156D01*
X133052602Y-132759156D02*
X133052602Y-133152013D01*
X133052602Y-133152013D02*
X133088316Y-133223442D01*
X133088316Y-133223442D02*
X133159745Y-133259156D01*
X133159745Y-133259156D02*
X133266888Y-133259156D01*
X133266888Y-133259156D02*
X133338316Y-133223442D01*
X133338316Y-133223442D02*
X133374031Y-133187727D01*
X133624030Y-132759156D02*
X133909744Y-132759156D01*
X133731173Y-132509156D02*
X133731173Y-133152013D01*
X133731173Y-133152013D02*
X133766887Y-133223442D01*
X133766887Y-133223442D02*
X133838316Y-133259156D01*
X133838316Y-133259156D02*
X133909744Y-133259156D01*
X130802603Y-134466614D02*
X130445460Y-134466614D01*
X130445460Y-134466614D02*
X130445460Y-133716614D01*
X131052603Y-134466614D02*
X131052603Y-133966614D01*
X131052603Y-133716614D02*
X131016889Y-133752328D01*
X131016889Y-133752328D02*
X131052603Y-133788042D01*
X131052603Y-133788042D02*
X131088317Y-133752328D01*
X131088317Y-133752328D02*
X131052603Y-133716614D01*
X131052603Y-133716614D02*
X131052603Y-133788042D01*
X131409746Y-133966614D02*
X131409746Y-134466614D01*
X131409746Y-134038042D02*
X131445460Y-134002328D01*
X131445460Y-134002328D02*
X131516889Y-133966614D01*
X131516889Y-133966614D02*
X131624032Y-133966614D01*
X131624032Y-133966614D02*
X131695460Y-134002328D01*
X131695460Y-134002328D02*
X131731175Y-134073757D01*
X131731175Y-134073757D02*
X131731175Y-134466614D01*
X132374031Y-134430900D02*
X132302603Y-134466614D01*
X132302603Y-134466614D02*
X132159746Y-134466614D01*
X132159746Y-134466614D02*
X132088317Y-134430900D01*
X132088317Y-134430900D02*
X132052603Y-134359471D01*
X132052603Y-134359471D02*
X132052603Y-134073757D01*
X132052603Y-134073757D02*
X132088317Y-134002328D01*
X132088317Y-134002328D02*
X132159746Y-133966614D01*
X132159746Y-133966614D02*
X132302603Y-133966614D01*
X132302603Y-133966614D02*
X132374031Y-134002328D01*
X132374031Y-134002328D02*
X132409746Y-134073757D01*
X132409746Y-134073757D02*
X132409746Y-134145185D01*
X132409746Y-134145185D02*
X132052603Y-134216614D01*
X133266889Y-133788042D02*
X133302603Y-133752328D01*
X133302603Y-133752328D02*
X133374032Y-133716614D01*
X133374032Y-133716614D02*
X133552603Y-133716614D01*
X133552603Y-133716614D02*
X133624032Y-133752328D01*
X133624032Y-133752328D02*
X133659746Y-133788042D01*
X133659746Y-133788042D02*
X133695460Y-133859471D01*
X133695460Y-133859471D02*
X133695460Y-133930900D01*
X133695460Y-133930900D02*
X133659746Y-134038042D01*
X133659746Y-134038042D02*
X133231174Y-134466614D01*
X133231174Y-134466614D02*
X133695460Y-134466614D01*
X132182944Y-75656614D02*
X132182944Y-74906614D01*
X132182944Y-74906614D02*
X132361515Y-74906614D01*
X132361515Y-74906614D02*
X132468658Y-74942328D01*
X132468658Y-74942328D02*
X132540087Y-75013757D01*
X132540087Y-75013757D02*
X132575801Y-75085185D01*
X132575801Y-75085185D02*
X132611515Y-75228042D01*
X132611515Y-75228042D02*
X132611515Y-75335185D01*
X132611515Y-75335185D02*
X132575801Y-75478042D01*
X132575801Y-75478042D02*
X132540087Y-75549471D01*
X132540087Y-75549471D02*
X132468658Y-75620900D01*
X132468658Y-75620900D02*
X132361515Y-75656614D01*
X132361515Y-75656614D02*
X132182944Y-75656614D01*
X133075801Y-74906614D02*
X133218658Y-74906614D01*
X133218658Y-74906614D02*
X133290087Y-74942328D01*
X133290087Y-74942328D02*
X133361515Y-75013757D01*
X133361515Y-75013757D02*
X133397230Y-75156614D01*
X133397230Y-75156614D02*
X133397230Y-75406614D01*
X133397230Y-75406614D02*
X133361515Y-75549471D01*
X133361515Y-75549471D02*
X133290087Y-75620900D01*
X133290087Y-75620900D02*
X133218658Y-75656614D01*
X133218658Y-75656614D02*
X133075801Y-75656614D01*
X133075801Y-75656614D02*
X133004373Y-75620900D01*
X133004373Y-75620900D02*
X132932944Y-75549471D01*
X132932944Y-75549471D02*
X132897230Y-75406614D01*
X132897230Y-75406614D02*
X132897230Y-75156614D01*
X132897230Y-75156614D02*
X132932944Y-75013757D01*
X132932944Y-75013757D02*
X133004373Y-74942328D01*
X133004373Y-74942328D02*
X133075801Y-74906614D01*
X133718658Y-74906614D02*
X133718658Y-75513757D01*
X133718658Y-75513757D02*
X133754372Y-75585185D01*
X133754372Y-75585185D02*
X133790087Y-75620900D01*
X133790087Y-75620900D02*
X133861515Y-75656614D01*
X133861515Y-75656614D02*
X134004372Y-75656614D01*
X134004372Y-75656614D02*
X134075801Y-75620900D01*
X134075801Y-75620900D02*
X134111515Y-75585185D01*
X134111515Y-75585185D02*
X134147229Y-75513757D01*
X134147229Y-75513757D02*
X134147229Y-74906614D01*
X134397229Y-74906614D02*
X134825801Y-74906614D01*
X134611515Y-75656614D02*
X134611515Y-74906614D01*
X135564019Y-75656614D02*
X135206876Y-75656614D01*
X135206876Y-75656614D02*
X135206876Y-74906614D01*
X136242590Y-75656614D02*
X135992590Y-75299471D01*
X135814019Y-75656614D02*
X135814019Y-74906614D01*
X135814019Y-74906614D02*
X136099733Y-74906614D01*
X136099733Y-74906614D02*
X136171162Y-74942328D01*
X136171162Y-74942328D02*
X136206876Y-74978042D01*
X136206876Y-74978042D02*
X136242590Y-75049471D01*
X136242590Y-75049471D02*
X136242590Y-75156614D01*
X136242590Y-75156614D02*
X136206876Y-75228042D01*
X136206876Y-75228042D02*
X136171162Y-75263757D01*
X136171162Y-75263757D02*
X136099733Y-75299471D01*
X136099733Y-75299471D02*
X135814019Y-75299471D01*
X136992590Y-75585185D02*
X136956876Y-75620900D01*
X136956876Y-75620900D02*
X136849733Y-75656614D01*
X136849733Y-75656614D02*
X136778305Y-75656614D01*
X136778305Y-75656614D02*
X136671162Y-75620900D01*
X136671162Y-75620900D02*
X136599733Y-75549471D01*
X136599733Y-75549471D02*
X136564019Y-75478042D01*
X136564019Y-75478042D02*
X136528305Y-75335185D01*
X136528305Y-75335185D02*
X136528305Y-75228042D01*
X136528305Y-75228042D02*
X136564019Y-75085185D01*
X136564019Y-75085185D02*
X136599733Y-75013757D01*
X136599733Y-75013757D02*
X136671162Y-74942328D01*
X136671162Y-74942328D02*
X136778305Y-74906614D01*
X136778305Y-74906614D02*
X136849733Y-74906614D01*
X136849733Y-74906614D02*
X136956876Y-74942328D01*
X136956876Y-74942328D02*
X136992590Y-74978042D01*
X137671162Y-75656614D02*
X137314019Y-75656614D01*
X137314019Y-75656614D02*
X137314019Y-74906614D01*
X137921162Y-75656614D02*
X137921162Y-74906614D01*
X138349733Y-75656614D02*
X138028305Y-75228042D01*
X138349733Y-74906614D02*
X137921162Y-75335185D01*
X138840331Y-75656614D02*
X138840331Y-74906614D01*
X138840331Y-74906614D02*
X139018902Y-74906614D01*
X139018902Y-74906614D02*
X139126045Y-74942328D01*
X139126045Y-74942328D02*
X139197474Y-75013757D01*
X139197474Y-75013757D02*
X139233188Y-75085185D01*
X139233188Y-75085185D02*
X139268902Y-75228042D01*
X139268902Y-75228042D02*
X139268902Y-75335185D01*
X139268902Y-75335185D02*
X139233188Y-75478042D01*
X139233188Y-75478042D02*
X139197474Y-75549471D01*
X139197474Y-75549471D02*
X139126045Y-75620900D01*
X139126045Y-75620900D02*
X139018902Y-75656614D01*
X139018902Y-75656614D02*
X138840331Y-75656614D01*
X139590331Y-75656614D02*
X139590331Y-74906614D01*
X139947474Y-75656614D02*
X139947474Y-74906614D01*
X139947474Y-74906614D02*
X140376045Y-75656614D01*
X140376045Y-75656614D02*
X140376045Y-74906614D01*
X140761882Y-75620900D02*
X140869025Y-75656614D01*
X140869025Y-75656614D02*
X141047596Y-75656614D01*
X141047596Y-75656614D02*
X141119025Y-75620900D01*
X141119025Y-75620900D02*
X141154739Y-75585185D01*
X141154739Y-75585185D02*
X141190453Y-75513757D01*
X141190453Y-75513757D02*
X141190453Y-75442328D01*
X141190453Y-75442328D02*
X141154739Y-75370900D01*
X141154739Y-75370900D02*
X141119025Y-75335185D01*
X141119025Y-75335185D02*
X141047596Y-75299471D01*
X141047596Y-75299471D02*
X140904739Y-75263757D01*
X140904739Y-75263757D02*
X140833310Y-75228042D01*
X140833310Y-75228042D02*
X140797596Y-75192328D01*
X140797596Y-75192328D02*
X140761882Y-75120900D01*
X140761882Y-75120900D02*
X140761882Y-75049471D01*
X140761882Y-75049471D02*
X140797596Y-74978042D01*
X140797596Y-74978042D02*
X140833310Y-74942328D01*
X140833310Y-74942328D02*
X140904739Y-74906614D01*
X140904739Y-74906614D02*
X141083310Y-74906614D01*
X141083310Y-74906614D02*
X141190453Y-74942328D01*
X141940453Y-75585185D02*
X141904739Y-75620900D01*
X141904739Y-75620900D02*
X141797596Y-75656614D01*
X141797596Y-75656614D02*
X141726168Y-75656614D01*
X141726168Y-75656614D02*
X141619025Y-75620900D01*
X141619025Y-75620900D02*
X141547596Y-75549471D01*
X141547596Y-75549471D02*
X141511882Y-75478042D01*
X141511882Y-75478042D02*
X141476168Y-75335185D01*
X141476168Y-75335185D02*
X141476168Y-75228042D01*
X141476168Y-75228042D02*
X141511882Y-75085185D01*
X141511882Y-75085185D02*
X141547596Y-75013757D01*
X141547596Y-75013757D02*
X141619025Y-74942328D01*
X141619025Y-74942328D02*
X141726168Y-74906614D01*
X141726168Y-74906614D02*
X141797596Y-74906614D01*
X141797596Y-74906614D02*
X141904739Y-74942328D01*
X141904739Y-74942328D02*
X141940453Y-74978042D01*
X142619025Y-75656614D02*
X142261882Y-75656614D01*
X142261882Y-75656614D02*
X142261882Y-74906614D01*
X142869025Y-75656614D02*
X142869025Y-74906614D01*
X143297596Y-75656614D02*
X142976168Y-75228042D01*
X143297596Y-74906614D02*
X142869025Y-75335185D01*
X143745337Y-75656614D02*
X143745337Y-74906614D01*
X143745337Y-74906614D02*
X143995337Y-75442328D01*
X143995337Y-75442328D02*
X144245337Y-74906614D01*
X144245337Y-74906614D02*
X144245337Y-75656614D01*
X145031051Y-75585185D02*
X144995337Y-75620900D01*
X144995337Y-75620900D02*
X144888194Y-75656614D01*
X144888194Y-75656614D02*
X144816766Y-75656614D01*
X144816766Y-75656614D02*
X144709623Y-75620900D01*
X144709623Y-75620900D02*
X144638194Y-75549471D01*
X144638194Y-75549471D02*
X144602480Y-75478042D01*
X144602480Y-75478042D02*
X144566766Y-75335185D01*
X144566766Y-75335185D02*
X144566766Y-75228042D01*
X144566766Y-75228042D02*
X144602480Y-75085185D01*
X144602480Y-75085185D02*
X144638194Y-75013757D01*
X144638194Y-75013757D02*
X144709623Y-74942328D01*
X144709623Y-74942328D02*
X144816766Y-74906614D01*
X144816766Y-74906614D02*
X144888194Y-74906614D01*
X144888194Y-74906614D02*
X144995337Y-74942328D01*
X144995337Y-74942328D02*
X145031051Y-74978042D01*
X145709623Y-75656614D02*
X145352480Y-75656614D01*
X145352480Y-75656614D02*
X145352480Y-74906614D01*
X145959623Y-75656614D02*
X145959623Y-74906614D01*
X146388194Y-75656614D02*
X146066766Y-75228042D01*
X146388194Y-74906614D02*
X145959623Y-75335185D01*
X144109746Y-133184870D02*
X144466889Y-133184870D01*
X144038317Y-133399156D02*
X144288317Y-132649156D01*
X144288317Y-132649156D02*
X144538317Y-133399156D01*
X145109746Y-132899156D02*
X145109746Y-133399156D01*
X144788317Y-132899156D02*
X144788317Y-133292013D01*
X144788317Y-133292013D02*
X144824031Y-133363442D01*
X144824031Y-133363442D02*
X144895460Y-133399156D01*
X144895460Y-133399156D02*
X145002603Y-133399156D01*
X145002603Y-133399156D02*
X145074031Y-133363442D01*
X145074031Y-133363442D02*
X145109746Y-133327727D01*
X145788317Y-133399156D02*
X145788317Y-132649156D01*
X145788317Y-133363442D02*
X145716888Y-133399156D01*
X145716888Y-133399156D02*
X145574031Y-133399156D01*
X145574031Y-133399156D02*
X145502602Y-133363442D01*
X145502602Y-133363442D02*
X145466888Y-133327727D01*
X145466888Y-133327727D02*
X145431174Y-133256299D01*
X145431174Y-133256299D02*
X145431174Y-133042013D01*
X145431174Y-133042013D02*
X145466888Y-132970584D01*
X145466888Y-132970584D02*
X145502602Y-132934870D01*
X145502602Y-132934870D02*
X145574031Y-132899156D01*
X145574031Y-132899156D02*
X145716888Y-132899156D01*
X145716888Y-132899156D02*
X145788317Y-132934870D01*
X146145459Y-133399156D02*
X146145459Y-132899156D01*
X146145459Y-132649156D02*
X146109745Y-132684870D01*
X146109745Y-132684870D02*
X146145459Y-132720584D01*
X146145459Y-132720584D02*
X146181173Y-132684870D01*
X146181173Y-132684870D02*
X146145459Y-132649156D01*
X146145459Y-132649156D02*
X146145459Y-132720584D01*
X146609745Y-133399156D02*
X146538316Y-133363442D01*
X146538316Y-133363442D02*
X146502602Y-133327727D01*
X146502602Y-133327727D02*
X146466888Y-133256299D01*
X146466888Y-133256299D02*
X146466888Y-133042013D01*
X146466888Y-133042013D02*
X146502602Y-132970584D01*
X146502602Y-132970584D02*
X146538316Y-132934870D01*
X146538316Y-132934870D02*
X146609745Y-132899156D01*
X146609745Y-132899156D02*
X146716888Y-132899156D01*
X146716888Y-132899156D02*
X146788316Y-132934870D01*
X146788316Y-132934870D02*
X146824031Y-132970584D01*
X146824031Y-132970584D02*
X146859745Y-133042013D01*
X146859745Y-133042013D02*
X146859745Y-133256299D01*
X146859745Y-133256299D02*
X146824031Y-133327727D01*
X146824031Y-133327727D02*
X146788316Y-133363442D01*
X146788316Y-133363442D02*
X146716888Y-133399156D01*
X146716888Y-133399156D02*
X146609745Y-133399156D01*
X147895459Y-132649156D02*
X148038316Y-132649156D01*
X148038316Y-132649156D02*
X148109745Y-132684870D01*
X148109745Y-132684870D02*
X148181173Y-132756299D01*
X148181173Y-132756299D02*
X148216888Y-132899156D01*
X148216888Y-132899156D02*
X148216888Y-133149156D01*
X148216888Y-133149156D02*
X148181173Y-133292013D01*
X148181173Y-133292013D02*
X148109745Y-133363442D01*
X148109745Y-133363442D02*
X148038316Y-133399156D01*
X148038316Y-133399156D02*
X147895459Y-133399156D01*
X147895459Y-133399156D02*
X147824031Y-133363442D01*
X147824031Y-133363442D02*
X147752602Y-133292013D01*
X147752602Y-133292013D02*
X147716888Y-133149156D01*
X147716888Y-133149156D02*
X147716888Y-132899156D01*
X147716888Y-132899156D02*
X147752602Y-132756299D01*
X147752602Y-132756299D02*
X147824031Y-132684870D01*
X147824031Y-132684870D02*
X147895459Y-132649156D01*
X148859745Y-132899156D02*
X148859745Y-133399156D01*
X148538316Y-132899156D02*
X148538316Y-133292013D01*
X148538316Y-133292013D02*
X148574030Y-133363442D01*
X148574030Y-133363442D02*
X148645459Y-133399156D01*
X148645459Y-133399156D02*
X148752602Y-133399156D01*
X148752602Y-133399156D02*
X148824030Y-133363442D01*
X148824030Y-133363442D02*
X148859745Y-133327727D01*
X149109744Y-132899156D02*
X149395458Y-132899156D01*
X149216887Y-132649156D02*
X149216887Y-133292013D01*
X149216887Y-133292013D02*
X149252601Y-133363442D01*
X149252601Y-133363442D02*
X149324030Y-133399156D01*
X149324030Y-133399156D02*
X149395458Y-133399156D01*
X144502603Y-134606614D02*
X144145460Y-134606614D01*
X144145460Y-134606614D02*
X144145460Y-133856614D01*
X144752603Y-134606614D02*
X144752603Y-134106614D01*
X144752603Y-133856614D02*
X144716889Y-133892328D01*
X144716889Y-133892328D02*
X144752603Y-133928042D01*
X144752603Y-133928042D02*
X144788317Y-133892328D01*
X144788317Y-133892328D02*
X144752603Y-133856614D01*
X144752603Y-133856614D02*
X144752603Y-133928042D01*
X145109746Y-134106614D02*
X145109746Y-134606614D01*
X145109746Y-134178042D02*
X145145460Y-134142328D01*
X145145460Y-134142328D02*
X145216889Y-134106614D01*
X145216889Y-134106614D02*
X145324032Y-134106614D01*
X145324032Y-134106614D02*
X145395460Y-134142328D01*
X145395460Y-134142328D02*
X145431175Y-134213757D01*
X145431175Y-134213757D02*
X145431175Y-134606614D01*
X146074031Y-134570900D02*
X146002603Y-134606614D01*
X146002603Y-134606614D02*
X145859746Y-134606614D01*
X145859746Y-134606614D02*
X145788317Y-134570900D01*
X145788317Y-134570900D02*
X145752603Y-134499471D01*
X145752603Y-134499471D02*
X145752603Y-134213757D01*
X145752603Y-134213757D02*
X145788317Y-134142328D01*
X145788317Y-134142328D02*
X145859746Y-134106614D01*
X145859746Y-134106614D02*
X146002603Y-134106614D01*
X146002603Y-134106614D02*
X146074031Y-134142328D01*
X146074031Y-134142328D02*
X146109746Y-134213757D01*
X146109746Y-134213757D02*
X146109746Y-134285185D01*
X146109746Y-134285185D02*
X145752603Y-134356614D01*
X147395460Y-134606614D02*
X146966889Y-134606614D01*
X147181174Y-134606614D02*
X147181174Y-133856614D01*
X147181174Y-133856614D02*
X147109746Y-133963757D01*
X147109746Y-133963757D02*
X147038317Y-134035185D01*
X147038317Y-134035185D02*
X146966889Y-134070900D01*
X146774031Y-74906614D02*
X147238317Y-74906614D01*
X147238317Y-74906614D02*
X146988317Y-75192328D01*
X146988317Y-75192328D02*
X147095460Y-75192328D01*
X147095460Y-75192328D02*
X147166889Y-75228042D01*
X147166889Y-75228042D02*
X147202603Y-75263757D01*
X147202603Y-75263757D02*
X147238317Y-75335185D01*
X147238317Y-75335185D02*
X147238317Y-75513757D01*
X147238317Y-75513757D02*
X147202603Y-75585185D01*
X147202603Y-75585185D02*
X147166889Y-75620900D01*
X147166889Y-75620900D02*
X147095460Y-75656614D01*
X147095460Y-75656614D02*
X146881174Y-75656614D01*
X146881174Y-75656614D02*
X146809746Y-75620900D01*
X146809746Y-75620900D02*
X146774031Y-75585185D01*
X147559746Y-75585185D02*
X147595460Y-75620900D01*
X147595460Y-75620900D02*
X147559746Y-75656614D01*
X147559746Y-75656614D02*
X147524032Y-75620900D01*
X147524032Y-75620900D02*
X147559746Y-75585185D01*
X147559746Y-75585185D02*
X147559746Y-75656614D01*
X147845460Y-74906614D02*
X148309746Y-74906614D01*
X148309746Y-74906614D02*
X148059746Y-75192328D01*
X148059746Y-75192328D02*
X148166889Y-75192328D01*
X148166889Y-75192328D02*
X148238318Y-75228042D01*
X148238318Y-75228042D02*
X148274032Y-75263757D01*
X148274032Y-75263757D02*
X148309746Y-75335185D01*
X148309746Y-75335185D02*
X148309746Y-75513757D01*
X148309746Y-75513757D02*
X148274032Y-75585185D01*
X148274032Y-75585185D02*
X148238318Y-75620900D01*
X148238318Y-75620900D02*
X148166889Y-75656614D01*
X148166889Y-75656614D02*
X147952603Y-75656614D01*
X147952603Y-75656614D02*
X147881175Y-75620900D01*
X147881175Y-75620900D02*
X147845460Y-75585185D01*
X148524032Y-74906614D02*
X148774032Y-75656614D01*
X148774032Y-75656614D02*
X149024032Y-74906614D01*
X167144360Y-116603014D02*
X167144360Y-115853014D01*
X167144360Y-115853014D02*
X167394360Y-116388728D01*
X167394360Y-116388728D02*
X167644360Y-115853014D01*
X167644360Y-115853014D02*
X167644360Y-116603014D01*
X168001503Y-116603014D02*
X168001503Y-115853014D01*
X168787217Y-116531585D02*
X168751503Y-116567300D01*
X168751503Y-116567300D02*
X168644360Y-116603014D01*
X168644360Y-116603014D02*
X168572932Y-116603014D01*
X168572932Y-116603014D02*
X168465789Y-116567300D01*
X168465789Y-116567300D02*
X168394360Y-116495871D01*
X168394360Y-116495871D02*
X168358646Y-116424442D01*
X168358646Y-116424442D02*
X168322932Y-116281585D01*
X168322932Y-116281585D02*
X168322932Y-116174442D01*
X168322932Y-116174442D02*
X168358646Y-116031585D01*
X168358646Y-116031585D02*
X168394360Y-115960157D01*
X168394360Y-115960157D02*
X168465789Y-115888728D01*
X168465789Y-115888728D02*
X168572932Y-115853014D01*
X168572932Y-115853014D02*
X168644360Y-115853014D01*
X168644360Y-115853014D02*
X168751503Y-115888728D01*
X168751503Y-115888728D02*
X168787217Y-115924442D01*
X169108646Y-116317300D02*
X169680075Y-116317300D01*
X170394360Y-116603014D02*
X170037217Y-116603014D01*
X170037217Y-116603014D02*
X170037217Y-115853014D01*
X167144360Y-122703014D02*
X167144360Y-121953014D01*
X167144360Y-121953014D02*
X167394360Y-122488728D01*
X167394360Y-122488728D02*
X167644360Y-121953014D01*
X167644360Y-121953014D02*
X167644360Y-122703014D01*
X168001503Y-122703014D02*
X168001503Y-121953014D01*
X168787217Y-122631585D02*
X168751503Y-122667300D01*
X168751503Y-122667300D02*
X168644360Y-122703014D01*
X168644360Y-122703014D02*
X168572932Y-122703014D01*
X168572932Y-122703014D02*
X168465789Y-122667300D01*
X168465789Y-122667300D02*
X168394360Y-122595871D01*
X168394360Y-122595871D02*
X168358646Y-122524442D01*
X168358646Y-122524442D02*
X168322932Y-122381585D01*
X168322932Y-122381585D02*
X168322932Y-122274442D01*
X168322932Y-122274442D02*
X168358646Y-122131585D01*
X168358646Y-122131585D02*
X168394360Y-122060157D01*
X168394360Y-122060157D02*
X168465789Y-121988728D01*
X168465789Y-121988728D02*
X168572932Y-121953014D01*
X168572932Y-121953014D02*
X168644360Y-121953014D01*
X168644360Y-121953014D02*
X168751503Y-121988728D01*
X168751503Y-121988728D02*
X168787217Y-122024442D01*
X169108646Y-122417300D02*
X169680075Y-122417300D01*
X170465788Y-122703014D02*
X170215788Y-122345871D01*
X170037217Y-122703014D02*
X170037217Y-121953014D01*
X170037217Y-121953014D02*
X170322931Y-121953014D01*
X170322931Y-121953014D02*
X170394360Y-121988728D01*
X170394360Y-121988728D02*
X170430074Y-122024442D01*
X170430074Y-122024442D02*
X170465788Y-122095871D01*
X170465788Y-122095871D02*
X170465788Y-122203014D01*
X170465788Y-122203014D02*
X170430074Y-122274442D01*
X170430074Y-122274442D02*
X170394360Y-122310157D01*
X170394360Y-122310157D02*
X170322931Y-122345871D01*
X170322931Y-122345871D02*
X170037217Y-122345871D01*
X171437217Y-121988728D02*
X171365789Y-121953014D01*
X171365789Y-121953014D02*
X171258646Y-121953014D01*
X171258646Y-121953014D02*
X171151503Y-121988728D01*
X171151503Y-121988728D02*
X171080074Y-122060157D01*
X171080074Y-122060157D02*
X171044360Y-122131585D01*
X171044360Y-122131585D02*
X171008646Y-122274442D01*
X171008646Y-122274442D02*
X171008646Y-122381585D01*
X171008646Y-122381585D02*
X171044360Y-122524442D01*
X171044360Y-122524442D02*
X171080074Y-122595871D01*
X171080074Y-122595871D02*
X171151503Y-122667300D01*
X171151503Y-122667300D02*
X171258646Y-122703014D01*
X171258646Y-122703014D02*
X171330074Y-122703014D01*
X171330074Y-122703014D02*
X171437217Y-122667300D01*
X171437217Y-122667300D02*
X171472931Y-122631585D01*
X171472931Y-122631585D02*
X171472931Y-122381585D01*
X171472931Y-122381585D02*
X171330074Y-122381585D01*
X171794360Y-122703014D02*
X171794360Y-121953014D01*
X171794360Y-121953014D02*
X172222931Y-122703014D01*
X172222931Y-122703014D02*
X172222931Y-121953014D01*
X172580074Y-122703014D02*
X172580074Y-121953014D01*
X172580074Y-121953014D02*
X172758645Y-121953014D01*
X172758645Y-121953014D02*
X172865788Y-121988728D01*
X172865788Y-121988728D02*
X172937217Y-122060157D01*
X172937217Y-122060157D02*
X172972931Y-122131585D01*
X172972931Y-122131585D02*
X173008645Y-122274442D01*
X173008645Y-122274442D02*
X173008645Y-122381585D01*
X173008645Y-122381585D02*
X172972931Y-122524442D01*
X172972931Y-122524442D02*
X172937217Y-122595871D01*
X172937217Y-122595871D02*
X172865788Y-122667300D01*
X172865788Y-122667300D02*
X172758645Y-122703014D01*
X172758645Y-122703014D02*
X172580074Y-122703014D01*
X171537217Y-115888728D02*
X171465789Y-115853014D01*
X171465789Y-115853014D02*
X171358646Y-115853014D01*
X171358646Y-115853014D02*
X171251503Y-115888728D01*
X171251503Y-115888728D02*
X171180074Y-115960157D01*
X171180074Y-115960157D02*
X171144360Y-116031585D01*
X171144360Y-116031585D02*
X171108646Y-116174442D01*
X171108646Y-116174442D02*
X171108646Y-116281585D01*
X171108646Y-116281585D02*
X171144360Y-116424442D01*
X171144360Y-116424442D02*
X171180074Y-116495871D01*
X171180074Y-116495871D02*
X171251503Y-116567300D01*
X171251503Y-116567300D02*
X171358646Y-116603014D01*
X171358646Y-116603014D02*
X171430074Y-116603014D01*
X171430074Y-116603014D02*
X171537217Y-116567300D01*
X171537217Y-116567300D02*
X171572931Y-116531585D01*
X171572931Y-116531585D02*
X171572931Y-116281585D01*
X171572931Y-116281585D02*
X171430074Y-116281585D01*
X171894360Y-116603014D02*
X171894360Y-115853014D01*
X171894360Y-115853014D02*
X172322931Y-116603014D01*
X172322931Y-116603014D02*
X172322931Y-115853014D01*
X172680074Y-116603014D02*
X172680074Y-115853014D01*
X172680074Y-115853014D02*
X172858645Y-115853014D01*
X172858645Y-115853014D02*
X172965788Y-115888728D01*
X172965788Y-115888728D02*
X173037217Y-115960157D01*
X173037217Y-115960157D02*
X173072931Y-116031585D01*
X173072931Y-116031585D02*
X173108645Y-116174442D01*
X173108645Y-116174442D02*
X173108645Y-116281585D01*
X173108645Y-116281585D02*
X173072931Y-116424442D01*
X173072931Y-116424442D02*
X173037217Y-116495871D01*
X173037217Y-116495871D02*
X172965788Y-116567300D01*
X172965788Y-116567300D02*
X172858645Y-116603014D01*
X172858645Y-116603014D02*
X172680074Y-116603014D01*
X115104114Y-107709239D02*
X115711257Y-107709239D01*
X115711257Y-107709239D02*
X115782685Y-107673525D01*
X115782685Y-107673525D02*
X115818400Y-107637811D01*
X115818400Y-107637811D02*
X115854114Y-107566382D01*
X115854114Y-107566382D02*
X115854114Y-107423525D01*
X115854114Y-107423525D02*
X115818400Y-107352096D01*
X115818400Y-107352096D02*
X115782685Y-107316382D01*
X115782685Y-107316382D02*
X115711257Y-107280668D01*
X115711257Y-107280668D02*
X115104114Y-107280668D01*
X115354114Y-107030668D02*
X115354114Y-106744954D01*
X115104114Y-106923525D02*
X115746971Y-106923525D01*
X115746971Y-106923525D02*
X115818400Y-106887811D01*
X115818400Y-106887811D02*
X115854114Y-106816382D01*
X115854114Y-106816382D02*
X115854114Y-106744954D01*
X115354114Y-106566383D02*
X115354114Y-106173526D01*
X115354114Y-106173526D02*
X115854114Y-106566383D01*
X115854114Y-106566383D02*
X115854114Y-106173526D01*
X115854114Y-105887811D02*
X115354114Y-105887811D01*
X115104114Y-105887811D02*
X115139828Y-105923525D01*
X115139828Y-105923525D02*
X115175542Y-105887811D01*
X115175542Y-105887811D02*
X115139828Y-105852097D01*
X115139828Y-105852097D02*
X115104114Y-105887811D01*
X115104114Y-105887811D02*
X115175542Y-105887811D01*
X115354114Y-105530668D02*
X115854114Y-105530668D01*
X115425542Y-105530668D02*
X115389828Y-105494954D01*
X115389828Y-105494954D02*
X115354114Y-105423525D01*
X115354114Y-105423525D02*
X115354114Y-105316382D01*
X115354114Y-105316382D02*
X115389828Y-105244954D01*
X115389828Y-105244954D02*
X115461257Y-105209240D01*
X115461257Y-105209240D02*
X115854114Y-105209240D01*
X115354114Y-104530669D02*
X115961257Y-104530669D01*
X115961257Y-104530669D02*
X116032685Y-104566383D01*
X116032685Y-104566383D02*
X116068400Y-104602097D01*
X116068400Y-104602097D02*
X116104114Y-104673526D01*
X116104114Y-104673526D02*
X116104114Y-104780669D01*
X116104114Y-104780669D02*
X116068400Y-104852097D01*
X115818400Y-104530669D02*
X115854114Y-104602097D01*
X115854114Y-104602097D02*
X115854114Y-104744954D01*
X115854114Y-104744954D02*
X115818400Y-104816383D01*
X115818400Y-104816383D02*
X115782685Y-104852097D01*
X115782685Y-104852097D02*
X115711257Y-104887811D01*
X115711257Y-104887811D02*
X115496971Y-104887811D01*
X115496971Y-104887811D02*
X115425542Y-104852097D01*
X115425542Y-104852097D02*
X115389828Y-104816383D01*
X115389828Y-104816383D02*
X115354114Y-104744954D01*
X115354114Y-104744954D02*
X115354114Y-104602097D01*
X115354114Y-104602097D02*
X115389828Y-104530669D01*
X115818400Y-103887812D02*
X115854114Y-103959240D01*
X115854114Y-103959240D02*
X115854114Y-104102098D01*
X115854114Y-104102098D02*
X115818400Y-104173526D01*
X115818400Y-104173526D02*
X115746971Y-104209240D01*
X115746971Y-104209240D02*
X115461257Y-104209240D01*
X115461257Y-104209240D02*
X115389828Y-104173526D01*
X115389828Y-104173526D02*
X115354114Y-104102098D01*
X115354114Y-104102098D02*
X115354114Y-103959240D01*
X115354114Y-103959240D02*
X115389828Y-103887812D01*
X115389828Y-103887812D02*
X115461257Y-103852098D01*
X115461257Y-103852098D02*
X115532685Y-103852098D01*
X115532685Y-103852098D02*
X115604114Y-104209240D01*
X115854114Y-103530669D02*
X115354114Y-103530669D01*
X115496971Y-103530669D02*
X115425542Y-103494955D01*
X115425542Y-103494955D02*
X115389828Y-103459241D01*
X115389828Y-103459241D02*
X115354114Y-103387812D01*
X115354114Y-103387812D02*
X115354114Y-103316383D01*
X116660942Y-131044953D02*
X116696656Y-130937811D01*
X116696656Y-130937811D02*
X116696656Y-130759239D01*
X116696656Y-130759239D02*
X116660942Y-130687811D01*
X116660942Y-130687811D02*
X116625227Y-130652096D01*
X116625227Y-130652096D02*
X116553799Y-130616382D01*
X116553799Y-130616382D02*
X116482370Y-130616382D01*
X116482370Y-130616382D02*
X116410942Y-130652096D01*
X116410942Y-130652096D02*
X116375227Y-130687811D01*
X116375227Y-130687811D02*
X116339513Y-130759239D01*
X116339513Y-130759239D02*
X116303799Y-130902096D01*
X116303799Y-130902096D02*
X116268084Y-130973525D01*
X116268084Y-130973525D02*
X116232370Y-131009239D01*
X116232370Y-131009239D02*
X116160942Y-131044953D01*
X116160942Y-131044953D02*
X116089513Y-131044953D01*
X116089513Y-131044953D02*
X116018084Y-131009239D01*
X116018084Y-131009239D02*
X115982370Y-130973525D01*
X115982370Y-130973525D02*
X115946656Y-130902096D01*
X115946656Y-130902096D02*
X115946656Y-130723525D01*
X115946656Y-130723525D02*
X115982370Y-130616382D01*
X116696656Y-130187810D02*
X116660942Y-130259239D01*
X116660942Y-130259239D02*
X116625227Y-130294953D01*
X116625227Y-130294953D02*
X116553799Y-130330667D01*
X116553799Y-130330667D02*
X116339513Y-130330667D01*
X116339513Y-130330667D02*
X116268084Y-130294953D01*
X116268084Y-130294953D02*
X116232370Y-130259239D01*
X116232370Y-130259239D02*
X116196656Y-130187810D01*
X116196656Y-130187810D02*
X116196656Y-130080667D01*
X116196656Y-130080667D02*
X116232370Y-130009239D01*
X116232370Y-130009239D02*
X116268084Y-129973525D01*
X116268084Y-129973525D02*
X116339513Y-129937810D01*
X116339513Y-129937810D02*
X116553799Y-129937810D01*
X116553799Y-129937810D02*
X116625227Y-129973525D01*
X116625227Y-129973525D02*
X116660942Y-130009239D01*
X116660942Y-130009239D02*
X116696656Y-130080667D01*
X116696656Y-130080667D02*
X116696656Y-130187810D01*
X116196656Y-129294954D02*
X116696656Y-129294954D01*
X116196656Y-129616382D02*
X116589513Y-129616382D01*
X116589513Y-129616382D02*
X116660942Y-129580668D01*
X116660942Y-129580668D02*
X116696656Y-129509239D01*
X116696656Y-129509239D02*
X116696656Y-129402096D01*
X116696656Y-129402096D02*
X116660942Y-129330668D01*
X116660942Y-129330668D02*
X116625227Y-129294954D01*
X116196656Y-128937811D02*
X116696656Y-128937811D01*
X116268084Y-128937811D02*
X116232370Y-128902097D01*
X116232370Y-128902097D02*
X116196656Y-128830668D01*
X116196656Y-128830668D02*
X116196656Y-128723525D01*
X116196656Y-128723525D02*
X116232370Y-128652097D01*
X116232370Y-128652097D02*
X116303799Y-128616383D01*
X116303799Y-128616383D02*
X116696656Y-128616383D01*
X116696656Y-127937812D02*
X115946656Y-127937812D01*
X116660942Y-127937812D02*
X116696656Y-128009240D01*
X116696656Y-128009240D02*
X116696656Y-128152097D01*
X116696656Y-128152097D02*
X116660942Y-128223526D01*
X116660942Y-128223526D02*
X116625227Y-128259240D01*
X116625227Y-128259240D02*
X116553799Y-128294954D01*
X116553799Y-128294954D02*
X116339513Y-128294954D01*
X116339513Y-128294954D02*
X116268084Y-128259240D01*
X116268084Y-128259240D02*
X116232370Y-128223526D01*
X116232370Y-128223526D02*
X116196656Y-128152097D01*
X116196656Y-128152097D02*
X116196656Y-128009240D01*
X116196656Y-128009240D02*
X116232370Y-127937812D01*
X116696656Y-126402097D02*
X116696656Y-126437812D01*
X116696656Y-126437812D02*
X116660942Y-126509240D01*
X116660942Y-126509240D02*
X116553799Y-126616383D01*
X116553799Y-126616383D02*
X116339513Y-126794954D01*
X116339513Y-126794954D02*
X116232370Y-126866383D01*
X116232370Y-126866383D02*
X116125227Y-126902097D01*
X116125227Y-126902097D02*
X116053799Y-126902097D01*
X116053799Y-126902097D02*
X115982370Y-126866383D01*
X115982370Y-126866383D02*
X115946656Y-126794954D01*
X115946656Y-126794954D02*
X115946656Y-126759240D01*
X115946656Y-126759240D02*
X115982370Y-126687812D01*
X115982370Y-126687812D02*
X116053799Y-126652097D01*
X116053799Y-126652097D02*
X116089513Y-126652097D01*
X116089513Y-126652097D02*
X116160942Y-126687812D01*
X116160942Y-126687812D02*
X116196656Y-126723526D01*
X116196656Y-126723526D02*
X116339513Y-126937812D01*
X116339513Y-126937812D02*
X116375227Y-126973526D01*
X116375227Y-126973526D02*
X116446656Y-127009240D01*
X116446656Y-127009240D02*
X116553799Y-127009240D01*
X116553799Y-127009240D02*
X116625227Y-126973526D01*
X116625227Y-126973526D02*
X116660942Y-126937812D01*
X116660942Y-126937812D02*
X116696656Y-126866383D01*
X116696656Y-126866383D02*
X116696656Y-126759240D01*
X116696656Y-126759240D02*
X116660942Y-126687812D01*
X116660942Y-126687812D02*
X116625227Y-126652097D01*
X116625227Y-126652097D02*
X116482370Y-126544954D01*
X116482370Y-126544954D02*
X116375227Y-126509240D01*
X116375227Y-126509240D02*
X116303799Y-126509240D01*
X116696656Y-125509240D02*
X115946656Y-125509240D01*
X115946656Y-125509240D02*
X115946656Y-125223526D01*
X115946656Y-125223526D02*
X115982370Y-125152097D01*
X115982370Y-125152097D02*
X116018084Y-125116383D01*
X116018084Y-125116383D02*
X116089513Y-125080669D01*
X116089513Y-125080669D02*
X116196656Y-125080669D01*
X116196656Y-125080669D02*
X116268084Y-125116383D01*
X116268084Y-125116383D02*
X116303799Y-125152097D01*
X116303799Y-125152097D02*
X116339513Y-125223526D01*
X116339513Y-125223526D02*
X116339513Y-125509240D01*
X116696656Y-124759240D02*
X116196656Y-124759240D01*
X116339513Y-124759240D02*
X116268084Y-124723526D01*
X116268084Y-124723526D02*
X116232370Y-124687812D01*
X116232370Y-124687812D02*
X116196656Y-124616383D01*
X116196656Y-124616383D02*
X116196656Y-124544954D01*
X116660942Y-124009240D02*
X116696656Y-124080668D01*
X116696656Y-124080668D02*
X116696656Y-124223526D01*
X116696656Y-124223526D02*
X116660942Y-124294954D01*
X116660942Y-124294954D02*
X116589513Y-124330668D01*
X116589513Y-124330668D02*
X116303799Y-124330668D01*
X116303799Y-124330668D02*
X116232370Y-124294954D01*
X116232370Y-124294954D02*
X116196656Y-124223526D01*
X116196656Y-124223526D02*
X116196656Y-124080668D01*
X116196656Y-124080668D02*
X116232370Y-124009240D01*
X116232370Y-124009240D02*
X116303799Y-123973526D01*
X116303799Y-123973526D02*
X116375227Y-123973526D01*
X116375227Y-123973526D02*
X116446656Y-124330668D01*
X116660942Y-123687811D02*
X116696656Y-123616383D01*
X116696656Y-123616383D02*
X116696656Y-123473526D01*
X116696656Y-123473526D02*
X116660942Y-123402097D01*
X116660942Y-123402097D02*
X116589513Y-123366383D01*
X116589513Y-123366383D02*
X116553799Y-123366383D01*
X116553799Y-123366383D02*
X116482370Y-123402097D01*
X116482370Y-123402097D02*
X116446656Y-123473526D01*
X116446656Y-123473526D02*
X116446656Y-123580669D01*
X116446656Y-123580669D02*
X116410942Y-123652097D01*
X116410942Y-123652097D02*
X116339513Y-123687811D01*
X116339513Y-123687811D02*
X116303799Y-123687811D01*
X116303799Y-123687811D02*
X116232370Y-123652097D01*
X116232370Y-123652097D02*
X116196656Y-123580669D01*
X116196656Y-123580669D02*
X116196656Y-123473526D01*
X116196656Y-123473526D02*
X116232370Y-123402097D01*
X116660942Y-123080668D02*
X116696656Y-123009240D01*
X116696656Y-123009240D02*
X116696656Y-122866383D01*
X116696656Y-122866383D02*
X116660942Y-122794954D01*
X116660942Y-122794954D02*
X116589513Y-122759240D01*
X116589513Y-122759240D02*
X116553799Y-122759240D01*
X116553799Y-122759240D02*
X116482370Y-122794954D01*
X116482370Y-122794954D02*
X116446656Y-122866383D01*
X116446656Y-122866383D02*
X116446656Y-122973526D01*
X116446656Y-122973526D02*
X116410942Y-123044954D01*
X116410942Y-123044954D02*
X116339513Y-123080668D01*
X116339513Y-123080668D02*
X116303799Y-123080668D01*
X116303799Y-123080668D02*
X116232370Y-123044954D01*
X116232370Y-123044954D02*
X116196656Y-122973526D01*
X116196656Y-122973526D02*
X116196656Y-122866383D01*
X116196656Y-122866383D02*
X116232370Y-122794954D01*
X116196656Y-122116383D02*
X116696656Y-122116383D01*
X116196656Y-122437811D02*
X116589513Y-122437811D01*
X116589513Y-122437811D02*
X116660942Y-122402097D01*
X116660942Y-122402097D02*
X116696656Y-122330668D01*
X116696656Y-122330668D02*
X116696656Y-122223525D01*
X116696656Y-122223525D02*
X116660942Y-122152097D01*
X116660942Y-122152097D02*
X116625227Y-122116383D01*
X116696656Y-121759240D02*
X116196656Y-121759240D01*
X116339513Y-121759240D02*
X116268084Y-121723526D01*
X116268084Y-121723526D02*
X116232370Y-121687812D01*
X116232370Y-121687812D02*
X116196656Y-121616383D01*
X116196656Y-121616383D02*
X116196656Y-121544954D01*
X116660942Y-121009240D02*
X116696656Y-121080668D01*
X116696656Y-121080668D02*
X116696656Y-121223526D01*
X116696656Y-121223526D02*
X116660942Y-121294954D01*
X116660942Y-121294954D02*
X116589513Y-121330668D01*
X116589513Y-121330668D02*
X116303799Y-121330668D01*
X116303799Y-121330668D02*
X116232370Y-121294954D01*
X116232370Y-121294954D02*
X116196656Y-121223526D01*
X116196656Y-121223526D02*
X116196656Y-121080668D01*
X116196656Y-121080668D02*
X116232370Y-121009240D01*
X116232370Y-121009240D02*
X116303799Y-120973526D01*
X116303799Y-120973526D02*
X116375227Y-120973526D01*
X116375227Y-120973526D02*
X116446656Y-121330668D01*
X116303799Y-119830668D02*
X116339513Y-119723525D01*
X116339513Y-119723525D02*
X116375227Y-119687811D01*
X116375227Y-119687811D02*
X116446656Y-119652097D01*
X116446656Y-119652097D02*
X116553799Y-119652097D01*
X116553799Y-119652097D02*
X116625227Y-119687811D01*
X116625227Y-119687811D02*
X116660942Y-119723525D01*
X116660942Y-119723525D02*
X116696656Y-119794954D01*
X116696656Y-119794954D02*
X116696656Y-120080668D01*
X116696656Y-120080668D02*
X115946656Y-120080668D01*
X115946656Y-120080668D02*
X115946656Y-119830668D01*
X115946656Y-119830668D02*
X115982370Y-119759240D01*
X115982370Y-119759240D02*
X116018084Y-119723525D01*
X116018084Y-119723525D02*
X116089513Y-119687811D01*
X116089513Y-119687811D02*
X116160942Y-119687811D01*
X116160942Y-119687811D02*
X116232370Y-119723525D01*
X116232370Y-119723525D02*
X116268084Y-119759240D01*
X116268084Y-119759240D02*
X116303799Y-119830668D01*
X116303799Y-119830668D02*
X116303799Y-120080668D01*
X116696656Y-119223525D02*
X116660942Y-119294954D01*
X116660942Y-119294954D02*
X116625227Y-119330668D01*
X116625227Y-119330668D02*
X116553799Y-119366382D01*
X116553799Y-119366382D02*
X116339513Y-119366382D01*
X116339513Y-119366382D02*
X116268084Y-119330668D01*
X116268084Y-119330668D02*
X116232370Y-119294954D01*
X116232370Y-119294954D02*
X116196656Y-119223525D01*
X116196656Y-119223525D02*
X116196656Y-119116382D01*
X116196656Y-119116382D02*
X116232370Y-119044954D01*
X116232370Y-119044954D02*
X116268084Y-119009240D01*
X116268084Y-119009240D02*
X116339513Y-118973525D01*
X116339513Y-118973525D02*
X116553799Y-118973525D01*
X116553799Y-118973525D02*
X116625227Y-119009240D01*
X116625227Y-119009240D02*
X116660942Y-119044954D01*
X116660942Y-119044954D02*
X116696656Y-119116382D01*
X116696656Y-119116382D02*
X116696656Y-119223525D01*
X116696656Y-118330669D02*
X116303799Y-118330669D01*
X116303799Y-118330669D02*
X116232370Y-118366383D01*
X116232370Y-118366383D02*
X116196656Y-118437811D01*
X116196656Y-118437811D02*
X116196656Y-118580669D01*
X116196656Y-118580669D02*
X116232370Y-118652097D01*
X116660942Y-118330669D02*
X116696656Y-118402097D01*
X116696656Y-118402097D02*
X116696656Y-118580669D01*
X116696656Y-118580669D02*
X116660942Y-118652097D01*
X116660942Y-118652097D02*
X116589513Y-118687811D01*
X116589513Y-118687811D02*
X116518084Y-118687811D01*
X116518084Y-118687811D02*
X116446656Y-118652097D01*
X116446656Y-118652097D02*
X116410942Y-118580669D01*
X116410942Y-118580669D02*
X116410942Y-118402097D01*
X116410942Y-118402097D02*
X116375227Y-118330669D01*
X116696656Y-117973526D02*
X116196656Y-117973526D01*
X116339513Y-117973526D02*
X116268084Y-117937812D01*
X116268084Y-117937812D02*
X116232370Y-117902098D01*
X116232370Y-117902098D02*
X116196656Y-117830669D01*
X116196656Y-117830669D02*
X116196656Y-117759240D01*
X116696656Y-117187812D02*
X115946656Y-117187812D01*
X116660942Y-117187812D02*
X116696656Y-117259240D01*
X116696656Y-117259240D02*
X116696656Y-117402097D01*
X116696656Y-117402097D02*
X116660942Y-117473526D01*
X116660942Y-117473526D02*
X116625227Y-117509240D01*
X116625227Y-117509240D02*
X116553799Y-117544954D01*
X116553799Y-117544954D02*
X116339513Y-117544954D01*
X116339513Y-117544954D02*
X116268084Y-117509240D01*
X116268084Y-117509240D02*
X116232370Y-117473526D01*
X116232370Y-117473526D02*
X116196656Y-117402097D01*
X116196656Y-117402097D02*
X116196656Y-117259240D01*
X116196656Y-117259240D02*
X116232370Y-117187812D01*
X117904114Y-131009239D02*
X117154114Y-131009239D01*
X117154114Y-131009239D02*
X117689828Y-130759239D01*
X117689828Y-130759239D02*
X117154114Y-130509239D01*
X117154114Y-130509239D02*
X117904114Y-130509239D01*
X117868400Y-129866382D02*
X117904114Y-129937810D01*
X117904114Y-129937810D02*
X117904114Y-130080668D01*
X117904114Y-130080668D02*
X117868400Y-130152096D01*
X117868400Y-130152096D02*
X117796971Y-130187810D01*
X117796971Y-130187810D02*
X117511257Y-130187810D01*
X117511257Y-130187810D02*
X117439828Y-130152096D01*
X117439828Y-130152096D02*
X117404114Y-130080668D01*
X117404114Y-130080668D02*
X117404114Y-129937810D01*
X117404114Y-129937810D02*
X117439828Y-129866382D01*
X117439828Y-129866382D02*
X117511257Y-129830668D01*
X117511257Y-129830668D02*
X117582685Y-129830668D01*
X117582685Y-129830668D02*
X117654114Y-130187810D01*
X117904114Y-129187811D02*
X117154114Y-129187811D01*
X117868400Y-129187811D02*
X117904114Y-129259239D01*
X117904114Y-129259239D02*
X117904114Y-129402096D01*
X117904114Y-129402096D02*
X117868400Y-129473525D01*
X117868400Y-129473525D02*
X117832685Y-129509239D01*
X117832685Y-129509239D02*
X117761257Y-129544953D01*
X117761257Y-129544953D02*
X117546971Y-129544953D01*
X117546971Y-129544953D02*
X117475542Y-129509239D01*
X117475542Y-129509239D02*
X117439828Y-129473525D01*
X117439828Y-129473525D02*
X117404114Y-129402096D01*
X117404114Y-129402096D02*
X117404114Y-129259239D01*
X117404114Y-129259239D02*
X117439828Y-129187811D01*
X117904114Y-128830668D02*
X117404114Y-128830668D01*
X117154114Y-128830668D02*
X117189828Y-128866382D01*
X117189828Y-128866382D02*
X117225542Y-128830668D01*
X117225542Y-128830668D02*
X117189828Y-128794954D01*
X117189828Y-128794954D02*
X117154114Y-128830668D01*
X117154114Y-128830668D02*
X117225542Y-128830668D01*
X117511257Y-128223525D02*
X117546971Y-128116382D01*
X117546971Y-128116382D02*
X117582685Y-128080668D01*
X117582685Y-128080668D02*
X117654114Y-128044954D01*
X117654114Y-128044954D02*
X117761257Y-128044954D01*
X117761257Y-128044954D02*
X117832685Y-128080668D01*
X117832685Y-128080668D02*
X117868400Y-128116382D01*
X117868400Y-128116382D02*
X117904114Y-128187811D01*
X117904114Y-128187811D02*
X117904114Y-128473525D01*
X117904114Y-128473525D02*
X117154114Y-128473525D01*
X117154114Y-128473525D02*
X117154114Y-128223525D01*
X117154114Y-128223525D02*
X117189828Y-128152097D01*
X117189828Y-128152097D02*
X117225542Y-128116382D01*
X117225542Y-128116382D02*
X117296971Y-128080668D01*
X117296971Y-128080668D02*
X117368400Y-128080668D01*
X117368400Y-128080668D02*
X117439828Y-128116382D01*
X117439828Y-128116382D02*
X117475542Y-128152097D01*
X117475542Y-128152097D02*
X117511257Y-128223525D01*
X117511257Y-128223525D02*
X117511257Y-128473525D01*
X117904114Y-127723525D02*
X117404114Y-127723525D01*
X117546971Y-127723525D02*
X117475542Y-127687811D01*
X117475542Y-127687811D02*
X117439828Y-127652097D01*
X117439828Y-127652097D02*
X117404114Y-127580668D01*
X117404114Y-127580668D02*
X117404114Y-127509239D01*
X117904114Y-127259239D02*
X117404114Y-127259239D01*
X117154114Y-127259239D02*
X117189828Y-127294953D01*
X117189828Y-127294953D02*
X117225542Y-127259239D01*
X117225542Y-127259239D02*
X117189828Y-127223525D01*
X117189828Y-127223525D02*
X117154114Y-127259239D01*
X117154114Y-127259239D02*
X117225542Y-127259239D01*
X117868400Y-126580668D02*
X117904114Y-126652096D01*
X117904114Y-126652096D02*
X117904114Y-126794953D01*
X117904114Y-126794953D02*
X117868400Y-126866382D01*
X117868400Y-126866382D02*
X117832685Y-126902096D01*
X117832685Y-126902096D02*
X117761257Y-126937810D01*
X117761257Y-126937810D02*
X117546971Y-126937810D01*
X117546971Y-126937810D02*
X117475542Y-126902096D01*
X117475542Y-126902096D02*
X117439828Y-126866382D01*
X117439828Y-126866382D02*
X117404114Y-126794953D01*
X117404114Y-126794953D02*
X117404114Y-126652096D01*
X117404114Y-126652096D02*
X117439828Y-126580668D01*
X117904114Y-126259239D02*
X117154114Y-126259239D01*
X117618400Y-126187811D02*
X117904114Y-125973525D01*
X117404114Y-125973525D02*
X117689828Y-126259239D01*
X117225542Y-125687810D02*
X117189828Y-125652096D01*
X117189828Y-125652096D02*
X117154114Y-125580668D01*
X117154114Y-125580668D02*
X117154114Y-125402096D01*
X117154114Y-125402096D02*
X117189828Y-125330668D01*
X117189828Y-125330668D02*
X117225542Y-125294953D01*
X117225542Y-125294953D02*
X117296971Y-125259239D01*
X117296971Y-125259239D02*
X117368400Y-125259239D01*
X117368400Y-125259239D02*
X117475542Y-125294953D01*
X117475542Y-125294953D02*
X117904114Y-125723525D01*
X117904114Y-125723525D02*
X117904114Y-125259239D01*
X117154114Y-124794953D02*
X117154114Y-124723524D01*
X117154114Y-124723524D02*
X117189828Y-124652096D01*
X117189828Y-124652096D02*
X117225542Y-124616382D01*
X117225542Y-124616382D02*
X117296971Y-124580667D01*
X117296971Y-124580667D02*
X117439828Y-124544953D01*
X117439828Y-124544953D02*
X117618400Y-124544953D01*
X117618400Y-124544953D02*
X117761257Y-124580667D01*
X117761257Y-124580667D02*
X117832685Y-124616382D01*
X117832685Y-124616382D02*
X117868400Y-124652096D01*
X117868400Y-124652096D02*
X117904114Y-124723524D01*
X117904114Y-124723524D02*
X117904114Y-124794953D01*
X117904114Y-124794953D02*
X117868400Y-124866382D01*
X117868400Y-124866382D02*
X117832685Y-124902096D01*
X117832685Y-124902096D02*
X117761257Y-124937810D01*
X117761257Y-124937810D02*
X117618400Y-124973524D01*
X117618400Y-124973524D02*
X117439828Y-124973524D01*
X117439828Y-124973524D02*
X117296971Y-124937810D01*
X117296971Y-124937810D02*
X117225542Y-124902096D01*
X117225542Y-124902096D02*
X117189828Y-124866382D01*
X117189828Y-124866382D02*
X117154114Y-124794953D01*
X117154114Y-124080667D02*
X117154114Y-124009238D01*
X117154114Y-124009238D02*
X117189828Y-123937810D01*
X117189828Y-123937810D02*
X117225542Y-123902096D01*
X117225542Y-123902096D02*
X117296971Y-123866381D01*
X117296971Y-123866381D02*
X117439828Y-123830667D01*
X117439828Y-123830667D02*
X117618400Y-123830667D01*
X117618400Y-123830667D02*
X117761257Y-123866381D01*
X117761257Y-123866381D02*
X117832685Y-123902096D01*
X117832685Y-123902096D02*
X117868400Y-123937810D01*
X117868400Y-123937810D02*
X117904114Y-124009238D01*
X117904114Y-124009238D02*
X117904114Y-124080667D01*
X117904114Y-124080667D02*
X117868400Y-124152096D01*
X117868400Y-124152096D02*
X117832685Y-124187810D01*
X117832685Y-124187810D02*
X117761257Y-124223524D01*
X117761257Y-124223524D02*
X117618400Y-124259238D01*
X117618400Y-124259238D02*
X117439828Y-124259238D01*
X117439828Y-124259238D02*
X117296971Y-124223524D01*
X117296971Y-124223524D02*
X117225542Y-124187810D01*
X117225542Y-124187810D02*
X117189828Y-124152096D01*
X117189828Y-124152096D02*
X117154114Y-124080667D01*
X117154114Y-123366381D02*
X117154114Y-123294952D01*
X117154114Y-123294952D02*
X117189828Y-123223524D01*
X117189828Y-123223524D02*
X117225542Y-123187810D01*
X117225542Y-123187810D02*
X117296971Y-123152095D01*
X117296971Y-123152095D02*
X117439828Y-123116381D01*
X117439828Y-123116381D02*
X117618400Y-123116381D01*
X117618400Y-123116381D02*
X117761257Y-123152095D01*
X117761257Y-123152095D02*
X117832685Y-123187810D01*
X117832685Y-123187810D02*
X117868400Y-123223524D01*
X117868400Y-123223524D02*
X117904114Y-123294952D01*
X117904114Y-123294952D02*
X117904114Y-123366381D01*
X117904114Y-123366381D02*
X117868400Y-123437810D01*
X117868400Y-123437810D02*
X117832685Y-123473524D01*
X117832685Y-123473524D02*
X117761257Y-123509238D01*
X117761257Y-123509238D02*
X117618400Y-123544952D01*
X117618400Y-123544952D02*
X117439828Y-123544952D01*
X117439828Y-123544952D02*
X117296971Y-123509238D01*
X117296971Y-123509238D02*
X117225542Y-123473524D01*
X117225542Y-123473524D02*
X117189828Y-123437810D01*
X117189828Y-123437810D02*
X117154114Y-123366381D01*
X119054114Y-108016382D02*
X119804114Y-107766382D01*
X119804114Y-107766382D02*
X119054114Y-107516382D01*
X119304114Y-106944954D02*
X119804114Y-106944954D01*
X119018400Y-107123525D02*
X119554114Y-107302096D01*
X119554114Y-107302096D02*
X119554114Y-106837811D01*
X119125542Y-106016381D02*
X119089828Y-105980667D01*
X119089828Y-105980667D02*
X119054114Y-105909239D01*
X119054114Y-105909239D02*
X119054114Y-105730667D01*
X119054114Y-105730667D02*
X119089828Y-105659239D01*
X119089828Y-105659239D02*
X119125542Y-105623524D01*
X119125542Y-105623524D02*
X119196971Y-105587810D01*
X119196971Y-105587810D02*
X119268400Y-105587810D01*
X119268400Y-105587810D02*
X119375542Y-105623524D01*
X119375542Y-105623524D02*
X119804114Y-106052096D01*
X119804114Y-106052096D02*
X119804114Y-105587810D01*
X119054114Y-105123524D02*
X119054114Y-105052095D01*
X119054114Y-105052095D02*
X119089828Y-104980667D01*
X119089828Y-104980667D02*
X119125542Y-104944953D01*
X119125542Y-104944953D02*
X119196971Y-104909238D01*
X119196971Y-104909238D02*
X119339828Y-104873524D01*
X119339828Y-104873524D02*
X119518400Y-104873524D01*
X119518400Y-104873524D02*
X119661257Y-104909238D01*
X119661257Y-104909238D02*
X119732685Y-104944953D01*
X119732685Y-104944953D02*
X119768400Y-104980667D01*
X119768400Y-104980667D02*
X119804114Y-105052095D01*
X119804114Y-105052095D02*
X119804114Y-105123524D01*
X119804114Y-105123524D02*
X119768400Y-105194953D01*
X119768400Y-105194953D02*
X119732685Y-105230667D01*
X119732685Y-105230667D02*
X119661257Y-105266381D01*
X119661257Y-105266381D02*
X119518400Y-105302095D01*
X119518400Y-105302095D02*
X119339828Y-105302095D01*
X119339828Y-105302095D02*
X119196971Y-105266381D01*
X119196971Y-105266381D02*
X119125542Y-105230667D01*
X119125542Y-105230667D02*
X119089828Y-105194953D01*
X119089828Y-105194953D02*
X119054114Y-105123524D01*
X119125542Y-104587809D02*
X119089828Y-104552095D01*
X119089828Y-104552095D02*
X119054114Y-104480667D01*
X119054114Y-104480667D02*
X119054114Y-104302095D01*
X119054114Y-104302095D02*
X119089828Y-104230667D01*
X119089828Y-104230667D02*
X119125542Y-104194952D01*
X119125542Y-104194952D02*
X119196971Y-104159238D01*
X119196971Y-104159238D02*
X119268400Y-104159238D01*
X119268400Y-104159238D02*
X119375542Y-104194952D01*
X119375542Y-104194952D02*
X119804114Y-104623524D01*
X119804114Y-104623524D02*
X119804114Y-104159238D01*
X119054114Y-103516381D02*
X119054114Y-103659238D01*
X119054114Y-103659238D02*
X119089828Y-103730666D01*
X119089828Y-103730666D02*
X119125542Y-103766381D01*
X119125542Y-103766381D02*
X119232685Y-103837809D01*
X119232685Y-103837809D02*
X119375542Y-103873523D01*
X119375542Y-103873523D02*
X119661257Y-103873523D01*
X119661257Y-103873523D02*
X119732685Y-103837809D01*
X119732685Y-103837809D02*
X119768400Y-103802095D01*
X119768400Y-103802095D02*
X119804114Y-103730666D01*
X119804114Y-103730666D02*
X119804114Y-103587809D01*
X119804114Y-103587809D02*
X119768400Y-103516381D01*
X119768400Y-103516381D02*
X119732685Y-103480666D01*
X119732685Y-103480666D02*
X119661257Y-103444952D01*
X119661257Y-103444952D02*
X119482685Y-103444952D01*
X119482685Y-103444952D02*
X119411257Y-103480666D01*
X119411257Y-103480666D02*
X119375542Y-103516381D01*
X119375542Y-103516381D02*
X119339828Y-103587809D01*
X119339828Y-103587809D02*
X119339828Y-103730666D01*
X119339828Y-103730666D02*
X119375542Y-103802095D01*
X119375542Y-103802095D02*
X119411257Y-103837809D01*
X119411257Y-103837809D02*
X119482685Y-103873523D01*
D12*
X124716541Y-121169348D02*
X124687969Y-121197920D01*
X124687969Y-121197920D02*
X124602255Y-121226491D01*
X124602255Y-121226491D02*
X124545112Y-121226491D01*
X124545112Y-121226491D02*
X124459398Y-121197920D01*
X124459398Y-121197920D02*
X124402255Y-121140777D01*
X124402255Y-121140777D02*
X124373684Y-121083634D01*
X124373684Y-121083634D02*
X124345112Y-120969348D01*
X124345112Y-120969348D02*
X124345112Y-120883634D01*
X124345112Y-120883634D02*
X124373684Y-120769348D01*
X124373684Y-120769348D02*
X124402255Y-120712205D01*
X124402255Y-120712205D02*
X124459398Y-120655062D01*
X124459398Y-120655062D02*
X124545112Y-120626491D01*
X124545112Y-120626491D02*
X124602255Y-120626491D01*
X124602255Y-120626491D02*
X124687969Y-120655062D01*
X124687969Y-120655062D02*
X124716541Y-120683634D01*
X124945112Y-120683634D02*
X124973684Y-120655062D01*
X124973684Y-120655062D02*
X125030827Y-120626491D01*
X125030827Y-120626491D02*
X125173684Y-120626491D01*
X125173684Y-120626491D02*
X125230827Y-120655062D01*
X125230827Y-120655062D02*
X125259398Y-120683634D01*
X125259398Y-120683634D02*
X125287969Y-120740777D01*
X125287969Y-120740777D02*
X125287969Y-120797920D01*
X125287969Y-120797920D02*
X125259398Y-120883634D01*
X125259398Y-120883634D02*
X124916541Y-121226491D01*
X124916541Y-121226491D02*
X125287969Y-121226491D01*
X125830827Y-120626491D02*
X125545113Y-120626491D01*
X125545113Y-120626491D02*
X125516541Y-120912205D01*
X125516541Y-120912205D02*
X125545113Y-120883634D01*
X125545113Y-120883634D02*
X125602256Y-120855062D01*
X125602256Y-120855062D02*
X125745113Y-120855062D01*
X125745113Y-120855062D02*
X125802256Y-120883634D01*
X125802256Y-120883634D02*
X125830827Y-120912205D01*
X125830827Y-120912205D02*
X125859398Y-120969348D01*
X125859398Y-120969348D02*
X125859398Y-121112205D01*
X125859398Y-121112205D02*
X125830827Y-121169348D01*
X125830827Y-121169348D02*
X125802256Y-121197920D01*
X125802256Y-121197920D02*
X125745113Y-121226491D01*
X125745113Y-121226491D02*
X125602256Y-121226491D01*
X125602256Y-121226491D02*
X125545113Y-121197920D01*
X125545113Y-121197920D02*
X125516541Y-121169348D01*
X124716541Y-119469348D02*
X124687969Y-119497920D01*
X124687969Y-119497920D02*
X124602255Y-119526491D01*
X124602255Y-119526491D02*
X124545112Y-119526491D01*
X124545112Y-119526491D02*
X124459398Y-119497920D01*
X124459398Y-119497920D02*
X124402255Y-119440777D01*
X124402255Y-119440777D02*
X124373684Y-119383634D01*
X124373684Y-119383634D02*
X124345112Y-119269348D01*
X124345112Y-119269348D02*
X124345112Y-119183634D01*
X124345112Y-119183634D02*
X124373684Y-119069348D01*
X124373684Y-119069348D02*
X124402255Y-119012205D01*
X124402255Y-119012205D02*
X124459398Y-118955062D01*
X124459398Y-118955062D02*
X124545112Y-118926491D01*
X124545112Y-118926491D02*
X124602255Y-118926491D01*
X124602255Y-118926491D02*
X124687969Y-118955062D01*
X124687969Y-118955062D02*
X124716541Y-118983634D01*
X124945112Y-118983634D02*
X124973684Y-118955062D01*
X124973684Y-118955062D02*
X125030827Y-118926491D01*
X125030827Y-118926491D02*
X125173684Y-118926491D01*
X125173684Y-118926491D02*
X125230827Y-118955062D01*
X125230827Y-118955062D02*
X125259398Y-118983634D01*
X125259398Y-118983634D02*
X125287969Y-119040777D01*
X125287969Y-119040777D02*
X125287969Y-119097920D01*
X125287969Y-119097920D02*
X125259398Y-119183634D01*
X125259398Y-119183634D02*
X124916541Y-119526491D01*
X124916541Y-119526491D02*
X125287969Y-119526491D01*
X125802256Y-118926491D02*
X125687970Y-118926491D01*
X125687970Y-118926491D02*
X125630827Y-118955062D01*
X125630827Y-118955062D02*
X125602256Y-118983634D01*
X125602256Y-118983634D02*
X125545113Y-119069348D01*
X125545113Y-119069348D02*
X125516541Y-119183634D01*
X125516541Y-119183634D02*
X125516541Y-119412205D01*
X125516541Y-119412205D02*
X125545113Y-119469348D01*
X125545113Y-119469348D02*
X125573684Y-119497920D01*
X125573684Y-119497920D02*
X125630827Y-119526491D01*
X125630827Y-119526491D02*
X125745113Y-119526491D01*
X125745113Y-119526491D02*
X125802256Y-119497920D01*
X125802256Y-119497920D02*
X125830827Y-119469348D01*
X125830827Y-119469348D02*
X125859398Y-119412205D01*
X125859398Y-119412205D02*
X125859398Y-119269348D01*
X125859398Y-119269348D02*
X125830827Y-119212205D01*
X125830827Y-119212205D02*
X125802256Y-119183634D01*
X125802256Y-119183634D02*
X125745113Y-119155062D01*
X125745113Y-119155062D02*
X125630827Y-119155062D01*
X125630827Y-119155062D02*
X125573684Y-119183634D01*
X125573684Y-119183634D02*
X125545113Y-119212205D01*
X125545113Y-119212205D02*
X125516541Y-119269348D01*
X140215385Y-124272948D02*
X140186813Y-124301520D01*
X140186813Y-124301520D02*
X140101099Y-124330091D01*
X140101099Y-124330091D02*
X140043956Y-124330091D01*
X140043956Y-124330091D02*
X139958242Y-124301520D01*
X139958242Y-124301520D02*
X139901099Y-124244377D01*
X139901099Y-124244377D02*
X139872528Y-124187234D01*
X139872528Y-124187234D02*
X139843956Y-124072948D01*
X139843956Y-124072948D02*
X139843956Y-123987234D01*
X139843956Y-123987234D02*
X139872528Y-123872948D01*
X139872528Y-123872948D02*
X139901099Y-123815805D01*
X139901099Y-123815805D02*
X139958242Y-123758662D01*
X139958242Y-123758662D02*
X140043956Y-123730091D01*
X140043956Y-123730091D02*
X140101099Y-123730091D01*
X140101099Y-123730091D02*
X140186813Y-123758662D01*
X140186813Y-123758662D02*
X140215385Y-123787234D01*
X140786813Y-124330091D02*
X140443956Y-124330091D01*
X140615385Y-124330091D02*
X140615385Y-123730091D01*
X140615385Y-123730091D02*
X140558242Y-123815805D01*
X140558242Y-123815805D02*
X140501099Y-123872948D01*
X140501099Y-123872948D02*
X140443956Y-123901520D01*
X141072528Y-124330091D02*
X141186814Y-124330091D01*
X141186814Y-124330091D02*
X141243957Y-124301520D01*
X141243957Y-124301520D02*
X141272528Y-124272948D01*
X141272528Y-124272948D02*
X141329671Y-124187234D01*
X141329671Y-124187234D02*
X141358242Y-124072948D01*
X141358242Y-124072948D02*
X141358242Y-123844377D01*
X141358242Y-123844377D02*
X141329671Y-123787234D01*
X141329671Y-123787234D02*
X141301100Y-123758662D01*
X141301100Y-123758662D02*
X141243957Y-123730091D01*
X141243957Y-123730091D02*
X141129671Y-123730091D01*
X141129671Y-123730091D02*
X141072528Y-123758662D01*
X141072528Y-123758662D02*
X141043957Y-123787234D01*
X141043957Y-123787234D02*
X141015385Y-123844377D01*
X141015385Y-123844377D02*
X141015385Y-123987234D01*
X141015385Y-123987234D02*
X141043957Y-124044377D01*
X141043957Y-124044377D02*
X141072528Y-124072948D01*
X141072528Y-124072948D02*
X141129671Y-124101520D01*
X141129671Y-124101520D02*
X141243957Y-124101520D01*
X141243957Y-124101520D02*
X141301100Y-124072948D01*
X141301100Y-124072948D02*
X141329671Y-124044377D01*
X141329671Y-124044377D02*
X141358242Y-123987234D01*
X134914285Y-109969348D02*
X134885713Y-109997920D01*
X134885713Y-109997920D02*
X134799999Y-110026491D01*
X134799999Y-110026491D02*
X134742856Y-110026491D01*
X134742856Y-110026491D02*
X134657142Y-109997920D01*
X134657142Y-109997920D02*
X134599999Y-109940777D01*
X134599999Y-109940777D02*
X134571428Y-109883634D01*
X134571428Y-109883634D02*
X134542856Y-109769348D01*
X134542856Y-109769348D02*
X134542856Y-109683634D01*
X134542856Y-109683634D02*
X134571428Y-109569348D01*
X134571428Y-109569348D02*
X134599999Y-109512205D01*
X134599999Y-109512205D02*
X134657142Y-109455062D01*
X134657142Y-109455062D02*
X134742856Y-109426491D01*
X134742856Y-109426491D02*
X134799999Y-109426491D01*
X134799999Y-109426491D02*
X134885713Y-109455062D01*
X134885713Y-109455062D02*
X134914285Y-109483634D01*
X135485713Y-110026491D02*
X135142856Y-110026491D01*
X135314285Y-110026491D02*
X135314285Y-109426491D01*
X135314285Y-109426491D02*
X135257142Y-109512205D01*
X135257142Y-109512205D02*
X135199999Y-109569348D01*
X135199999Y-109569348D02*
X135142856Y-109597920D01*
X135714285Y-109483634D02*
X135742857Y-109455062D01*
X135742857Y-109455062D02*
X135800000Y-109426491D01*
X135800000Y-109426491D02*
X135942857Y-109426491D01*
X135942857Y-109426491D02*
X136000000Y-109455062D01*
X136000000Y-109455062D02*
X136028571Y-109483634D01*
X136028571Y-109483634D02*
X136057142Y-109540777D01*
X136057142Y-109540777D02*
X136057142Y-109597920D01*
X136057142Y-109597920D02*
X136028571Y-109683634D01*
X136028571Y-109683634D02*
X135685714Y-110026491D01*
X135685714Y-110026491D02*
X136057142Y-110026491D01*
X163750000Y-108569348D02*
X163721428Y-108597920D01*
X163721428Y-108597920D02*
X163635714Y-108626491D01*
X163635714Y-108626491D02*
X163578571Y-108626491D01*
X163578571Y-108626491D02*
X163492857Y-108597920D01*
X163492857Y-108597920D02*
X163435714Y-108540777D01*
X163435714Y-108540777D02*
X163407143Y-108483634D01*
X163407143Y-108483634D02*
X163378571Y-108369348D01*
X163378571Y-108369348D02*
X163378571Y-108283634D01*
X163378571Y-108283634D02*
X163407143Y-108169348D01*
X163407143Y-108169348D02*
X163435714Y-108112205D01*
X163435714Y-108112205D02*
X163492857Y-108055062D01*
X163492857Y-108055062D02*
X163578571Y-108026491D01*
X163578571Y-108026491D02*
X163635714Y-108026491D01*
X163635714Y-108026491D02*
X163721428Y-108055062D01*
X163721428Y-108055062D02*
X163750000Y-108083634D01*
X163978571Y-108083634D02*
X164007143Y-108055062D01*
X164007143Y-108055062D02*
X164064286Y-108026491D01*
X164064286Y-108026491D02*
X164207143Y-108026491D01*
X164207143Y-108026491D02*
X164264286Y-108055062D01*
X164264286Y-108055062D02*
X164292857Y-108083634D01*
X164292857Y-108083634D02*
X164321428Y-108140777D01*
X164321428Y-108140777D02*
X164321428Y-108197920D01*
X164321428Y-108197920D02*
X164292857Y-108283634D01*
X164292857Y-108283634D02*
X163950000Y-108626491D01*
X163950000Y-108626491D02*
X164321428Y-108626491D01*
X116127591Y-95089314D02*
X115841877Y-95289314D01*
X116127591Y-95432171D02*
X115527591Y-95432171D01*
X115527591Y-95432171D02*
X115527591Y-95203600D01*
X115527591Y-95203600D02*
X115556162Y-95146457D01*
X115556162Y-95146457D02*
X115584734Y-95117886D01*
X115584734Y-95117886D02*
X115641877Y-95089314D01*
X115641877Y-95089314D02*
X115727591Y-95089314D01*
X115727591Y-95089314D02*
X115784734Y-95117886D01*
X115784734Y-95117886D02*
X115813305Y-95146457D01*
X115813305Y-95146457D02*
X115841877Y-95203600D01*
X115841877Y-95203600D02*
X115841877Y-95432171D01*
X116127591Y-94517886D02*
X116127591Y-94860743D01*
X116127591Y-94689314D02*
X115527591Y-94689314D01*
X115527591Y-94689314D02*
X115613305Y-94746457D01*
X115613305Y-94746457D02*
X115670448Y-94803600D01*
X115670448Y-94803600D02*
X115699020Y-94860743D01*
X115527591Y-94317885D02*
X115527591Y-93917885D01*
X115527591Y-93917885D02*
X116127591Y-94175028D01*
X136965385Y-106272948D02*
X136936813Y-106301520D01*
X136936813Y-106301520D02*
X136851099Y-106330091D01*
X136851099Y-106330091D02*
X136793956Y-106330091D01*
X136793956Y-106330091D02*
X136708242Y-106301520D01*
X136708242Y-106301520D02*
X136651099Y-106244377D01*
X136651099Y-106244377D02*
X136622528Y-106187234D01*
X136622528Y-106187234D02*
X136593956Y-106072948D01*
X136593956Y-106072948D02*
X136593956Y-105987234D01*
X136593956Y-105987234D02*
X136622528Y-105872948D01*
X136622528Y-105872948D02*
X136651099Y-105815805D01*
X136651099Y-105815805D02*
X136708242Y-105758662D01*
X136708242Y-105758662D02*
X136793956Y-105730091D01*
X136793956Y-105730091D02*
X136851099Y-105730091D01*
X136851099Y-105730091D02*
X136936813Y-105758662D01*
X136936813Y-105758662D02*
X136965385Y-105787234D01*
X137536813Y-106330091D02*
X137193956Y-106330091D01*
X137365385Y-106330091D02*
X137365385Y-105730091D01*
X137365385Y-105730091D02*
X137308242Y-105815805D01*
X137308242Y-105815805D02*
X137251099Y-105872948D01*
X137251099Y-105872948D02*
X137193956Y-105901520D01*
X138079671Y-105730091D02*
X137793957Y-105730091D01*
X137793957Y-105730091D02*
X137765385Y-106015805D01*
X137765385Y-106015805D02*
X137793957Y-105987234D01*
X137793957Y-105987234D02*
X137851100Y-105958662D01*
X137851100Y-105958662D02*
X137993957Y-105958662D01*
X137993957Y-105958662D02*
X138051100Y-105987234D01*
X138051100Y-105987234D02*
X138079671Y-106015805D01*
X138079671Y-106015805D02*
X138108242Y-106072948D01*
X138108242Y-106072948D02*
X138108242Y-106215805D01*
X138108242Y-106215805D02*
X138079671Y-106272948D01*
X138079671Y-106272948D02*
X138051100Y-106301520D01*
X138051100Y-106301520D02*
X137993957Y-106330091D01*
X137993957Y-106330091D02*
X137851100Y-106330091D01*
X137851100Y-106330091D02*
X137793957Y-106301520D01*
X137793957Y-106301520D02*
X137765385Y-106272948D01*
X131200000Y-121569348D02*
X131171428Y-121597920D01*
X131171428Y-121597920D02*
X131085714Y-121626491D01*
X131085714Y-121626491D02*
X131028571Y-121626491D01*
X131028571Y-121626491D02*
X130942857Y-121597920D01*
X130942857Y-121597920D02*
X130885714Y-121540777D01*
X130885714Y-121540777D02*
X130857143Y-121483634D01*
X130857143Y-121483634D02*
X130828571Y-121369348D01*
X130828571Y-121369348D02*
X130828571Y-121283634D01*
X130828571Y-121283634D02*
X130857143Y-121169348D01*
X130857143Y-121169348D02*
X130885714Y-121112205D01*
X130885714Y-121112205D02*
X130942857Y-121055062D01*
X130942857Y-121055062D02*
X131028571Y-121026491D01*
X131028571Y-121026491D02*
X131085714Y-121026491D01*
X131085714Y-121026491D02*
X131171428Y-121055062D01*
X131171428Y-121055062D02*
X131200000Y-121083634D01*
X131485714Y-121626491D02*
X131600000Y-121626491D01*
X131600000Y-121626491D02*
X131657143Y-121597920D01*
X131657143Y-121597920D02*
X131685714Y-121569348D01*
X131685714Y-121569348D02*
X131742857Y-121483634D01*
X131742857Y-121483634D02*
X131771428Y-121369348D01*
X131771428Y-121369348D02*
X131771428Y-121140777D01*
X131771428Y-121140777D02*
X131742857Y-121083634D01*
X131742857Y-121083634D02*
X131714286Y-121055062D01*
X131714286Y-121055062D02*
X131657143Y-121026491D01*
X131657143Y-121026491D02*
X131542857Y-121026491D01*
X131542857Y-121026491D02*
X131485714Y-121055062D01*
X131485714Y-121055062D02*
X131457143Y-121083634D01*
X131457143Y-121083634D02*
X131428571Y-121140777D01*
X131428571Y-121140777D02*
X131428571Y-121283634D01*
X131428571Y-121283634D02*
X131457143Y-121340777D01*
X131457143Y-121340777D02*
X131485714Y-121369348D01*
X131485714Y-121369348D02*
X131542857Y-121397920D01*
X131542857Y-121397920D02*
X131657143Y-121397920D01*
X131657143Y-121397920D02*
X131714286Y-121369348D01*
X131714286Y-121369348D02*
X131742857Y-121340777D01*
X131742857Y-121340777D02*
X131771428Y-121283634D01*
X173859398Y-119926491D02*
X173859398Y-120355062D01*
X173859398Y-120355062D02*
X173830827Y-120440777D01*
X173830827Y-120440777D02*
X173773684Y-120497920D01*
X173773684Y-120497920D02*
X173687970Y-120526491D01*
X173687970Y-120526491D02*
X173630827Y-120526491D01*
X174430827Y-119926491D02*
X174145113Y-119926491D01*
X174145113Y-119926491D02*
X174116541Y-120212205D01*
X174116541Y-120212205D02*
X174145113Y-120183634D01*
X174145113Y-120183634D02*
X174202256Y-120155062D01*
X174202256Y-120155062D02*
X174345113Y-120155062D01*
X174345113Y-120155062D02*
X174402256Y-120183634D01*
X174402256Y-120183634D02*
X174430827Y-120212205D01*
X174430827Y-120212205D02*
X174459398Y-120269348D01*
X174459398Y-120269348D02*
X174459398Y-120412205D01*
X174459398Y-120412205D02*
X174430827Y-120469348D01*
X174430827Y-120469348D02*
X174402256Y-120497920D01*
X174402256Y-120497920D02*
X174345113Y-120526491D01*
X174345113Y-120526491D02*
X174202256Y-120526491D01*
X174202256Y-120526491D02*
X174145113Y-120497920D01*
X174145113Y-120497920D02*
X174116541Y-120469348D01*
X162100000Y-112026491D02*
X161900000Y-111740777D01*
X161757143Y-112026491D02*
X161757143Y-111426491D01*
X161757143Y-111426491D02*
X161985714Y-111426491D01*
X161985714Y-111426491D02*
X162042857Y-111455062D01*
X162042857Y-111455062D02*
X162071428Y-111483634D01*
X162071428Y-111483634D02*
X162100000Y-111540777D01*
X162100000Y-111540777D02*
X162100000Y-111626491D01*
X162100000Y-111626491D02*
X162071428Y-111683634D01*
X162071428Y-111683634D02*
X162042857Y-111712205D01*
X162042857Y-111712205D02*
X161985714Y-111740777D01*
X161985714Y-111740777D02*
X161757143Y-111740777D01*
X162642857Y-111426491D02*
X162357143Y-111426491D01*
X162357143Y-111426491D02*
X162328571Y-111712205D01*
X162328571Y-111712205D02*
X162357143Y-111683634D01*
X162357143Y-111683634D02*
X162414286Y-111655062D01*
X162414286Y-111655062D02*
X162557143Y-111655062D01*
X162557143Y-111655062D02*
X162614286Y-111683634D01*
X162614286Y-111683634D02*
X162642857Y-111712205D01*
X162642857Y-111712205D02*
X162671428Y-111769348D01*
X162671428Y-111769348D02*
X162671428Y-111912205D01*
X162671428Y-111912205D02*
X162642857Y-111969348D01*
X162642857Y-111969348D02*
X162614286Y-111997920D01*
X162614286Y-111997920D02*
X162557143Y-112026491D01*
X162557143Y-112026491D02*
X162414286Y-112026491D01*
X162414286Y-112026491D02*
X162357143Y-111997920D01*
X162357143Y-111997920D02*
X162328571Y-111969348D01*
X137414285Y-115826491D02*
X137214285Y-115540777D01*
X137071428Y-115826491D02*
X137071428Y-115226491D01*
X137071428Y-115226491D02*
X137299999Y-115226491D01*
X137299999Y-115226491D02*
X137357142Y-115255062D01*
X137357142Y-115255062D02*
X137385713Y-115283634D01*
X137385713Y-115283634D02*
X137414285Y-115340777D01*
X137414285Y-115340777D02*
X137414285Y-115426491D01*
X137414285Y-115426491D02*
X137385713Y-115483634D01*
X137385713Y-115483634D02*
X137357142Y-115512205D01*
X137357142Y-115512205D02*
X137299999Y-115540777D01*
X137299999Y-115540777D02*
X137071428Y-115540777D01*
X137985713Y-115826491D02*
X137642856Y-115826491D01*
X137814285Y-115826491D02*
X137814285Y-115226491D01*
X137814285Y-115226491D02*
X137757142Y-115312205D01*
X137757142Y-115312205D02*
X137699999Y-115369348D01*
X137699999Y-115369348D02*
X137642856Y-115397920D01*
X138214285Y-115283634D02*
X138242857Y-115255062D01*
X138242857Y-115255062D02*
X138300000Y-115226491D01*
X138300000Y-115226491D02*
X138442857Y-115226491D01*
X138442857Y-115226491D02*
X138500000Y-115255062D01*
X138500000Y-115255062D02*
X138528571Y-115283634D01*
X138528571Y-115283634D02*
X138557142Y-115340777D01*
X138557142Y-115340777D02*
X138557142Y-115397920D01*
X138557142Y-115397920D02*
X138528571Y-115483634D01*
X138528571Y-115483634D02*
X138185714Y-115826491D01*
X138185714Y-115826491D02*
X138557142Y-115826491D01*
X149814285Y-112969348D02*
X149785713Y-112997920D01*
X149785713Y-112997920D02*
X149699999Y-113026491D01*
X149699999Y-113026491D02*
X149642856Y-113026491D01*
X149642856Y-113026491D02*
X149557142Y-112997920D01*
X149557142Y-112997920D02*
X149499999Y-112940777D01*
X149499999Y-112940777D02*
X149471428Y-112883634D01*
X149471428Y-112883634D02*
X149442856Y-112769348D01*
X149442856Y-112769348D02*
X149442856Y-112683634D01*
X149442856Y-112683634D02*
X149471428Y-112569348D01*
X149471428Y-112569348D02*
X149499999Y-112512205D01*
X149499999Y-112512205D02*
X149557142Y-112455062D01*
X149557142Y-112455062D02*
X149642856Y-112426491D01*
X149642856Y-112426491D02*
X149699999Y-112426491D01*
X149699999Y-112426491D02*
X149785713Y-112455062D01*
X149785713Y-112455062D02*
X149814285Y-112483634D01*
X150385713Y-113026491D02*
X150042856Y-113026491D01*
X150214285Y-113026491D02*
X150214285Y-112426491D01*
X150214285Y-112426491D02*
X150157142Y-112512205D01*
X150157142Y-112512205D02*
X150099999Y-112569348D01*
X150099999Y-112569348D02*
X150042856Y-112597920D01*
X150900000Y-112626491D02*
X150900000Y-113026491D01*
X150757142Y-112397920D02*
X150614285Y-112826491D01*
X150614285Y-112826491D02*
X150985714Y-112826491D01*
X120058242Y-92328108D02*
X120058242Y-91842394D01*
X120058242Y-91842394D02*
X120029671Y-91785251D01*
X120029671Y-91785251D02*
X120001100Y-91756680D01*
X120001100Y-91756680D02*
X119943957Y-91728108D01*
X119943957Y-91728108D02*
X119829671Y-91728108D01*
X119829671Y-91728108D02*
X119772528Y-91756680D01*
X119772528Y-91756680D02*
X119743957Y-91785251D01*
X119743957Y-91785251D02*
X119715385Y-91842394D01*
X119715385Y-91842394D02*
X119715385Y-92328108D01*
X119115386Y-91728108D02*
X119458243Y-91728108D01*
X119286814Y-91728108D02*
X119286814Y-92328108D01*
X119286814Y-92328108D02*
X119343957Y-92242394D01*
X119343957Y-92242394D02*
X119401100Y-92185251D01*
X119401100Y-92185251D02*
X119458243Y-92156680D01*
X124914285Y-124269348D02*
X124885713Y-124297920D01*
X124885713Y-124297920D02*
X124799999Y-124326491D01*
X124799999Y-124326491D02*
X124742856Y-124326491D01*
X124742856Y-124326491D02*
X124657142Y-124297920D01*
X124657142Y-124297920D02*
X124599999Y-124240777D01*
X124599999Y-124240777D02*
X124571428Y-124183634D01*
X124571428Y-124183634D02*
X124542856Y-124069348D01*
X124542856Y-124069348D02*
X124542856Y-123983634D01*
X124542856Y-123983634D02*
X124571428Y-123869348D01*
X124571428Y-123869348D02*
X124599999Y-123812205D01*
X124599999Y-123812205D02*
X124657142Y-123755062D01*
X124657142Y-123755062D02*
X124742856Y-123726491D01*
X124742856Y-123726491D02*
X124799999Y-123726491D01*
X124799999Y-123726491D02*
X124885713Y-123755062D01*
X124885713Y-123755062D02*
X124914285Y-123783634D01*
X125485713Y-124326491D02*
X125142856Y-124326491D01*
X125314285Y-124326491D02*
X125314285Y-123726491D01*
X125314285Y-123726491D02*
X125257142Y-123812205D01*
X125257142Y-123812205D02*
X125199999Y-123869348D01*
X125199999Y-123869348D02*
X125142856Y-123897920D01*
X126000000Y-123726491D02*
X125885714Y-123726491D01*
X125885714Y-123726491D02*
X125828571Y-123755062D01*
X125828571Y-123755062D02*
X125800000Y-123783634D01*
X125800000Y-123783634D02*
X125742857Y-123869348D01*
X125742857Y-123869348D02*
X125714285Y-123983634D01*
X125714285Y-123983634D02*
X125714285Y-124212205D01*
X125714285Y-124212205D02*
X125742857Y-124269348D01*
X125742857Y-124269348D02*
X125771428Y-124297920D01*
X125771428Y-124297920D02*
X125828571Y-124326491D01*
X125828571Y-124326491D02*
X125942857Y-124326491D01*
X125942857Y-124326491D02*
X126000000Y-124297920D01*
X126000000Y-124297920D02*
X126028571Y-124269348D01*
X126028571Y-124269348D02*
X126057142Y-124212205D01*
X126057142Y-124212205D02*
X126057142Y-124069348D01*
X126057142Y-124069348D02*
X126028571Y-124012205D01*
X126028571Y-124012205D02*
X126000000Y-123983634D01*
X126000000Y-123983634D02*
X125942857Y-123955062D01*
X125942857Y-123955062D02*
X125828571Y-123955062D01*
X125828571Y-123955062D02*
X125771428Y-123983634D01*
X125771428Y-123983634D02*
X125742857Y-124012205D01*
X125742857Y-124012205D02*
X125714285Y-124069348D01*
X155300000Y-120569348D02*
X155271428Y-120597920D01*
X155271428Y-120597920D02*
X155185714Y-120626491D01*
X155185714Y-120626491D02*
X155128571Y-120626491D01*
X155128571Y-120626491D02*
X155042857Y-120597920D01*
X155042857Y-120597920D02*
X154985714Y-120540777D01*
X154985714Y-120540777D02*
X154957143Y-120483634D01*
X154957143Y-120483634D02*
X154928571Y-120369348D01*
X154928571Y-120369348D02*
X154928571Y-120283634D01*
X154928571Y-120283634D02*
X154957143Y-120169348D01*
X154957143Y-120169348D02*
X154985714Y-120112205D01*
X154985714Y-120112205D02*
X155042857Y-120055062D01*
X155042857Y-120055062D02*
X155128571Y-120026491D01*
X155128571Y-120026491D02*
X155185714Y-120026491D01*
X155185714Y-120026491D02*
X155271428Y-120055062D01*
X155271428Y-120055062D02*
X155300000Y-120083634D01*
X155842857Y-120026491D02*
X155557143Y-120026491D01*
X155557143Y-120026491D02*
X155528571Y-120312205D01*
X155528571Y-120312205D02*
X155557143Y-120283634D01*
X155557143Y-120283634D02*
X155614286Y-120255062D01*
X155614286Y-120255062D02*
X155757143Y-120255062D01*
X155757143Y-120255062D02*
X155814286Y-120283634D01*
X155814286Y-120283634D02*
X155842857Y-120312205D01*
X155842857Y-120312205D02*
X155871428Y-120369348D01*
X155871428Y-120369348D02*
X155871428Y-120512205D01*
X155871428Y-120512205D02*
X155842857Y-120569348D01*
X155842857Y-120569348D02*
X155814286Y-120597920D01*
X155814286Y-120597920D02*
X155757143Y-120626491D01*
X155757143Y-120626491D02*
X155614286Y-120626491D01*
X155614286Y-120626491D02*
X155557143Y-120597920D01*
X155557143Y-120597920D02*
X155528571Y-120569348D01*
X138814285Y-114026491D02*
X138614285Y-113740777D01*
X138471428Y-114026491D02*
X138471428Y-113426491D01*
X138471428Y-113426491D02*
X138699999Y-113426491D01*
X138699999Y-113426491D02*
X138757142Y-113455062D01*
X138757142Y-113455062D02*
X138785713Y-113483634D01*
X138785713Y-113483634D02*
X138814285Y-113540777D01*
X138814285Y-113540777D02*
X138814285Y-113626491D01*
X138814285Y-113626491D02*
X138785713Y-113683634D01*
X138785713Y-113683634D02*
X138757142Y-113712205D01*
X138757142Y-113712205D02*
X138699999Y-113740777D01*
X138699999Y-113740777D02*
X138471428Y-113740777D01*
X139385713Y-114026491D02*
X139042856Y-114026491D01*
X139214285Y-114026491D02*
X139214285Y-113426491D01*
X139214285Y-113426491D02*
X139157142Y-113512205D01*
X139157142Y-113512205D02*
X139099999Y-113569348D01*
X139099999Y-113569348D02*
X139042856Y-113597920D01*
X139728571Y-113683634D02*
X139671428Y-113655062D01*
X139671428Y-113655062D02*
X139642857Y-113626491D01*
X139642857Y-113626491D02*
X139614285Y-113569348D01*
X139614285Y-113569348D02*
X139614285Y-113540777D01*
X139614285Y-113540777D02*
X139642857Y-113483634D01*
X139642857Y-113483634D02*
X139671428Y-113455062D01*
X139671428Y-113455062D02*
X139728571Y-113426491D01*
X139728571Y-113426491D02*
X139842857Y-113426491D01*
X139842857Y-113426491D02*
X139900000Y-113455062D01*
X139900000Y-113455062D02*
X139928571Y-113483634D01*
X139928571Y-113483634D02*
X139957142Y-113540777D01*
X139957142Y-113540777D02*
X139957142Y-113569348D01*
X139957142Y-113569348D02*
X139928571Y-113626491D01*
X139928571Y-113626491D02*
X139900000Y-113655062D01*
X139900000Y-113655062D02*
X139842857Y-113683634D01*
X139842857Y-113683634D02*
X139728571Y-113683634D01*
X139728571Y-113683634D02*
X139671428Y-113712205D01*
X139671428Y-113712205D02*
X139642857Y-113740777D01*
X139642857Y-113740777D02*
X139614285Y-113797920D01*
X139614285Y-113797920D02*
X139614285Y-113912205D01*
X139614285Y-113912205D02*
X139642857Y-113969348D01*
X139642857Y-113969348D02*
X139671428Y-113997920D01*
X139671428Y-113997920D02*
X139728571Y-114026491D01*
X139728571Y-114026491D02*
X139842857Y-114026491D01*
X139842857Y-114026491D02*
X139900000Y-113997920D01*
X139900000Y-113997920D02*
X139928571Y-113969348D01*
X139928571Y-113969348D02*
X139957142Y-113912205D01*
X139957142Y-113912205D02*
X139957142Y-113797920D01*
X139957142Y-113797920D02*
X139928571Y-113740777D01*
X139928571Y-113740777D02*
X139900000Y-113712205D01*
X139900000Y-113712205D02*
X139842857Y-113683634D01*
X160275491Y-117885713D02*
X159675491Y-117885713D01*
X160218348Y-117257142D02*
X160246920Y-117285714D01*
X160246920Y-117285714D02*
X160275491Y-117371428D01*
X160275491Y-117371428D02*
X160275491Y-117428571D01*
X160275491Y-117428571D02*
X160246920Y-117514285D01*
X160246920Y-117514285D02*
X160189777Y-117571428D01*
X160189777Y-117571428D02*
X160132634Y-117599999D01*
X160132634Y-117599999D02*
X160018348Y-117628571D01*
X160018348Y-117628571D02*
X159932634Y-117628571D01*
X159932634Y-117628571D02*
X159818348Y-117599999D01*
X159818348Y-117599999D02*
X159761205Y-117571428D01*
X159761205Y-117571428D02*
X159704062Y-117514285D01*
X159704062Y-117514285D02*
X159675491Y-117428571D01*
X159675491Y-117428571D02*
X159675491Y-117371428D01*
X159675491Y-117371428D02*
X159704062Y-117285714D01*
X159704062Y-117285714D02*
X159732634Y-117257142D01*
X159732634Y-117028571D02*
X159704062Y-116999999D01*
X159704062Y-116999999D02*
X159675491Y-116942857D01*
X159675491Y-116942857D02*
X159675491Y-116799999D01*
X159675491Y-116799999D02*
X159704062Y-116742857D01*
X159704062Y-116742857D02*
X159732634Y-116714285D01*
X159732634Y-116714285D02*
X159789777Y-116685714D01*
X159789777Y-116685714D02*
X159846920Y-116685714D01*
X159846920Y-116685714D02*
X159932634Y-116714285D01*
X159932634Y-116714285D02*
X160275491Y-117057142D01*
X160275491Y-117057142D02*
X160275491Y-116685714D01*
D13*
X155454819Y-118499999D02*
X155692914Y-118499999D01*
X155597676Y-118738094D02*
X155692914Y-118499999D01*
X155692914Y-118499999D02*
X155597676Y-118261904D01*
X155883390Y-118642856D02*
X155692914Y-118499999D01*
X155692914Y-118499999D02*
X155883390Y-118357142D01*
D12*
X118586814Y-116634251D02*
X118615386Y-116605680D01*
X118615386Y-116605680D02*
X118701100Y-116577108D01*
X118701100Y-116577108D02*
X118758243Y-116577108D01*
X118758243Y-116577108D02*
X118843957Y-116605680D01*
X118843957Y-116605680D02*
X118901100Y-116662822D01*
X118901100Y-116662822D02*
X118929671Y-116719965D01*
X118929671Y-116719965D02*
X118958243Y-116834251D01*
X118958243Y-116834251D02*
X118958243Y-116919965D01*
X118958243Y-116919965D02*
X118929671Y-117034251D01*
X118929671Y-117034251D02*
X118901100Y-117091394D01*
X118901100Y-117091394D02*
X118843957Y-117148537D01*
X118843957Y-117148537D02*
X118758243Y-117177108D01*
X118758243Y-117177108D02*
X118701100Y-117177108D01*
X118701100Y-117177108D02*
X118615386Y-117148537D01*
X118615386Y-117148537D02*
X118586814Y-117119965D01*
X118015386Y-116577108D02*
X118358243Y-116577108D01*
X118186814Y-116577108D02*
X118186814Y-117177108D01*
X118186814Y-117177108D02*
X118243957Y-117091394D01*
X118243957Y-117091394D02*
X118301100Y-117034251D01*
X118301100Y-117034251D02*
X118358243Y-117005680D01*
X117815385Y-117177108D02*
X117443957Y-117177108D01*
X117443957Y-117177108D02*
X117643957Y-116948537D01*
X117643957Y-116948537D02*
X117558242Y-116948537D01*
X117558242Y-116948537D02*
X117501100Y-116919965D01*
X117501100Y-116919965D02*
X117472528Y-116891394D01*
X117472528Y-116891394D02*
X117443957Y-116834251D01*
X117443957Y-116834251D02*
X117443957Y-116691394D01*
X117443957Y-116691394D02*
X117472528Y-116634251D01*
X117472528Y-116634251D02*
X117501100Y-116605680D01*
X117501100Y-116605680D02*
X117558242Y-116577108D01*
X117558242Y-116577108D02*
X117729671Y-116577108D01*
X117729671Y-116577108D02*
X117786814Y-116605680D01*
X117786814Y-116605680D02*
X117815385Y-116634251D01*
X127114285Y-80726491D02*
X126914285Y-80440777D01*
X126771428Y-80726491D02*
X126771428Y-80126491D01*
X126771428Y-80126491D02*
X126999999Y-80126491D01*
X126999999Y-80126491D02*
X127057142Y-80155062D01*
X127057142Y-80155062D02*
X127085713Y-80183634D01*
X127085713Y-80183634D02*
X127114285Y-80240777D01*
X127114285Y-80240777D02*
X127114285Y-80326491D01*
X127114285Y-80326491D02*
X127085713Y-80383634D01*
X127085713Y-80383634D02*
X127057142Y-80412205D01*
X127057142Y-80412205D02*
X126999999Y-80440777D01*
X126999999Y-80440777D02*
X126771428Y-80440777D01*
X127685713Y-80726491D02*
X127342856Y-80726491D01*
X127514285Y-80726491D02*
X127514285Y-80126491D01*
X127514285Y-80126491D02*
X127457142Y-80212205D01*
X127457142Y-80212205D02*
X127399999Y-80269348D01*
X127399999Y-80269348D02*
X127342856Y-80297920D01*
X128200000Y-80326491D02*
X128200000Y-80726491D01*
X128057142Y-80097920D02*
X127914285Y-80526491D01*
X127914285Y-80526491D02*
X128285714Y-80526491D01*
X136873508Y-113700000D02*
X137159222Y-113500000D01*
X136873508Y-113357143D02*
X137473508Y-113357143D01*
X137473508Y-113357143D02*
X137473508Y-113585714D01*
X137473508Y-113585714D02*
X137444937Y-113642857D01*
X137444937Y-113642857D02*
X137416365Y-113671428D01*
X137416365Y-113671428D02*
X137359222Y-113700000D01*
X137359222Y-113700000D02*
X137273508Y-113700000D01*
X137273508Y-113700000D02*
X137216365Y-113671428D01*
X137216365Y-113671428D02*
X137187794Y-113642857D01*
X137187794Y-113642857D02*
X137159222Y-113585714D01*
X137159222Y-113585714D02*
X137159222Y-113357143D01*
X137473508Y-114214286D02*
X137473508Y-114100000D01*
X137473508Y-114100000D02*
X137444937Y-114042857D01*
X137444937Y-114042857D02*
X137416365Y-114014286D01*
X137416365Y-114014286D02*
X137330651Y-113957143D01*
X137330651Y-113957143D02*
X137216365Y-113928571D01*
X137216365Y-113928571D02*
X136987794Y-113928571D01*
X136987794Y-113928571D02*
X136930651Y-113957143D01*
X136930651Y-113957143D02*
X136902080Y-113985714D01*
X136902080Y-113985714D02*
X136873508Y-114042857D01*
X136873508Y-114042857D02*
X136873508Y-114157143D01*
X136873508Y-114157143D02*
X136902080Y-114214286D01*
X136902080Y-114214286D02*
X136930651Y-114242857D01*
X136930651Y-114242857D02*
X136987794Y-114271428D01*
X136987794Y-114271428D02*
X137130651Y-114271428D01*
X137130651Y-114271428D02*
X137187794Y-114242857D01*
X137187794Y-114242857D02*
X137216365Y-114214286D01*
X137216365Y-114214286D02*
X137244937Y-114157143D01*
X137244937Y-114157143D02*
X137244937Y-114042857D01*
X137244937Y-114042857D02*
X137216365Y-113985714D01*
X137216365Y-113985714D02*
X137187794Y-113957143D01*
X137187794Y-113957143D02*
X137130651Y-113928571D01*
X161200000Y-123326491D02*
X161000000Y-123040777D01*
X160857143Y-123326491D02*
X160857143Y-122726491D01*
X160857143Y-122726491D02*
X161085714Y-122726491D01*
X161085714Y-122726491D02*
X161142857Y-122755062D01*
X161142857Y-122755062D02*
X161171428Y-122783634D01*
X161171428Y-122783634D02*
X161200000Y-122840777D01*
X161200000Y-122840777D02*
X161200000Y-122926491D01*
X161200000Y-122926491D02*
X161171428Y-122983634D01*
X161171428Y-122983634D02*
X161142857Y-123012205D01*
X161142857Y-123012205D02*
X161085714Y-123040777D01*
X161085714Y-123040777D02*
X160857143Y-123040777D01*
X161771428Y-123326491D02*
X161428571Y-123326491D01*
X161600000Y-123326491D02*
X161600000Y-122726491D01*
X161600000Y-122726491D02*
X161542857Y-122812205D01*
X161542857Y-122812205D02*
X161485714Y-122869348D01*
X161485714Y-122869348D02*
X161428571Y-122897920D01*
X137714285Y-117069348D02*
X137685713Y-117097920D01*
X137685713Y-117097920D02*
X137599999Y-117126491D01*
X137599999Y-117126491D02*
X137542856Y-117126491D01*
X137542856Y-117126491D02*
X137457142Y-117097920D01*
X137457142Y-117097920D02*
X137399999Y-117040777D01*
X137399999Y-117040777D02*
X137371428Y-116983634D01*
X137371428Y-116983634D02*
X137342856Y-116869348D01*
X137342856Y-116869348D02*
X137342856Y-116783634D01*
X137342856Y-116783634D02*
X137371428Y-116669348D01*
X137371428Y-116669348D02*
X137399999Y-116612205D01*
X137399999Y-116612205D02*
X137457142Y-116555062D01*
X137457142Y-116555062D02*
X137542856Y-116526491D01*
X137542856Y-116526491D02*
X137599999Y-116526491D01*
X137599999Y-116526491D02*
X137685713Y-116555062D01*
X137685713Y-116555062D02*
X137714285Y-116583634D01*
X137942856Y-116583634D02*
X137971428Y-116555062D01*
X137971428Y-116555062D02*
X138028571Y-116526491D01*
X138028571Y-116526491D02*
X138171428Y-116526491D01*
X138171428Y-116526491D02*
X138228571Y-116555062D01*
X138228571Y-116555062D02*
X138257142Y-116583634D01*
X138257142Y-116583634D02*
X138285713Y-116640777D01*
X138285713Y-116640777D02*
X138285713Y-116697920D01*
X138285713Y-116697920D02*
X138257142Y-116783634D01*
X138257142Y-116783634D02*
X137914285Y-117126491D01*
X137914285Y-117126491D02*
X138285713Y-117126491D01*
X138857142Y-117126491D02*
X138514285Y-117126491D01*
X138685714Y-117126491D02*
X138685714Y-116526491D01*
X138685714Y-116526491D02*
X138628571Y-116612205D01*
X138628571Y-116612205D02*
X138571428Y-116669348D01*
X138571428Y-116669348D02*
X138514285Y-116697920D01*
X136275491Y-119985713D02*
X135675491Y-119985713D01*
X136218348Y-119357142D02*
X136246920Y-119385714D01*
X136246920Y-119385714D02*
X136275491Y-119471428D01*
X136275491Y-119471428D02*
X136275491Y-119528571D01*
X136275491Y-119528571D02*
X136246920Y-119614285D01*
X136246920Y-119614285D02*
X136189777Y-119671428D01*
X136189777Y-119671428D02*
X136132634Y-119699999D01*
X136132634Y-119699999D02*
X136018348Y-119728571D01*
X136018348Y-119728571D02*
X135932634Y-119728571D01*
X135932634Y-119728571D02*
X135818348Y-119699999D01*
X135818348Y-119699999D02*
X135761205Y-119671428D01*
X135761205Y-119671428D02*
X135704062Y-119614285D01*
X135704062Y-119614285D02*
X135675491Y-119528571D01*
X135675491Y-119528571D02*
X135675491Y-119471428D01*
X135675491Y-119471428D02*
X135704062Y-119385714D01*
X135704062Y-119385714D02*
X135732634Y-119357142D01*
X136275491Y-118785714D02*
X136275491Y-119128571D01*
X136275491Y-118957142D02*
X135675491Y-118957142D01*
X135675491Y-118957142D02*
X135761205Y-119014285D01*
X135761205Y-119014285D02*
X135818348Y-119071428D01*
X135818348Y-119071428D02*
X135846920Y-119128571D01*
X166800000Y-114569348D02*
X166771428Y-114597920D01*
X166771428Y-114597920D02*
X166685714Y-114626491D01*
X166685714Y-114626491D02*
X166628571Y-114626491D01*
X166628571Y-114626491D02*
X166542857Y-114597920D01*
X166542857Y-114597920D02*
X166485714Y-114540777D01*
X166485714Y-114540777D02*
X166457143Y-114483634D01*
X166457143Y-114483634D02*
X166428571Y-114369348D01*
X166428571Y-114369348D02*
X166428571Y-114283634D01*
X166428571Y-114283634D02*
X166457143Y-114169348D01*
X166457143Y-114169348D02*
X166485714Y-114112205D01*
X166485714Y-114112205D02*
X166542857Y-114055062D01*
X166542857Y-114055062D02*
X166628571Y-114026491D01*
X166628571Y-114026491D02*
X166685714Y-114026491D01*
X166685714Y-114026491D02*
X166771428Y-114055062D01*
X166771428Y-114055062D02*
X166800000Y-114083634D01*
X167314286Y-114026491D02*
X167200000Y-114026491D01*
X167200000Y-114026491D02*
X167142857Y-114055062D01*
X167142857Y-114055062D02*
X167114286Y-114083634D01*
X167114286Y-114083634D02*
X167057143Y-114169348D01*
X167057143Y-114169348D02*
X167028571Y-114283634D01*
X167028571Y-114283634D02*
X167028571Y-114512205D01*
X167028571Y-114512205D02*
X167057143Y-114569348D01*
X167057143Y-114569348D02*
X167085714Y-114597920D01*
X167085714Y-114597920D02*
X167142857Y-114626491D01*
X167142857Y-114626491D02*
X167257143Y-114626491D01*
X167257143Y-114626491D02*
X167314286Y-114597920D01*
X167314286Y-114597920D02*
X167342857Y-114569348D01*
X167342857Y-114569348D02*
X167371428Y-114512205D01*
X167371428Y-114512205D02*
X167371428Y-114369348D01*
X167371428Y-114369348D02*
X167342857Y-114312205D01*
X167342857Y-114312205D02*
X167314286Y-114283634D01*
X167314286Y-114283634D02*
X167257143Y-114255062D01*
X167257143Y-114255062D02*
X167142857Y-114255062D01*
X167142857Y-114255062D02*
X167085714Y-114283634D01*
X167085714Y-114283634D02*
X167057143Y-114312205D01*
X167057143Y-114312205D02*
X167028571Y-114369348D01*
X164914285Y-116269348D02*
X164885713Y-116297920D01*
X164885713Y-116297920D02*
X164799999Y-116326491D01*
X164799999Y-116326491D02*
X164742856Y-116326491D01*
X164742856Y-116326491D02*
X164657142Y-116297920D01*
X164657142Y-116297920D02*
X164599999Y-116240777D01*
X164599999Y-116240777D02*
X164571428Y-116183634D01*
X164571428Y-116183634D02*
X164542856Y-116069348D01*
X164542856Y-116069348D02*
X164542856Y-115983634D01*
X164542856Y-115983634D02*
X164571428Y-115869348D01*
X164571428Y-115869348D02*
X164599999Y-115812205D01*
X164599999Y-115812205D02*
X164657142Y-115755062D01*
X164657142Y-115755062D02*
X164742856Y-115726491D01*
X164742856Y-115726491D02*
X164799999Y-115726491D01*
X164799999Y-115726491D02*
X164885713Y-115755062D01*
X164885713Y-115755062D02*
X164914285Y-115783634D01*
X165114285Y-115726491D02*
X165485713Y-115726491D01*
X165485713Y-115726491D02*
X165285713Y-115955062D01*
X165285713Y-115955062D02*
X165371428Y-115955062D01*
X165371428Y-115955062D02*
X165428571Y-115983634D01*
X165428571Y-115983634D02*
X165457142Y-116012205D01*
X165457142Y-116012205D02*
X165485713Y-116069348D01*
X165485713Y-116069348D02*
X165485713Y-116212205D01*
X165485713Y-116212205D02*
X165457142Y-116269348D01*
X165457142Y-116269348D02*
X165428571Y-116297920D01*
X165428571Y-116297920D02*
X165371428Y-116326491D01*
X165371428Y-116326491D02*
X165199999Y-116326491D01*
X165199999Y-116326491D02*
X165142856Y-116297920D01*
X165142856Y-116297920D02*
X165114285Y-116269348D01*
X165685714Y-115726491D02*
X166057142Y-115726491D01*
X166057142Y-115726491D02*
X165857142Y-115955062D01*
X165857142Y-115955062D02*
X165942857Y-115955062D01*
X165942857Y-115955062D02*
X166000000Y-115983634D01*
X166000000Y-115983634D02*
X166028571Y-116012205D01*
X166028571Y-116012205D02*
X166057142Y-116069348D01*
X166057142Y-116069348D02*
X166057142Y-116212205D01*
X166057142Y-116212205D02*
X166028571Y-116269348D01*
X166028571Y-116269348D02*
X166000000Y-116297920D01*
X166000000Y-116297920D02*
X165942857Y-116326491D01*
X165942857Y-116326491D02*
X165771428Y-116326491D01*
X165771428Y-116326491D02*
X165714285Y-116297920D01*
X165714285Y-116297920D02*
X165685714Y-116269348D01*
X151900000Y-112969348D02*
X151871428Y-112997920D01*
X151871428Y-112997920D02*
X151785714Y-113026491D01*
X151785714Y-113026491D02*
X151728571Y-113026491D01*
X151728571Y-113026491D02*
X151642857Y-112997920D01*
X151642857Y-112997920D02*
X151585714Y-112940777D01*
X151585714Y-112940777D02*
X151557143Y-112883634D01*
X151557143Y-112883634D02*
X151528571Y-112769348D01*
X151528571Y-112769348D02*
X151528571Y-112683634D01*
X151528571Y-112683634D02*
X151557143Y-112569348D01*
X151557143Y-112569348D02*
X151585714Y-112512205D01*
X151585714Y-112512205D02*
X151642857Y-112455062D01*
X151642857Y-112455062D02*
X151728571Y-112426491D01*
X151728571Y-112426491D02*
X151785714Y-112426491D01*
X151785714Y-112426491D02*
X151871428Y-112455062D01*
X151871428Y-112455062D02*
X151900000Y-112483634D01*
X152242857Y-112683634D02*
X152185714Y-112655062D01*
X152185714Y-112655062D02*
X152157143Y-112626491D01*
X152157143Y-112626491D02*
X152128571Y-112569348D01*
X152128571Y-112569348D02*
X152128571Y-112540777D01*
X152128571Y-112540777D02*
X152157143Y-112483634D01*
X152157143Y-112483634D02*
X152185714Y-112455062D01*
X152185714Y-112455062D02*
X152242857Y-112426491D01*
X152242857Y-112426491D02*
X152357143Y-112426491D01*
X152357143Y-112426491D02*
X152414286Y-112455062D01*
X152414286Y-112455062D02*
X152442857Y-112483634D01*
X152442857Y-112483634D02*
X152471428Y-112540777D01*
X152471428Y-112540777D02*
X152471428Y-112569348D01*
X152471428Y-112569348D02*
X152442857Y-112626491D01*
X152442857Y-112626491D02*
X152414286Y-112655062D01*
X152414286Y-112655062D02*
X152357143Y-112683634D01*
X152357143Y-112683634D02*
X152242857Y-112683634D01*
X152242857Y-112683634D02*
X152185714Y-112712205D01*
X152185714Y-112712205D02*
X152157143Y-112740777D01*
X152157143Y-112740777D02*
X152128571Y-112797920D01*
X152128571Y-112797920D02*
X152128571Y-112912205D01*
X152128571Y-112912205D02*
X152157143Y-112969348D01*
X152157143Y-112969348D02*
X152185714Y-112997920D01*
X152185714Y-112997920D02*
X152242857Y-113026491D01*
X152242857Y-113026491D02*
X152357143Y-113026491D01*
X152357143Y-113026491D02*
X152414286Y-112997920D01*
X152414286Y-112997920D02*
X152442857Y-112969348D01*
X152442857Y-112969348D02*
X152471428Y-112912205D01*
X152471428Y-112912205D02*
X152471428Y-112797920D01*
X152471428Y-112797920D02*
X152442857Y-112740777D01*
X152442857Y-112740777D02*
X152414286Y-112712205D01*
X152414286Y-112712205D02*
X152357143Y-112683634D01*
X127114285Y-79826491D02*
X126914285Y-79540777D01*
X126771428Y-79826491D02*
X126771428Y-79226491D01*
X126771428Y-79226491D02*
X126999999Y-79226491D01*
X126999999Y-79226491D02*
X127057142Y-79255062D01*
X127057142Y-79255062D02*
X127085713Y-79283634D01*
X127085713Y-79283634D02*
X127114285Y-79340777D01*
X127114285Y-79340777D02*
X127114285Y-79426491D01*
X127114285Y-79426491D02*
X127085713Y-79483634D01*
X127085713Y-79483634D02*
X127057142Y-79512205D01*
X127057142Y-79512205D02*
X126999999Y-79540777D01*
X126999999Y-79540777D02*
X126771428Y-79540777D01*
X127685713Y-79826491D02*
X127342856Y-79826491D01*
X127514285Y-79826491D02*
X127514285Y-79226491D01*
X127514285Y-79226491D02*
X127457142Y-79312205D01*
X127457142Y-79312205D02*
X127399999Y-79369348D01*
X127399999Y-79369348D02*
X127342856Y-79397920D01*
X127885714Y-79226491D02*
X128257142Y-79226491D01*
X128257142Y-79226491D02*
X128057142Y-79455062D01*
X128057142Y-79455062D02*
X128142857Y-79455062D01*
X128142857Y-79455062D02*
X128200000Y-79483634D01*
X128200000Y-79483634D02*
X128228571Y-79512205D01*
X128228571Y-79512205D02*
X128257142Y-79569348D01*
X128257142Y-79569348D02*
X128257142Y-79712205D01*
X128257142Y-79712205D02*
X128228571Y-79769348D01*
X128228571Y-79769348D02*
X128200000Y-79797920D01*
X128200000Y-79797920D02*
X128142857Y-79826491D01*
X128142857Y-79826491D02*
X127971428Y-79826491D01*
X127971428Y-79826491D02*
X127914285Y-79797920D01*
X127914285Y-79797920D02*
X127885714Y-79769348D01*
X160914285Y-119426491D02*
X160714285Y-119140777D01*
X160571428Y-119426491D02*
X160571428Y-118826491D01*
X160571428Y-118826491D02*
X160799999Y-118826491D01*
X160799999Y-118826491D02*
X160857142Y-118855062D01*
X160857142Y-118855062D02*
X160885713Y-118883634D01*
X160885713Y-118883634D02*
X160914285Y-118940777D01*
X160914285Y-118940777D02*
X160914285Y-119026491D01*
X160914285Y-119026491D02*
X160885713Y-119083634D01*
X160885713Y-119083634D02*
X160857142Y-119112205D01*
X160857142Y-119112205D02*
X160799999Y-119140777D01*
X160799999Y-119140777D02*
X160571428Y-119140777D01*
X161142856Y-118883634D02*
X161171428Y-118855062D01*
X161171428Y-118855062D02*
X161228571Y-118826491D01*
X161228571Y-118826491D02*
X161371428Y-118826491D01*
X161371428Y-118826491D02*
X161428571Y-118855062D01*
X161428571Y-118855062D02*
X161457142Y-118883634D01*
X161457142Y-118883634D02*
X161485713Y-118940777D01*
X161485713Y-118940777D02*
X161485713Y-118997920D01*
X161485713Y-118997920D02*
X161457142Y-119083634D01*
X161457142Y-119083634D02*
X161114285Y-119426491D01*
X161114285Y-119426491D02*
X161485713Y-119426491D01*
X162000000Y-119026491D02*
X162000000Y-119426491D01*
X161857142Y-118797920D02*
X161714285Y-119226491D01*
X161714285Y-119226491D02*
X162085714Y-119226491D01*
X142414285Y-121169348D02*
X142385713Y-121197920D01*
X142385713Y-121197920D02*
X142299999Y-121226491D01*
X142299999Y-121226491D02*
X142242856Y-121226491D01*
X142242856Y-121226491D02*
X142157142Y-121197920D01*
X142157142Y-121197920D02*
X142099999Y-121140777D01*
X142099999Y-121140777D02*
X142071428Y-121083634D01*
X142071428Y-121083634D02*
X142042856Y-120969348D01*
X142042856Y-120969348D02*
X142042856Y-120883634D01*
X142042856Y-120883634D02*
X142071428Y-120769348D01*
X142071428Y-120769348D02*
X142099999Y-120712205D01*
X142099999Y-120712205D02*
X142157142Y-120655062D01*
X142157142Y-120655062D02*
X142242856Y-120626491D01*
X142242856Y-120626491D02*
X142299999Y-120626491D01*
X142299999Y-120626491D02*
X142385713Y-120655062D01*
X142385713Y-120655062D02*
X142414285Y-120683634D01*
X142642856Y-120683634D02*
X142671428Y-120655062D01*
X142671428Y-120655062D02*
X142728571Y-120626491D01*
X142728571Y-120626491D02*
X142871428Y-120626491D01*
X142871428Y-120626491D02*
X142928571Y-120655062D01*
X142928571Y-120655062D02*
X142957142Y-120683634D01*
X142957142Y-120683634D02*
X142985713Y-120740777D01*
X142985713Y-120740777D02*
X142985713Y-120797920D01*
X142985713Y-120797920D02*
X142957142Y-120883634D01*
X142957142Y-120883634D02*
X142614285Y-121226491D01*
X142614285Y-121226491D02*
X142985713Y-121226491D01*
X143185714Y-120626491D02*
X143585714Y-120626491D01*
X143585714Y-120626491D02*
X143328571Y-121226491D01*
X141514285Y-119522948D02*
X141485713Y-119551520D01*
X141485713Y-119551520D02*
X141399999Y-119580091D01*
X141399999Y-119580091D02*
X141342856Y-119580091D01*
X141342856Y-119580091D02*
X141257142Y-119551520D01*
X141257142Y-119551520D02*
X141199999Y-119494377D01*
X141199999Y-119494377D02*
X141171428Y-119437234D01*
X141171428Y-119437234D02*
X141142856Y-119322948D01*
X141142856Y-119322948D02*
X141142856Y-119237234D01*
X141142856Y-119237234D02*
X141171428Y-119122948D01*
X141171428Y-119122948D02*
X141199999Y-119065805D01*
X141199999Y-119065805D02*
X141257142Y-119008662D01*
X141257142Y-119008662D02*
X141342856Y-118980091D01*
X141342856Y-118980091D02*
X141399999Y-118980091D01*
X141399999Y-118980091D02*
X141485713Y-119008662D01*
X141485713Y-119008662D02*
X141514285Y-119037234D01*
X141742856Y-119037234D02*
X141771428Y-119008662D01*
X141771428Y-119008662D02*
X141828571Y-118980091D01*
X141828571Y-118980091D02*
X141971428Y-118980091D01*
X141971428Y-118980091D02*
X142028571Y-119008662D01*
X142028571Y-119008662D02*
X142057142Y-119037234D01*
X142057142Y-119037234D02*
X142085713Y-119094377D01*
X142085713Y-119094377D02*
X142085713Y-119151520D01*
X142085713Y-119151520D02*
X142057142Y-119237234D01*
X142057142Y-119237234D02*
X141714285Y-119580091D01*
X141714285Y-119580091D02*
X142085713Y-119580091D01*
X142314285Y-119037234D02*
X142342857Y-119008662D01*
X142342857Y-119008662D02*
X142400000Y-118980091D01*
X142400000Y-118980091D02*
X142542857Y-118980091D01*
X142542857Y-118980091D02*
X142600000Y-119008662D01*
X142600000Y-119008662D02*
X142628571Y-119037234D01*
X142628571Y-119037234D02*
X142657142Y-119094377D01*
X142657142Y-119094377D02*
X142657142Y-119151520D01*
X142657142Y-119151520D02*
X142628571Y-119237234D01*
X142628571Y-119237234D02*
X142285714Y-119580091D01*
X142285714Y-119580091D02*
X142657142Y-119580091D01*
X164500000Y-123269348D02*
X164471428Y-123297920D01*
X164471428Y-123297920D02*
X164385714Y-123326491D01*
X164385714Y-123326491D02*
X164328571Y-123326491D01*
X164328571Y-123326491D02*
X164242857Y-123297920D01*
X164242857Y-123297920D02*
X164185714Y-123240777D01*
X164185714Y-123240777D02*
X164157143Y-123183634D01*
X164157143Y-123183634D02*
X164128571Y-123069348D01*
X164128571Y-123069348D02*
X164128571Y-122983634D01*
X164128571Y-122983634D02*
X164157143Y-122869348D01*
X164157143Y-122869348D02*
X164185714Y-122812205D01*
X164185714Y-122812205D02*
X164242857Y-122755062D01*
X164242857Y-122755062D02*
X164328571Y-122726491D01*
X164328571Y-122726491D02*
X164385714Y-122726491D01*
X164385714Y-122726491D02*
X164471428Y-122755062D01*
X164471428Y-122755062D02*
X164500000Y-122783634D01*
X165071428Y-123326491D02*
X164728571Y-123326491D01*
X164900000Y-123326491D02*
X164900000Y-122726491D01*
X164900000Y-122726491D02*
X164842857Y-122812205D01*
X164842857Y-122812205D02*
X164785714Y-122869348D01*
X164785714Y-122869348D02*
X164728571Y-122897920D01*
X134600000Y-121569348D02*
X134571428Y-121597920D01*
X134571428Y-121597920D02*
X134485714Y-121626491D01*
X134485714Y-121626491D02*
X134428571Y-121626491D01*
X134428571Y-121626491D02*
X134342857Y-121597920D01*
X134342857Y-121597920D02*
X134285714Y-121540777D01*
X134285714Y-121540777D02*
X134257143Y-121483634D01*
X134257143Y-121483634D02*
X134228571Y-121369348D01*
X134228571Y-121369348D02*
X134228571Y-121283634D01*
X134228571Y-121283634D02*
X134257143Y-121169348D01*
X134257143Y-121169348D02*
X134285714Y-121112205D01*
X134285714Y-121112205D02*
X134342857Y-121055062D01*
X134342857Y-121055062D02*
X134428571Y-121026491D01*
X134428571Y-121026491D02*
X134485714Y-121026491D01*
X134485714Y-121026491D02*
X134571428Y-121055062D01*
X134571428Y-121055062D02*
X134600000Y-121083634D01*
X134800000Y-121026491D02*
X135200000Y-121026491D01*
X135200000Y-121026491D02*
X134942857Y-121626491D01*
X160014285Y-115626491D02*
X159814285Y-115340777D01*
X159671428Y-115626491D02*
X159671428Y-115026491D01*
X159671428Y-115026491D02*
X159899999Y-115026491D01*
X159899999Y-115026491D02*
X159957142Y-115055062D01*
X159957142Y-115055062D02*
X159985713Y-115083634D01*
X159985713Y-115083634D02*
X160014285Y-115140777D01*
X160014285Y-115140777D02*
X160014285Y-115226491D01*
X160014285Y-115226491D02*
X159985713Y-115283634D01*
X159985713Y-115283634D02*
X159957142Y-115312205D01*
X159957142Y-115312205D02*
X159899999Y-115340777D01*
X159899999Y-115340777D02*
X159671428Y-115340777D01*
X160242856Y-115083634D02*
X160271428Y-115055062D01*
X160271428Y-115055062D02*
X160328571Y-115026491D01*
X160328571Y-115026491D02*
X160471428Y-115026491D01*
X160471428Y-115026491D02*
X160528571Y-115055062D01*
X160528571Y-115055062D02*
X160557142Y-115083634D01*
X160557142Y-115083634D02*
X160585713Y-115140777D01*
X160585713Y-115140777D02*
X160585713Y-115197920D01*
X160585713Y-115197920D02*
X160557142Y-115283634D01*
X160557142Y-115283634D02*
X160214285Y-115626491D01*
X160214285Y-115626491D02*
X160585713Y-115626491D01*
X160785714Y-115026491D02*
X161157142Y-115026491D01*
X161157142Y-115026491D02*
X160957142Y-115255062D01*
X160957142Y-115255062D02*
X161042857Y-115255062D01*
X161042857Y-115255062D02*
X161100000Y-115283634D01*
X161100000Y-115283634D02*
X161128571Y-115312205D01*
X161128571Y-115312205D02*
X161157142Y-115369348D01*
X161157142Y-115369348D02*
X161157142Y-115512205D01*
X161157142Y-115512205D02*
X161128571Y-115569348D01*
X161128571Y-115569348D02*
X161100000Y-115597920D01*
X161100000Y-115597920D02*
X161042857Y-115626491D01*
X161042857Y-115626491D02*
X160871428Y-115626491D01*
X160871428Y-115626491D02*
X160814285Y-115597920D01*
X160814285Y-115597920D02*
X160785714Y-115569348D01*
X121814285Y-96669348D02*
X121785713Y-96697920D01*
X121785713Y-96697920D02*
X121699999Y-96726491D01*
X121699999Y-96726491D02*
X121642856Y-96726491D01*
X121642856Y-96726491D02*
X121557142Y-96697920D01*
X121557142Y-96697920D02*
X121499999Y-96640777D01*
X121499999Y-96640777D02*
X121471428Y-96583634D01*
X121471428Y-96583634D02*
X121442856Y-96469348D01*
X121442856Y-96469348D02*
X121442856Y-96383634D01*
X121442856Y-96383634D02*
X121471428Y-96269348D01*
X121471428Y-96269348D02*
X121499999Y-96212205D01*
X121499999Y-96212205D02*
X121557142Y-96155062D01*
X121557142Y-96155062D02*
X121642856Y-96126491D01*
X121642856Y-96126491D02*
X121699999Y-96126491D01*
X121699999Y-96126491D02*
X121785713Y-96155062D01*
X121785713Y-96155062D02*
X121814285Y-96183634D01*
X122014285Y-96126491D02*
X122385713Y-96126491D01*
X122385713Y-96126491D02*
X122185713Y-96355062D01*
X122185713Y-96355062D02*
X122271428Y-96355062D01*
X122271428Y-96355062D02*
X122328571Y-96383634D01*
X122328571Y-96383634D02*
X122357142Y-96412205D01*
X122357142Y-96412205D02*
X122385713Y-96469348D01*
X122385713Y-96469348D02*
X122385713Y-96612205D01*
X122385713Y-96612205D02*
X122357142Y-96669348D01*
X122357142Y-96669348D02*
X122328571Y-96697920D01*
X122328571Y-96697920D02*
X122271428Y-96726491D01*
X122271428Y-96726491D02*
X122099999Y-96726491D01*
X122099999Y-96726491D02*
X122042856Y-96697920D01*
X122042856Y-96697920D02*
X122014285Y-96669348D01*
X122757142Y-96126491D02*
X122814285Y-96126491D01*
X122814285Y-96126491D02*
X122871428Y-96155062D01*
X122871428Y-96155062D02*
X122900000Y-96183634D01*
X122900000Y-96183634D02*
X122928571Y-96240777D01*
X122928571Y-96240777D02*
X122957142Y-96355062D01*
X122957142Y-96355062D02*
X122957142Y-96497920D01*
X122957142Y-96497920D02*
X122928571Y-96612205D01*
X122928571Y-96612205D02*
X122900000Y-96669348D01*
X122900000Y-96669348D02*
X122871428Y-96697920D01*
X122871428Y-96697920D02*
X122814285Y-96726491D01*
X122814285Y-96726491D02*
X122757142Y-96726491D01*
X122757142Y-96726491D02*
X122700000Y-96697920D01*
X122700000Y-96697920D02*
X122671428Y-96669348D01*
X122671428Y-96669348D02*
X122642857Y-96612205D01*
X122642857Y-96612205D02*
X122614285Y-96497920D01*
X122614285Y-96497920D02*
X122614285Y-96355062D01*
X122614285Y-96355062D02*
X122642857Y-96240777D01*
X122642857Y-96240777D02*
X122671428Y-96183634D01*
X122671428Y-96183634D02*
X122700000Y-96155062D01*
X122700000Y-96155062D02*
X122757142Y-96126491D01*
X134673508Y-107814285D02*
X134959222Y-107614285D01*
X134673508Y-107471428D02*
X135273508Y-107471428D01*
X135273508Y-107471428D02*
X135273508Y-107699999D01*
X135273508Y-107699999D02*
X135244937Y-107757142D01*
X135244937Y-107757142D02*
X135216365Y-107785713D01*
X135216365Y-107785713D02*
X135159222Y-107814285D01*
X135159222Y-107814285D02*
X135073508Y-107814285D01*
X135073508Y-107814285D02*
X135016365Y-107785713D01*
X135016365Y-107785713D02*
X134987794Y-107757142D01*
X134987794Y-107757142D02*
X134959222Y-107699999D01*
X134959222Y-107699999D02*
X134959222Y-107471428D01*
X135216365Y-108042856D02*
X135244937Y-108071428D01*
X135244937Y-108071428D02*
X135273508Y-108128571D01*
X135273508Y-108128571D02*
X135273508Y-108271428D01*
X135273508Y-108271428D02*
X135244937Y-108328571D01*
X135244937Y-108328571D02*
X135216365Y-108357142D01*
X135216365Y-108357142D02*
X135159222Y-108385713D01*
X135159222Y-108385713D02*
X135102080Y-108385713D01*
X135102080Y-108385713D02*
X135016365Y-108357142D01*
X135016365Y-108357142D02*
X134673508Y-108014285D01*
X134673508Y-108014285D02*
X134673508Y-108385713D01*
X135273508Y-108757142D02*
X135273508Y-108814285D01*
X135273508Y-108814285D02*
X135244937Y-108871428D01*
X135244937Y-108871428D02*
X135216365Y-108900000D01*
X135216365Y-108900000D02*
X135159222Y-108928571D01*
X135159222Y-108928571D02*
X135044937Y-108957142D01*
X135044937Y-108957142D02*
X134902080Y-108957142D01*
X134902080Y-108957142D02*
X134787794Y-108928571D01*
X134787794Y-108928571D02*
X134730651Y-108900000D01*
X134730651Y-108900000D02*
X134702080Y-108871428D01*
X134702080Y-108871428D02*
X134673508Y-108814285D01*
X134673508Y-108814285D02*
X134673508Y-108757142D01*
X134673508Y-108757142D02*
X134702080Y-108700000D01*
X134702080Y-108700000D02*
X134730651Y-108671428D01*
X134730651Y-108671428D02*
X134787794Y-108642857D01*
X134787794Y-108642857D02*
X134902080Y-108614285D01*
X134902080Y-108614285D02*
X135044937Y-108614285D01*
X135044937Y-108614285D02*
X135159222Y-108642857D01*
X135159222Y-108642857D02*
X135216365Y-108671428D01*
X135216365Y-108671428D02*
X135244937Y-108700000D01*
X135244937Y-108700000D02*
X135273508Y-108757142D01*
X130914285Y-125369348D02*
X130885713Y-125397920D01*
X130885713Y-125397920D02*
X130799999Y-125426491D01*
X130799999Y-125426491D02*
X130742856Y-125426491D01*
X130742856Y-125426491D02*
X130657142Y-125397920D01*
X130657142Y-125397920D02*
X130599999Y-125340777D01*
X130599999Y-125340777D02*
X130571428Y-125283634D01*
X130571428Y-125283634D02*
X130542856Y-125169348D01*
X130542856Y-125169348D02*
X130542856Y-125083634D01*
X130542856Y-125083634D02*
X130571428Y-124969348D01*
X130571428Y-124969348D02*
X130599999Y-124912205D01*
X130599999Y-124912205D02*
X130657142Y-124855062D01*
X130657142Y-124855062D02*
X130742856Y-124826491D01*
X130742856Y-124826491D02*
X130799999Y-124826491D01*
X130799999Y-124826491D02*
X130885713Y-124855062D01*
X130885713Y-124855062D02*
X130914285Y-124883634D01*
X131485713Y-125426491D02*
X131142856Y-125426491D01*
X131314285Y-125426491D02*
X131314285Y-124826491D01*
X131314285Y-124826491D02*
X131257142Y-124912205D01*
X131257142Y-124912205D02*
X131199999Y-124969348D01*
X131199999Y-124969348D02*
X131142856Y-124997920D01*
X131685714Y-124826491D02*
X132085714Y-124826491D01*
X132085714Y-124826491D02*
X131828571Y-125426491D01*
X128824608Y-113967885D02*
X129110322Y-113767885D01*
X128824608Y-113625028D02*
X129424608Y-113625028D01*
X129424608Y-113625028D02*
X129424608Y-113853599D01*
X129424608Y-113853599D02*
X129396037Y-113910742D01*
X129396037Y-113910742D02*
X129367465Y-113939313D01*
X129367465Y-113939313D02*
X129310322Y-113967885D01*
X129310322Y-113967885D02*
X129224608Y-113967885D01*
X129224608Y-113967885D02*
X129167465Y-113939313D01*
X129167465Y-113939313D02*
X129138894Y-113910742D01*
X129138894Y-113910742D02*
X129110322Y-113853599D01*
X129110322Y-113853599D02*
X129110322Y-113625028D01*
X128824608Y-114539313D02*
X128824608Y-114196456D01*
X128824608Y-114367885D02*
X129424608Y-114367885D01*
X129424608Y-114367885D02*
X129338894Y-114310742D01*
X129338894Y-114310742D02*
X129281751Y-114253599D01*
X129281751Y-114253599D02*
X129253180Y-114196456D01*
X129424608Y-114910742D02*
X129424608Y-114967885D01*
X129424608Y-114967885D02*
X129396037Y-115025028D01*
X129396037Y-115025028D02*
X129367465Y-115053600D01*
X129367465Y-115053600D02*
X129310322Y-115082171D01*
X129310322Y-115082171D02*
X129196037Y-115110742D01*
X129196037Y-115110742D02*
X129053180Y-115110742D01*
X129053180Y-115110742D02*
X128938894Y-115082171D01*
X128938894Y-115082171D02*
X128881751Y-115053600D01*
X128881751Y-115053600D02*
X128853180Y-115025028D01*
X128853180Y-115025028D02*
X128824608Y-114967885D01*
X128824608Y-114967885D02*
X128824608Y-114910742D01*
X128824608Y-114910742D02*
X128853180Y-114853600D01*
X128853180Y-114853600D02*
X128881751Y-114825028D01*
X128881751Y-114825028D02*
X128938894Y-114796457D01*
X128938894Y-114796457D02*
X129053180Y-114767885D01*
X129053180Y-114767885D02*
X129196037Y-114767885D01*
X129196037Y-114767885D02*
X129310322Y-114796457D01*
X129310322Y-114796457D02*
X129367465Y-114825028D01*
X129367465Y-114825028D02*
X129396037Y-114853600D01*
X129396037Y-114853600D02*
X129424608Y-114910742D01*
X115359398Y-86826491D02*
X115359398Y-87255062D01*
X115359398Y-87255062D02*
X115330827Y-87340777D01*
X115330827Y-87340777D02*
X115273684Y-87397920D01*
X115273684Y-87397920D02*
X115187970Y-87426491D01*
X115187970Y-87426491D02*
X115130827Y-87426491D01*
X115902256Y-87026491D02*
X115902256Y-87426491D01*
X115759398Y-86797920D02*
X115616541Y-87226491D01*
X115616541Y-87226491D02*
X115987970Y-87226491D01*
X117819172Y-78424491D02*
X117819172Y-77824491D01*
X117819172Y-77824491D02*
X117962029Y-77824491D01*
X117962029Y-77824491D02*
X118047743Y-77853062D01*
X118047743Y-77853062D02*
X118104886Y-77910205D01*
X118104886Y-77910205D02*
X118133457Y-77967348D01*
X118133457Y-77967348D02*
X118162029Y-78081634D01*
X118162029Y-78081634D02*
X118162029Y-78167348D01*
X118162029Y-78167348D02*
X118133457Y-78281634D01*
X118133457Y-78281634D02*
X118104886Y-78338777D01*
X118104886Y-78338777D02*
X118047743Y-78395920D01*
X118047743Y-78395920D02*
X117962029Y-78424491D01*
X117962029Y-78424491D02*
X117819172Y-78424491D01*
X118733457Y-78424491D02*
X118390600Y-78424491D01*
X118562029Y-78424491D02*
X118562029Y-77824491D01*
X118562029Y-77824491D02*
X118504886Y-77910205D01*
X118504886Y-77910205D02*
X118447743Y-77967348D01*
X118447743Y-77967348D02*
X118390600Y-77995920D01*
X116814285Y-87969348D02*
X116785713Y-87997920D01*
X116785713Y-87997920D02*
X116699999Y-88026491D01*
X116699999Y-88026491D02*
X116642856Y-88026491D01*
X116642856Y-88026491D02*
X116557142Y-87997920D01*
X116557142Y-87997920D02*
X116499999Y-87940777D01*
X116499999Y-87940777D02*
X116471428Y-87883634D01*
X116471428Y-87883634D02*
X116442856Y-87769348D01*
X116442856Y-87769348D02*
X116442856Y-87683634D01*
X116442856Y-87683634D02*
X116471428Y-87569348D01*
X116471428Y-87569348D02*
X116499999Y-87512205D01*
X116499999Y-87512205D02*
X116557142Y-87455062D01*
X116557142Y-87455062D02*
X116642856Y-87426491D01*
X116642856Y-87426491D02*
X116699999Y-87426491D01*
X116699999Y-87426491D02*
X116785713Y-87455062D01*
X116785713Y-87455062D02*
X116814285Y-87483634D01*
X117042856Y-87483634D02*
X117071428Y-87455062D01*
X117071428Y-87455062D02*
X117128571Y-87426491D01*
X117128571Y-87426491D02*
X117271428Y-87426491D01*
X117271428Y-87426491D02*
X117328571Y-87455062D01*
X117328571Y-87455062D02*
X117357142Y-87483634D01*
X117357142Y-87483634D02*
X117385713Y-87540777D01*
X117385713Y-87540777D02*
X117385713Y-87597920D01*
X117385713Y-87597920D02*
X117357142Y-87683634D01*
X117357142Y-87683634D02*
X117014285Y-88026491D01*
X117014285Y-88026491D02*
X117385713Y-88026491D01*
X117728571Y-87683634D02*
X117671428Y-87655062D01*
X117671428Y-87655062D02*
X117642857Y-87626491D01*
X117642857Y-87626491D02*
X117614285Y-87569348D01*
X117614285Y-87569348D02*
X117614285Y-87540777D01*
X117614285Y-87540777D02*
X117642857Y-87483634D01*
X117642857Y-87483634D02*
X117671428Y-87455062D01*
X117671428Y-87455062D02*
X117728571Y-87426491D01*
X117728571Y-87426491D02*
X117842857Y-87426491D01*
X117842857Y-87426491D02*
X117900000Y-87455062D01*
X117900000Y-87455062D02*
X117928571Y-87483634D01*
X117928571Y-87483634D02*
X117957142Y-87540777D01*
X117957142Y-87540777D02*
X117957142Y-87569348D01*
X117957142Y-87569348D02*
X117928571Y-87626491D01*
X117928571Y-87626491D02*
X117900000Y-87655062D01*
X117900000Y-87655062D02*
X117842857Y-87683634D01*
X117842857Y-87683634D02*
X117728571Y-87683634D01*
X117728571Y-87683634D02*
X117671428Y-87712205D01*
X117671428Y-87712205D02*
X117642857Y-87740777D01*
X117642857Y-87740777D02*
X117614285Y-87797920D01*
X117614285Y-87797920D02*
X117614285Y-87912205D01*
X117614285Y-87912205D02*
X117642857Y-87969348D01*
X117642857Y-87969348D02*
X117671428Y-87997920D01*
X117671428Y-87997920D02*
X117728571Y-88026491D01*
X117728571Y-88026491D02*
X117842857Y-88026491D01*
X117842857Y-88026491D02*
X117900000Y-87997920D01*
X117900000Y-87997920D02*
X117928571Y-87969348D01*
X117928571Y-87969348D02*
X117957142Y-87912205D01*
X117957142Y-87912205D02*
X117957142Y-87797920D01*
X117957142Y-87797920D02*
X117928571Y-87740777D01*
X117928571Y-87740777D02*
X117900000Y-87712205D01*
X117900000Y-87712205D02*
X117842857Y-87683634D01*
X154700000Y-114626491D02*
X154500000Y-114340777D01*
X154357143Y-114626491D02*
X154357143Y-114026491D01*
X154357143Y-114026491D02*
X154585714Y-114026491D01*
X154585714Y-114026491D02*
X154642857Y-114055062D01*
X154642857Y-114055062D02*
X154671428Y-114083634D01*
X154671428Y-114083634D02*
X154700000Y-114140777D01*
X154700000Y-114140777D02*
X154700000Y-114226491D01*
X154700000Y-114226491D02*
X154671428Y-114283634D01*
X154671428Y-114283634D02*
X154642857Y-114312205D01*
X154642857Y-114312205D02*
X154585714Y-114340777D01*
X154585714Y-114340777D02*
X154357143Y-114340777D01*
X155042857Y-114283634D02*
X154985714Y-114255062D01*
X154985714Y-114255062D02*
X154957143Y-114226491D01*
X154957143Y-114226491D02*
X154928571Y-114169348D01*
X154928571Y-114169348D02*
X154928571Y-114140777D01*
X154928571Y-114140777D02*
X154957143Y-114083634D01*
X154957143Y-114083634D02*
X154985714Y-114055062D01*
X154985714Y-114055062D02*
X155042857Y-114026491D01*
X155042857Y-114026491D02*
X155157143Y-114026491D01*
X155157143Y-114026491D02*
X155214286Y-114055062D01*
X155214286Y-114055062D02*
X155242857Y-114083634D01*
X155242857Y-114083634D02*
X155271428Y-114140777D01*
X155271428Y-114140777D02*
X155271428Y-114169348D01*
X155271428Y-114169348D02*
X155242857Y-114226491D01*
X155242857Y-114226491D02*
X155214286Y-114255062D01*
X155214286Y-114255062D02*
X155157143Y-114283634D01*
X155157143Y-114283634D02*
X155042857Y-114283634D01*
X155042857Y-114283634D02*
X154985714Y-114312205D01*
X154985714Y-114312205D02*
X154957143Y-114340777D01*
X154957143Y-114340777D02*
X154928571Y-114397920D01*
X154928571Y-114397920D02*
X154928571Y-114512205D01*
X154928571Y-114512205D02*
X154957143Y-114569348D01*
X154957143Y-114569348D02*
X154985714Y-114597920D01*
X154985714Y-114597920D02*
X155042857Y-114626491D01*
X155042857Y-114626491D02*
X155157143Y-114626491D01*
X155157143Y-114626491D02*
X155214286Y-114597920D01*
X155214286Y-114597920D02*
X155242857Y-114569348D01*
X155242857Y-114569348D02*
X155271428Y-114512205D01*
X155271428Y-114512205D02*
X155271428Y-114397920D01*
X155271428Y-114397920D02*
X155242857Y-114340777D01*
X155242857Y-114340777D02*
X155214286Y-114312205D01*
X155214286Y-114312205D02*
X155157143Y-114283634D01*
X124614285Y-117369348D02*
X124585713Y-117397920D01*
X124585713Y-117397920D02*
X124499999Y-117426491D01*
X124499999Y-117426491D02*
X124442856Y-117426491D01*
X124442856Y-117426491D02*
X124357142Y-117397920D01*
X124357142Y-117397920D02*
X124299999Y-117340777D01*
X124299999Y-117340777D02*
X124271428Y-117283634D01*
X124271428Y-117283634D02*
X124242856Y-117169348D01*
X124242856Y-117169348D02*
X124242856Y-117083634D01*
X124242856Y-117083634D02*
X124271428Y-116969348D01*
X124271428Y-116969348D02*
X124299999Y-116912205D01*
X124299999Y-116912205D02*
X124357142Y-116855062D01*
X124357142Y-116855062D02*
X124442856Y-116826491D01*
X124442856Y-116826491D02*
X124499999Y-116826491D01*
X124499999Y-116826491D02*
X124585713Y-116855062D01*
X124585713Y-116855062D02*
X124614285Y-116883634D01*
X124842856Y-116883634D02*
X124871428Y-116855062D01*
X124871428Y-116855062D02*
X124928571Y-116826491D01*
X124928571Y-116826491D02*
X125071428Y-116826491D01*
X125071428Y-116826491D02*
X125128571Y-116855062D01*
X125128571Y-116855062D02*
X125157142Y-116883634D01*
X125157142Y-116883634D02*
X125185713Y-116940777D01*
X125185713Y-116940777D02*
X125185713Y-116997920D01*
X125185713Y-116997920D02*
X125157142Y-117083634D01*
X125157142Y-117083634D02*
X124814285Y-117426491D01*
X124814285Y-117426491D02*
X125185713Y-117426491D01*
X125700000Y-117026491D02*
X125700000Y-117426491D01*
X125557142Y-116797920D02*
X125414285Y-117226491D01*
X125414285Y-117226491D02*
X125785714Y-117226491D01*
X164214285Y-119426491D02*
X164014285Y-119140777D01*
X163871428Y-119426491D02*
X163871428Y-118826491D01*
X163871428Y-118826491D02*
X164099999Y-118826491D01*
X164099999Y-118826491D02*
X164157142Y-118855062D01*
X164157142Y-118855062D02*
X164185713Y-118883634D01*
X164185713Y-118883634D02*
X164214285Y-118940777D01*
X164214285Y-118940777D02*
X164214285Y-119026491D01*
X164214285Y-119026491D02*
X164185713Y-119083634D01*
X164185713Y-119083634D02*
X164157142Y-119112205D01*
X164157142Y-119112205D02*
X164099999Y-119140777D01*
X164099999Y-119140777D02*
X163871428Y-119140777D01*
X164442856Y-118883634D02*
X164471428Y-118855062D01*
X164471428Y-118855062D02*
X164528571Y-118826491D01*
X164528571Y-118826491D02*
X164671428Y-118826491D01*
X164671428Y-118826491D02*
X164728571Y-118855062D01*
X164728571Y-118855062D02*
X164757142Y-118883634D01*
X164757142Y-118883634D02*
X164785713Y-118940777D01*
X164785713Y-118940777D02*
X164785713Y-118997920D01*
X164785713Y-118997920D02*
X164757142Y-119083634D01*
X164757142Y-119083634D02*
X164414285Y-119426491D01*
X164414285Y-119426491D02*
X164785713Y-119426491D01*
X165071428Y-119426491D02*
X165185714Y-119426491D01*
X165185714Y-119426491D02*
X165242857Y-119397920D01*
X165242857Y-119397920D02*
X165271428Y-119369348D01*
X165271428Y-119369348D02*
X165328571Y-119283634D01*
X165328571Y-119283634D02*
X165357142Y-119169348D01*
X165357142Y-119169348D02*
X165357142Y-118940777D01*
X165357142Y-118940777D02*
X165328571Y-118883634D01*
X165328571Y-118883634D02*
X165300000Y-118855062D01*
X165300000Y-118855062D02*
X165242857Y-118826491D01*
X165242857Y-118826491D02*
X165128571Y-118826491D01*
X165128571Y-118826491D02*
X165071428Y-118855062D01*
X165071428Y-118855062D02*
X165042857Y-118883634D01*
X165042857Y-118883634D02*
X165014285Y-118940777D01*
X165014285Y-118940777D02*
X165014285Y-119083634D01*
X165014285Y-119083634D02*
X165042857Y-119140777D01*
X165042857Y-119140777D02*
X165071428Y-119169348D01*
X165071428Y-119169348D02*
X165128571Y-119197920D01*
X165128571Y-119197920D02*
X165242857Y-119197920D01*
X165242857Y-119197920D02*
X165300000Y-119169348D01*
X165300000Y-119169348D02*
X165328571Y-119140777D01*
X165328571Y-119140777D02*
X165357142Y-119083634D01*
X140215385Y-122672948D02*
X140186813Y-122701520D01*
X140186813Y-122701520D02*
X140101099Y-122730091D01*
X140101099Y-122730091D02*
X140043956Y-122730091D01*
X140043956Y-122730091D02*
X139958242Y-122701520D01*
X139958242Y-122701520D02*
X139901099Y-122644377D01*
X139901099Y-122644377D02*
X139872528Y-122587234D01*
X139872528Y-122587234D02*
X139843956Y-122472948D01*
X139843956Y-122472948D02*
X139843956Y-122387234D01*
X139843956Y-122387234D02*
X139872528Y-122272948D01*
X139872528Y-122272948D02*
X139901099Y-122215805D01*
X139901099Y-122215805D02*
X139958242Y-122158662D01*
X139958242Y-122158662D02*
X140043956Y-122130091D01*
X140043956Y-122130091D02*
X140101099Y-122130091D01*
X140101099Y-122130091D02*
X140186813Y-122158662D01*
X140186813Y-122158662D02*
X140215385Y-122187234D01*
X140786813Y-122730091D02*
X140443956Y-122730091D01*
X140615385Y-122730091D02*
X140615385Y-122130091D01*
X140615385Y-122130091D02*
X140558242Y-122215805D01*
X140558242Y-122215805D02*
X140501099Y-122272948D01*
X140501099Y-122272948D02*
X140443956Y-122301520D01*
X141358242Y-122730091D02*
X141015385Y-122730091D01*
X141186814Y-122730091D02*
X141186814Y-122130091D01*
X141186814Y-122130091D02*
X141129671Y-122215805D01*
X141129671Y-122215805D02*
X141072528Y-122272948D01*
X141072528Y-122272948D02*
X141015385Y-122301520D01*
D14*
X122375727Y-138825829D02*
X123216104Y-138825829D01*
X123216104Y-138825829D02*
X123384179Y-138881854D01*
X123384179Y-138881854D02*
X123496230Y-138993904D01*
X123496230Y-138993904D02*
X123552255Y-139161980D01*
X123552255Y-139161980D02*
X123552255Y-139274030D01*
X122375727Y-138377628D02*
X122375727Y-137649301D01*
X122375727Y-137649301D02*
X122823928Y-138041477D01*
X122823928Y-138041477D02*
X122823928Y-137873402D01*
X122823928Y-137873402D02*
X122879953Y-137761352D01*
X122879953Y-137761352D02*
X122935978Y-137705326D01*
X122935978Y-137705326D02*
X123048028Y-137649301D01*
X123048028Y-137649301D02*
X123328154Y-137649301D01*
X123328154Y-137649301D02*
X123440204Y-137705326D01*
X123440204Y-137705326D02*
X123496230Y-137761352D01*
X123496230Y-137761352D02*
X123552255Y-137873402D01*
X123552255Y-137873402D02*
X123552255Y-138209553D01*
X123552255Y-138209553D02*
X123496230Y-138321603D01*
X123496230Y-138321603D02*
X123440204Y-138377628D01*
D12*
X127274608Y-113967885D02*
X127560322Y-113767885D01*
X127274608Y-113625028D02*
X127874608Y-113625028D01*
X127874608Y-113625028D02*
X127874608Y-113853599D01*
X127874608Y-113853599D02*
X127846037Y-113910742D01*
X127846037Y-113910742D02*
X127817465Y-113939313D01*
X127817465Y-113939313D02*
X127760322Y-113967885D01*
X127760322Y-113967885D02*
X127674608Y-113967885D01*
X127674608Y-113967885D02*
X127617465Y-113939313D01*
X127617465Y-113939313D02*
X127588894Y-113910742D01*
X127588894Y-113910742D02*
X127560322Y-113853599D01*
X127560322Y-113853599D02*
X127560322Y-113625028D01*
X127274608Y-114539313D02*
X127274608Y-114196456D01*
X127274608Y-114367885D02*
X127874608Y-114367885D01*
X127874608Y-114367885D02*
X127788894Y-114310742D01*
X127788894Y-114310742D02*
X127731751Y-114253599D01*
X127731751Y-114253599D02*
X127703180Y-114196456D01*
X127274608Y-115110742D02*
X127274608Y-114767885D01*
X127274608Y-114939314D02*
X127874608Y-114939314D01*
X127874608Y-114939314D02*
X127788894Y-114882171D01*
X127788894Y-114882171D02*
X127731751Y-114825028D01*
X127731751Y-114825028D02*
X127703180Y-114767885D01*
X124814285Y-122669348D02*
X124785713Y-122697920D01*
X124785713Y-122697920D02*
X124699999Y-122726491D01*
X124699999Y-122726491D02*
X124642856Y-122726491D01*
X124642856Y-122726491D02*
X124557142Y-122697920D01*
X124557142Y-122697920D02*
X124499999Y-122640777D01*
X124499999Y-122640777D02*
X124471428Y-122583634D01*
X124471428Y-122583634D02*
X124442856Y-122469348D01*
X124442856Y-122469348D02*
X124442856Y-122383634D01*
X124442856Y-122383634D02*
X124471428Y-122269348D01*
X124471428Y-122269348D02*
X124499999Y-122212205D01*
X124499999Y-122212205D02*
X124557142Y-122155062D01*
X124557142Y-122155062D02*
X124642856Y-122126491D01*
X124642856Y-122126491D02*
X124699999Y-122126491D01*
X124699999Y-122126491D02*
X124785713Y-122155062D01*
X124785713Y-122155062D02*
X124814285Y-122183634D01*
X125385713Y-122726491D02*
X125042856Y-122726491D01*
X125214285Y-122726491D02*
X125214285Y-122126491D01*
X125214285Y-122126491D02*
X125157142Y-122212205D01*
X125157142Y-122212205D02*
X125099999Y-122269348D01*
X125099999Y-122269348D02*
X125042856Y-122297920D01*
X125757142Y-122126491D02*
X125814285Y-122126491D01*
X125814285Y-122126491D02*
X125871428Y-122155062D01*
X125871428Y-122155062D02*
X125900000Y-122183634D01*
X125900000Y-122183634D02*
X125928571Y-122240777D01*
X125928571Y-122240777D02*
X125957142Y-122355062D01*
X125957142Y-122355062D02*
X125957142Y-122497920D01*
X125957142Y-122497920D02*
X125928571Y-122612205D01*
X125928571Y-122612205D02*
X125900000Y-122669348D01*
X125900000Y-122669348D02*
X125871428Y-122697920D01*
X125871428Y-122697920D02*
X125814285Y-122726491D01*
X125814285Y-122726491D02*
X125757142Y-122726491D01*
X125757142Y-122726491D02*
X125700000Y-122697920D01*
X125700000Y-122697920D02*
X125671428Y-122669348D01*
X125671428Y-122669348D02*
X125642857Y-122612205D01*
X125642857Y-122612205D02*
X125614285Y-122497920D01*
X125614285Y-122497920D02*
X125614285Y-122355062D01*
X125614285Y-122355062D02*
X125642857Y-122240777D01*
X125642857Y-122240777D02*
X125671428Y-122183634D01*
X125671428Y-122183634D02*
X125700000Y-122155062D01*
X125700000Y-122155062D02*
X125757142Y-122126491D01*
X138814285Y-112326491D02*
X138614285Y-112040777D01*
X138471428Y-112326491D02*
X138471428Y-111726491D01*
X138471428Y-111726491D02*
X138699999Y-111726491D01*
X138699999Y-111726491D02*
X138757142Y-111755062D01*
X138757142Y-111755062D02*
X138785713Y-111783634D01*
X138785713Y-111783634D02*
X138814285Y-111840777D01*
X138814285Y-111840777D02*
X138814285Y-111926491D01*
X138814285Y-111926491D02*
X138785713Y-111983634D01*
X138785713Y-111983634D02*
X138757142Y-112012205D01*
X138757142Y-112012205D02*
X138699999Y-112040777D01*
X138699999Y-112040777D02*
X138471428Y-112040777D01*
X139385713Y-112326491D02*
X139042856Y-112326491D01*
X139214285Y-112326491D02*
X139214285Y-111726491D01*
X139214285Y-111726491D02*
X139157142Y-111812205D01*
X139157142Y-111812205D02*
X139099999Y-111869348D01*
X139099999Y-111869348D02*
X139042856Y-111897920D01*
X139671428Y-112326491D02*
X139785714Y-112326491D01*
X139785714Y-112326491D02*
X139842857Y-112297920D01*
X139842857Y-112297920D02*
X139871428Y-112269348D01*
X139871428Y-112269348D02*
X139928571Y-112183634D01*
X139928571Y-112183634D02*
X139957142Y-112069348D01*
X139957142Y-112069348D02*
X139957142Y-111840777D01*
X139957142Y-111840777D02*
X139928571Y-111783634D01*
X139928571Y-111783634D02*
X139900000Y-111755062D01*
X139900000Y-111755062D02*
X139842857Y-111726491D01*
X139842857Y-111726491D02*
X139728571Y-111726491D01*
X139728571Y-111726491D02*
X139671428Y-111755062D01*
X139671428Y-111755062D02*
X139642857Y-111783634D01*
X139642857Y-111783634D02*
X139614285Y-111840777D01*
X139614285Y-111840777D02*
X139614285Y-111983634D01*
X139614285Y-111983634D02*
X139642857Y-112040777D01*
X139642857Y-112040777D02*
X139671428Y-112069348D01*
X139671428Y-112069348D02*
X139728571Y-112097920D01*
X139728571Y-112097920D02*
X139842857Y-112097920D01*
X139842857Y-112097920D02*
X139900000Y-112069348D01*
X139900000Y-112069348D02*
X139928571Y-112040777D01*
X139928571Y-112040777D02*
X139957142Y-111983634D01*
X155300000Y-122126491D02*
X155100000Y-121840777D01*
X154957143Y-122126491D02*
X154957143Y-121526491D01*
X154957143Y-121526491D02*
X155185714Y-121526491D01*
X155185714Y-121526491D02*
X155242857Y-121555062D01*
X155242857Y-121555062D02*
X155271428Y-121583634D01*
X155271428Y-121583634D02*
X155300000Y-121640777D01*
X155300000Y-121640777D02*
X155300000Y-121726491D01*
X155300000Y-121726491D02*
X155271428Y-121783634D01*
X155271428Y-121783634D02*
X155242857Y-121812205D01*
X155242857Y-121812205D02*
X155185714Y-121840777D01*
X155185714Y-121840777D02*
X154957143Y-121840777D01*
X155814286Y-121726491D02*
X155814286Y-122126491D01*
X155671428Y-121497920D02*
X155528571Y-121926491D01*
X155528571Y-121926491D02*
X155900000Y-121926491D01*
X120814285Y-77126491D02*
X120614285Y-76840777D01*
X120471428Y-77126491D02*
X120471428Y-76526491D01*
X120471428Y-76526491D02*
X120699999Y-76526491D01*
X120699999Y-76526491D02*
X120757142Y-76555062D01*
X120757142Y-76555062D02*
X120785713Y-76583634D01*
X120785713Y-76583634D02*
X120814285Y-76640777D01*
X120814285Y-76640777D02*
X120814285Y-76726491D01*
X120814285Y-76726491D02*
X120785713Y-76783634D01*
X120785713Y-76783634D02*
X120757142Y-76812205D01*
X120757142Y-76812205D02*
X120699999Y-76840777D01*
X120699999Y-76840777D02*
X120471428Y-76840777D01*
X121385713Y-77126491D02*
X121042856Y-77126491D01*
X121214285Y-77126491D02*
X121214285Y-76526491D01*
X121214285Y-76526491D02*
X121157142Y-76612205D01*
X121157142Y-76612205D02*
X121099999Y-76669348D01*
X121099999Y-76669348D02*
X121042856Y-76697920D01*
X121900000Y-76526491D02*
X121785714Y-76526491D01*
X121785714Y-76526491D02*
X121728571Y-76555062D01*
X121728571Y-76555062D02*
X121700000Y-76583634D01*
X121700000Y-76583634D02*
X121642857Y-76669348D01*
X121642857Y-76669348D02*
X121614285Y-76783634D01*
X121614285Y-76783634D02*
X121614285Y-77012205D01*
X121614285Y-77012205D02*
X121642857Y-77069348D01*
X121642857Y-77069348D02*
X121671428Y-77097920D01*
X121671428Y-77097920D02*
X121728571Y-77126491D01*
X121728571Y-77126491D02*
X121842857Y-77126491D01*
X121842857Y-77126491D02*
X121900000Y-77097920D01*
X121900000Y-77097920D02*
X121928571Y-77069348D01*
X121928571Y-77069348D02*
X121957142Y-77012205D01*
X121957142Y-77012205D02*
X121957142Y-76869348D01*
X121957142Y-76869348D02*
X121928571Y-76812205D01*
X121928571Y-76812205D02*
X121900000Y-76783634D01*
X121900000Y-76783634D02*
X121842857Y-76755062D01*
X121842857Y-76755062D02*
X121728571Y-76755062D01*
X121728571Y-76755062D02*
X121671428Y-76783634D01*
X121671428Y-76783634D02*
X121642857Y-76812205D01*
X121642857Y-76812205D02*
X121614285Y-76869348D01*
X150400000Y-111569348D02*
X150371428Y-111597920D01*
X150371428Y-111597920D02*
X150285714Y-111626491D01*
X150285714Y-111626491D02*
X150228571Y-111626491D01*
X150228571Y-111626491D02*
X150142857Y-111597920D01*
X150142857Y-111597920D02*
X150085714Y-111540777D01*
X150085714Y-111540777D02*
X150057143Y-111483634D01*
X150057143Y-111483634D02*
X150028571Y-111369348D01*
X150028571Y-111369348D02*
X150028571Y-111283634D01*
X150028571Y-111283634D02*
X150057143Y-111169348D01*
X150057143Y-111169348D02*
X150085714Y-111112205D01*
X150085714Y-111112205D02*
X150142857Y-111055062D01*
X150142857Y-111055062D02*
X150228571Y-111026491D01*
X150228571Y-111026491D02*
X150285714Y-111026491D01*
X150285714Y-111026491D02*
X150371428Y-111055062D01*
X150371428Y-111055062D02*
X150400000Y-111083634D01*
X150914286Y-111226491D02*
X150914286Y-111626491D01*
X150771428Y-110997920D02*
X150628571Y-111426491D01*
X150628571Y-111426491D02*
X151000000Y-111426491D01*
X134414285Y-114026491D02*
X134214285Y-113740777D01*
X134071428Y-114026491D02*
X134071428Y-113426491D01*
X134071428Y-113426491D02*
X134299999Y-113426491D01*
X134299999Y-113426491D02*
X134357142Y-113455062D01*
X134357142Y-113455062D02*
X134385713Y-113483634D01*
X134385713Y-113483634D02*
X134414285Y-113540777D01*
X134414285Y-113540777D02*
X134414285Y-113626491D01*
X134414285Y-113626491D02*
X134385713Y-113683634D01*
X134385713Y-113683634D02*
X134357142Y-113712205D01*
X134357142Y-113712205D02*
X134299999Y-113740777D01*
X134299999Y-113740777D02*
X134071428Y-113740777D01*
X134642856Y-113483634D02*
X134671428Y-113455062D01*
X134671428Y-113455062D02*
X134728571Y-113426491D01*
X134728571Y-113426491D02*
X134871428Y-113426491D01*
X134871428Y-113426491D02*
X134928571Y-113455062D01*
X134928571Y-113455062D02*
X134957142Y-113483634D01*
X134957142Y-113483634D02*
X134985713Y-113540777D01*
X134985713Y-113540777D02*
X134985713Y-113597920D01*
X134985713Y-113597920D02*
X134957142Y-113683634D01*
X134957142Y-113683634D02*
X134614285Y-114026491D01*
X134614285Y-114026491D02*
X134985713Y-114026491D01*
X135214285Y-113483634D02*
X135242857Y-113455062D01*
X135242857Y-113455062D02*
X135300000Y-113426491D01*
X135300000Y-113426491D02*
X135442857Y-113426491D01*
X135442857Y-113426491D02*
X135500000Y-113455062D01*
X135500000Y-113455062D02*
X135528571Y-113483634D01*
X135528571Y-113483634D02*
X135557142Y-113540777D01*
X135557142Y-113540777D02*
X135557142Y-113597920D01*
X135557142Y-113597920D02*
X135528571Y-113683634D01*
X135528571Y-113683634D02*
X135185714Y-114026491D01*
X135185714Y-114026491D02*
X135557142Y-114026491D01*
X163750000Y-109969348D02*
X163721428Y-109997920D01*
X163721428Y-109997920D02*
X163635714Y-110026491D01*
X163635714Y-110026491D02*
X163578571Y-110026491D01*
X163578571Y-110026491D02*
X163492857Y-109997920D01*
X163492857Y-109997920D02*
X163435714Y-109940777D01*
X163435714Y-109940777D02*
X163407143Y-109883634D01*
X163407143Y-109883634D02*
X163378571Y-109769348D01*
X163378571Y-109769348D02*
X163378571Y-109683634D01*
X163378571Y-109683634D02*
X163407143Y-109569348D01*
X163407143Y-109569348D02*
X163435714Y-109512205D01*
X163435714Y-109512205D02*
X163492857Y-109455062D01*
X163492857Y-109455062D02*
X163578571Y-109426491D01*
X163578571Y-109426491D02*
X163635714Y-109426491D01*
X163635714Y-109426491D02*
X163721428Y-109455062D01*
X163721428Y-109455062D02*
X163750000Y-109483634D01*
X163950000Y-109426491D02*
X164321428Y-109426491D01*
X164321428Y-109426491D02*
X164121428Y-109655062D01*
X164121428Y-109655062D02*
X164207143Y-109655062D01*
X164207143Y-109655062D02*
X164264286Y-109683634D01*
X164264286Y-109683634D02*
X164292857Y-109712205D01*
X164292857Y-109712205D02*
X164321428Y-109769348D01*
X164321428Y-109769348D02*
X164321428Y-109912205D01*
X164321428Y-109912205D02*
X164292857Y-109969348D01*
X164292857Y-109969348D02*
X164264286Y-109997920D01*
X164264286Y-109997920D02*
X164207143Y-110026491D01*
X164207143Y-110026491D02*
X164035714Y-110026491D01*
X164035714Y-110026491D02*
X163978571Y-109997920D01*
X163978571Y-109997920D02*
X163950000Y-109969348D01*
X132024608Y-114253600D02*
X132310322Y-114053600D01*
X132024608Y-113910743D02*
X132624608Y-113910743D01*
X132624608Y-113910743D02*
X132624608Y-114139314D01*
X132624608Y-114139314D02*
X132596037Y-114196457D01*
X132596037Y-114196457D02*
X132567465Y-114225028D01*
X132567465Y-114225028D02*
X132510322Y-114253600D01*
X132510322Y-114253600D02*
X132424608Y-114253600D01*
X132424608Y-114253600D02*
X132367465Y-114225028D01*
X132367465Y-114225028D02*
X132338894Y-114196457D01*
X132338894Y-114196457D02*
X132310322Y-114139314D01*
X132310322Y-114139314D02*
X132310322Y-113910743D01*
X132624608Y-114453600D02*
X132624608Y-114853600D01*
X132624608Y-114853600D02*
X132024608Y-114596457D01*
X143314285Y-116769348D02*
X143285713Y-116797920D01*
X143285713Y-116797920D02*
X143199999Y-116826491D01*
X143199999Y-116826491D02*
X143142856Y-116826491D01*
X143142856Y-116826491D02*
X143057142Y-116797920D01*
X143057142Y-116797920D02*
X142999999Y-116740777D01*
X142999999Y-116740777D02*
X142971428Y-116683634D01*
X142971428Y-116683634D02*
X142942856Y-116569348D01*
X142942856Y-116569348D02*
X142942856Y-116483634D01*
X142942856Y-116483634D02*
X142971428Y-116369348D01*
X142971428Y-116369348D02*
X142999999Y-116312205D01*
X142999999Y-116312205D02*
X143057142Y-116255062D01*
X143057142Y-116255062D02*
X143142856Y-116226491D01*
X143142856Y-116226491D02*
X143199999Y-116226491D01*
X143199999Y-116226491D02*
X143285713Y-116255062D01*
X143285713Y-116255062D02*
X143314285Y-116283634D01*
X143514285Y-116226491D02*
X143885713Y-116226491D01*
X143885713Y-116226491D02*
X143685713Y-116455062D01*
X143685713Y-116455062D02*
X143771428Y-116455062D01*
X143771428Y-116455062D02*
X143828571Y-116483634D01*
X143828571Y-116483634D02*
X143857142Y-116512205D01*
X143857142Y-116512205D02*
X143885713Y-116569348D01*
X143885713Y-116569348D02*
X143885713Y-116712205D01*
X143885713Y-116712205D02*
X143857142Y-116769348D01*
X143857142Y-116769348D02*
X143828571Y-116797920D01*
X143828571Y-116797920D02*
X143771428Y-116826491D01*
X143771428Y-116826491D02*
X143599999Y-116826491D01*
X143599999Y-116826491D02*
X143542856Y-116797920D01*
X143542856Y-116797920D02*
X143514285Y-116769348D01*
X144457142Y-116826491D02*
X144114285Y-116826491D01*
X144285714Y-116826491D02*
X144285714Y-116226491D01*
X144285714Y-116226491D02*
X144228571Y-116312205D01*
X144228571Y-116312205D02*
X144171428Y-116369348D01*
X144171428Y-116369348D02*
X144114285Y-116397920D01*
X134314285Y-125269348D02*
X134285713Y-125297920D01*
X134285713Y-125297920D02*
X134199999Y-125326491D01*
X134199999Y-125326491D02*
X134142856Y-125326491D01*
X134142856Y-125326491D02*
X134057142Y-125297920D01*
X134057142Y-125297920D02*
X133999999Y-125240777D01*
X133999999Y-125240777D02*
X133971428Y-125183634D01*
X133971428Y-125183634D02*
X133942856Y-125069348D01*
X133942856Y-125069348D02*
X133942856Y-124983634D01*
X133942856Y-124983634D02*
X133971428Y-124869348D01*
X133971428Y-124869348D02*
X133999999Y-124812205D01*
X133999999Y-124812205D02*
X134057142Y-124755062D01*
X134057142Y-124755062D02*
X134142856Y-124726491D01*
X134142856Y-124726491D02*
X134199999Y-124726491D01*
X134199999Y-124726491D02*
X134285713Y-124755062D01*
X134285713Y-124755062D02*
X134314285Y-124783634D01*
X134885713Y-125326491D02*
X134542856Y-125326491D01*
X134714285Y-125326491D02*
X134714285Y-124726491D01*
X134714285Y-124726491D02*
X134657142Y-124812205D01*
X134657142Y-124812205D02*
X134599999Y-124869348D01*
X134599999Y-124869348D02*
X134542856Y-124897920D01*
X135228571Y-124983634D02*
X135171428Y-124955062D01*
X135171428Y-124955062D02*
X135142857Y-124926491D01*
X135142857Y-124926491D02*
X135114285Y-124869348D01*
X135114285Y-124869348D02*
X135114285Y-124840777D01*
X135114285Y-124840777D02*
X135142857Y-124783634D01*
X135142857Y-124783634D02*
X135171428Y-124755062D01*
X135171428Y-124755062D02*
X135228571Y-124726491D01*
X135228571Y-124726491D02*
X135342857Y-124726491D01*
X135342857Y-124726491D02*
X135400000Y-124755062D01*
X135400000Y-124755062D02*
X135428571Y-124783634D01*
X135428571Y-124783634D02*
X135457142Y-124840777D01*
X135457142Y-124840777D02*
X135457142Y-124869348D01*
X135457142Y-124869348D02*
X135428571Y-124926491D01*
X135428571Y-124926491D02*
X135400000Y-124955062D01*
X135400000Y-124955062D02*
X135342857Y-124983634D01*
X135342857Y-124983634D02*
X135228571Y-124983634D01*
X135228571Y-124983634D02*
X135171428Y-125012205D01*
X135171428Y-125012205D02*
X135142857Y-125040777D01*
X135142857Y-125040777D02*
X135114285Y-125097920D01*
X135114285Y-125097920D02*
X135114285Y-125212205D01*
X135114285Y-125212205D02*
X135142857Y-125269348D01*
X135142857Y-125269348D02*
X135171428Y-125297920D01*
X135171428Y-125297920D02*
X135228571Y-125326491D01*
X135228571Y-125326491D02*
X135342857Y-125326491D01*
X135342857Y-125326491D02*
X135400000Y-125297920D01*
X135400000Y-125297920D02*
X135428571Y-125269348D01*
X135428571Y-125269348D02*
X135457142Y-125212205D01*
X135457142Y-125212205D02*
X135457142Y-125097920D01*
X135457142Y-125097920D02*
X135428571Y-125040777D01*
X135428571Y-125040777D02*
X135400000Y-125012205D01*
X135400000Y-125012205D02*
X135342857Y-124983634D01*
X151900000Y-111626491D02*
X151700000Y-111340777D01*
X151557143Y-111626491D02*
X151557143Y-111026491D01*
X151557143Y-111026491D02*
X151785714Y-111026491D01*
X151785714Y-111026491D02*
X151842857Y-111055062D01*
X151842857Y-111055062D02*
X151871428Y-111083634D01*
X151871428Y-111083634D02*
X151900000Y-111140777D01*
X151900000Y-111140777D02*
X151900000Y-111226491D01*
X151900000Y-111226491D02*
X151871428Y-111283634D01*
X151871428Y-111283634D02*
X151842857Y-111312205D01*
X151842857Y-111312205D02*
X151785714Y-111340777D01*
X151785714Y-111340777D02*
X151557143Y-111340777D01*
X152128571Y-111083634D02*
X152157143Y-111055062D01*
X152157143Y-111055062D02*
X152214286Y-111026491D01*
X152214286Y-111026491D02*
X152357143Y-111026491D01*
X152357143Y-111026491D02*
X152414286Y-111055062D01*
X152414286Y-111055062D02*
X152442857Y-111083634D01*
X152442857Y-111083634D02*
X152471428Y-111140777D01*
X152471428Y-111140777D02*
X152471428Y-111197920D01*
X152471428Y-111197920D02*
X152442857Y-111283634D01*
X152442857Y-111283634D02*
X152100000Y-111626491D01*
X152100000Y-111626491D02*
X152471428Y-111626491D01*
X122361700Y-71731091D02*
X122361700Y-72159662D01*
X122361700Y-72159662D02*
X122333129Y-72245377D01*
X122333129Y-72245377D02*
X122275986Y-72302520D01*
X122275986Y-72302520D02*
X122190272Y-72331091D01*
X122190272Y-72331091D02*
X122133129Y-72331091D01*
X122618843Y-71788234D02*
X122647415Y-71759662D01*
X122647415Y-71759662D02*
X122704558Y-71731091D01*
X122704558Y-71731091D02*
X122847415Y-71731091D01*
X122847415Y-71731091D02*
X122904558Y-71759662D01*
X122904558Y-71759662D02*
X122933129Y-71788234D01*
X122933129Y-71788234D02*
X122961700Y-71845377D01*
X122961700Y-71845377D02*
X122961700Y-71902520D01*
X122961700Y-71902520D02*
X122933129Y-71988234D01*
X122933129Y-71988234D02*
X122590272Y-72331091D01*
X122590272Y-72331091D02*
X122961700Y-72331091D01*
X166714285Y-113126491D02*
X166514285Y-112840777D01*
X166371428Y-113126491D02*
X166371428Y-112526491D01*
X166371428Y-112526491D02*
X166599999Y-112526491D01*
X166599999Y-112526491D02*
X166657142Y-112555062D01*
X166657142Y-112555062D02*
X166685713Y-112583634D01*
X166685713Y-112583634D02*
X166714285Y-112640777D01*
X166714285Y-112640777D02*
X166714285Y-112726491D01*
X166714285Y-112726491D02*
X166685713Y-112783634D01*
X166685713Y-112783634D02*
X166657142Y-112812205D01*
X166657142Y-112812205D02*
X166599999Y-112840777D01*
X166599999Y-112840777D02*
X166371428Y-112840777D01*
X166914285Y-112526491D02*
X167285713Y-112526491D01*
X167285713Y-112526491D02*
X167085713Y-112755062D01*
X167085713Y-112755062D02*
X167171428Y-112755062D01*
X167171428Y-112755062D02*
X167228571Y-112783634D01*
X167228571Y-112783634D02*
X167257142Y-112812205D01*
X167257142Y-112812205D02*
X167285713Y-112869348D01*
X167285713Y-112869348D02*
X167285713Y-113012205D01*
X167285713Y-113012205D02*
X167257142Y-113069348D01*
X167257142Y-113069348D02*
X167228571Y-113097920D01*
X167228571Y-113097920D02*
X167171428Y-113126491D01*
X167171428Y-113126491D02*
X166999999Y-113126491D01*
X166999999Y-113126491D02*
X166942856Y-113097920D01*
X166942856Y-113097920D02*
X166914285Y-113069348D01*
X167657142Y-112526491D02*
X167714285Y-112526491D01*
X167714285Y-112526491D02*
X167771428Y-112555062D01*
X167771428Y-112555062D02*
X167800000Y-112583634D01*
X167800000Y-112583634D02*
X167828571Y-112640777D01*
X167828571Y-112640777D02*
X167857142Y-112755062D01*
X167857142Y-112755062D02*
X167857142Y-112897920D01*
X167857142Y-112897920D02*
X167828571Y-113012205D01*
X167828571Y-113012205D02*
X167800000Y-113069348D01*
X167800000Y-113069348D02*
X167771428Y-113097920D01*
X167771428Y-113097920D02*
X167714285Y-113126491D01*
X167714285Y-113126491D02*
X167657142Y-113126491D01*
X167657142Y-113126491D02*
X167600000Y-113097920D01*
X167600000Y-113097920D02*
X167571428Y-113069348D01*
X167571428Y-113069348D02*
X167542857Y-113012205D01*
X167542857Y-113012205D02*
X167514285Y-112897920D01*
X167514285Y-112897920D02*
X167514285Y-112755062D01*
X167514285Y-112755062D02*
X167542857Y-112640777D01*
X167542857Y-112640777D02*
X167571428Y-112583634D01*
X167571428Y-112583634D02*
X167600000Y-112555062D01*
X167600000Y-112555062D02*
X167657142Y-112526491D01*
D15*
X135163553Y-138830276D02*
X136005473Y-138830276D01*
X136005473Y-138830276D02*
X136173857Y-138886404D01*
X136173857Y-138886404D02*
X136286113Y-138998660D01*
X136286113Y-138998660D02*
X136342240Y-139167044D01*
X136342240Y-139167044D02*
X136342240Y-139279300D01*
X136342240Y-137651589D02*
X136342240Y-138325125D01*
X136342240Y-137988357D02*
X135163553Y-137988357D01*
X135163553Y-137988357D02*
X135331937Y-138100613D01*
X135331937Y-138100613D02*
X135444193Y-138212869D01*
X135444193Y-138212869D02*
X135500321Y-138325125D01*
D12*
X121014285Y-125326491D02*
X120814285Y-125040777D01*
X120671428Y-125326491D02*
X120671428Y-124726491D01*
X120671428Y-124726491D02*
X120899999Y-124726491D01*
X120899999Y-124726491D02*
X120957142Y-124755062D01*
X120957142Y-124755062D02*
X120985713Y-124783634D01*
X120985713Y-124783634D02*
X121014285Y-124840777D01*
X121014285Y-124840777D02*
X121014285Y-124926491D01*
X121014285Y-124926491D02*
X120985713Y-124983634D01*
X120985713Y-124983634D02*
X120957142Y-125012205D01*
X120957142Y-125012205D02*
X120899999Y-125040777D01*
X120899999Y-125040777D02*
X120671428Y-125040777D01*
X121242856Y-124783634D02*
X121271428Y-124755062D01*
X121271428Y-124755062D02*
X121328571Y-124726491D01*
X121328571Y-124726491D02*
X121471428Y-124726491D01*
X121471428Y-124726491D02*
X121528571Y-124755062D01*
X121528571Y-124755062D02*
X121557142Y-124783634D01*
X121557142Y-124783634D02*
X121585713Y-124840777D01*
X121585713Y-124840777D02*
X121585713Y-124897920D01*
X121585713Y-124897920D02*
X121557142Y-124983634D01*
X121557142Y-124983634D02*
X121214285Y-125326491D01*
X121214285Y-125326491D02*
X121585713Y-125326491D01*
X122157142Y-125326491D02*
X121814285Y-125326491D01*
X121985714Y-125326491D02*
X121985714Y-124726491D01*
X121985714Y-124726491D02*
X121928571Y-124812205D01*
X121928571Y-124812205D02*
X121871428Y-124869348D01*
X121871428Y-124869348D02*
X121814285Y-124897920D01*
X116814285Y-86369348D02*
X116785713Y-86397920D01*
X116785713Y-86397920D02*
X116699999Y-86426491D01*
X116699999Y-86426491D02*
X116642856Y-86426491D01*
X116642856Y-86426491D02*
X116557142Y-86397920D01*
X116557142Y-86397920D02*
X116499999Y-86340777D01*
X116499999Y-86340777D02*
X116471428Y-86283634D01*
X116471428Y-86283634D02*
X116442856Y-86169348D01*
X116442856Y-86169348D02*
X116442856Y-86083634D01*
X116442856Y-86083634D02*
X116471428Y-85969348D01*
X116471428Y-85969348D02*
X116499999Y-85912205D01*
X116499999Y-85912205D02*
X116557142Y-85855062D01*
X116557142Y-85855062D02*
X116642856Y-85826491D01*
X116642856Y-85826491D02*
X116699999Y-85826491D01*
X116699999Y-85826491D02*
X116785713Y-85855062D01*
X116785713Y-85855062D02*
X116814285Y-85883634D01*
X117042856Y-85883634D02*
X117071428Y-85855062D01*
X117071428Y-85855062D02*
X117128571Y-85826491D01*
X117128571Y-85826491D02*
X117271428Y-85826491D01*
X117271428Y-85826491D02*
X117328571Y-85855062D01*
X117328571Y-85855062D02*
X117357142Y-85883634D01*
X117357142Y-85883634D02*
X117385713Y-85940777D01*
X117385713Y-85940777D02*
X117385713Y-85997920D01*
X117385713Y-85997920D02*
X117357142Y-86083634D01*
X117357142Y-86083634D02*
X117014285Y-86426491D01*
X117014285Y-86426491D02*
X117385713Y-86426491D01*
X117671428Y-86426491D02*
X117785714Y-86426491D01*
X117785714Y-86426491D02*
X117842857Y-86397920D01*
X117842857Y-86397920D02*
X117871428Y-86369348D01*
X117871428Y-86369348D02*
X117928571Y-86283634D01*
X117928571Y-86283634D02*
X117957142Y-86169348D01*
X117957142Y-86169348D02*
X117957142Y-85940777D01*
X117957142Y-85940777D02*
X117928571Y-85883634D01*
X117928571Y-85883634D02*
X117900000Y-85855062D01*
X117900000Y-85855062D02*
X117842857Y-85826491D01*
X117842857Y-85826491D02*
X117728571Y-85826491D01*
X117728571Y-85826491D02*
X117671428Y-85855062D01*
X117671428Y-85855062D02*
X117642857Y-85883634D01*
X117642857Y-85883634D02*
X117614285Y-85940777D01*
X117614285Y-85940777D02*
X117614285Y-86083634D01*
X117614285Y-86083634D02*
X117642857Y-86140777D01*
X117642857Y-86140777D02*
X117671428Y-86169348D01*
X117671428Y-86169348D02*
X117728571Y-86197920D01*
X117728571Y-86197920D02*
X117842857Y-86197920D01*
X117842857Y-86197920D02*
X117900000Y-86169348D01*
X117900000Y-86169348D02*
X117928571Y-86140777D01*
X117928571Y-86140777D02*
X117957142Y-86083634D01*
X118586814Y-114984251D02*
X118615386Y-114955680D01*
X118615386Y-114955680D02*
X118701100Y-114927108D01*
X118701100Y-114927108D02*
X118758243Y-114927108D01*
X118758243Y-114927108D02*
X118843957Y-114955680D01*
X118843957Y-114955680D02*
X118901100Y-115012822D01*
X118901100Y-115012822D02*
X118929671Y-115069965D01*
X118929671Y-115069965D02*
X118958243Y-115184251D01*
X118958243Y-115184251D02*
X118958243Y-115269965D01*
X118958243Y-115269965D02*
X118929671Y-115384251D01*
X118929671Y-115384251D02*
X118901100Y-115441394D01*
X118901100Y-115441394D02*
X118843957Y-115498537D01*
X118843957Y-115498537D02*
X118758243Y-115527108D01*
X118758243Y-115527108D02*
X118701100Y-115527108D01*
X118701100Y-115527108D02*
X118615386Y-115498537D01*
X118615386Y-115498537D02*
X118586814Y-115469965D01*
X118358243Y-115469965D02*
X118329671Y-115498537D01*
X118329671Y-115498537D02*
X118272529Y-115527108D01*
X118272529Y-115527108D02*
X118129671Y-115527108D01*
X118129671Y-115527108D02*
X118072529Y-115498537D01*
X118072529Y-115498537D02*
X118043957Y-115469965D01*
X118043957Y-115469965D02*
X118015386Y-115412822D01*
X118015386Y-115412822D02*
X118015386Y-115355680D01*
X118015386Y-115355680D02*
X118043957Y-115269965D01*
X118043957Y-115269965D02*
X118386814Y-114927108D01*
X118386814Y-114927108D02*
X118015386Y-114927108D01*
X117643957Y-115527108D02*
X117586814Y-115527108D01*
X117586814Y-115527108D02*
X117529671Y-115498537D01*
X117529671Y-115498537D02*
X117501100Y-115469965D01*
X117501100Y-115469965D02*
X117472528Y-115412822D01*
X117472528Y-115412822D02*
X117443957Y-115298537D01*
X117443957Y-115298537D02*
X117443957Y-115155680D01*
X117443957Y-115155680D02*
X117472528Y-115041394D01*
X117472528Y-115041394D02*
X117501100Y-114984251D01*
X117501100Y-114984251D02*
X117529671Y-114955680D01*
X117529671Y-114955680D02*
X117586814Y-114927108D01*
X117586814Y-114927108D02*
X117643957Y-114927108D01*
X117643957Y-114927108D02*
X117701100Y-114955680D01*
X117701100Y-114955680D02*
X117729671Y-114984251D01*
X117729671Y-114984251D02*
X117758242Y-115041394D01*
X117758242Y-115041394D02*
X117786814Y-115155680D01*
X117786814Y-115155680D02*
X117786814Y-115298537D01*
X117786814Y-115298537D02*
X117758242Y-115412822D01*
X117758242Y-115412822D02*
X117729671Y-115469965D01*
X117729671Y-115469965D02*
X117701100Y-115498537D01*
X117701100Y-115498537D02*
X117643957Y-115527108D01*
X138914285Y-110769348D02*
X138885713Y-110797920D01*
X138885713Y-110797920D02*
X138799999Y-110826491D01*
X138799999Y-110826491D02*
X138742856Y-110826491D01*
X138742856Y-110826491D02*
X138657142Y-110797920D01*
X138657142Y-110797920D02*
X138599999Y-110740777D01*
X138599999Y-110740777D02*
X138571428Y-110683634D01*
X138571428Y-110683634D02*
X138542856Y-110569348D01*
X138542856Y-110569348D02*
X138542856Y-110483634D01*
X138542856Y-110483634D02*
X138571428Y-110369348D01*
X138571428Y-110369348D02*
X138599999Y-110312205D01*
X138599999Y-110312205D02*
X138657142Y-110255062D01*
X138657142Y-110255062D02*
X138742856Y-110226491D01*
X138742856Y-110226491D02*
X138799999Y-110226491D01*
X138799999Y-110226491D02*
X138885713Y-110255062D01*
X138885713Y-110255062D02*
X138914285Y-110283634D01*
X139114285Y-110226491D02*
X139485713Y-110226491D01*
X139485713Y-110226491D02*
X139285713Y-110455062D01*
X139285713Y-110455062D02*
X139371428Y-110455062D01*
X139371428Y-110455062D02*
X139428571Y-110483634D01*
X139428571Y-110483634D02*
X139457142Y-110512205D01*
X139457142Y-110512205D02*
X139485713Y-110569348D01*
X139485713Y-110569348D02*
X139485713Y-110712205D01*
X139485713Y-110712205D02*
X139457142Y-110769348D01*
X139457142Y-110769348D02*
X139428571Y-110797920D01*
X139428571Y-110797920D02*
X139371428Y-110826491D01*
X139371428Y-110826491D02*
X139199999Y-110826491D01*
X139199999Y-110826491D02*
X139142856Y-110797920D01*
X139142856Y-110797920D02*
X139114285Y-110769348D01*
X139714285Y-110283634D02*
X139742857Y-110255062D01*
X139742857Y-110255062D02*
X139800000Y-110226491D01*
X139800000Y-110226491D02*
X139942857Y-110226491D01*
X139942857Y-110226491D02*
X140000000Y-110255062D01*
X140000000Y-110255062D02*
X140028571Y-110283634D01*
X140028571Y-110283634D02*
X140057142Y-110340777D01*
X140057142Y-110340777D02*
X140057142Y-110397920D01*
X140057142Y-110397920D02*
X140028571Y-110483634D01*
X140028571Y-110483634D02*
X139685714Y-110826491D01*
X139685714Y-110826491D02*
X140057142Y-110826491D01*
X120814285Y-78626491D02*
X120614285Y-78340777D01*
X120471428Y-78626491D02*
X120471428Y-78026491D01*
X120471428Y-78026491D02*
X120699999Y-78026491D01*
X120699999Y-78026491D02*
X120757142Y-78055062D01*
X120757142Y-78055062D02*
X120785713Y-78083634D01*
X120785713Y-78083634D02*
X120814285Y-78140777D01*
X120814285Y-78140777D02*
X120814285Y-78226491D01*
X120814285Y-78226491D02*
X120785713Y-78283634D01*
X120785713Y-78283634D02*
X120757142Y-78312205D01*
X120757142Y-78312205D02*
X120699999Y-78340777D01*
X120699999Y-78340777D02*
X120471428Y-78340777D01*
X121385713Y-78626491D02*
X121042856Y-78626491D01*
X121214285Y-78626491D02*
X121214285Y-78026491D01*
X121214285Y-78026491D02*
X121157142Y-78112205D01*
X121157142Y-78112205D02*
X121099999Y-78169348D01*
X121099999Y-78169348D02*
X121042856Y-78197920D01*
X121928571Y-78026491D02*
X121642857Y-78026491D01*
X121642857Y-78026491D02*
X121614285Y-78312205D01*
X121614285Y-78312205D02*
X121642857Y-78283634D01*
X121642857Y-78283634D02*
X121700000Y-78255062D01*
X121700000Y-78255062D02*
X121842857Y-78255062D01*
X121842857Y-78255062D02*
X121900000Y-78283634D01*
X121900000Y-78283634D02*
X121928571Y-78312205D01*
X121928571Y-78312205D02*
X121957142Y-78369348D01*
X121957142Y-78369348D02*
X121957142Y-78512205D01*
X121957142Y-78512205D02*
X121928571Y-78569348D01*
X121928571Y-78569348D02*
X121900000Y-78597920D01*
X121900000Y-78597920D02*
X121842857Y-78626491D01*
X121842857Y-78626491D02*
X121700000Y-78626491D01*
X121700000Y-78626491D02*
X121642857Y-78597920D01*
X121642857Y-78597920D02*
X121614285Y-78569348D01*
X124814285Y-115469348D02*
X124785713Y-115497920D01*
X124785713Y-115497920D02*
X124699999Y-115526491D01*
X124699999Y-115526491D02*
X124642856Y-115526491D01*
X124642856Y-115526491D02*
X124557142Y-115497920D01*
X124557142Y-115497920D02*
X124499999Y-115440777D01*
X124499999Y-115440777D02*
X124471428Y-115383634D01*
X124471428Y-115383634D02*
X124442856Y-115269348D01*
X124442856Y-115269348D02*
X124442856Y-115183634D01*
X124442856Y-115183634D02*
X124471428Y-115069348D01*
X124471428Y-115069348D02*
X124499999Y-115012205D01*
X124499999Y-115012205D02*
X124557142Y-114955062D01*
X124557142Y-114955062D02*
X124642856Y-114926491D01*
X124642856Y-114926491D02*
X124699999Y-114926491D01*
X124699999Y-114926491D02*
X124785713Y-114955062D01*
X124785713Y-114955062D02*
X124814285Y-114983634D01*
X125042856Y-114983634D02*
X125071428Y-114955062D01*
X125071428Y-114955062D02*
X125128571Y-114926491D01*
X125128571Y-114926491D02*
X125271428Y-114926491D01*
X125271428Y-114926491D02*
X125328571Y-114955062D01*
X125328571Y-114955062D02*
X125357142Y-114983634D01*
X125357142Y-114983634D02*
X125385713Y-115040777D01*
X125385713Y-115040777D02*
X125385713Y-115097920D01*
X125385713Y-115097920D02*
X125357142Y-115183634D01*
X125357142Y-115183634D02*
X125014285Y-115526491D01*
X125014285Y-115526491D02*
X125385713Y-115526491D01*
X125585714Y-114926491D02*
X125957142Y-114926491D01*
X125957142Y-114926491D02*
X125757142Y-115155062D01*
X125757142Y-115155062D02*
X125842857Y-115155062D01*
X125842857Y-115155062D02*
X125900000Y-115183634D01*
X125900000Y-115183634D02*
X125928571Y-115212205D01*
X125928571Y-115212205D02*
X125957142Y-115269348D01*
X125957142Y-115269348D02*
X125957142Y-115412205D01*
X125957142Y-115412205D02*
X125928571Y-115469348D01*
X125928571Y-115469348D02*
X125900000Y-115497920D01*
X125900000Y-115497920D02*
X125842857Y-115526491D01*
X125842857Y-115526491D02*
X125671428Y-115526491D01*
X125671428Y-115526491D02*
X125614285Y-115497920D01*
X125614285Y-115497920D02*
X125585714Y-115469348D01*
X155200000Y-109926491D02*
X155000000Y-109640777D01*
X154857143Y-109926491D02*
X154857143Y-109326491D01*
X154857143Y-109326491D02*
X155085714Y-109326491D01*
X155085714Y-109326491D02*
X155142857Y-109355062D01*
X155142857Y-109355062D02*
X155171428Y-109383634D01*
X155171428Y-109383634D02*
X155200000Y-109440777D01*
X155200000Y-109440777D02*
X155200000Y-109526491D01*
X155200000Y-109526491D02*
X155171428Y-109583634D01*
X155171428Y-109583634D02*
X155142857Y-109612205D01*
X155142857Y-109612205D02*
X155085714Y-109640777D01*
X155085714Y-109640777D02*
X154857143Y-109640777D01*
X155400000Y-109326491D02*
X155771428Y-109326491D01*
X155771428Y-109326491D02*
X155571428Y-109555062D01*
X155571428Y-109555062D02*
X155657143Y-109555062D01*
X155657143Y-109555062D02*
X155714286Y-109583634D01*
X155714286Y-109583634D02*
X155742857Y-109612205D01*
X155742857Y-109612205D02*
X155771428Y-109669348D01*
X155771428Y-109669348D02*
X155771428Y-109812205D01*
X155771428Y-109812205D02*
X155742857Y-109869348D01*
X155742857Y-109869348D02*
X155714286Y-109897920D01*
X155714286Y-109897920D02*
X155657143Y-109926491D01*
X155657143Y-109926491D02*
X155485714Y-109926491D01*
X155485714Y-109926491D02*
X155428571Y-109897920D01*
X155428571Y-109897920D02*
X155400000Y-109869348D01*
X130424608Y-114253600D02*
X130710322Y-114053600D01*
X130424608Y-113910743D02*
X131024608Y-113910743D01*
X131024608Y-113910743D02*
X131024608Y-114139314D01*
X131024608Y-114139314D02*
X130996037Y-114196457D01*
X130996037Y-114196457D02*
X130967465Y-114225028D01*
X130967465Y-114225028D02*
X130910322Y-114253600D01*
X130910322Y-114253600D02*
X130824608Y-114253600D01*
X130824608Y-114253600D02*
X130767465Y-114225028D01*
X130767465Y-114225028D02*
X130738894Y-114196457D01*
X130738894Y-114196457D02*
X130710322Y-114139314D01*
X130710322Y-114139314D02*
X130710322Y-113910743D01*
X130424608Y-114539314D02*
X130424608Y-114653600D01*
X130424608Y-114653600D02*
X130453180Y-114710743D01*
X130453180Y-114710743D02*
X130481751Y-114739314D01*
X130481751Y-114739314D02*
X130567465Y-114796457D01*
X130567465Y-114796457D02*
X130681751Y-114825028D01*
X130681751Y-114825028D02*
X130910322Y-114825028D01*
X130910322Y-114825028D02*
X130967465Y-114796457D01*
X130967465Y-114796457D02*
X130996037Y-114767886D01*
X130996037Y-114767886D02*
X131024608Y-114710743D01*
X131024608Y-114710743D02*
X131024608Y-114596457D01*
X131024608Y-114596457D02*
X130996037Y-114539314D01*
X130996037Y-114539314D02*
X130967465Y-114510743D01*
X130967465Y-114510743D02*
X130910322Y-114482171D01*
X130910322Y-114482171D02*
X130767465Y-114482171D01*
X130767465Y-114482171D02*
X130710322Y-114510743D01*
X130710322Y-114510743D02*
X130681751Y-114539314D01*
X130681751Y-114539314D02*
X130653180Y-114596457D01*
X130653180Y-114596457D02*
X130653180Y-114710743D01*
X130653180Y-114710743D02*
X130681751Y-114767886D01*
X130681751Y-114767886D02*
X130710322Y-114796457D01*
X130710322Y-114796457D02*
X130767465Y-114825028D01*
X173859398Y-113823491D02*
X173859398Y-114252062D01*
X173859398Y-114252062D02*
X173830827Y-114337777D01*
X173830827Y-114337777D02*
X173773684Y-114394920D01*
X173773684Y-114394920D02*
X173687970Y-114423491D01*
X173687970Y-114423491D02*
X173630827Y-114423491D01*
X174402256Y-113823491D02*
X174287970Y-113823491D01*
X174287970Y-113823491D02*
X174230827Y-113852062D01*
X174230827Y-113852062D02*
X174202256Y-113880634D01*
X174202256Y-113880634D02*
X174145113Y-113966348D01*
X174145113Y-113966348D02*
X174116541Y-114080634D01*
X174116541Y-114080634D02*
X174116541Y-114309205D01*
X174116541Y-114309205D02*
X174145113Y-114366348D01*
X174145113Y-114366348D02*
X174173684Y-114394920D01*
X174173684Y-114394920D02*
X174230827Y-114423491D01*
X174230827Y-114423491D02*
X174345113Y-114423491D01*
X174345113Y-114423491D02*
X174402256Y-114394920D01*
X174402256Y-114394920D02*
X174430827Y-114366348D01*
X174430827Y-114366348D02*
X174459398Y-114309205D01*
X174459398Y-114309205D02*
X174459398Y-114166348D01*
X174459398Y-114166348D02*
X174430827Y-114109205D01*
X174430827Y-114109205D02*
X174402256Y-114080634D01*
X174402256Y-114080634D02*
X174345113Y-114052062D01*
X174345113Y-114052062D02*
X174230827Y-114052062D01*
X174230827Y-114052062D02*
X174173684Y-114080634D01*
X174173684Y-114080634D02*
X174145113Y-114109205D01*
X174145113Y-114109205D02*
X174116541Y-114166348D01*
%TO.C,J5*%
D16*
X168330000Y-119565000D02*
X168965000Y-118930000D01*
X168330000Y-120835000D02*
X168330000Y-119565000D01*
X168965000Y-118930000D02*
X170235000Y-118930000D01*
X168965000Y-121470000D02*
X168330000Y-120835000D01*
X170235000Y-118930000D02*
X170870000Y-119565000D01*
X170235000Y-121470000D02*
X168965000Y-121470000D01*
X170870000Y-119565000D02*
X171505000Y-118930000D01*
X170870000Y-120835000D02*
X170235000Y-121470000D01*
X171505000Y-118930000D02*
X172775000Y-118930000D01*
X171505000Y-121470000D02*
X170870000Y-120835000D01*
X172775000Y-121470000D02*
X171505000Y-121470000D01*
X172775000Y-121470000D02*
X173410000Y-120835000D01*
X173410000Y-119565000D02*
X172775000Y-118930000D01*
X173410000Y-120835000D02*
X173410000Y-119565000D01*
%TO.C,U1*%
D11*
X116972200Y-89374700D02*
X116972200Y-90115053D01*
X116972200Y-93892147D02*
X116972200Y-94632500D01*
X116972200Y-94632500D02*
X117712553Y-94632500D01*
X117712553Y-89374700D02*
X116972200Y-89374700D01*
X121489647Y-94632500D02*
X122230000Y-94632500D01*
X122230000Y-89374700D02*
X121489647Y-89374700D01*
X122230000Y-90115053D02*
X122230000Y-89374700D01*
X122230000Y-94632500D02*
X122230000Y-93892147D01*
D10*
X122577274Y-90537659D02*
X123024926Y-90537659D01*
X123024926Y-91003600D01*
X122577274Y-91003600D01*
X122577274Y-90537659D01*
G36*
X122577274Y-90537659D02*
G01*
X123024926Y-90537659D01*
X123024926Y-91003600D01*
X122577274Y-91003600D01*
X122577274Y-90537659D01*
G37*
%TO.C,IC2*%
D11*
X156150900Y-116301100D02*
X156150900Y-118206100D01*
X159351300Y-118206100D02*
X159351300Y-116301100D01*
%TO.C,IC1*%
D17*
X131001100Y-115503600D02*
X131201100Y-115503600D01*
X131001100Y-115703600D02*
X131001100Y-115503600D01*
X131001100Y-119503600D02*
X131001100Y-119303600D01*
X131201100Y-119503600D02*
X131001100Y-119503600D01*
X134801100Y-115503600D02*
X135001100Y-115503600D01*
X135001100Y-115503600D02*
X135001100Y-115703600D01*
X135001100Y-119303600D02*
X135001100Y-119503600D01*
X135001100Y-119503600D02*
X134801100Y-119503600D01*
D18*
X134451100Y-114653600D02*
G75*
G02*
X134251100Y-114653600I-100000J0D01*
G01*
X134251100Y-114653600D02*
G75*
G02*
X134451100Y-114653600I100000J0D01*
G01*
%TO.C,J4*%
D16*
X114530000Y-81195000D02*
X115165000Y-80560000D01*
X114530000Y-82465000D02*
X114530000Y-81195000D01*
X114530000Y-83735000D02*
X115165000Y-83100000D01*
X114530000Y-85005000D02*
X114530000Y-83735000D01*
X114530000Y-85005000D02*
X115165000Y-85640000D01*
X115165000Y-80560000D02*
X116435000Y-80560000D01*
X115165000Y-83100000D02*
X114530000Y-82465000D01*
X115165000Y-85640000D02*
X116435000Y-85640000D01*
X116435000Y-80560000D02*
X117070000Y-81195000D01*
X116435000Y-83100000D02*
X117070000Y-83735000D01*
X116435000Y-85640000D02*
X117070000Y-85005000D01*
X117070000Y-81195000D02*
X117070000Y-82465000D01*
X117070000Y-82465000D02*
X116435000Y-83100000D01*
X117070000Y-83735000D02*
X117070000Y-85005000D01*
%TO.C,D1*%
X118030000Y-78740000D02*
X118030000Y-79200000D01*
X118030000Y-79200000D02*
X118340000Y-78966200D01*
X118030000Y-79660000D02*
X118030000Y-79200000D01*
X118045400Y-79225400D02*
X118340000Y-79418400D01*
%TO.C,J3*%
D17*
X124201100Y-126203600D02*
X130201100Y-126203600D01*
X124201100Y-127783600D02*
X124201100Y-126203600D01*
X124201100Y-131783600D02*
X124201100Y-130623600D01*
X124201100Y-140003600D02*
X124201100Y-137623600D01*
X124401100Y-140003600D02*
X124401100Y-141203600D01*
X124401100Y-141203600D02*
X130001100Y-141203600D01*
X130001100Y-140003600D02*
X124201100Y-140003600D01*
X130001100Y-141203600D02*
X130001100Y-140003600D01*
X130201100Y-126203600D02*
X130201100Y-126283600D01*
X130201100Y-129123600D02*
X130201100Y-140003600D01*
X130201100Y-140003600D02*
X130001100Y-140003600D01*
D18*
X131001100Y-125603600D02*
G75*
G02*
X130801100Y-125603600I-100000J0D01*
G01*
X130801100Y-125603600D02*
G75*
G02*
X131001100Y-125603600I100000J0D01*
G01*
%TO.C,J2*%
D16*
X123121100Y-71568600D02*
X123121100Y-72838600D01*
X123121100Y-72838600D02*
X123756100Y-73473600D01*
X123756100Y-70933600D02*
X123121100Y-71568600D01*
X123756100Y-70933600D02*
X125026100Y-70933600D01*
X125026100Y-70933600D02*
X125661100Y-71568600D01*
X125026100Y-73473600D02*
X123756100Y-73473600D01*
X125661100Y-71568600D02*
X126296100Y-70933600D01*
X125661100Y-72838600D02*
X125026100Y-73473600D01*
X126296100Y-70933600D02*
X127566100Y-70933600D01*
X126296100Y-73473600D02*
X125661100Y-72838600D01*
X127566100Y-70933600D02*
X128201100Y-71568600D01*
X127566100Y-73473600D02*
X126296100Y-73473600D01*
X128201100Y-71568600D02*
X128836100Y-70933600D01*
X128201100Y-72838600D02*
X127566100Y-73473600D01*
X128836100Y-70933600D02*
X130106100Y-70933600D01*
X128836100Y-73473600D02*
X128201100Y-72838600D01*
X130106100Y-70933600D02*
X130741100Y-71568600D01*
X130106100Y-73473600D02*
X128836100Y-73473600D01*
X130741100Y-72838600D02*
X130106100Y-73473600D01*
X130741100Y-72838600D02*
X131376100Y-73473600D01*
X131376100Y-70933600D02*
X130741100Y-71568600D01*
X131376100Y-70933600D02*
X132646100Y-70933600D01*
X132646100Y-70933600D02*
X133281100Y-71568600D01*
X132646100Y-73473600D02*
X131376100Y-73473600D01*
X133281100Y-71568600D02*
X133916100Y-70933600D01*
X133281100Y-72838600D02*
X132646100Y-73473600D01*
X133916100Y-70933600D02*
X135186100Y-70933600D01*
X133916100Y-73473600D02*
X133281100Y-72838600D01*
X135186100Y-70933600D02*
X135821100Y-71568600D01*
X135186100Y-73473600D02*
X133916100Y-73473600D01*
X135821100Y-71568600D02*
X136456100Y-70933600D01*
X135821100Y-72838600D02*
X135186100Y-73473600D01*
X136456100Y-70933600D02*
X137726100Y-70933600D01*
X136456100Y-73473600D02*
X135821100Y-72838600D01*
X137726100Y-70933600D02*
X138361100Y-71568600D01*
X137726100Y-73473600D02*
X136456100Y-73473600D01*
X138361100Y-72838600D02*
X137726100Y-73473600D01*
X138361100Y-72838600D02*
X138996100Y-73473600D01*
X138996100Y-70933600D02*
X138361100Y-71568600D01*
X138996100Y-70933600D02*
X140266100Y-70933600D01*
X140266100Y-70933600D02*
X140901100Y-71568600D01*
X140266100Y-73473600D02*
X138996100Y-73473600D01*
X140901100Y-72838600D02*
X140266100Y-73473600D01*
X140901100Y-72838600D02*
X141536100Y-73473600D01*
X141536100Y-70933600D02*
X140901100Y-71568600D01*
X141536100Y-70933600D02*
X142806100Y-70933600D01*
X142806100Y-70933600D02*
X143441100Y-71568600D01*
X142806100Y-73473600D02*
X141536100Y-73473600D01*
X143441100Y-72838600D02*
X142806100Y-73473600D01*
X143441100Y-72838600D02*
X144076100Y-73473600D01*
X144076100Y-70933600D02*
X143441100Y-71568600D01*
X144076100Y-70933600D02*
X145346100Y-70933600D01*
X145346100Y-70933600D02*
X145981100Y-71568600D01*
X145346100Y-73473600D02*
X144076100Y-73473600D01*
X145981100Y-72838600D02*
X145346100Y-73473600D01*
X145981100Y-72838600D02*
X146616100Y-73473600D01*
X146616100Y-70933600D02*
X145981100Y-71568600D01*
X146616100Y-70933600D02*
X147886100Y-70933600D01*
X147886100Y-70933600D02*
X148521100Y-71568600D01*
X147886100Y-73473600D02*
X146616100Y-73473600D01*
X148521100Y-71568600D02*
X148521100Y-72838600D01*
X148521100Y-72838600D02*
X147886100Y-73473600D01*
%TO.C,J1*%
D17*
X137001100Y-125503600D02*
X143001100Y-125503600D01*
X137001100Y-134303600D02*
X137001100Y-125503600D01*
X137001100Y-140003600D02*
X137001100Y-136903600D01*
X137501100Y-140003600D02*
X137001100Y-140003600D01*
X137501100Y-140003600D02*
X137501100Y-142503600D01*
X137501100Y-142503600D02*
X142501100Y-142503600D01*
X142501100Y-140003600D02*
X137501100Y-140003600D01*
X142501100Y-142503600D02*
X142501100Y-140003600D01*
X143001100Y-126603600D02*
X143001100Y-125503600D01*
X143001100Y-136303600D02*
X143001100Y-129803600D01*
X143001100Y-140003600D02*
X142501100Y-140003600D01*
X143001100Y-140003600D02*
X143001100Y-138903600D01*
D18*
X143401100Y-140803600D02*
G75*
G02*
X143201100Y-140803600I-100000J0D01*
G01*
X143201100Y-140803600D02*
G75*
G02*
X143401100Y-140803600I100000J0D01*
G01*
%TO.C,J6*%
D16*
X168330000Y-113565000D02*
X168965000Y-112930000D01*
X168330000Y-114835000D02*
X168330000Y-113565000D01*
X168965000Y-112930000D02*
X170235000Y-112930000D01*
X168965000Y-115470000D02*
X168330000Y-114835000D01*
X170235000Y-112930000D02*
X170870000Y-113565000D01*
X170235000Y-115470000D02*
X168965000Y-115470000D01*
X170870000Y-113565000D02*
X171505000Y-112930000D01*
X170870000Y-114835000D02*
X170235000Y-115470000D01*
X171505000Y-112930000D02*
X172775000Y-112930000D01*
X171505000Y-115470000D02*
X170870000Y-114835000D01*
X172775000Y-115470000D02*
X171505000Y-115470000D01*
X172775000Y-115470000D02*
X173410000Y-114835000D01*
X173410000Y-113565000D02*
X172775000Y-112930000D01*
X173410000Y-114835000D02*
X173410000Y-113565000D01*
%TD*%
M02*
